<?xml version="1.0" encoding="utf-8"?>
<!-- Generator: Adobe Illustrator 24.0.0, SVG Export Plug-In . SVG Version: 6.00 Build 0)  -->
<svg version="1.1" id="Layer_1" xmlns="http://www.w3.org/2000/svg" xmlns:xlink="http://www.w3.org/1999/xlink" x="0px" y="0px"
	 viewBox="0 0 216 108" style="enable-background:new 0 0 216 108;" xml:space="preserve">
<style type="text/css">
	.st0{fill:#F29123;}
	.st1{fill:#16355A;}
</style>
<g>
	<g>
		<path class="st0" d="M101.4,43.6c-1-0.4-1.8-0.8-2.5-1.4c-0.7-0.5-1.3-1.2-1.6-1.8h-5.7c1.2,2.3,2.7,4.2,4.4,5.5
			c2.1,1.5,4.2,2.2,6.2,2.2l6.2-3.3c-1.3,0-2.6-0.1-3.7-0.3C103.5,44.3,102.4,44,101.4,43.6z"/>
		<path class="st0" d="M8.6,9v4.8h5.7c-0.7,0.8-1.2,1.6-1.5,2.4c-0.3,0.9-0.5,1.9-0.5,3c0,1.3,0.3,2.5,0.7,3.5
			c0.5,1.1,1.3,2.1,2.5,3.2c-1.7,2.4-2.6,4.7-2.6,6.7c0,3.5,1.4,6.4,4.1,8.5c1.3,1,2.8,1.8,4.5,2.3c1.7,0.5,3.5,0.7,5.4,0.7h1.2
			c0.4,0,0.9,0,1.5-0.1v-5c-1.7,0.2-2.9,0.3-3.5,0.3c-2.4,0-4.3-0.6-5.7-1.8c-1.4-1.2-2.1-2.8-2.1-4.9c0-0.9,0.2-1.8,0.7-2.6
			c0.5-0.8,1-1.5,1.8-2.1c1.7-1.1,3.7-1.7,5.8-1.7c1.7,0,3.2,0.4,4.5,1.1c1.3,0.7,2.3,1.7,3,3c0.5,1,0.8,2.3,1.1,3.8
			c0.3,1.5,0.4,3.3,0.4,5.2v5.1h5.5V13.8h6.4v31.5h5.5V13.8h6.2c-0.7,0.8-1.2,1.6-1.5,2.4c-0.3,0.9-0.5,1.9-0.5,3
			c0,1.3,0.3,2.5,0.7,3.5c0.5,1.1,1.3,2.1,2.5,3.2c-1.7,2.4-2.6,4.7-2.6,6.7c0,3.5,1.4,6.4,4.1,8.5c1.3,1,2.8,1.8,4.5,2.3
			c1.7,0.5,3.5,0.7,5.4,0.7H73c0.4,0,0.9,0,1.5-0.1v-5c-1.7,0.2-2.8,0.3-3.6,0.3c-2.4,0-4.3-0.6-5.7-1.8c-1.4-1.2-2.1-2.8-2.1-4.9
			c0-0.9,0.2-1.8,0.7-2.6c0.4-0.8,1-1.5,1.8-2.1c1.7-1.1,3.7-1.7,5.8-1.7c1.7,0,3.2,0.4,4.5,1.1s2.3,1.7,3,3c0.4,1,0.8,2.3,1.1,3.8
			c0.3,1.5,0.4,3.3,0.4,5.2v4c0.2,0,0.4,0,0.6,0c1.7,0,3.3,0.3,4.9,0.8V13.8h22.3v1.5c-4.4,0.2-8.1,1.4-11,3.5
			c-1.6,1.3-2.8,2.7-3.7,4.5c-0.9,1.7-1.3,3.6-1.3,5.6c0,9.7,7.2,14.5,21.5,14.5V13.8h5c0,0,0.8-2.6,3.3-4.8H8.6z M35.5,24.8
			c-1.1-1.1-2.3-2-3.8-2.5c-1.5-0.5-3.2-0.8-5.2-0.8c-2.6,0-5,0.5-7,1.5c-1.4-0.5-2-1.7-2-3.7c0-2.5,1.6-3.8,4.7-3.8
			c1.6,0,3.6,0.7,5.8,2v-3.6h7.5L35.5,24.8L35.5,24.8z M80.5,24.8c-1.1-1.1-2.3-2-3.8-2.5s-3.2-0.8-5.2-0.8c-2.7,0-5,0.5-7,1.5
			c-1.3-0.5-2-1.7-2-3.7c0-2.5,1.6-3.8,4.7-3.8c1.6,0,3.6,0.7,5.8,2v-3.6h7.5L80.5,24.8L80.5,24.8z M108.3,38.5
			c-1.5-0.1-2.8-0.3-4.2-0.8c-1.3-0.4-2.4-1-3.4-1.7c-1.1-0.9-1.9-1.9-2.4-3.1c-0.6-1.2-0.9-2.5-0.9-4c0-2.8,1.1-5,3.4-6.5
			c1-0.6,2.1-1.1,3.3-1.5c1.2-0.4,2.6-0.5,4.1-0.6L108.3,38.5L108.3,38.5z"/>
	</g>
	<polygon class="st0" points="115.5,58.9 117.1,58.9 117.1,62.5 112.9,62.5 112.9,60.2 115.5,60.2 	"/>
	<rect x="112.8" y="65.9" class="st0" width="4" height="3.5"/>
	<rect x="111.9" y="49.9" class="st0" width="6.4" height="5.6"/>
	<rect x="100" y="56.6" class="st0" width="9.9" height="8.7"/>
	<g>
		<path class="st1" d="M191.6,42.4c-0.9-0.4-1.8-0.8-2.4-1.3s-1.2-1.1-1.6-1.8h-5.5c1.1,2.3,2.6,4,4.3,5.3c2,1.4,4,2.1,6,2.1l6-3.2
			c-1.3,0-2.5-0.1-3.6-0.3C193.5,43.1,192.5,42.8,191.6,42.4z"/>
	</g>
	<rect x="118.3" y="56.4" class="st1" width="6.7" height="5.9"/>
	<rect x="103.2" y="48.5" class="st1" width="6.7" height="5.9"/>
	<rect x="118.3" y="63.6" class="st1" width="2.6" height="2.3"/>
	<rect x="111.1" y="56.5" class="st1" width="3.6" height="3.2"/>
	<path class="st1" d="M95.3,53.8c-0.9-1.7-2.2-3.2-3.8-4.5c-1.6-1.4-3.3-2.4-5.1-3.1c-1.8-0.7-3.6-1-5.3-1c-1.1,0-2.2,0.1-3.1,0.4
		c-1,0.3-1.9,0.6-2.7,1c-0.9,0.6-1.6,1.3-2.1,2.1c-0.5,0.8-0.7,1.7-0.7,2.8c0,2,0.8,3.6,2.3,4.8c1.6,1.1,3.4,1.6,5.5,1.6
		c3.2,0,5.9-1.6,7.9-4.8c1.8,1,2.9,3,3.4,5.9h5C96.6,57.2,96.2,55.5,95.3,53.8z M79.8,53.3c-1.3,0-1.9-0.5-1.9-1.6
		c0-0.6,0.3-1.1,0.9-1.5c0.6-0.4,1.3-0.6,2-0.6c1.2,0,2.1,0.5,2.7,1.5C83,52.7,81.7,53.3,79.8,53.3z"/>
	<path class="st1" d="M97.8,67.3v-2.2c-5.6,7-13.4,11.2-23.1,13.4C69,79.8,64.6,82.8,61.1,87c-7.8,9.2-18.2,10-27.9,2.3
		c-8.1-6.4-12.5-14.6-13.6-24C19,59.7,21.8,55,26.2,51.1c1.1-0.9,2.5-1.5,4-1.7c1.7-0.2,3.5,0.1,4.6,1.2c0.9,0.9,0.9,2.6,0.4,3.7
		c-2,4.3-6.3,6.8-11.5,7.8c3.4,11.5,16.5,14.2,24.6,21.7c1.2-1.9,2.4-3.5,3.4-5.2c2.1-3.5,5-6.2,9.2-7.4c1.6-0.5,1.8-1.4,2-2.6
		c0.7-5.4,3.4-9.8,7.8-13.3c-0.4-0.8-0.7-1.7-0.8-2.6c-1.4,1.1-2.8,2.2-4.3,3.3c-4.1,3.3-7.7,6.8-5.7,12.4
		C54.3,70.8,48.5,73,48.2,80c-6.3-4-13.1-6.9-18.2-11.8c-1.9-1.8-1.5-2.9,0.4-4.1c2.3-1.4,4.7-2.6,6.9-4.2c3.7-2.5,3.7-6.5,0.4-10.3
		c-2.4-2.8-5.3-3.2-9.2-1.4c-9.8,4.5-13.9,16.3-9.1,26.5c1.5,3.2,3,6.5,4.5,9.8c0,0,3.4,5.3,8.9,10.4c5.5,5.1,13.2,10.1,21.7,9.5
		c4-1,7.6-1.9,11.1-2.9c5.7-1.6,10.9-4.3,13.8-9.1c1.7-2.7,3.8-4.9,6.3-6.4c0,0,0,0,0,0c4.9-4.4,12.7-9.1,16.8-11.9
		c2.5-1.8,4.4-3.7,6.6-6.6C109,67.3,97.8,67.3,97.8,67.3z"/>
	<path class="st1" d="M126.4,9.1c-2.3,1.8-4.1,3.9-5.3,6.3c-0.8,1.6-1.3,3.1-1.6,4.7c0,0,0,0,0,0c0,0,0,0.1-0.1,0.3
		c0,0.1,0,0.1,0,0.2c-0.1,0.6-0.2,1.1-0.2,1.6c-0.1,0.6-0.1,1.4-0.1,2.2c0,5.8,1.6,15.9,12,22.3l2.9-4.1c0,0-2.4-1.7-4.9-4.7
		c-2.1-2.6-4.2-6.1-4.8-10.3c0,0,0,0,0,0c-0.1-0.9-0.2-1.7-0.1-2.6c0-1.2,0.1-2.2,0.3-3.2c0.2-0.9,0.4-1.8,0.6-2.5
		c0-0.1,0-0.1,0.1-0.2c0.9-2.5,2.3-4.1,3.3-4.9c0.2-0.1,0.4-0.3,0.6-0.4l0.3-0.2h14.7v14.5h10.2c0.3,0.4,0.5,0.9,0.6,1.3
		c0.1,0.4,0.2,0.9,0.2,1.4c0,1.9-0.8,3.6-2.4,5.1c-1.5,1.4-3.4,2.2-5.5,2.2c-6.2,0-9.3-4.6-9.3-13.8c0-0.5,0-1.1,0-1.8
		c0-0.7,0.1-1.5,0.1-2.5c0-0.2,0-0.4,0-0.7c0-0.3,0.1-0.5,0.1-0.7c0-0.6,0.1-1.3,0.1-2v-1.7h-5.3v15c0,1.3,0.5,2.9,1.4,4.8
		c0.4,0.8,0.9,1.6,1.4,2.3c0.5,0.7,1.1,1.3,1.8,1.9c1.5,1.3,3.2,2.2,4.9,2.9s3.5,1,5.4,1c3.6,0,6.6-1.3,9.1-4
		c2.3-2.4,3.5-5.2,3.5-8.5c0-2.5-0.9-4.8-2.7-6.9h-8.3v-3.3h8.5c1.6,1,2.8,2.4,3.5,4.2c0.8,1.8,1.1,3.9,1.1,6.5
		c0,0.7-0.1,1.5-0.4,2.3c-0.3,0.9-0.6,1.8-1.1,2.8c-0.6,0.9-1.2,1.8-1.8,2.5s-1.4,1.3-2.2,1.7l1.3,4.5c3.2-1.5,5.6-3.9,7.1-7.2
		c1.4-2.9,2.1-5.8,2.1-8.5c0-2.3-0.6-4.7-1.8-7.1c-1.2-2.3-3-4.3-5.2-6.1h-11.1v-1.9H173v30.3h5.3V13.7h19.8v1.4
		c-4.3,0.2-7.8,1.3-10.6,3.4c-1.5,1.2-2.7,2.6-3.5,4.3c-0.9,1.6-1.3,3.5-1.3,5.4c0,9.3,6.9,14,20.7,14V13.7h4.5V9.1H126.4z
		 M198.1,37.5c-1.4-0.1-2.7-0.3-4-0.7c-1.3-0.4-2.3-1-3.3-1.7c-1-0.8-1.8-1.8-2.3-3c-0.6-1.1-0.8-2.4-0.8-3.8c0-2.7,1.1-4.8,3.3-6.3
		c0.9-0.6,2-1.1,3.1-1.4c1.2-0.4,2.5-0.5,4-0.6V37.5z"/>
	<g>
		<g>
			<path class="st0" d="M138.9,56.7c-0.1,0-0.3,0-0.4-0.1c-0.2,0-0.3-0.2-0.3-0.3v-5.5h-0.9v5.5c0,0.1-0.1,0.2-0.3,0.3
				c-0.2,0-0.3,0.1-0.4,0.1s-0.3,0-0.4-0.1c-0.2,0-0.3-0.2-0.3-0.3v-0.7c-0.1-0.1-0.2-0.2-0.3-0.3c-0.2-0.2-0.4-0.3-0.5-0.3
				c0,0.1,0,0.3-0.1,0.4c-0.1,0.3-0.4,0.5-0.7,0.7c-0.6,0.4-1.4,0.6-2.4,0.6c-0.9,0-1.6-0.2-2.3-0.5c-0.5-0.3-0.8-0.7-1-1.2
				c0,0,0-1.3,0-3.8c0-0.1,0.1-0.2,0.3-0.3s0.3-0.1,0.4-0.1s0.3,0,0.4,0.1c0.2,0,0.3,0.2,0.3,0.3c0,2.2,0,3.3,0,3.3c0,0,0,0.1,0,0.1
				c0,0.1,0,0.2,0,0.3c0.1,0.2,0.2,0.4,0.4,0.5c0.2,0.2,0.4,0.2,0.4,0.2c0.3,0.1,0.6,0.2,1.1,0.2c0.2,0,0.3,0,0.3,0s0.1,0,0.1,0
				l0.2,0c0.1,0,0.1,0,0.1,0c0,0,0,0,0.1,0c0,0,0,0,0,0c0.1,0,0.2,0,0.3-0.1c0.2-0.1,0.3-0.2,0.5-0.4c0.1-0.2,0.2-0.4,0.2-0.5v-2.6
				c0-0.2,0-0.3-0.1-0.5c-0.1-0.1-0.2-0.2-0.3-0.2c0,0,0,0-0.1,0c0,0-0.1,0-0.1,0c0,0-0.1,0-0.2,0c-0.1,0-0.1,0-0.1,0
				c0,0-0.1,0-0.1,0c-0.2,0.1-0.3,0.3-0.4,0.5c0,0.1,0,0.3,0,0.6c0,0.1,0,0.2,0,0.2c0.4,0,0.5,0.2,0.5,0.4c0,0.1-0.1,0.2-0.2,0.3
				s-0.3,0.1-0.4,0.1c-0.1,0-0.3,0-0.4,0c-0.6-0.1-0.9-0.4-0.9-0.8v-0.6c0-0.3,0.1-0.6,0.4-0.8c0.4-0.4,0.9-0.6,1.7-0.6
				c0.1,0,0.2,0,0.5,0c0.2,0,0.5,0.1,0.8,0.3c0.5,0.3,0.8,0.7,0.8,1.3l0,1.5c0.3,0.1,0.6,0.2,0.8,0.3v-3.5H128v-0.4h12.1v0.4h-0.6
				v5.5c0,0.1-0.1,0.2-0.3,0.3C139.1,56.7,139,56.7,138.9,56.7z"/>
			<path class="st0" d="M145,56.7c-0.1,0-0.3,0-0.4-0.1c-0.2,0-0.3-0.2-0.3-0.3v-1.6H143c0,0.3,0,0.5,0,0.5
				c-0.3,0.7-0.9,1.1-1.7,1.1c-0.1,0-0.3,0-0.5-0.1c-0.2,0-0.3-0.2-0.3-0.3s0.1-0.2,0.3-0.3s0.3-0.1,0.5-0.1c0,0,0.1,0,0.1,0v0
				c0,0,0.1-0.1,0.1-0.1c0.1-0.2,0.2-0.4,0.2-0.6c0-0.1,0-0.5,0-1c-0.7-0.2-1.1-0.6-1.1-1.3l0-0.6c0-0.4,0.2-0.8,0.5-1.1h-1v-0.4
				h6.4v0.4h-0.6v5.5c0,0.1-0.1,0.2-0.3,0.3C145.3,56.7,145.1,56.7,145,56.7z M144.3,54.1v-3.2h-1.2c0,0-0.1,0-0.1,0
				c-0.1,0-0.2,0-0.4,0.1c0,0,0,0-0.1,0c0,0,0,0-0.1,0c-0.1,0-0.1,0.1-0.2,0.1s-0.1,0-0.1,0l-0.2,0.2c-0.1,0.1-0.1,0.2-0.1,0.3
				c0,0.1,0,0.2,0,0.3c0,0.6,0,0.9,0,1c0,0,0,0.1,0.1,0.2l0.1,0.1c0,0,0.1,0.1,0.2,0.1c0.5,0,0.7,0.1,0.7,0.4v0.4H144.3z"/>
			<path class="st0" d="M144.8,59.2h-1.2c-0.6,0-1-0.2-1.1-0.5c0-0.2,0-0.3,0-0.5v-0.2c0-0.2,0-0.4,0-0.4c0-0.2,0.1-0.3,0.2-0.3
				c0.2-0.2,0.5-0.2,0.8-0.2c0.2,0,0.4,0,0.6,0h0.3v-0.4c0-0.2,0.1-0.3,0.3-0.3s0.3-0.1,0.4-0.1c0.1,0,0.3,0,0.4,0.1
				c0.2,0,0.3,0.2,0.3,0.3V57h0.8c0.1,0,0.3,0,0.4,0.1c0.2,0,0.3,0.2,0.3,0.3s-0.1,0.2-0.3,0.3s-0.3,0.1-0.4,0.1h-0.8v0.7
				c0,0.1,0,0.2-0.1,0.3C145.6,59.1,145.2,59.2,144.8,59.2z M144.4,58.5v-0.7h-0.5l0,0.1v0.6H144.4z"/>
			<path class="st0" d="M151.3,56.7c-0.1,0-0.3,0-0.4-0.1c-0.2,0-0.3-0.2-0.3-0.3v-2.4c-0.1-0.3-0.3-0.6-0.5-0.8v0h0
				c-0.1-0.2-0.3-0.3-0.5-0.5l-0.2-0.1l-0.1,0h-0.7l-0.1,0c-0.1,0-0.1,0.1-0.1,0.1l0,0c-0.2,0.3-0.3,0.6-0.3,0.9
				c0,0.4,0.1,0.6,0.3,0.8c0,0,0.1,0,0.1,0.1l0.1,0l0,0c0.1,0,0.1,0,0.1,0l0.2,0h0c0,0-0.1,0-0.1,0h0.1c0.4,0,0.6,0.1,0.7,0.3
				c0,0,0,0.1,0,0.1c0,0.1-0.1,0.2-0.3,0.3c-0.1,0-0.3,0.1-0.6,0.1c-0.7,0-1.3-0.2-1.7-0.5c-0.3-0.3-0.5-0.7-0.5-1.1v-0.1
				c0-0.5,0.1-0.9,0.4-1.2c0.3-0.4,0.8-0.6,1.5-0.6l0.4,0c0.2,0,0.4,0,0.6,0c0.4,0,0.7,0.2,1,0.3v-1.3h-4.5v-0.4h6.5v0.4H152v5.5
				c0,0.1-0.1,0.2-0.3,0.3C151.6,56.7,151.4,56.7,151.3,56.7z"/>
			<path class="st0" d="M156.8,56.7c-0.1,0-0.3,0-0.4-0.1c-0.2,0-0.3-0.2-0.3-0.3v-5.5h-0.5v-0.4h0.5v-0.2c0-0.3,0.1-0.7,0.2-1
				c0.2-0.5,0.6-0.9,1.2-1.1c0.5-0.2,1.1-0.3,1.7-0.3c0.5,0,1,0,1.6,0.2c0.1,0,0.2,0,0.3,0.1c0.2,0.1,0.3,0.2,0.3,0.3
				c0,0,0,0.1,0,0.1c-0.1,0.2-0.3,0.3-0.7,0.3c-0.1,0-0.1,0-0.2,0c-0.4-0.1-0.8-0.1-1.1-0.1c-0.2,0-0.4,0-0.6,0
				c-0.2,0.1-0.4,0.1-0.5,0.2h0l-0.3,0.3v0c-0.2,0.3-0.3,0.7-0.3,1.2v0.2h0.5v0.4h-0.5v5.5c0,0.1-0.1,0.2-0.3,0.3
				C157.1,56.7,156.9,56.7,156.8,56.7z"/>
			<path class="st0" d="M164.2,56.7c-0.1,0-0.3,0-0.4-0.1c-0.2,0-0.3-0.2-0.3-0.3v-3.8c-0.2-0.7-0.5-1.2-0.9-1.3c-0.5,0-0.8,0-0.8,0
				c-0.1,0-0.1,0.1-0.2,0.2c-0.2,0.2-0.3,0.6-0.3,1c0,0.4,0.1,0.7,0.4,0.8h0c0.1,0,0.2,0,0.4,0l-0.1,0l0.1,0c0.4,0,0.6,0.1,0.7,0.3
				c0,0,0,0.1,0,0.1c0,0.1-0.1,0.2-0.3,0.3c-0.1,0.1-0.3,0.1-0.6,0.1c-0.5,0-1-0.1-1.5-0.4c-0.4,0.3-0.9,0.4-1.4,0.4
				c-0.3,0-0.4,0-0.6-0.1c-0.2-0.1-0.3-0.2-0.3-0.3c0,0,0-0.1,0-0.1c0.1-0.2,0.3-0.3,0.7-0.3l0.1,0l-0.1,0c0.3,0,0.5-0.1,0.7-0.3
				c0,0,0,0,0,0c0.1-0.2,0.2-0.4,0.2-0.6c0-0.5-0.2-0.8-0.5-1.1c-0.1-0.1-0.2-0.1-0.3-0.1c-0.3,0-0.5-0.2-0.5-0.3h-0.8v-0.4
				c0.9,0,1.4,0,1.5,0c0.4,0,0.8,0.1,1.2,0.4c0.4-0.3,0.8-0.4,1.3-0.4l0.1,0h0.5c0.4,0,0.8,0.1,1.1,0.2v-0.2c0-0.2,0.1-0.3,0.3-0.3
				s0.3-0.1,0.4-0.1c0.5,0,0.7,0.1,0.7,0.4h0.6v0.4h-0.6v5.5c0,0.2-0.1,0.3-0.3,0.3C164.5,56.7,164.3,56.7,164.2,56.7z"/>
			<path class="st0" d="M168,56.7c-0.5,0-0.9-0.1-1.3-0.3c-0.6-0.3-0.9-0.9-0.9-1.6c0-0.5,0.2-0.9,0.5-1.2c0.2-0.2,0.5-0.3,0.8-0.5
				c-0.4-0.1-0.8-0.3-1-0.6c-0.2-0.2-0.3-0.4-0.3-0.6v-0.7c0-0.4,0.2-0.6,0.6-0.8c0.2-0.1,0.4-0.1,0.6-0.1c0.1,0,0.3,0,0.4,0.1
				c0.2,0,0.2,0.2,0.2,0.3c0,0.2-0.1,0.3-0.4,0.3c0,0,0,0.1,0,0.3l0,0.2v0.3c0,0.1,0,0.2,0.1,0.3c0,0,0,0,0,0c0,0,0,0,0,0
				c0,0,0.1,0.1,0.1,0.1l0.2,0.1c0,0,0,0,0,0c0,0,0,0,0,0s0,0,0,0c0.2-0.4,0.3-0.8,0.3-1.3c0-0.1,0.1-0.2,0.3-0.3s0.3-0.1,0.4-0.1
				c0.1,0,0.3,0,0.4,0.1c0.2,0,0.3,0.2,0.3,0.3c0,0.4-0.1,0.7-0.1,1.1c-0.1,0.6-0.6,1.1-1.2,1.5l-0.5,0.3c-0.1,0.1-0.2,0.2-0.2,0.2
				c0,0,0,0,0,0c-0.1,0.2-0.2,0.4-0.2,0.7c0,0.4,0.1,0.7,0.2,0.8c0,0,0,0,0,0c0,0,0,0,0,0c0,0,0,0,0,0c0.1,0.1,0.2,0.1,0.3,0.2
				c0.1,0,0.8,0,2.2,0v-5.6c0-0.1,0.1-0.2,0.3-0.3s0.3-0.1,0.4-0.1c0.1,0,0.3,0,0.4,0.1c0.2,0,0.3,0.2,0.3,0.3v0.1h0.6v0.4h-0.6v5.5
				c0,0.1-0.1,0.2-0.3,0.3s-0.3,0.1-0.4,0.1L168,56.7C168,56.7,168,56.7,168,56.7z"/>
			<path class="st0" d="M173.1,56.7c-0.1,0-0.3,0-0.4-0.1c-0.2,0-0.3-0.2-0.3-0.3v-5.5h-0.5v-0.4h2.4v0.4h-0.5v5.5
				c0,0.1-0.1,0.2-0.3,0.3C173.4,56.7,173.2,56.7,173.1,56.7z"/>
			<path class="st0" d="M179.9,56.7h-1c0.1-0.1,0.1-0.2,0.1-0.4c0-0.1,0-0.3-0.1-0.4h0.3v-3.8h-1.7c0,0,0,0-0.1,0
				c-0.1,0-0.3,0.1-0.5,0.2c-0.1,0.1-0.1,0.1-0.1,0.1c-0.5,0.4-0.7,0.9-0.7,1.6c0,0.5,0.1,0.9,0.4,1.3c0.2,0.2,0.4,0.4,0.7,0.5
				c-0.1,0.1-0.2,0.3-0.2,0.4c0,0.1,0,0.2,0.1,0.3c-0.6-0.1-1.1-0.3-1.5-0.6c-0.6-0.5-1-1.2-1-2c0-0.8,0.4-1.5,1.1-2.1
				c0.6-0.4,1.2-0.6,1.9-0.6h1.6v-0.6h-5v-0.4h6.9v0.4h-0.6v5.5c0,0.1-0.1,0.2-0.3,0.3C180.2,56.7,180,56.7,179.9,56.7z"/>
			<path class="st1" d="M178.2,56.9h-0.3c-0.2,0-0.3-0.1-0.5-0.2c-0.1-0.1-0.2-0.2-0.2-0.4c0-0.2,0.1-0.3,0.2-0.4s0.3-0.2,0.4-0.2
				h0.3c0.2,0,0.3,0,0.4,0.2s0.2,0.2,0.2,0.4c0,0.1-0.1,0.3-0.2,0.4C178.6,56.9,178.4,56.9,178.2,56.9z"/>
			<path class="st0" d="M188,56.7c-0.9,0-1.7-0.2-2.3-0.5c-0.7-0.3-1-0.8-1-1.3v-2.3c0-0.2,0.1-0.3,0.3-0.3s0.3-0.1,0.4-0.1
				c0.1,0,0.3,0,0.4,0.1c0.2,0,0.3,0.2,0.3,0.3v2.4c0,0.1,0.1,0.2,0.1,0.3c0,0,0,0,0,0c0,0,0.1,0.1,0.2,0.2c0,0,0.1,0,0.1,0
				c0.1,0,0.1,0.1,0.2,0.1c0.1,0,0.3,0.1,0.4,0.1c0.3,0,0.5,0.1,0.5,0.1c0,0,0.2,0,0.5,0c0.2,0,0.5,0,0.7-0.1c0.1,0,0.2-0.1,0.3-0.1
				s0.1,0,0.1,0c0.2-0.1,0.3-0.2,0.5-0.3c0,0,0,0,0,0c0.1-0.2,0.2-0.3,0.2-0.4v-0.7h-0.4c-0.4,0-0.7-0.1-1.1-0.2
				c-0.4-0.2-0.6-0.5-0.6-0.9c0-0.1,0-0.8,0-2.3h-3.6v-0.4h9.4v0.4h-4.4l3.4,1.1c0.2,0.1,0.4,0.2,0.4,0.3v3.6c0,0.1-0.1,0.2-0.3,0.3
				s-0.3,0.1-0.4,0.1c-0.1,0-0.3,0-0.4-0.1c-0.2,0-0.3-0.2-0.3-0.3v-3.4c-0.1,0-0.2-0.1-0.2-0.1l-2.2-0.8v1.4c0,0.3,0.1,0.5,0.2,0.5
				c0,0,0.2,0,0.5,0v-0.1c0-0.1,0.1-0.2,0.3-0.3s0.3-0.1,0.4-0.1c0.1,0,0.3,0,0.4,0.1c0.2,0,0.3,0.2,0.3,0.3c0,0.8,0,1.2,0,1.3
				c0,0.2,0,0.4-0.1,0.6c-0.2,0.3-0.4,0.6-0.8,0.8c-0.3,0.2-0.7,0.3-1.1,0.4C188.9,56.7,188.4,56.7,188,56.7z"/>
			<path class="st0" d="M198.6,56.7c-0.1,0-0.3,0-0.4-0.1c-0.2,0-0.3-0.2-0.3-0.3v-2.4c-0.1-0.3-0.3-0.6-0.5-0.8v0h0
				c-0.1-0.2-0.3-0.3-0.5-0.5l-0.2-0.1l-0.1,0h-0.7l-0.1,0c-0.1,0-0.1,0.1-0.1,0.1l0,0c-0.2,0.3-0.3,0.6-0.3,0.9
				c0,0.4,0.1,0.6,0.3,0.8c0,0,0.1,0,0.1,0.1l0.1,0l0,0c0.1,0,0.1,0,0.1,0l0.2,0h0c0,0-0.1,0-0.1,0h0.1c0.4,0,0.6,0.1,0.7,0.3
				c0,0,0,0.1,0,0.1c0,0.1-0.1,0.2-0.3,0.3c-0.1,0-0.3,0.1-0.6,0.1c-0.7,0-1.3-0.2-1.7-0.5c-0.3-0.3-0.5-0.7-0.5-1.1v-0.1
				c0-0.5,0.1-0.9,0.4-1.2c0.3-0.4,0.8-0.6,1.5-0.6l0.4,0c0.2,0,0.4,0,0.6,0c0.4,0,0.7,0.2,1,0.3v-1.3h-4.5v-0.4h6.5v0.4h-0.6v5.5
				c0,0.1-0.1,0.2-0.3,0.3C198.8,56.7,198.7,56.7,198.6,56.7z"/>
			<path class="st0" d="M200,57.6c-0.1,0-0.3,0-0.5-0.1c-0.2,0-0.3-0.2-0.3-0.3c0-0.3,0.3-0.4,0.8-0.4c0.1,0,0.1,0,0.3-0.1
				c0,0,0,0,0,0c0.1-0.1,0.2-0.2,0.2-0.2h0l0,0c0.3-0.6,0.5-1.2,0.5-1.7c0-0.2,0-0.4-0.1-0.6c-0.1-0.2-0.2-0.5-0.4-0.8
				c-0.3-0.4-0.5-0.9-0.5-1.4c0-0.4,0.1-0.8,0.3-1.1h-0.8v-0.4h1.1c0.1-0.1,0.3-0.2,0.5-0.2c0,0,0.1,0,0.2,0s0.3,0.1,0.4,0.2h1.1
				v0.4h-1.1c-0.2,0.4-0.4,0.8-0.4,1.1c0,0.4,0.1,0.8,0.4,1.1c0.2,0.2,0.3,0.5,0.4,0.7c0.1,0.3,0.2,0.7,0.2,1c0,0.5-0.1,1.1-0.4,1.8
				c-0.2,0.3-0.5,0.6-0.8,0.8C200.9,57.5,200.5,57.6,200,57.6z"/>
			<path class="st1" d="M129.3,67.8c-0.1,0-0.3,0-0.4-0.1c-0.2-0.1-0.3-0.2-0.3-0.3v-5.5h-0.5v-0.4h0.5v-0.2c0-0.3,0.1-0.7,0.2-1
				c0.2-0.5,0.6-0.9,1.2-1.1c0.5-0.2,1.1-0.3,1.7-0.3c0.5,0,1,0,1.6,0.2c0.1,0,0.2,0,0.3,0.1c0.2,0.1,0.3,0.2,0.3,0.3
				c0,0,0,0.1,0,0.1c-0.1,0.2-0.3,0.3-0.7,0.3c-0.1,0-0.1,0-0.2,0c-0.4-0.1-0.8-0.1-1.1-0.1c-0.2,0-0.4,0-0.6,0
				c-0.2,0.1-0.4,0.1-0.5,0.2h0l-0.3,0.3v0c-0.2,0.3-0.3,0.7-0.3,1.2v0.2h0.5v0.4H130v5.5c0,0.1-0.1,0.2-0.3,0.3
				C129.5,67.8,129.4,67.8,129.3,67.8z"/>
			<path class="st1" d="M135.7,67.8h-2.4c-0.3,0-0.5,0-0.8-0.1c-0.5-0.1-0.9-0.2-1.2-0.5c-0.3-0.3-0.4-0.6-0.4-0.9
				c0-0.5,0.3-0.9,0.8-1.3l0.1,0c0.2-0.2,0.3-0.3,0.4-0.3c0,0,0-0.1,0.1-0.1c0.1-0.1,0.1-0.2,0.1-0.3c0-0.2,0-0.4-0.1-0.6l0,0v0
				c-0.1-0.1-0.3-0.3-0.6-0.5c-0.4-0.3-0.6-0.7-0.6-1.2h-0.6v-0.4h8.9v0.4h-6.9c0,0.3,0.1,0.5,0.2,0.7c0,0,0,0,0,0c0,0,0,0,0,0
				c0.1,0.1,0.2,0.2,0.4,0.3c0.6,0.4,0.8,0.8,0.8,1.2c0,0.5-0.3,0.9-0.7,1.2c-0.2,0.1-0.3,0.2-0.5,0.4c0,0,0,0-0.1,0.1c0,0,0,0,0,0
				c0,0,0,0,0,0s0,0,0,0c-0.1,0.1-0.1,0.3-0.1,0.4c0,0.2,0.1,0.3,0.1,0.4v0l0,0l0.1,0.1c0,0,0,0,0.1,0c0,0,0,0,0.1,0s0,0,0,0
				s0,0,0,0c0,0,0,0,0,0c0.1,0,0.2,0.1,0.2,0.1l0.1,0h2v-4.5c0-0.1,0.1-0.2,0.3-0.3c0.2,0,0.3-0.1,0.5-0.1c1.3,0,2.2,0.3,2.7,1
				c0.1,0.2,0.2,0.4,0.2,0.7l0,0.1v0.8c0,0.1,0,0.3-0.1,0.4c-0.2,0.3-0.6,0.5-1.1,0.5c-0.1,0-0.3,0-0.4-0.1s-0.2-0.2-0.2-0.3
				c0-0.2,0.1-0.3,0.4-0.3c0,0,0-0.1,0-0.2v-0.9c0-0.2,0-0.3-0.1-0.4c0,0,0,0,0,0c0,0,0,0,0,0c0,0-0.1,0-0.1-0.1l0,0l-0.2-0.1
				l-0.3-0.1h0l0,1.6v2.9c0,0.1-0.1,0.2-0.3,0.3C136,67.8,135.9,67.8,135.7,67.8z"/>
			<path class="st1" d="M141.1,68.7c-0.7,0-1.2-0.2-1.4-0.6c-0.1-0.1-0.1-0.3-0.1-0.4c0-0.2,0-0.3,0-0.4c0-0.1,0-1.8,0-5.3H139v-0.4
				h2.5v0.4H141v5.5c0,0.2,0,0.4,0.1,0.5h0.8c0.1,0,0.3,0,0.4,0.1c0.2,0.1,0.3,0.2,0.3,0.3c0,0.1-0.1,0.2-0.3,0.3s-0.3,0.1-0.4,0.1
				H141.1z"/>
			<path class="st1" d="M147.1,67.8h-1c0.1-0.1,0.1-0.2,0.1-0.4c0-0.1,0-0.3-0.1-0.4h0.3v-3.8h-1.7c0,0,0,0-0.1,0
				c-0.1,0-0.3,0.1-0.5,0.2c-0.1,0.1-0.1,0.1-0.1,0.1c-0.5,0.4-0.7,0.9-0.7,1.6c0,0.5,0.1,0.9,0.4,1.3c0.2,0.2,0.4,0.4,0.7,0.5
				c-0.1,0.1-0.2,0.3-0.2,0.4c0,0.1,0,0.2,0.1,0.3c-0.6-0.1-1.1-0.3-1.5-0.6c-0.6-0.5-1-1.2-1-2c0-0.8,0.4-1.5,1.1-2.1
				c0.6-0.4,1.2-0.6,1.9-0.6h1.6v-0.6h-5v-0.4h6.9v0.4h-0.6v5.5c0,0.1-0.1,0.2-0.3,0.3C147.4,67.8,147.3,67.8,147.1,67.8z"/>
			<path class="st0" d="M145.4,68h-0.3c-0.2,0-0.3-0.1-0.5-0.2c-0.1-0.1-0.2-0.2-0.2-0.4c0-0.2,0.1-0.3,0.2-0.4s0.3-0.2,0.4-0.2h0.3
				c0.2,0,0.3,0.1,0.4,0.2s0.2,0.2,0.2,0.4c0,0.1-0.1,0.3-0.2,0.4C145.8,67.9,145.6,68,145.4,68z"/>
			<path class="st1" d="M154.4,67.8c-0.3,0-0.6,0-0.9-0.1c-0.5-0.1-0.9-0.2-1.2-0.5c-0.3-0.3-0.4-0.6-0.4-0.9s0.1-0.6,0.4-0.9
				c0.2-0.2,0.3-0.3,0.5-0.4c0.2-0.1,0.3-0.3,0.4-0.4s0.1-0.3,0.2-0.4c0-0.2,0-0.3-0.1-0.5c-0.1-0.1-0.4-0.3-0.7-0.6
				c-0.4-0.3-0.6-0.7-0.6-1.2v0h-0.5v-0.4h6.6v0.4h-0.5v5.5c0,0.1-0.1,0.2-0.3,0.3s-0.3,0.1-0.5,0.1
				C155.3,67.8,154.6,67.8,154.4,67.8z M156,67.1v-5.1h-2.8c0,0.1,0,0.3,0,0.4c0,0.1,0.1,0.2,0.1,0.3c0,0,0,0,0,0c0,0,0,0,0,0
				c0.1,0.1,0.2,0.2,0.4,0.3c0.6,0.4,0.8,0.8,0.8,1.2c0,0.5-0.3,0.9-0.7,1.2c-0.3,0.3-0.5,0.4-0.5,0.4l0,0c-0.1,0.2-0.2,0.3-0.2,0.5
				c0,0.3,0.1,0.5,0.3,0.6c0,0,0,0,0.1,0s0,0,0.1,0c0,0,0,0,0.1,0c0.1,0,0.2,0.1,0.3,0.1L156,67.1L156,67.1z"/>
			<path class="st1" d="M159,67.8c-0.1,0-0.3,0-0.4-0.1c-0.2-0.1-0.3-0.2-0.3-0.3v-5.5h-0.5v-0.4h2.4v0.4h-0.5v5.5
				c0,0.1-0.1,0.2-0.3,0.3C159.3,67.8,159.2,67.8,159,67.8z"/>
			<path class="st1" d="M165.3,67.8c-0.1,0-0.3,0-0.4-0.1c-0.2-0.1-0.3-0.2-0.3-0.3V65c-0.1-0.3-0.3-0.6-0.5-0.8v0h0
				c-0.1-0.2-0.3-0.3-0.5-0.5l-0.2-0.1l-0.1,0h-0.7l-0.1,0c-0.1,0-0.1,0.1-0.1,0.1l0,0c-0.2,0.3-0.3,0.6-0.3,0.9
				c0,0.4,0.1,0.6,0.3,0.8c0,0,0.1,0.1,0.1,0.1l0.1,0l0,0c0.1,0,0.1,0,0.1,0l0.2,0h0c0,0-0.1,0-0.1,0h0.1c0.4,0,0.6,0.1,0.7,0.3
				c0,0,0,0.1,0,0.1c0,0.1-0.1,0.2-0.3,0.3c-0.1,0.1-0.3,0.1-0.6,0.1c-0.7,0-1.3-0.2-1.7-0.5c-0.3-0.3-0.5-0.7-0.5-1.1v-0.1
				c0-0.4,0.1-0.9,0.4-1.2c0.3-0.4,0.8-0.6,1.5-0.6l0.4,0c0.2,0,0.4,0,0.6,0c0.4,0,0.7,0.2,1,0.3v-1.3h-4.5v-0.4h6.5v0.4H166v5.5
				c0,0.1-0.1,0.2-0.3,0.3C165.5,67.8,165.4,67.8,165.3,67.8z"/>
			<path class="st1" d="M174.1,67.8c-0.1,0-0.3,0-0.4-0.1c-0.2-0.1-0.3-0.2-0.3-0.3v-3.2c-0.1,0.1-0.3,0.3-0.5,0.5
				c-0.7,0.7-1.3,1.1-1.9,1.1c-0.1,0-0.2,0-0.3,0c-0.1,0-0.2-0.1-0.4-0.1c-0.2-0.1-0.3-0.3-0.3-0.6v-3h-0.6v-0.4h5.9V62h-3.9v2.6
				c0.6-0.6,0.9-0.9,1.1-1c0.4-0.4,0.9-0.6,1.3-0.6c0.1,0,0.3,0,0.5,0.1s0.4,0.2,0.4,0.5l0,0.4v0.2c0,0.1,0,1.2,0,3.4
				c0,0.1-0.1,0.2-0.3,0.3C174.4,67.8,174.2,67.8,174.1,67.8z"/>
			<path class="st1" d="M183,67.8c-0.4,0-0.7-0.1-1.1-0.2c-0.5-0.2-0.9-0.5-1.1-0.9l-0.2-0.3h0c-0.1-0.1-0.2-0.2-0.3-0.3
				c0,0-0.1-0.1-0.2-0.1c0,0-0.1-0.1-0.2-0.1c-0.4,0-0.6,0-0.7,0c0,0-0.1,0-0.1,0.1c-0.1,0.1-0.2,0.3-0.2,0.5c0,0.1,0,0.2,0.1,0.3
				c0,0,0,0,0,0s0,0,0,0s0,0,0,0c0,0,0,0,0,0c0,0,0,0,0.1,0c0.1,0,0.2,0.1,0.3,0.1l0,0l0.2,0l-0.2,0c0.1,0,0.1,0,0.2,0
				c0.1,0,0.2,0,0.4,0s0.3,0.1,0.3,0.2c0,0,0,0.1,0,0.1c0,0.1-0.1,0.2-0.3,0.3c-0.1,0.1-0.3,0.1-0.6,0.1c-1.1,0-1.8-0.3-2-1
				c0-0.1,0-0.2,0-0.2c0-0.4,0.1-0.7,0.5-0.9c0.3-0.2,0.7-0.3,1.1-0.4v-1.1c-0.1-0.2-0.2-0.3-0.2-0.4v0c-0.2-0.2-0.4-0.3-0.5-0.4v0
				l-0.1,0c-0.5,0-0.7,0-0.7,0c0,0-0.1,0-0.1,0c-0.1,0.1-0.2,0.3-0.2,0.5c0,0.2,0,0.3,0.1,0.3c0,0,0.1,0.1,0.1,0.1
				c0.1,0,0.2,0,0.3,0.1h0.2c0.1,0,0.3,0,0.4,0.1c0.2,0.1,0.2,0.2,0.2,0.3c0,0.2-0.1,0.3-0.4,0.3c-0.1,0-0.3,0.1-0.5,0.1
				c-0.2,0-0.4,0-0.6-0.1c-0.6-0.1-1-0.3-1.2-0.6c-0.1-0.2-0.2-0.3-0.2-0.5c0-0.3,0.1-0.5,0.2-0.7c0.4-0.4,0.9-0.7,1.5-0.7v-0.7
				h-2.3v-0.4h11.2v0.4h-2.8V63c1,0.1,1.6,0.4,2,0.9c0.1,0.2,0.2,0.4,0.2,0.7c0,0.1,0,0.4,0,0.9c0,0.4-0.2,0.6-0.5,0.8
				c-0.2,0.1-0.4,0.1-0.6,0.1c-0.1,0-0.3,0-0.4-0.1c-0.2-0.1-0.2-0.2-0.2-0.3c0-0.2,0.1-0.3,0.4-0.3c0-0.1,0-0.4,0-1.1
				c0-0.2-0.1-0.4-0.2-0.5c-0.2-0.2-0.4-0.3-0.6-0.3c0,0,0,0,0,0s0,0,0,0v3.6c0,0.1-0.1,0.2-0.3,0.3C183.2,67.8,183.1,67.8,183,67.8
				z M182.3,66.7v-3c-0.8-0.1-1.4-0.3-1.8-0.7c-0.3-0.3-0.5-0.7-0.5-1.1h-1.1v0.8c0.6,0.2,1.1,0.5,1.4,1c0.1,0.2,0.2,0.3,0.2,0.5
				v1.2c0.4,0.1,0.7,0.2,1,0.4c0.3,0.3,0.5,0.5,0.7,0.8C182.2,66.6,182.2,66.7,182.3,66.7z M182.3,63v-1h-0.9
				C181.4,62.5,181.7,62.8,182.3,63z"/>
			<path class="st1" d="M194.3,68.3c-0.1,0-0.2,0-0.4-0.1s-0.2-0.1-0.3-0.1c-1.1-0.3-2.2-0.7-3.3-1c-0.2-0.1-0.4-0.2-0.4-0.3v-0.6
				c0-0.1,0.1-0.2,0.3-0.3s0.3-0.1,0.4-0.1c0.2,0,0.5,0,0.9-0.1c0,0,0,0,0,0c0,0,0.1,0,0.2-0.1c0.2,0,0.3-0.1,0.5-0.2
				s0.2-0.2,0.2-0.2c0,0,0.1-0.1,0.1-0.1c0.1-0.2,0.2-0.3,0.2-0.4c0-0.1,0-0.2,0-0.3c0-0.8,0-1.3,0-1.3c0-0.2-0.1-0.3-0.3-0.4
				c-0.1,0-0.1-0.1-0.1-0.1s0,0,0,0c0,0-0.1,0-0.3,0c-0.1,0-0.1,0-0.2,0c0,0,0,0,0,0c-0.2,0.1-0.3,0.3-0.3,0.7c0,0.3,0,0.5,0,0.5
				c0.4,0,0.6,0.2,0.6,0.4c0,0.1-0.1,0.2-0.3,0.3s-0.3,0.1-0.5,0.1c-0.6,0-1-0.2-1.2-0.5c-0.1-0.1-0.1-0.3-0.1-0.7
				c0-0.4,0.1-0.7,0.3-0.9c0.3-0.3,0.6-0.5,1-0.5h-1.9v-0.4h5.7v0.4h-2.4c0.4,0.1,0.7,0.2,1,0.4c0.3,0.3,0.5,0.6,0.5,1.1v1.1
				c0,0.4-0.2,0.8-0.5,1.1c-0.5,0.5-1.3,0.7-2.2,0.8v0l3.2,1c0.1,0,0.2,0.1,0.3,0.2c0,0,0,0.1,0,0.1c0,0.1,0,0.1-0.1,0.2
				C194.7,68.2,194.5,68.3,194.3,68.3z"/>
			<path class="st1" d="M197,68.7c-0.7,0-1.2-0.2-1.4-0.6c-0.1-0.1-0.1-0.3-0.1-0.4c0-0.2,0-0.3,0-0.4c0-0.1,0-1.8,0-5.3h-0.6v-0.4
				h2.5v0.4h-0.6v5.5c0,0.2,0,0.4,0.1,0.5h0.8c0.1,0,0.3,0,0.4,0.1c0.2,0.1,0.3,0.2,0.3,0.3c0,0.1-0.1,0.2-0.3,0.3s-0.3,0.1-0.4,0.1
				H197z"/>
			<path class="st1" d="M202.6,67.8h-1.1c0.1-0.1,0.1-0.2,0.1-0.3c0-0.2-0.1-0.3-0.1-0.4h0.4v-5.1h-2.8c0,0.3,0.1,0.6,0.2,0.7
				c0.1,0.1,0.2,0.2,0.4,0.3c0.6,0.4,0.8,0.8,0.8,1.2c0,0.5-0.3,0.9-0.7,1.2c-0.2,0.1-0.3,0.2-0.5,0.4c0,0,0,0-0.1,0.1c0,0,0,0,0,0
				c0,0,0,0,0,0s0,0,0,0c-0.1,0.1-0.1,0.3-0.1,0.4c0,0.2,0.1,0.4,0.2,0.5c0,0,0,0,0.1,0.1c0,0,0.1,0,0.1,0l0,0c0.1,0,0.1,0,0.2,0.1
				c-0.1,0.1-0.1,0.3-0.1,0.4c0,0.1,0,0.2,0.1,0.3c-0.6,0-1.2-0.2-1.6-0.5c-0.3-0.3-0.4-0.6-0.4-0.9c0-0.5,0.3-0.9,0.8-1.3
				c0.1-0.1,0.2-0.2,0.4-0.3c0,0,0-0.1,0.1-0.1c0,0,0,0,0-0.1c0.1-0.2,0.1-0.3,0.1-0.5s-0.1-0.3-0.2-0.4s-0.3-0.3-0.6-0.5
				c-0.4-0.3-0.6-0.7-0.6-1.2h-0.5v-0.4h6.7v0.4h-0.6v5.5c0,0.1-0.1,0.2-0.3,0.3C202.9,67.8,202.8,67.8,202.6,67.8z"/>
			<path class="st0" d="M200.8,68h-0.3c-0.2,0-0.4-0.1-0.5-0.2c-0.1-0.1-0.1-0.2-0.1-0.3c0-0.2,0.1-0.3,0.2-0.4
				c0.1-0.1,0.3-0.2,0.4-0.2h0.3c0.2,0,0.3,0.1,0.4,0.2c0.1,0.1,0.2,0.2,0.2,0.4c0,0.1-0.1,0.2-0.1,0.3C201.1,67.9,201,68,200.8,68z
				"/>
		</g>
	</g>
</g>
</svg>
