<?xml version="1.0" standalone="no"?>
<!DOCTYPE svg PUBLIC "-//W3C//DTD SVG 20010904//EN"
 "http://www.w3.org/TR/2001/REC-SVG-20010904/DTD/svg10.dtd">
<svg version="1.0" xmlns="http://www.w3.org/2000/svg"
 width="512.000000pt" height="512.000000pt" viewBox="0 0 512.000000 512.000000"
 preserveAspectRatio="xMidYMid meet">

<g transform="translate(0.000000,512.000000) scale(0.100000,-0.100000)"
fill="#000000" stroke="none">
<path d="M1763 3789 c-319 -30 -587 -145 -862 -367 -86 -70 -206 -194 -246
-256 l-17 -26 -156 0 c-186 0 -225 -13 -273 -88 l-29 -46 0 -283 0 -283 -42 0
c-53 0 -109 -27 -125 -60 -9 -18 -13 -97 -13 -283 l0 -259 32 -32 c32 -31 44
-34 343 -95 171 -34 317 -64 326 -67 9 -2 34 -34 55 -70 75 -128 215 -223 362
-245 185 -27 377 58 482 214 l45 67 151 0 c144 0 151 1 172 23 29 31 28 72 -3
102 -23 24 -30 25 -148 25 l-124 0 -6 83 c-3 45 -8 90 -12 100 -7 16 45 17
1000 17 l1008 0 -7 -37 c-3 -21 -6 -66 -6 -100 l0 -63 -705 0 c-495 0 -711 -3
-728 -11 -25 -11 -47 -47 -47 -75 0 -8 11 -26 25 -39 l24 -25 738 0 738 0 30
-51 c67 -114 211 -208 353 -229 184 -29 377 56 482 213 l45 67 136 0 c194 0
263 30 325 142 l29 53 3 323 c3 353 -2 401 -55 492 -56 95 -108 138 -258 211
-135 66 -357 149 -397 149 -27 0 -68 -44 -68 -73 0 -45 31 -67 145 -106 127
-43 339 -137 356 -157 10 -12 -2 -14 -72 -14 -254 -1 -365 -109 -273 -267 61
-105 231 -183 402 -183 l72 0 0 -35 0 -35 -194 0 -195 0 -28 37 c-38 50 -132
117 -198 142 -197 74 -396 31 -543 -116 l-64 -63 -1073 0 -1074 0 -28 37 c-38
50 -132 117 -198 142 -197 74 -396 31 -543 -116 l-64 -63 -309 0 -309 0 0 90
0 90 64 0 c82 0 106 17 113 83 l6 47 104 0 c136 0 183 22 225 104 16 32 19 54
16 125 l-3 86 -75 108 c-41 59 -81 117 -89 127 -13 19 -11 20 89 20 117 0 103
-9 220 139 104 132 294 283 465 368 69 35 238 102 225 90 -3 -3 -44 -31 -92
-63 -180 -122 -341 -281 -354 -350 -12 -67 24 -141 83 -169 33 -16 163 -22
1157 -56 617 -21 1200 -38 1296 -37 236 2 310 1 413 -6 84 -6 88 -6 112 18 31
31 32 70 2 100 -30 30 -106 39 -320 37 l-158 -1 -192 177 c-229 211 -324 283
-477 362 -164 84 -313 134 -480 160 -65 11 -567 42 -625 40 -16 -1 -67 -5
-112 -10z m525 -165 c10 -8 32 -200 32 -274 -1 -75 -22 -235 -33 -246 -5 -5
-976 25 -1036 32 l-44 6 74 75 c208 212 481 356 774 408 58 11 221 10 233 -1z
m336 -44 c164 -43 336 -126 473 -229 76 -57 327 -280 321 -286 -2 -2 -221 4
-488 13 -474 17 -485 17 -483 37 1 11 8 61 14 110 11 85 7 241 -8 344 l-6 44
50 -7 c28 -3 85 -15 127 -26z m-2185 -767 c91 -131 92 -133 89 -185 l-3 -53
-97 -3 -98 -3 0 198 c0 108 4 193 8 188 5 -6 50 -70 101 -142z m4525 -349 c3
-9 6 -42 6 -75 l0 -59 -68 0 c-38 0 -93 7 -123 16 -55 16 -148 69 -150 85 -5
28 -1 34 26 40 17 4 91 7 166 8 116 1 138 -1 143 -15z m-3632 -321 c69 -30
149 -110 180 -180 17 -37 22 -68 22 -138 0 -78 -3 -98 -26 -145 -37 -75 -100
-137 -177 -173 -155 -73 -350 -14 -439 133 -44 74 -55 121 -50 210 14 244 263
393 490 293z m2980 0 c69 -30 149 -110 180 -180 17 -37 22 -68 22 -138 0 -78
-3 -98 -26 -145 -37 -75 -100 -137 -177 -173 -155 -73 -350 -14 -439 133 -44
74 -55 121 -50 210 14 244 263 393 490 293z m-3619 -260 c-3 -43 -6 -79 -7
-80 -1 -2 -356 69 -463 93 -66 14 -73 18 -73 40 l0 24 275 0 275 0 -7 -77z
m4277 26 c0 -28 -7 -65 -15 -83 -26 -54 -59 -66 -178 -66 l-104 0 -6 83 c-3
45 -8 90 -12 100 -7 16 5 17 154 17 l161 0 0 -51z"/>
<path d="M1107 2056 c-194 -70 -221 -337 -43 -441 124 -73 286 -21 347 110 25
53 25 147 0 200 -53 114 -188 172 -304 131z m144 -165 c21 -22 29 -39 29 -66
0 -45 -45 -95 -85 -95 -74 0 -121 69 -90 133 29 63 98 75 146 28z"/>
<path d="M4087 2056 c-194 -70 -221 -337 -43 -441 124 -73 286 -21 347 110 25
53 25 147 0 200 -53 114 -188 172 -304 131z m144 -165 c21 -22 29 -39 29 -66
0 -45 -45 -95 -85 -95 -74 0 -121 69 -90 133 29 63 98 75 146 28z"/>
<path d="M1389 2812 c-33 -27 -30 -78 5 -109 61 -52 169 -16 169 57 0 47 -31
70 -98 70 -36 0 -60 -6 -76 -18z"/>
<path d="M2512 2814 c-33 -23 -31 -86 4 -113 42 -33 108 -29 146 9 24 25 29
36 23 58 -12 48 -33 62 -94 62 -35 0 -65 -6 -79 -16z"/>
</g>
</svg>
