<?xml version="1.0" standalone="no"?>
<!DOCTYPE svg PUBLIC "-//W3C//DTD SVG 20010904//EN"
 "http://www.w3.org/TR/2001/REC-SVG-20010904/DTD/svg10.dtd">
<svg version="1.0" xmlns="http://www.w3.org/2000/svg"
 width="512.000000pt" height="512.000000pt" viewBox="0 0 512.000000 512.000000"
 preserveAspectRatio="xMidYMid meet">

<g transform="translate(0.000000,512.000000) scale(0.100000,-0.100000)"
fill="#000000" stroke="none">
<path d="M1362 5104 c-111 -30 -208 -118 -254 -232 l-23 -57 0 -2255 0 -2255
23 -57 c47 -116 143 -203 258 -233 88 -23 2300 -23 2388 0 115 30 211 117 258
233 l23 57 0 2255 0 2255 -23 57 c-47 116 -143 203 -258 233 -85 22 -2310 21
-2392 -1z m2364 -149 c58 -17 109 -63 135 -120 15 -32 19 -66 19 -177 l0 -138
-1320 0 -1320 0 0 138 c0 128 2 142 25 189 26 52 78 97 131 113 16 4 536 9
1155 9 964 1 1132 -1 1175 -14z m154 -2245 l0 -1660 -1072 0 c-868 -1 -1076
-3 -1090 -14 -40 -30 -39 -92 0 -122 14 -11 225 -13 1090 -14 l1072 0 0 -287
c0 -321 -3 -335 -71 -401 -66 -64 -17 -62 -1253 -62 -700 0 -1134 4 -1155 10
-58 16 -109 59 -136 113 l-25 51 0 288 0 288 123 0 c130 1 149 6 165 51 11 28
-1 66 -26 85 -12 9 -55 13 -139 14 l-123 0 0 1660 0 1660 1320 0 1320 0 0
-1660z"/>
<path d="M2218 4806 c-56 -42 -28 -135 42 -135 70 0 99 93 42 135 -22 17 -62
17 -84 0z"/>
<path d="M2518 4806 c-39 -30 -40 -92 0 -122 24 -19 360 -19 384 0 25 19 37
57 26 85 -17 47 -32 50 -218 50 -128 0 -180 -3 -192 -13z"/>
<path d="M2459 722 c-163 -85 -163 -309 0 -394 71 -37 131 -37 202 0 163 85
163 309 0 394 -37 19 -68 28 -101 28 -33 0 -64 -9 -101 -28z m134 -133 c29
-16 37 -28 37 -64 0 -36 -7 -48 -38 -64 -47 -25 -102 9 -102 62 0 37 7 49 35
65 26 15 41 15 68 1z"/>
</g>
</svg>
