<?xml version="1.0" standalone="no"?>
<!DOCTYPE svg PUBLIC "-//W3C//DTD SVG 20010904//EN"
 "http://www.w3.org/TR/2001/REC-SVG-20010904/DTD/svg10.dtd">
<svg version="1.0" xmlns="http://www.w3.org/2000/svg"
 width="512.000000pt" height="512.000000pt" viewBox="0 0 512.000000 512.000000"
 preserveAspectRatio="xMidYMid meet">

<g transform="translate(0.000000,512.000000) scale(0.100000,-0.100000)"
fill="#000000" stroke="none">
<path d="M1740 5092 c-44 -45 -40 -78 17 -149 26 -32 136 -167 245 -300 109
-133 198 -244 198 -246 0 -2 -24 -20 -53 -40 -86 -59 -157 -167 -172 -262 -3
-22 -8 -50 -11 -62 l-4 -22 -623 -4 c-596 -3 -625 -4 -695 -24 -310 -90 -532
-315 -614 -623 l-23 -85 0 -1100 0 -1100 23 -85 c54 -204 172 -376 332 -486
l70 -48 0 -200 c1 -142 4 -206 13 -217 27 -35 54 -39 246 -39 186 0 190 0 218
24 28 24 28 24 31 170 l3 146 1665 0 1664 0 0 -143 c0 -130 2 -145 20 -165 30
-32 47 -34 253 -30 244 4 230 -8 237 199 l5 150 52 18 c92 31 172 99 227 194
58 99 57 54 54 1650 l-3 1462 -22 55 c-46 111 -142 207 -253 253 l-55 22 -812
3 -813 3 -4 22 c-3 12 -8 40 -11 62 -15 95 -86 203 -172 262 -29 20 -53 38
-53 40 0 2 89 113 198 246 109 133 219 268 245 300 57 70 63 113 21 152 -32
30 -73 32 -105 6 -13 -11 -141 -163 -284 -340 l-260 -320 -175 0 -175 0 -260
320 c-143 176 -267 326 -276 334 -8 8 -29 18 -47 21 -26 5 -36 1 -62 -24z
m1760 -2917 l0 -1665 -1327 0 c-746 0 -1359 5 -1398 10 -162 21 -287 82 -400
195 -81 82 -134 168 -173 280 l-27 80 0 1095 0 1095 23 75 c40 125 88 206 177
296 68 68 97 89 176 127 52 25 119 50 149 56 30 6 64 13 75 15 11 2 629 4
1373 5 l1352 1 0 -1665z m1300 1637 c60 -32 92 -63 121 -120 l24 -47 3 -497 3
-498 -640 0 -641 0 0 595 0 596 543 -3 542 -3 45 -23z m150 -1767 l0 -425
-640 0 -640 0 0 425 0 425 640 0 640 0 0 -425z m0 -935 c0 -206 -4 -359 -11
-390 -17 -78 -63 -139 -133 -175 l-60 -30 -538 -3 -538 -3 0 471 0 470 640 0
640 0 0 -340z"/>
<path d="M810 3654 c-220 -47 -408 -237 -455 -459 -22 -104 -22 -1936 0 -2040
47 -224 238 -413 465 -461 61 -12 211 -14 1048 -12 l977 3 65 23 c209 76 362
244 405 448 22 103 22 1935 0 2039 -47 224 -236 413 -460 460 -101 21 -1946
21 -2045 -1z m1984 -164 c185 -30 330 -177 356 -362 12 -82 12 -1824 0 -1906
-26 -186 -176 -336 -362 -362 -82 -12 -1824 -12 -1906 0 -186 26 -336 176
-362 362 -12 82 -12 1824 0 1906 26 181 171 332 347 362 70 11 1856 12 1927 0z"/>
<path d="M2390 1110 l0 -90 85 0 85 0 0 90 0 90 -85 0 -85 0 0 -90z"/>
<path d="M2737 1193 c-4 -3 -7 -44 -7 -90 l0 -83 85 0 85 0 0 90 0 90 -78 0
c-43 0 -82 -3 -85 -7z"/>
<path d="M4172 3660 c-115 -24 -238 -127 -295 -247 -30 -63 -32 -76 -32 -173
0 -101 1 -108 37 -181 133 -272 490 -327 694 -106 77 83 105 149 111 263 7
110 -9 174 -66 261 -45 70 -121 132 -201 163 -62 25 -181 34 -248 20z m173
-178 c28 -9 50 -22 50 -29 0 -15 -365 -296 -374 -288 -3 4 -6 39 -6 79 1 60 5
80 28 118 34 59 89 105 147 123 60 18 95 18 155 -3z m174 -242 c-1 -158 -138
-270 -302 -246 -24 4 -52 13 -62 20 -16 11 2 28 166 154 126 97 186 137 191
129 4 -7 8 -32 7 -57z"/>
<path d="M3840 2215 l0 -85 85 0 85 0 0 85 0 85 -85 0 -85 0 0 -85z"/>
<path d="M4180 2215 l0 -85 85 0 85 0 0 85 0 85 -85 0 -85 0 0 -85z"/>
<path d="M4520 2215 l0 -85 85 0 85 0 0 85 0 85 -85 0 -85 0 0 -85z"/>
<path d="M3840 1875 l0 -85 85 0 85 0 0 85 0 85 -85 0 -85 0 0 -85z"/>
<path d="M4180 1875 l0 -85 85 0 85 0 0 85 0 85 -85 0 -85 0 0 -85z"/>
<path d="M4520 1875 l0 -85 85 0 85 0 0 85 0 85 -85 0 -85 0 0 -85z"/>
<path d="M3866 1254 l-26 -27 0 -247 0 -248 31 -26 31 -26 410 0 410 0 29 29
29 29 0 240 0 240 -26 31 -26 31 -418 0 -417 0 -27 -26z m742 -271 l-3 -128
-297 -3 -298 -2 0 130 0 130 300 0 301 0 -3 -127z"/>
</g>
</svg>
