<?xml version="1.0" encoding="iso-8859-1"?>
<!-- Generator: Adobe Illustrator 19.0.0, SVG Export Plug-In . SVG Version: 6.00 Build 0)  -->
<svg version="1.1" id="Layer_1" xmlns="http://www.w3.org/2000/svg" xmlns:xlink="http://www.w3.org/1999/xlink" x="0px" y="0px"
	 viewBox="0 0 512 512" style="enable-background:new 0 0 512 512;" xml:space="preserve">
<path style="fill:#1E0478;" d="M404.986,0c46.293,0,83.968,37.663,83.968,83.968c0,46.293-37.675,83.956-83.968,83.956
	c-26.736,0-50.591-12.582-65.97-32.128l-154.093,88.968c3.893,9.666,6.047,20.201,6.047,31.235c0,11.035-2.155,21.569-6.047,31.235
	l154.093,88.968c15.38-19.546,39.234-32.128,65.97-32.128c46.293,0,83.968,37.663,83.968,83.956
	c0,46.305-37.675,83.968-83.968,83.968s-83.956-37.663-83.956-83.968c0-11.035,2.155-21.569,6.047-31.235l-154.093-88.968
	c-15.38,19.546-39.223,32.128-65.97,32.128c-46.293,0-83.968-37.663-83.968-83.956s37.675-83.956,83.968-83.956
	c26.748,0,50.591,12.582,65.97,32.128l154.093-88.968c-3.892-9.666-6.047-20.201-6.047-31.235C321.03,37.663,358.693,0,404.986,0z
	 M465.147,83.968c0-33.175-26.986-60.161-60.161-60.161c-33.164,0-60.149,26.986-60.149,60.161
	c0,33.164,26.986,60.149,60.149,60.149C438.162,144.118,465.147,117.132,465.147,83.968z M465.147,428.032
	c0-33.164-26.986-60.149-60.161-60.149c-33.164,0-60.149,26.986-60.149,60.149c0,33.175,26.986,60.161,60.149,60.161
	C438.162,488.193,465.147,461.207,465.147,428.032z M167.163,256c0-33.164-26.986-60.149-60.149-60.149
	c-33.175,0-60.161,26.986-60.161,60.149s26.986,60.149,60.161,60.149C140.177,316.149,167.163,289.164,167.163,256z"/>
<path style="fill:#9B8CCC;" d="M404.986,23.807c33.175,0,60.161,26.986,60.161,60.161c0,33.164-26.986,60.149-60.161,60.149
	c-33.164,0-60.149-26.986-60.149-60.149C344.837,50.793,371.823,23.807,404.986,23.807z"/>
<path style="fill:#6F7CCD;" d="M404.986,367.882c33.175,0,60.161,26.986,60.161,60.149c0,33.175-26.986,60.161-60.161,60.161
	c-33.164,0-60.149-26.986-60.149-60.161C344.837,394.868,371.823,367.882,404.986,367.882z"/>
<path style="fill:#94E7EF;" d="M107.014,195.851c33.164,0,60.149,26.986,60.149,60.149s-26.986,60.149-60.149,60.149
	c-33.175,0-60.161-26.986-60.161-60.149S73.838,195.851,107.014,195.851z M118.918,232.514c0-6.583-5.333-11.904-11.904-11.904
	c-19.522,0-35.401,15.868-35.401,35.39c0,6.571,5.333,11.904,11.904,11.904c6.583,0,11.904-5.333,11.904-11.904
	c0-6.392,5.202-11.582,11.594-11.582C113.585,244.418,118.918,239.085,118.918,232.514z"/>
<path style="fill:#1E0478;" d="M107.014,220.61c6.571,0,11.904,5.321,11.904,11.904c0,6.571-5.333,11.904-11.904,11.904
	c-6.392,0-11.594,5.19-11.594,11.582c0,6.571-5.321,11.904-11.904,11.904c-6.571,0-11.904-5.333-11.904-11.904
	C71.612,236.478,87.492,220.61,107.014,220.61z"/>
<g>
</g>
<g>
</g>
<g>
</g>
<g>
</g>
<g>
</g>
<g>
</g>
<g>
</g>
<g>
</g>
<g>
</g>
<g>
</g>
<g>
</g>
<g>
</g>
<g>
</g>
<g>
</g>
<g>
</g>
</svg>
