<svg xmlns="http://www.w3.org/2000/svg" viewBox="0 0 1260.38 667.11"><defs><style>.cls-1{fill:#f7931e;}.cls-2{fill:#d6efff;}.cls-3{fill:#598891;}.cls-4{fill:#bdcfd3;}.cls-5{fill:#43666d;opacity:0.34;}.cls-6{fill:#245058;}.cls-7{fill:#1b3c42;}.cls-8{fill:#fff;}.cls-9{fill:#858aa4;opacity:0.44;}.cls-10{fill:#77a1a8;}.cls-11{fill:#e0c57d;}.cls-12{fill:#f3e8cb;}.cls-13{fill:#f15a24;}.cls-14{fill:#debdb5;}.cls-15{fill:#a0a2b3;}.cls-16{fill:#dbe1ff;}.cls-17{fill:#ed1e79;}.cls-18{fill:#ff8abd;}.cls-19{fill:#787a86;}.cls-20{fill:#50515a;}.cls-21{fill:#fff7cf;}.cls-22{fill:#564779;}.cls-23{fill:#41355b;}.cls-24{fill:#fd5e5a;}.cls-25{fill:#c40056;}.cls-26{fill:#ff6dad;}.cls-27{fill:#c2ccff;}.cls-28{fill:#29abe2;}.cls-29{fill:#bfe6ff;}.cls-30{fill:#121841;}.cls-31{fill:#428263;}.cls-32,.cls-39{fill:#386d51;}.cls-33{fill:#387053;}.cls-34{fill:#398755;}.cls-35{fill:#2b5e41;}.cls-36{fill:#499161;}.cls-37{fill:#3e5b45;}.cls-38{fill:#214c35;}.cls-39{opacity:0.43;}.cls-40{fill:#3d7f59;}.cls-41{fill:#367252;}.cls-42{fill:#366b4f;}.cls-43{fill:#aa9157;}.cls-44{fill:#f47b50;}.cls-45{fill:#4778e3;}.cls-46{fill:#6badff;}.cls-47{fill:#57a4ea;}.cls-48{fill:#5fa9f9;}.cls-49{fill:#c3daf4;}.cls-50{fill:#fa6b5b;}.cls-51{fill:#1d2251;}.cls-52{fill:#322144;}.cls-53{fill:#4b3f56;}.cls-54{fill:#fa835b;}.cls-55{fill:#e06d48;opacity:0.54;}.cls-56{fill:#403160;}.cls-57{fill:#316662;}.cls-58{fill:#5a9693;}.cls-59{fill:#508784;}.cls-60{fill:#e68c6e;}.cls-61{fill:#d98568;}.cls-62{fill:#67ada9;}.cls-63{fill:#36706c;}.cls-64{fill:#ffe19f;}.cls-65{fill:#7cd1cc;}.cls-66{fill:#6eb7b1;}.cls-67{fill:#ffc661;}.cls-68{fill:#62004b;}.cls-69{fill:#4c5063;}.cls-70{fill:#464f7c;}.cls-71{fill:#5d69a5;}.cls-72{fill:#c20095;}.cls-73{fill:#da66bf;}.cls-74{fill:#fc7575;}.cls-75{fill:#ff8d8d;}.cls-76{fill:#2d1175;}.cls-77{fill:#2b0549;}.cls-78{fill:#260101;}.cls-79{fill:#521b3b;}.cls-80{fill:#0c0c0d;}.cls-81{fill:#eec48b;}.cls-82{fill:#2846a6;}.cls-83{fill:#2f0954;}.cls-84{fill:#593a76;}.cls-85{fill:#18287d;}.cls-86{fill:#052f43;}.cls-87{fill:#754123;}.cls-88{fill:#007f76;}.cls-89{fill:#60331d;}.cls-90{fill:#00a99d;}.cls-91{fill:#ff1264;}.cls-92{fill:#37686d;}.cls-93{fill:#653870;}.cls-94{fill:#422549;}</style></defs><g id="Layer_2" data-name="Layer 2"><g id="_Layer_" data-name="&lt;Layer&gt;"><ellipse class="cls-1" cx="548.74" cy="600.29" rx="498.36" ry="18.6"/><path class="cls-2" d="M1182,106.43c-20.51-13.68-43.4-24.21-66.44-32.27-255-89.14-530.95-93.64-793-36.33-86.11,18.83-179,42.86-249.83,99.79-69,55.52-98,157.83-46.51,237.1C53.29,416.4,96.93,443.22,141,464.15,292.38,536,460.31,566.74,625.92,572.28c207.49,6.94,530.3,3,619.62-240.61,19.25-52.53,21.86-114.13-4.71-163.11C1226.87,142.82,1206.08,122.46,1182,106.43Z"/><path class="cls-3" d="M819.56,506.68l-20.63-19.11c-8.9-29-13.32-61.48-6.45-93.45a253,253,0,0,1,47.19,15.32l11.12,24,5.29-15.76c11.62,6.61,22.51,14.77,30.29,24.69L880.08,475,895,457.5a47.8,47.8,0,0,1,2.57,10.1c7.64,54.12,6.53,121.2,6.53,121.2h-52.5s-24.79-31-43.15-74.95Z"/><path class="cls-4" d="M850.2,566.32c12.73,6.51,21.83,6.56,25.1,6.3-16.32-22-30.46-49.87-41.43-75-.79,0-1.57.05-2.33.05-14.32,0-25.52-6.24-33.49-13.05l-.87-3c8.08,7.49,20.13,14.87,36,14.36-3.19-7.37-6.21-14.74-9.14-22.19-12-1.6-23.86-9.11-32.1-15.56l-.42-2.55c7.94,6.39,19.88,14.37,31.81,16.28-14.8-38-24.09-68.66-24.19-69l-3-6.89,4.16,4.78c.17.59,7.82,25.47,19.43,56.88,6.18-13.5,2.82-46.5,1.77-55.4l1.75.61c1.23,10.46,4.47,44.07-2.73,56.92a656,656,0,0,0,27.55,64.09c4.41-6.88-2.92-51.38,9.37-68.94,7.49-10.72,8.49-23.19,8.09-31.48l1.7,1.17c.25,8.55-1.06,20.74-8.45,31.31-12.37,17.69-3.88,63.6-9.89,69.57q3.2,6.31,6.56,12.46c12.33-40,12.17-41.44,10.48-57.31-1-9.12-1.88-17.74,4-23.83,5.12-5.28,6.82-15.75,7.29-24.24.54.49,1.08,1,1.6,1.49-.59,8.49-2.48,18.56-7.72,24-9.41,9.7.37,27-3.86,44.18-3.84,15.56-9.73,34.63-10.71,37.77,4.62,8.29,9.45,16.27,14.5,23.7,2.08-1.82,10.82-10.65,8.33-29.24-2-15.09,11.67-34.3,20.77-45.2.08.81.16,1.62.23,2.43-8.87,10.89-21.19,28.82-19.35,42.54,2.65,19.84-6.79,29-9,30.87a179.29,179.29,0,0,0,19.13,23.65h-2.33q-1.76-1.83-3.48-3.77c-6.48,2.09-16.51,1-26.48-6.65A23,23,0,0,0,841,573.94l-1-1.56A24.79,24.79,0,0,1,859.85,577c11.33,8.68,21,7.4,24.24,6.6-2.58-3-5.11-6.11-7.59-9.39-8.33,1.26-19.26-2.39-27-6.36a34.07,34.07,0,0,0-14.81-3.64l-1.06-1.71A35.89,35.89,0,0,1,850.2,566.32Z"/><path class="cls-5" d="M888.69,464.91,895,457.5a47.8,47.8,0,0,1,2.57,10.1c7.64,54.12,6.53,121.2,6.53,121.2S883.6,539.63,888.69,464.91Z"/><path class="cls-6" d="M1076.56,546.22c-2.21,0-30.4-14.81-78.48,0s-83.16,42.58-83.16,42.58,55,11,105.27,2.42S1076.56,546.22,1076.56,546.22Z"/><path class="cls-7" d="M920.66,584.75c31.56-22.4,79.92-45.78,120.6-45.1-8.54,24.9-20,43-42.93,54.16-34.57,2.48-67.34-2-79-3.92C919.69,588.29,920.14,586.57,920.66,584.75Z"/><path class="cls-6" d="M919.42,371.7l20.63,22.42-8.14-46.84a233,233,0,0,1,24.85-35.76c24.87-29.06,69.64-72.21,69.64-72.21a284.3,284.3,0,0,1,21.88,63.18l-23.12,24.41,26.81-2.77C1071.81,481.59,932.72,588.8,932.72,588.8h-28.6s-12.85-128.18-2.49-167.48A313.05,313.05,0,0,1,919.42,371.7Z"/><path class="cls-8" d="M899.17,435.66c.29-2.55.61-5,1-7.2,6,17.13,22,58.36,39.32,69.18q.88-2.58,1.82-5.15c-17.28-6.6-31.23-50.8-38.08-76.91.59-2.06,1.2-4.11,1.84-6.17,7.18,28.59,21.69,74.1,37.4,79.89a240,240,0,0,1,17.46-37.68c5.5-9.35,11.13-22.22,16.65-37-14.91-11.76-26.32-61.67-31.4-88.15.86-1.21,1.72-2.41,2.6-3.59,4.64,24.7,16.19,76.09,30,88.38,4-10.89,7.89-22.74,11.66-34.93-12.66-19.59-16.86-61.07-18.18-81l3.14-3.37c1.05,17.38,4.73,59.33,16.36,80.08,18.59-61.11,34.16-128.38,34.38-129.42l1.24-2.37v2.57c-.25,1.17-17.56,86.36-39.4,152.09,24.64,8.47,51.64-9.43,66.23-21.58-.12,1.59-.26,3.17-.41,4.75a141.62,141.62,0,0,1-12.68,9.07c-14,8.86-27.49,13.36-39.66,13.36a44.58,44.58,0,0,1-14.56-2.37c-6,17.78-12.23,33.95-18.4,46.41,22.19,8,54.46-.89,72.42-7.2-.48,1.41-1,2.8-1.47,4.19-13,4.45-32.09,9.64-50,9.64A65,65,0,0,1,966,447.58q-1.61,3.09-3.21,5.81C933.87,502.45,922.06,581.47,921,588.8h-3.35c.28-2.09,6.33-44.92,20.68-87.88C921.52,491,906.51,455.54,899.17,435.66Z"/><path class="cls-9" d="M932.79,588.8H906.15s6.22-58.93,59.12-98.14L971.64,501l1-15.41q4.6-3,9.64-5.8l8.28,20,3.59-25.91A184.83,184.83,0,0,1,1030.22,462C995.61,539.35,935.06,587,932.79,588.8Z"/><path class="cls-10" d="M818.14,485.42l5.56,25.48,6.73-18.27a160.45,160.45,0,0,1,20.32,15.29l2,12.66,6.53-4.41c17,18.05,29.69,41.72,31.61,72.63H846.65s-95.07-27.2-98.39-127.46A239.77,239.77,0,0,1,818.14,485.42Z"/><path class="cls-4" d="M873.83,588.8h-7.38C814.46,559.7,756.34,471.86,753.8,468l-3.6-5.73,6.34,3.82C757.19,467.05,821.27,563.92,873.83,588.8Z"/><path class="cls-11" d="M965.54,505l5.45,8.83.82-13.2q3.95-2.58,8.25-5l7.09,17.1,3.08-22.19c14.51-6.55,31.78-11.43,52.33-13.62,0,0-4.42,62.09-30.95,89.43s-68,22.65-68,22.65H914.89S920.21,538.63,965.54,505Z"/><path class="cls-12" d="M940.42,589.07h-4.34c63.33-45,101.8-108.13,102.18-108.77l3.33-2-1.21,3.38C1040,482.29,1002.45,543.89,940.42,589.07Z"/><path class="cls-3" d="M261.59,505.12,282.21,486c8.91-29,13.33-61.48,6.46-93.45a252.36,252.36,0,0,0-47.2,15.32l-11.11,24-5.29-15.76c-11.63,6.61-22.52,14.77-30.3,24.69l6.3,32.66-14.95-17.51a48.42,48.42,0,0,0-2.57,10.1c-7.63,54.12-6.52,121.2-6.52,121.2h52.5s24.79-31,43.14-75Z"/><path class="cls-4" d="M231,564.76c-12.74,6.51-21.83,6.56-25.11,6.29,16.33-22,30.47-49.86,41.44-75,.78,0,1.56.05,2.33.05,14.32,0,25.52-6.24,33.48-13.06.3-1,.59-2,.87-3-8.07,7.49-20.12,14.87-35.95,14.36,3.19-7.37,6.22-14.74,9.14-22.19,12-1.6,23.86-9.11,32.11-15.56l.42-2.55c-7.95,6.39-19.88,14.36-31.81,16.28,14.8-38,24.09-68.67,24.18-69l3-6.89-4.17,4.78c-.16.59-7.81,25.47-19.42,56.88-6.18-13.5-2.83-46.5-1.78-55.4l-1.75.61c-1.22,10.46-4.46,44.07,2.74,56.92a661,661,0,0,1-27.55,64.09c-4.41-6.88,2.91-51.38-9.37-68.94-7.49-10.72-8.5-23.19-8.09-31.48l-1.7,1.17c-.25,8.55,1.05,20.74,8.45,31.31,12.37,17.69,3.88,63.6,9.89,69.57q-3.19,6.32-6.56,12.46c-12.33-40-12.17-41.44-10.49-57.31,1-9.12,1.88-17.74-4-23.83-5.13-5.28-6.82-15.75-7.29-24.24-.55.49-1.08,1-1.61,1.49.6,8.49,2.48,18.56,7.73,24,9.4,9.7-.37,27,3.86,44.18,3.83,15.56,9.73,34.63,10.7,37.77-4.61,8.29-9.45,16.27-14.49,23.7-2.08-1.82-10.82-10.65-8.34-29.24,2-15.09-11.66-34.31-20.77-45.2-.07.81-.15,1.62-.23,2.43,8.88,10.89,21.19,28.82,19.36,42.54-2.65,19.84,6.79,29,9,30.87A178.53,178.53,0,0,1,190,587.24h2.34q1.74-1.83,3.47-3.78c6.48,2.1,16.52,1,26.49-6.64a23,23,0,0,1,17.91-4.44l1-1.56a24.76,24.76,0,0,0-19.93,4.62c-11.34,8.68-21,7.4-24.24,6.6,2.57-3,5.11-6.12,7.59-9.39,8.33,1.26,19.26-2.39,27-6.36a34.13,34.13,0,0,1,14.81-3.64l1.07-1.71A35.89,35.89,0,0,0,231,564.76Z"/><path class="cls-5" d="M192.45,463.35l-6.33-7.41a48.42,48.42,0,0,0-2.57,10.1c-7.63,54.12-6.52,121.2-6.52,121.2S197.54,538.07,192.45,463.35Z"/><path class="cls-6" d="M4.59,544.66c2.21,0,30.39-14.82,78.48,0s83.15,42.58,83.15,42.58-55,11-105.26,2.42S4.59,544.66,4.59,544.66Z"/><path class="cls-7" d="M160.48,583.19c-31.56-22.4-79.91-45.78-120.6-45.1,8.55,24.9,20,43,42.94,54.16,34.56,2.48,67.34-2,79-3.92C161.45,586.73,161,585,160.48,583.19Z"/><path class="cls-6" d="M161.73,370.13,141.1,392.56l8.14-46.84A233.28,233.28,0,0,0,124.38,310c-24.87-29.06-69.64-72.21-69.64-72.21a284.81,284.81,0,0,0-21.88,63.18L56,325.34l-26.82-2.77C9.34,480,148.42,587.24,148.42,587.24H177s12.85-128.18,2.48-167.48A312.12,312.12,0,0,0,161.73,370.13Z"/><path class="cls-8" d="M182,434.1c-.28-2.55-.6-5-1-7.2-6,17.13-22,58.36-39.32,69.18q-.88-2.58-1.82-5.16c17.27-6.59,31.22-50.79,38.08-76.9-.59-2.06-1.2-4.11-1.84-6.17-7.18,28.59-21.69,74.1-37.41,79.89a240.86,240.86,0,0,0-17.45-37.68c-5.5-9.35-11.13-22.22-16.65-37,14.91-11.76,26.32-61.67,31.4-88.15q-1.29-1.81-2.6-3.59c-4.65,24.7-16.19,76.09-30,88.38-4-10.89-7.9-22.74-11.67-34.93,12.67-19.59,16.87-61.07,18.18-81-1-1.12-2.08-2.25-3.13-3.37-1.06,17.38-4.74,59.33-16.36,80.08C71.77,309.34,56.21,242.07,56,241l-1.25-2.37,0,2.57c.25,1.17,17.55,86.36,39.39,152.09-24.64,8.47-51.63-9.44-66.22-21.58.12,1.59.25,3.17.4,4.75A144.57,144.57,0,0,0,41,385.56c14.05,8.86,27.49,13.36,39.67,13.36a44.58,44.58,0,0,0,14.56-2.37c6,17.78,12.23,33.95,18.4,46.41-22.19,8-54.46-.89-72.42-7.2.48,1.4,1,2.8,1.46,4.19,13,4.45,32.1,9.64,50,9.64a64.88,64.88,0,0,0,22.5-3.57q1.62,3.09,3.21,5.81c28.87,49.06,40.68,128.08,41.73,135.41h3.35c-.29-2.09-6.33-44.92-20.69-87.88C159.63,489.44,174.64,454,182,434.1Z"/><path class="cls-9" d="M148.36,587.24H175s-6.21-58.93-59.11-98.14l-6.37,10.31-1-15.41q-4.6-3-9.63-5.8l-8.28,20-3.59-25.91A184.83,184.83,0,0,0,50.93,460.4C85.54,537.79,146.08,585.47,148.36,587.24Z"/><path class="cls-10" d="M263,483.86l-5.57,25.48-6.72-18.27a159.74,159.74,0,0,0-20.32,15.29l-2,12.66-6.53-4.41c-17.05,18-29.7,41.72-31.61,72.63H234.5s95.07-27.2,98.38-127.46A239.77,239.77,0,0,0,263,483.86Z"/><path class="cls-4" d="M207.31,587.24h7.39c52-29.1,110.11-116.94,112.65-120.81l3.6-5.73-6.35,3.81C324,465.49,259.88,562.36,207.31,587.24Z"/><path class="cls-11" d="M115.61,503.48l-5.45,8.83-.82-13.2q-3.95-2.58-8.26-5L94,511.24,90.91,489c-14.5-6.54-31.77-11.42-52.33-13.62,0,0,4.43,62.1,31,89.44s68,22.65,68,22.65h28.74S160.93,537.07,115.61,503.48Z"/><path class="cls-12" d="M140.72,587.51h4.35c-63.33-45-101.8-108.13-102.19-108.77l-3.33-2,1.22,3.38C41.15,480.73,78.7,542.33,140.72,587.51Z"/><path class="cls-13" d="M166.22,587.24s-53-24.47-88.24-21.45S6.53,609.22,6.53,609.22s11.54,4.27,28.17,8.52l15.68-12.85L46,620.41c26,5.67,59.24,9.47,82-.47C170.38,601.38,166.22,587.24,166.22,587.24Z"/><path class="cls-14" d="M166.22,587.24s-.67-.32-2.76-1.23c-10.53-.67-44.46-2.51-74-1.38-5-3.94-7-12.6-7.85-19-.82,0-1.62.07-2.42.12.78,6.06,2.61,14.14,6.92,19.08-1.37.06-11,.87-14.27,1.38-5.2-3.86-6.34-11.71-6.34-17.84-.81.25-1.62.51-2.42.79.09,5.87,1.24,13,5.66,17.57-3.16.57-6.25,1.25-9.25,2-6.74-1.13-10.8-7-13-11.84l-2.12,1.25c2,4.27,5.36,9.33,10.69,11.78-2.63.74-5.17,1.53-7.62,2.35-8.74-2.49-12.1-5.43-13.4-7.28l-2,1.44c1.46,2.09,4.62,4.81,11.48,7.2a240.93,240.93,0,0,0-29.78,13l-4.48,2.75,6.37-.6c.3-.19,28.13-16.89,61.24-20.76-8.72,7.22-12.42,22.38-14.55,31.14-.36,1.45-.74,3-1.07,4.21l2.39.38c.28-1,.61-2.35,1-4C67,610,71.38,592,82.34,587.46c1.76-.12,10.63-.48,12.77-.53-8.31,7.41-14.62,27.81-17.46,38.47l2.43.2c3.79-14,11.44-36.29,19.86-38.77C132.4,586.3,166.22,587.24,166.22,587.24Z"/><path class="cls-15" d="M1147.5,77.48H967.72c-24.35,0-44.09,20.42-44.09,45.62V514.25c0,25.2,19.74,45.63,44.09,45.63H1147.5c24.35,0,44.09-20.43,44.09-45.63V123.1C1191.59,97.9,1171.85,77.48,1147.5,77.48Z"/><path class="cls-16" d="M967.72,547.52c-17.72,0-32.14-14.66-32.14-32.67V130.77c0-18,14.42-32.66,32.14-32.66H1147.5c17.72,0,32.14,14.65,32.14,32.66V514.85c0,18-14.42,32.67-32.14,32.67Z"/><path class="cls-17" d="M1179.64,137.18v-6.41c0-18-14.42-32.66-32.14-32.66H967.72c-17.72,0-32.14,14.65-32.14,32.66v6.41Z"/><path class="cls-18" d="M1147.5,98.11h-23.07c14.4,0,26.12,14.65,26.12,32.66v6.41h29.09v-6.41C1179.64,112.76,1165.22,98.11,1147.5,98.11Z"/><path class="cls-17" d="M1124.43,98.11h-30c3.59,0,6.51,14.65,6.51,32.66v6.41h49.59v-6.41C1150.55,112.76,1138.83,98.11,1124.43,98.11Z"/><path class="cls-18" d="M1014.86,98.11H978.34c-14.41,0-26.12,14.65-26.12,32.66v6.41h49.58v-6.41C1001.8,112.76,1007.66,98.11,1014.86,98.11Z"/><path class="cls-17" d="M1058,98.11h-43.15c-7.2,0-13.06,14.65-13.06,32.66v6.41h49.69v-6.41C1051.49,112.76,1054.41,98.11,1058,98.11Z"/><path class="cls-18" d="M1094.45,98.11H1058c-3.6,0-6.52,14.65-6.52,32.66v6.41H1101v-6.41C1101,112.76,1098,98.11,1094.45,98.11Z"/><rect class="cls-19" x="964.31" y="80.6" width="184.61" height="14.42" rx="7.09"/><path class="cls-20" d="M1144,87.94a5.66,5.66,0,1,1-5.66-5.86A5.76,5.76,0,0,1,1144,87.94Z"/><rect class="cls-20" x="1011.65" y="85.43" width="105.06" height="5.02" rx="2.47"/><rect class="cls-8" x="954.63" y="139.31" width="206.24" height="395.74"/><rect class="cls-21" x="977.92" y="238.98" width="176.08" height="269.04"/><path class="cls-22" d="M1136.66,209.57a3.37,3.37,0,1,0,3.37-3.49A3.43,3.43,0,0,0,1136.66,209.57Z"/><path class="cls-23" d="M1138.21,209.57a1.82,1.82,0,1,0,1.82-1.89A1.86,1.86,0,0,0,1138.21,209.57Z"/><path class="cls-22" d="M1122,209.57a3.38,3.38,0,1,0,3.37-3.49A3.43,3.43,0,0,0,1122,209.57Z"/><path class="cls-23" d="M1123.54,209.57a1.83,1.83,0,1,0,1.82-1.89A1.86,1.86,0,0,0,1123.54,209.57Z"/><path class="cls-22" d="M1123.27,200.33,1117,189.08a1.59,1.59,0,0,1,.07-1.68,1.91,1.91,0,0,1,1.61-.82h25a.58.58,0,1,1,0,1.16h-25a.58.58,0,0,0-.52.27.49.49,0,0,0,0,.54l6.29,11.26a.63.63,0,0,0,.56.3h16.34l4.14-15a4,4,0,0,1,3.85-3h4.61a.66.66,0,0,1,0,1.32h-4.61a2.75,2.75,0,0,0-2.62,2l-5.42,19.68h-17.74a.66.66,0,0,1,0-1.31h16.78l.7-2.53h-16A1.92,1.92,0,0,1,1123.27,200.33Z"/><ellipse class="cls-24" cx="1091.14" cy="196.88" rx="12.26" ry="12.68"/><path class="cls-25" d="M935.58,161.41a25.63,25.63,0,0,0,16.64-24.23H935.58Z"/><path class="cls-26" d="M977,162.84c13.69,0,24.79-11.49,24.79-25.66H952.22C952.22,151.35,963.31,162.84,977,162.84Z"/><path class="cls-25" d="M1026.59,162.84c13.69,0,24.79-11.49,24.79-25.66H1001.8C1001.8,151.35,1012.9,162.84,1026.59,162.84Z"/><path class="cls-26" d="M1076.17,162.84c13.69,0,24.79-11.49,24.79-25.66h-49.58C1051.38,151.35,1062.48,162.84,1076.17,162.84Z"/><path class="cls-25" d="M1125.75,162.84c13.7,0,24.8-11.49,24.8-25.66H1101C1101,151.35,1112.06,162.84,1125.75,162.84Z"/><path class="cls-26" d="M1179.64,162.44V137.18h-29.09c0,14.17,11.09,25.66,24.79,25.66A23.56,23.56,0,0,0,1179.64,162.44Z"/><rect class="cls-15" x="133.21" y="74.51" width="731.68" height="513.3" rx="37.36"/><rect class="cls-16" x="260.32" y="-18.26" width="477.47" height="698.83" rx="20.21" transform="translate(830.21 -167.89) rotate(90)"/><path class="cls-27" d="M829.12,92.42H169c-10.67,0-19.35,9.47-19.35,21.11v48.05H848.47V113.53C848.47,101.89,839.79,92.42,829.12,92.42Z"/><rect class="cls-8" x="179.65" y="105.34" width="576.41" height="34.26" rx="16.4"/><rect class="cls-28" x="773.73" y="107.83" width="55.83" height="29.28" rx="14.02"/><rect class="cls-8" x="193.09" y="196.97" width="608.55" height="316.79" rx="29.18"/><path class="cls-27" d="M773.71,197H221c-15.43,0-27.94,13.64-27.94,30.48v12.26H801.65V227.45C801.65,210.61,789.14,197,773.71,197Z"/><rect class="cls-8" x="637.95" y="205.28" width="29.46" height="24.19"/><path class="cls-8" d="M707.71,209.64H677.13a1.8,1.8,0,0,1,0-3.58h30.58a1.8,1.8,0,0,1,0,3.58Z"/><path class="cls-8" d="M707.71,219.72H677.13a1.8,1.8,0,0,1,0-3.58h30.58a1.8,1.8,0,0,1,0,3.58Z"/><path class="cls-8" d="M707.71,229.8H677.13a1.8,1.8,0,0,1,0-3.58h30.58a1.8,1.8,0,0,1,0,3.58Z"/><rect class="cls-29" x="272.42" y="264.79" width="119.96" height="235.45"/><rect class="cls-29" x="444.33" y="264.79" width="119.96" height="228.58"/><rect class="cls-29" x="616.24" y="264.79" width="119.96" height="223.61"/><path class="cls-30" d="M739.48,131.36l-4-7.19a7.68,7.68,0,0,0,2.69-5.91c0-4.11-3.06-7.45-6.83-7.45s-6.82,3.34-6.82,7.45,3,7.45,6.82,7.45a6.33,6.33,0,0,0,2.64-.58l2.85,7.7a2.56,2.56,0,0,0,.11.24,1.44,1.44,0,0,0,2.07.54A1.72,1.72,0,0,0,739.48,131.36Zm-13.35-13.1a5.2,5.2,0,1,1,5.18,5.66A5.44,5.44,0,0,1,726.13,118.26Z"/><path class="cls-22" d="M751.83,231.85a3.72,3.72,0,1,0,3.71-4A3.89,3.89,0,0,0,751.83,231.85Z"/><path class="cls-23" d="M753.54,231.85a2,2,0,1,0,2-2.19A2.1,2.1,0,0,0,753.54,231.85Z"/><path class="cls-22" d="M735.7,231.85a3.72,3.72,0,1,0,3.71-4A3.89,3.89,0,0,0,735.7,231.85Z"/><path class="cls-23" d="M737.41,231.85a2,2,0,1,0,2-2.19A2.1,2.1,0,0,0,737.41,231.85Z"/><path class="cls-22" d="M737.11,221.14l-6.92-13a1.92,1.92,0,0,1,.08-2,2.07,2.07,0,0,1,1.77-.95h27.49a.67.67,0,1,1,0,1.34H732a.69.69,0,0,0-.58.31.62.62,0,0,0,0,.64l6.92,13.05a.67.67,0,0,0,.6.36h18l4.55-17.45a4.49,4.49,0,0,1,4.23-3.48h5.07a.73.73,0,0,1,.7.76.74.74,0,0,1-.7.77h-5.07a3,3,0,0,0-2.88,2.37l-6,22.83H737.37a.74.74,0,0,1-.7-.77.73.73,0,0,1,.7-.76h18.46l.76-2.93H739A2.09,2.09,0,0,1,737.11,221.14Z"/><path class="cls-31" d="M1037.18,362c-1.16.3-10.22,85.11-10.22,85.11s.31-1.7,7.83,1.28,23.37,4.38,23.37,4.38,4.52-38.3,6.81-40.67l9.83,40.67s31.68-7.2,32.67-7.2L1091.13,363s-22.77,5.59-26.74,5.59S1041.53,361,1037.18,362Z"/><path class="cls-32" d="M1037.18,362c-1.16.3-10.22,85.11-10.22,85.11s.31-1.7,7.83,1.28a62.71,62.71,0,0,0,11.69,2.86c.86-13.95,1.09-23.33-2.57-41.62-2.5-12.49,1.43-30.13,4.94-45.4C1043.82,362.76,1039.09,361.56,1037.18,362Z"/><path class="cls-33" d="M1091.13,363s-6.72,1.65-13.49,3.16c1.62,8.68,5.47,24.75,12,27.83a19.4,19.4,0,0,0,8,2.2Z"/><path class="cls-34" d="M1102.27,410.71a58.4,58.4,0,0,1,2.58,5.91c1.89,5.05,2.16,20.5,1.32,22.44s-12.14,3-15.47,1.69c-2.07-.79-2.57-18.74-2.69-27.34,0-2.55,1.83-3.18,4.28-3.41C1098.88,409.37,1101.12,408.4,1102.27,410.71Z"/><path class="cls-35" d="M1095,438.07c-2.28-.86-2.63-20.36-2.69-27.5,0,0-4.29,0-4.26,2.1.1,8.27.57,27.27,2.7,28.08,3.33,1.27,14.64.25,15.47-1.69a4.76,4.76,0,0,0,.23-1C1102.56,438.76,1097.1,438.89,1095,438.07Z"/><path class="cls-36" d="M1107.15,420.47a40.58,40.58,0,0,0-.53-4.43A12.54,12.54,0,0,0,1100,408l-9,.66a3.35,3.35,0,0,0-3,3.41c0,2.34.07,5.77.21,9.45Z"/><path class="cls-37" d="M1031.45,445.63s-4.49-.35-4.49,1.51,24.09,6.35,31.2,5.66C1058.16,452.8,1035.61,445.63,1031.45,445.63Z"/><path class="cls-33" d="M1084.74,450.55c-3.45-8.72-7.28-19.43-9.41-27-1.58-5.59-8.48-22.52-10.36-11.46l9.83,40.67Z"/><path class="cls-31" d="M1083.72,367.93s8.56,21.14,12.87,22.67h1.29l2,16.75L1089,408.87l-11.36-39.43Z"/><path class="cls-38" d="M1083.72,367.93c3.87,8.26,9.54,21,12.89,22.61h0l1.29.06-1.29,0h0C1092.12,388.9,1085.36,372.53,1083.72,367.93Z"/><path class="cls-33" d="M1037.18,362c-.41.11-1.81,10.81-3.45,24.59,4.37,1.26,9.12,2,10.11-.34,1.34-3.22,2.77-15.53,3.5-22.47C1042.89,362.54,1038.9,361.61,1037.18,362Z"/><path class="cls-31" d="M1044.49,367.93s-11.24,20.59-13.27,20.59l.19,18.17,12.5,3.88,5.75-41.25Z"/><path class="cls-39" d="M1040.35,375.26c-3.42,5.92-7.92,13.26-9.13,13.26l.19,18.17,10.51,1.29C1040.89,398.36,1040.49,386,1040.35,375.26Z"/><path class="cls-38" d="M1044.49,367.93c-2.78,5.75-11.19,20.48-13.27,20.59,1.39-.23,6.69-9.65,10.08-15.31Z"/><path class="cls-34" d="M1031.41,406.69a60.08,60.08,0,0,0-4.45,8.81c-2,5-.78,20.49,0,22.45s10.14,3.35,13.48,2.09c2.06-.77,3.12-20.58,3.46-28.51a3.46,3.46,0,0,0-3-3.63Z"/><path class="cls-35" d="M1040.19,407.8c-.33,7.83-1.4,27.89-3.47,28.67s-6.9.52-10.15-.34A9.21,9.21,0,0,0,1027,438c.77,2,10.14,3.35,13.48,2.09,2.06-.77,3.12-20.61,3.47-28.53a3.45,3.45,0,0,0-3-3.61Z"/><path class="cls-35" d="M1036.57,357.82l-.25,8.52s24.3,5.54,31.74,4.1v-6.73S1047.3,363.37,1036.57,357.82Z"/><path class="cls-40" d="M1062.7,367.92h0a4.13,4.13,0,0,0,4.64,4.18l24.88-3.63-.45-9.49s-6.66,2.95-25.48,4.75A4.12,4.12,0,0,0,1062.7,367.92Z"/><path class="cls-41" d="M1062.7,373.67c.85,13.37-.06,27.47,1.39,30.64,1.06,2,3.54,2.61,5.74,2.38-3.52,1.18-6.58-.56-7.18-3-1.32-4.19-1.07-15.79-.81-20.45C1062,380,1062.26,376.84,1062.7,373.67Z"/><path class="cls-38" d="M1068.47,367.55a1.75,1.75,0,1,1-1.75-1.81A1.78,1.78,0,0,1,1068.47,367.55Z"/><polygon class="cls-42" points="1047.74 370.35 1044.69 369.73 1046.48 360.26 1049.53 360.95 1047.74 370.35"/><polygon class="cls-42" points="1076.9 372.47 1074.76 361.93 1077.84 361.45 1079.95 371.81 1076.9 372.47"/><path class="cls-33" d="M1027.47,417.45c.32,1.39.55,3.56-.29,4.93a3.33,3.33,0,0,1-2.73,1.45l.18,2.14a5.32,5.32,0,0,0,4.3-2.44c1.17-1.9,1-4.42.66-6.08Z"/><rect class="cls-43" x="1026.98" y="420.47" width="3.69" height="1.07"/><path class="cls-36" d="M1100,419.15l2.56-.45c.2,1.21,1.09,4.56,2.77,5.53a2,2,0,0,0,2,0l.15,2.77C1103,428.87,1100.84,424.06,1100,419.15Z"/><rect class="cls-43" x="1099.69" y="422.42" width="5.32" height="0.85"/><path class="cls-36" d="M1043.44,420.32c.2-3.5.38-7.23.49-9.59a2.81,2.81,0,0,0-2.24-2.93l-10.29-1.33s-4.2.54-5.61,9c-.14.86-.23,1.87-.41,3.12Z"/><polygon class="cls-44" points="268.83 247.19 263.12 250.08 265.9 256 259.52 255.23 259.64 261.86 253.84 258.98 252.31 265.44 247.25 261.34 244.58 267.39 240.25 262.47 236.69 268.01 233.14 262.47 228.81 267.39 226.14 261.34 221.07 265.44 219.54 258.98 213.74 261.86 213.86 255.23 207.49 256 210.27 250.08 204.55 247.19 210.27 244.29 207.49 238.38 213.87 239.14 213.74 232.51 219.54 235.39 221.07 228.94 226.14 233.03 228.81 226.98 233.13 231.9 236.69 226.36 240.25 231.9 244.58 226.98 247.25 233.03 252.31 228.94 253.85 235.39 259.64 232.52 259.52 239.14 265.9 238.38 263.12 244.29 268.83 247.19"/><path class="cls-8" d="M225.82,242.28l-1.5,1.37c-1.42-2-3-.88-2.32.1,1.22,1.62,4,2.66,4,5.17,0,3.39-4.78,4.57-6.65.73l1.69-1.06c1.23,2.34,3,1.38,3,.42,0-1.53-4.18-3.07-4.18-5.72C219.84,240.92,223.06,239,225.82,242.28Z"/><path class="cls-8" d="M231.15,240.79h2l4.07,11h-2.09l-.83-2.26H230l-.86,2.26h-2.1Zm1,2.91-1.42,3.76h2.83Z"/><path class="cls-8" d="M238.83,240.79h2v9h2.94v2h-4.95Z"/><path class="cls-8" d="M245.32,240.79h5.78v2.05h-3.78v2h3.78v2h-3.78v2.88h3.78v2.05h-5.78Z"/><path class="cls-45" d="M332.22,318.14l2.6-3.66s2.35,9,10.14,10.47,13.34-10.47,13.34-10.47l2.76,7.84L351,343.12l-11.15-1.31-7.61-22.91Z"/><path class="cls-46" d="M372.39,413.33c-4.75-32.78-3.74-34.6-7.71-43.4-.62-1.39-2.76-6.32-3.66-8.53-3.14-7.73,4.1-24.2,4.1-24.2l-1.54-12.75c-.29-2.35-.05-3.69.05-7.71l-5.33-2.26c.22,1.28.23,2.64.55,5a11.8,11.8,0,0,1-2.8,9.5c-3.4,3.74-8.63,6-12.73,4.46s-8.44-6-8.59-10.67a40.43,40.43,0,0,1,.09-8.29l-5.34,1.95c.53,3.57,1.18,5.45,1,8.65l-.75,14.18s7.11,8.89,4.91,23c-.6,3.81-3.54,7.65-5.53,14.07-4.3,13.87-7.47,34.61-10.95,52.58,14.53,8.22,43,10.87,58.28-.65C374.41,424.45,373.21,419,372.39,413.33Z"/><path class="cls-47" d="M372.39,413.33c-4.75-32.78-3.74-34.6-7.71-43.4-.62-1.39-2.76-6.32-3.66-8.53-3.14-7.73,4.1-24.2,4.1-24.2l-1.54-12.75c-.29-2.35-.05-3.69.05-7.71l-2.39-1,1.25,20.16s-5.86,18.09-5.86,23.29,6.41,13.55,7.77,26c1.12,10.17,2.85,37.91,3.44,47.72a33.53,33.53,0,0,0,8.61-4.62C374.41,424.45,373.21,419,372.39,413.33Z"/><path class="cls-48" d="M331.07,382c3.05-14.92,7-16.61,7-24s-4.5-18.4-4.5-18.4a47.68,47.68,0,0,1-1.33-12.12A52.54,52.54,0,0,0,330.68,316l-1.2.44c.53,3.57,1.18,5.45,1,8.65l-.75,14.18s7.11,8.89,4.91,23c-.6,3.81-3.54,7.65-5.53,14.07-4.3,13.87-7.47,34.61-10.95,52.58a44.41,44.41,0,0,0,7.45,3.32C326.27,423.3,328.51,394.49,331.07,382Z"/><path class="cls-49" d="M359,315.79a.18.18,0,0,1-.18-.17v-.49A.18.18,0,0,1,359,315a.18.18,0,0,1,.18.18c0,.15,0,.31,0,.48a.18.18,0,0,1-.17.18Z"/><path class="cls-49" d="M346.18,335.88h-.08c-.3,0-.59,0-.88,0a.18.18,0,0,1-.16-.2.18.18,0,0,1,.19-.16c.28,0,.56,0,.85,0h.08a.17.17,0,0,1,.17.18A.17.17,0,0,1,346.18,335.88Zm.95-.05a.18.18,0,0,1-.18-.17.18.18,0,0,1,.16-.2c.3,0,.61-.07.92-.13a.19.19,0,0,1,.21.15.18.18,0,0,1-.15.21c-.32.06-.64.11-.95.14Zm-2.83-.13h0a7.62,7.62,0,0,1-.94-.24.18.18,0,0,1-.11-.23.17.17,0,0,1,.22-.12,8.46,8.46,0,0,0,.9.23.19.19,0,0,1,.14.22A.18.18,0,0,1,344.3,335.7Zm4.69-.21a.17.17,0,0,1-.17-.14.19.19,0,0,1,.13-.22c.29-.07.6-.16.9-.26a.18.18,0,0,1,.22.11.18.18,0,0,1-.11.23c-.31.11-.62.2-.93.28Zm-6.5-.36h-.07c-.29-.12-.59-.26-.88-.41a.19.19,0,0,1-.08-.24.17.17,0,0,1,.24-.08c.28.14.57.27.85.39a.19.19,0,0,1,.1.24A.18.18,0,0,1,342.49,335.13Zm8.3-.24a.17.17,0,0,1-.16-.11.18.18,0,0,1,.1-.24c.29-.12.58-.24.86-.38a.18.18,0,0,1,.15.33c-.29.14-.59.27-.88.39Zm-10-.61-.09,0c-.27-.16-.55-.33-.82-.51a.19.19,0,0,1-.05-.25.17.17,0,0,1,.24-.05l.81.5a.18.18,0,0,1,.06.24A.18.18,0,0,1,340.78,334.28Zm11.73-.21a.18.18,0,0,1-.15-.1.17.17,0,0,1,.07-.24l.82-.49a.17.17,0,0,1,.24.07.19.19,0,0,1-.06.25l-.83.49Zm-13.32-.85a.17.17,0,0,1-.11,0c-.25-.19-.51-.39-.75-.6a.19.19,0,0,1,0-.26.18.18,0,0,1,.25,0c.24.21.49.41.74.6a.18.18,0,0,1,0,.25A.17.17,0,0,1,339.19,333.22Zm14.94-.17A.17.17,0,0,1,354,333a.18.18,0,0,1,0-.25c.26-.18.52-.37.76-.57a.18.18,0,0,1,.25,0,.2.2,0,0,1,0,.26c-.26.2-.51.39-.78.58A.17.17,0,0,1,354.13,333.05ZM337.72,332a.19.19,0,0,1-.12,0c-.23-.23-.46-.46-.68-.7a.19.19,0,0,1,0-.26.18.18,0,0,1,.25,0c.22.23.44.46.67.68a.19.19,0,0,1,0,.26A.19.19,0,0,1,337.72,332Zm17.92-.11a.18.18,0,0,1-.12-.32c.24-.21.47-.43.7-.65a.18.18,0,0,1,.25,0,.2.2,0,0,1,0,.26c-.23.23-.47.45-.71.67A.15.15,0,0,1,355.64,331.86Zm-19.23-1.3a.17.17,0,0,1-.13-.07c-.21-.25-.41-.52-.59-.78a.19.19,0,0,1,0-.26.16.16,0,0,1,.24,0c.18.26.38.52.58.77a.19.19,0,0,1,0,.25A.21.21,0,0,1,336.41,330.56ZM357,330.5a.19.19,0,0,1-.12,0,.2.2,0,0,1,0-.26c.21-.24.41-.49.59-.74a.17.17,0,0,1,.25,0,.18.18,0,0,1,0,.25,7.64,7.64,0,0,1-.61.77A.16.16,0,0,1,357,330.5ZM335.31,329a.19.19,0,0,1-.15-.09c-.17-.29-.33-.59-.47-.88a.19.19,0,0,1,.09-.24.17.17,0,0,1,.23.08,8.73,8.73,0,0,0,.45.85.19.19,0,0,1-.06.25Zm22.83,0a.14.14,0,0,1-.09,0,.18.18,0,0,1-.06-.25q.24-.41.45-.84a.17.17,0,0,1,.24-.08.18.18,0,0,1,.08.24c-.15.3-.3.59-.47.87A.18.18,0,0,1,358.14,328.94Zm-23.66-1.73a.19.19,0,0,1-.17-.12c-.11-.32-.21-.64-.29-1a.2.2,0,0,1,.13-.22.19.19,0,0,1,.22.14,7.84,7.84,0,0,0,.27.91.18.18,0,0,1-.1.24Zm24.51,0h-.07a.2.2,0,0,1-.1-.24c.12-.3.22-.61.31-.91a.17.17,0,0,1,.21-.13.18.18,0,0,1,.12.23,9.4,9.4,0,0,1-.31.94A.18.18,0,0,1,359,327.19Zm.53-1.88h0a.18.18,0,0,1-.14-.22c.06-.31.11-.63.14-.95a.19.19,0,0,1,.2-.16.17.17,0,0,1,.15.2c0,.33-.08.66-.14,1A.18.18,0,0,1,359.52,325.31Zm-25.5,0a.17.17,0,0,1-.17-.16c0-.21,0-.42-.05-.63l0-.35a.18.18,0,0,1,.16-.2.18.18,0,0,1,.19.16l0,.37a6,6,0,0,0,.05.61.18.18,0,0,1-.16.2Zm25.71-1.95h0a.17.17,0,0,1-.17-.18v-.26c0-.24,0-.47,0-.71a.18.18,0,1,1,.35,0c0,.24,0,.49,0,.73v.27A.17.17,0,0,1,359.73,323.36Zm-25.86,0a.18.18,0,0,1-.18-.17c0-.32,0-.65-.05-1a.18.18,0,0,1,.16-.19.19.19,0,0,1,.19.17c0,.33,0,.65.06,1a.18.18,0,0,1-.17.19Zm25.74-1.94a.18.18,0,0,1-.17-.16c-.05-.32-.09-.64-.14-1a.18.18,0,0,1,.15-.2.17.17,0,0,1,.2.15c0,.32.09.65.14,1a.2.2,0,0,1-.15.21Zm-25.84,0a.19.19,0,0,1-.18-.18l0-1a.19.19,0,0,1,.18-.19.19.19,0,0,1,.18.18c0,.32,0,.64,0,1a.19.19,0,0,1-.17.19Zm25.59-1.93a.18.18,0,0,1-.18-.16c0-.33-.07-.66-.11-1a.18.18,0,0,1,.16-.2.18.18,0,0,1,.19.16c0,.32.07.64.11,1a.18.18,0,0,1-.15.2Zm-25.64,0a.18.18,0,0,1-.17-.19c0-.28,0-.56,0-.83v-.15a.17.17,0,0,1,.17-.18h0a.18.18,0,0,1,.18.18v1a.19.19,0,0,1-.17.19Zm25.43-1.92a.18.18,0,0,1-.17-.17c0-.34-.06-.67-.08-1a.18.18,0,0,1,.17-.19.16.16,0,0,1,.18.16c0,.31.05.64.08,1a.18.18,0,0,1-.16.2Zm-25.42,0h0a.18.18,0,0,1-.18-.18c0-.36,0-.69,0-1a.18.18,0,1,1,.35,0c0,.29,0,.62,0,1A.18.18,0,0,1,333.73,317.47Z"/><path class="cls-49" d="M333.78,315.92h0a.19.19,0,0,1-.17-.19c0-.31,0-.49,0-.49a.17.17,0,0,1,.18-.17.19.19,0,0,1,.17.19s0,.18,0,.48A.19.19,0,0,1,333.78,315.92Z"/><path class="cls-49" d="M344.77,435h0l-.94,0a.17.17,0,0,1-.17-.18.17.17,0,0,1,.18-.18h.93a.18.18,0,0,1,.18.18A.19.19,0,0,1,344.77,435Zm.94,0a.18.18,0,0,1,0-.36h.93a.17.17,0,0,1,.18.17.17.17,0,0,1-.17.19Zm-2.81,0h0l-.94,0a.19.19,0,0,1-.17-.19.2.2,0,0,1,.19-.18l.93,0a.19.19,0,0,1,0,.37Zm4.68,0a.18.18,0,0,1-.17-.18.18.18,0,0,1,.17-.19l.93,0a.18.18,0,0,1,.19.18.19.19,0,0,1-.17.19l-.94,0Zm1.88-.09a.19.19,0,0,1-.18-.17.19.19,0,0,1,.17-.2l.93-.06a.18.18,0,0,1,.19.17.17.17,0,0,1-.16.19l-.94.07Zm-8.44,0h0l-.29,0-.65-.06a.17.17,0,0,1-.16-.19.19.19,0,0,1,.19-.17l.64.05.29,0a.19.19,0,0,1,.17.2A.18.18,0,0,1,341,434.87Zm10.31-.14a.18.18,0,0,1-.18-.17.18.18,0,0,1,.17-.19l.93-.09a.18.18,0,0,1,.19.16.18.18,0,0,1-.16.2l-.94.09Zm-12.17,0h0l-.93-.12a.19.19,0,0,1-.15-.21.17.17,0,0,1,.2-.15l.93.12a.18.18,0,0,1,.15.21A.18.18,0,0,1,339.16,434.7Zm14-.16a.18.18,0,0,1,0-.36l.92-.11a.18.18,0,0,1,0,.36l-.94.11Zm-15.89-.12h0l-.93-.17a.19.19,0,0,1-.14-.22.17.17,0,0,1,.21-.14l.92.17a.18.18,0,0,1,.14.21A.17.17,0,0,1,337.3,434.42Zm17.75-.12a.17.17,0,0,1-.17-.15.19.19,0,0,1,.15-.21l.93-.14a.19.19,0,0,1,.2.16.19.19,0,0,1-.15.2l-.93.14Zm-19.6-.24h0l-.92-.21a.18.18,0,0,1-.14-.22.18.18,0,0,1,.21-.14l.92.21a.2.2,0,0,1,.14.21A.19.19,0,0,1,335.45,434.06Zm21.46-.05a.18.18,0,0,1-.18-.15.19.19,0,0,1,.15-.21l.92-.17a.18.18,0,0,1,.21.15.19.19,0,0,1-.15.21l-.92.17Zm1.84-.35a.18.18,0,0,1-.17-.15.17.17,0,0,1,.14-.21l.92-.2a.18.18,0,0,1,.21.14.19.19,0,0,1-.14.22l-.92.2Zm-25.13,0h0l-.91-.23a.18.18,0,0,1-.13-.22.17.17,0,0,1,.21-.13l.91.23a.18.18,0,0,1,.13.22A.18.18,0,0,1,333.62,433.63Zm27-.39a.17.17,0,0,1-.17-.14.18.18,0,0,1,.13-.21l.91-.24a.18.18,0,0,1,.21.14.18.18,0,0,1-.12.22l-.92.23Zm-28.79-.1h0l-.91-.27a.19.19,0,0,1-.12-.22.18.18,0,0,1,.22-.13l.9.27a.18.18,0,0,1-.05.35Zm30.61-.38a.17.17,0,0,1-.17-.13.18.18,0,0,1,.12-.22l.9-.27a.17.17,0,0,1,.22.12.18.18,0,0,1-.12.23l-.9.27ZM330,432.61H330l-.9-.29a.18.18,0,0,1-.11-.23.18.18,0,0,1,.22-.12l.89.29a.19.19,0,0,1,.12.23A.18.18,0,0,1,330,432.61Zm34.21-.4a.17.17,0,0,1-.17-.13.19.19,0,0,1,.11-.23l.89-.3a.16.16,0,0,1,.22.11.17.17,0,0,1-.11.23l-.89.31Zm-36-.19h-.06l-.89-.3a.19.19,0,0,1-.11-.23.18.18,0,0,1,.23-.12l.88.31a.18.18,0,0,1,.12.23A.19.19,0,0,1,328.21,432Zm37.77-.45a.18.18,0,0,1-.17-.12.19.19,0,0,1,.11-.23l.87-.35a.18.18,0,0,1,.23.1.2.2,0,0,1-.1.24l-.88.35Zm-39.55-.17h-.06l-.88-.32a.19.19,0,0,1-.11-.24.18.18,0,0,1,.23-.11l.88.33a.18.18,0,0,1,.11.23A.19.19,0,0,1,326.43,431.4Zm41.29-.56a.18.18,0,0,1-.16-.1.18.18,0,0,1,.09-.24l.85-.4a.16.16,0,0,1,.23.08.2.2,0,0,1-.08.25l-.86.4Zm-43.06-.1h-.06l-.88-.34a.19.19,0,0,1-.1-.24.17.17,0,0,1,.23-.1l.87.34a.18.18,0,0,1,.11.23A.17.17,0,0,1,324.66,430.74Zm-1.75-.69h-.07l-.87-.36a.2.2,0,0,1-.1-.24.18.18,0,0,1,.23-.1l.87.36a.17.17,0,0,1,.1.23A.16.16,0,0,1,322.91,430.05Zm46.5,0a.18.18,0,0,1-.15-.1.19.19,0,0,1,.07-.25c.28-.14.56-.3.83-.45a.16.16,0,0,1,.23.07.19.19,0,0,1-.06.25l-.84.46Zm-48.24-.7h-.07l-.87-.38a.18.18,0,0,1-.09-.24.17.17,0,0,1,.23-.09l.86.37a.19.19,0,0,1,.1.24A.18.18,0,0,1,321.17,429.32Zm49.88-.25a.19.19,0,0,1-.15-.08.19.19,0,0,1,.06-.25l.79-.52a.17.17,0,0,1,.24.06.18.18,0,0,1-.05.25c-.26.18-.52.35-.8.52A.13.13,0,0,1,371.05,429.07Zm-51.61-.51a.08.08,0,0,1-.07,0l-.87-.4a.18.18,0,0,1-.08-.24.17.17,0,0,1,.23-.09l.86.4a.18.18,0,0,1-.07.35Zm53.18-.55a.19.19,0,0,1-.15-.08.2.2,0,0,1,0-.25l.69-.54a.18.18,0,0,1,.22.28l-.7.55A.14.14,0,0,1,372.62,428Zm1.37-1a.19.19,0,0,1-.15-.08.19.19,0,0,1,0-.25l.69-.54a.18.18,0,0,1,.22.28l-.7.55A.21.21,0,0,1,374,427Z"/><path class="cls-50" d="M1050,290.3l-6.2-26.85,2.92-1.52s18.07,4.05,32.7-1.61l6.24,2.34-5.8,28.92Z"/><path class="cls-51" d="M1082.89,262l2.73.83,0-.18-6.24-2.34c-14.63,5.66-32.7,1.61-32.7,1.61l-2.92,1.52.09.4C1049.09,264.62,1067.52,266.81,1082.89,262Z"/><path class="cls-52" d="M1029.27,297.56l-10.65.46s-1.14,2,1.92,5.19,17,10.22,17.33,8.83-1.06-6.34-2.24-7.56S1029.27,297.56,1029.27,297.56Z"/><path class="cls-53" d="M1018.62,298s17.1,7.41,19.25,14l2.36-11,1.39-22.09-10.87-8.77Z"/><path class="cls-52" d="M1092,311.36a27.68,27.68,0,0,1,1.18-6.47c1.07-3.37,10.61-9.44,12.81-9.95s4.35-.93,5,.89S1094.93,312.59,1092,311.36Z"/><path class="cls-53" d="M1098.6,267.52,1111,295.83s-17.38,5.8-18.94,15.53l-1.91-9.89V283.6Z"/><path class="cls-54" d="M1030.75,270.2s9.6,23.14,9.6,28.94-3.63,53.64-6.56,67.26c0,0,39.35,8.54,61.09,1.17,0,0-7.1-44.18-4.75-66.1.13-1.2,8.47-34,8.47-34l-19.06-7.15s-4.34,16.84-17.36,16.84c-10.4,0-15.88-15.06-15.88-15.06Z"/><path class="cls-55" d="M1043.79,335.47c1.87-8,19.9-4.91,6.69-18.58-10.92-11.3-11.68-40.94-11.61-50.9l-8.12,4.21s9.6,23.14,9.6,28.94-3.63,53.64-6.56,67.26a214.34,214.34,0,0,0,29.49,3.9,16.78,16.78,0,0,0-2.51-12.13C1054.67,349.56,1041.91,343.48,1043.79,335.47Z"/><path class="cls-56" d="M1062.39,279.49c9.57,0,16.18-12,19-18.42l-2-.75S1075,276.53,1062,276.53c-10.4,0-15.26-14.6-15.26-14.6l-2.2,1.14C1047.85,269,1054.88,279.49,1062.39,279.49Z"/><polygon class="cls-57" points="654.24 334.68 657.07 334.89 657.62 338.28 652.37 337.57 654.24 334.68"/><path class="cls-57" d="M700.2,337.77a2.24,2.24,0,0,1,1.51-1.82l5.09,0,1.41,4.28-8.32-.84Z"/><path class="cls-58" d="M672.54,341.47s5.18-38.49,7.41-41,5.62-1.44,6.42,0c1.25,2.24,4.47,42,4.47,42h4.9s-4.52-40.53-9.1-44-8.76.22-10.07,4-8.82,37.46-8.82,37.46Z"/><path class="cls-59" d="M651.83,360.12s-11.21,10.41-12,16.85l.57,10a4.24,4.24,0,0,0,1.24-2.68,26.51,26.51,0,0,1,5.6-12c5-6.58,6.34-7.52,6.34-7.52Z"/><path class="cls-60" d="M647.21,337.29l8,51.71s41.44,1,44.63-.37,11.92-39.07,10.65-48Z"/><path class="cls-61" d="M699.89,388.63c1.91-.83,5.8-14.63,8.34-27.51-3.69,6.69-9.44,15.09-16.18,18-11.83,5.09-36.79,9.89-36.79,9.89S696.7,390,699.89,388.63Z"/><path class="cls-62" d="M709.35,355c1-6.24,1.58-11.69,1.19-14.43l-63.33-3.28,2.53,16.31Z"/><path class="cls-63" d="M674.25,336.15s-11.21.51-17.76,0-9.47,0-9.28,1.14,12.72,4.79,25.65,4.11,15.87.6,21.93,1.19,15.17.43,15.75-2C710.79,339.58,681.21,335.3,674.25,336.15Z"/><path class="cls-62" d="M665.1,341.46s5.11-37.12,8-40.11c2.51-2.61,6.41-1.58,7.24,0s4.73,40.14,4.73,40.14l5.5.69S686.12,303,681,299.4s-10.19.1-11.66,4-9,37.42-9,37.42Z"/><path class="cls-64" d="M651,352.15h0l-.79,0a.07.07,0,1,1,0-.14h0l.8,0a.09.09,0,0,1,.06.08A.06.06,0,0,1,651,352.15Z"/><path class="cls-64" d="M706.61,353.71h0l-1.64,0s-.07,0-.06-.07a.07.07,0,0,1,.06-.07h0l1.64.05a.06.06,0,0,1,.06.07A.06.06,0,0,1,706.61,353.71Zm-3.27-.09h0l-1.63,0a.08.08,0,0,1-.07-.08.07.07,0,0,1,.07-.06l1.64,0s.06,0,.06.07A.07.07,0,0,1,703.34,353.62Zm-3.28-.09h0l-1.63,0a.07.07,0,0,1,0-.14h0l1.63.05a.07.07,0,0,1,0,.14Zm-3.27-.09h0l-1.64-.05a.07.07,0,0,1,0-.14h0l1.63.05a.07.07,0,0,1,0,.14Zm-3.27-.1h0l-1.64,0a.07.07,0,0,1-.07-.07.08.08,0,0,1,.07-.07h0l1.64,0a.06.06,0,0,1,.06.07A.06.06,0,0,1,693.52,353.34Zm-3.27-.09h0l-1.63,0a.08.08,0,0,1-.07-.07.07.07,0,0,1,.07-.07h0l1.64.05a.07.07,0,0,1,.06.07A.06.06,0,0,1,690.25,353.25Zm-3.28-.09h0l-1.64,0a.09.09,0,0,1-.06-.08.07.07,0,0,1,.07-.06h0l1.63,0a.08.08,0,0,1,.07.07A.07.07,0,0,1,687,353.16Zm-3.27-.09h0l-1.64-.05A.07.07,0,0,1,682,353a.06.06,0,0,1,.06-.06h0l1.63,0a.07.07,0,1,1,0,.14Zm-3.27-.09h0l-1.64-.05a.06.06,0,0,1-.06-.07.07.07,0,0,1,.06-.07h0l1.64,0a.06.06,0,0,1,.06.07A.07.07,0,0,1,680.43,353Zm-3.27-.09h0l-1.63-.05a.07.07,0,0,1,0-.14h0l1.64.05a.07.07,0,0,1,0,.14Zm-3.28-.1h0l-1.64,0a.07.07,0,0,1-.06-.07.07.07,0,0,1,.07-.07l1.63.05a.07.07,0,0,1,.07.07A.07.07,0,0,1,673.88,352.79Zm-3.27-.09h0l-1.64,0s-.06,0-.06-.07a.07.07,0,0,1,.06-.07h0l1.63,0a.08.08,0,0,1,.07.07A.07.07,0,0,1,670.61,352.7Zm-3.27-.09h0l-1.64-.05a.07.07,0,0,1-.07-.07s0-.07.07-.06l1.64,0a.06.06,0,0,1,.06.07A.07.07,0,0,1,667.34,352.61Zm-3.27-.09h0l-1.63,0a.07.07,0,0,1-.07-.07.07.07,0,0,1,.07-.06h0l1.64,0a.07.07,0,0,1,0,.14Zm-3.28-.09h0l-1.63-.05a.07.07,0,1,1,0-.14h0l1.64.05a.07.07,0,0,1,.06.07A.07.07,0,0,1,660.79,352.43Zm-3.27-.09h0l-1.64,0a.07.07,0,0,1-.06-.07s0-.06.07-.07l1.63.05a.07.07,0,1,1,0,.14Zm-3.27-.1h0l-1.64,0a.06.06,0,0,1-.06-.07.07.07,0,0,1,.06-.07h0l1.64.05a.06.06,0,0,1,.06.07A.06.06,0,0,1,654.25,352.24Z"/><path class="cls-64" d="M709,353.78h0l-.8,0a.07.07,0,0,1,0-.14h0l.79,0a.08.08,0,0,1,.07.07A.07.07,0,0,1,709,353.78Z"/><path class="cls-65" d="M647.21,337.29c.67,1.39,12.65,4.19,23.62,3.93,2.39-.05,4-.24,8.08-.28,11-.06,14.08,2.08,24.15,1.75,1.8-.05,7-.29,7.48-2.09-.28,1.14-2.33,1.65-3.44,1.88-7.64,1.52-17.85-.42-20.15-.65-12-1.27-17.6,1.46-32.2-1.76C653.75,339.84,647.47,338.32,647.21,337.29Z"/><path class="cls-66" d="M705.12,348a2.66,2.66,0,0,1-2.61-2.73c0-2.84.24-7,0-8.09-.24-1.28-.84-1.26-.84-1.26l5,0a1.09,1.09,0,0,1,1,.75,21.68,21.68,0,0,1,1,4.47,32.58,32.58,0,0,1,.28,4.12,2.66,2.66,0,0,1-2.61,2.72Z"/><path class="cls-64" d="M708.55,345.37h0a.14.14,0,0,1-.09-.17,3.33,3.33,0,0,0,.09-.78.13.13,0,0,1,.13-.14h0a.14.14,0,0,1,.14.14,4,4,0,0,1-.1.85A.14.14,0,0,1,708.55,345.37Z"/><path class="cls-64" d="M706.63,347.27a.13.13,0,0,1-.13-.13.13.13,0,0,1,.12-.15,1.86,1.86,0,0,0,1.16-.59.13.13,0,0,1,.18,0,.14.14,0,0,1,0,.2,2.16,2.16,0,0,1-1.33.67Zm-1.41,0h0a2.1,2.1,0,0,1-1.33-.68.13.13,0,0,1,.19-.19,1.81,1.81,0,0,0,1.16.59.14.14,0,0,1,.12.15A.14.14,0,0,1,705.22,347.27Z"/><path class="cls-64" d="M703.3,345.36a.14.14,0,0,1-.13-.1,3.55,3.55,0,0,1-.1-.86.14.14,0,0,1,.27,0,3.39,3.39,0,0,0,.09.78.15.15,0,0,1-.1.17Z"/><path class="cls-67" d="M658.78,342.25h-5.31a1.42,1.42,0,0,1,0-2.83h5.31a1.42,1.42,0,0,1,0,2.83ZM653.47,340a.87.87,0,0,0,0,1.73h5.31a.87.87,0,0,0,0-1.73Z"/><path class="cls-65" d="M675,347.2a3.11,3.11,0,0,1,2.74-2.61c3.89-.45,13.81-1.28,18.6,1.05,6,2.94-4,3.76-14.61,4.5C675.8,350.55,674.77,348.81,675,347.2Z"/><path class="cls-67" d="M658.78,345.64h-5.31a1.42,1.42,0,0,1,0-2.83h5.31a1.42,1.42,0,0,1,0,2.83Zm-5.31-2.28a.87.87,0,0,0,0,1.73h5.31a.87.87,0,0,0,0-1.73Z"/><rect class="cls-67" x="654.94" y="341.86" width="2.4" height="1.5"/><path class="cls-59" d="M653.3,344.79s1.91,34.08,1.88,37.52c0,1.4-.57,7.06-.57,7.06l2.7-.29s.66-.76,1.6-5.08.45-39.21.45-39.21Z"/><path class="cls-66" d="M654.24,334.68l-.3,5.57h4.84v-4.86a.7.7,0,0,0-.69-.71Z"/><path class="cls-62" d="M659,383.24s-2.13,5.42-10.72,3.05S639.8,377,639.8,377l.5,9.48a2.31,2.31,0,0,0,1.37,2c2.88,1.25,9.78,4.08,12.41,3.79C657.43,391.9,658.85,385.45,659,383.24Z"/><path class="cls-27" d="M699.89,545a5.48,5.48,0,1,1-5.48-5.67A5.58,5.58,0,0,1,699.89,545Z"/><path class="cls-27" d="M723.24,545a5.48,5.48,0,1,1-5.48-5.67A5.58,5.58,0,0,1,723.24,545Z"/><path class="cls-27" d="M746.59,545a5.48,5.48,0,1,1-5.48-5.67A5.58,5.58,0,0,1,746.59,545Z"/><rect class="cls-8" x="292.03" y="463.89" width="84.96" height="6.89"/><rect class="cls-8" x="461.83" y="463.89" width="84.96" height="6.89"/><rect class="cls-8" x="633.74" y="405.8" width="84.96" height="6.89"/><path class="cls-68" d="M1173.06,287.56s-2.62-24.24-8.75-24.24c-12.84,0-34.34,67.15-35,77.05-1.12,16.65,9.94,17.65,20.79,19,10.62,1.32,12.59-22.81,12.59-22.81Z"/><path class="cls-69" d="M1200.88,634.28l1.51,8.61s-3.9,13.16-9.82,19.29-18.64,6.52-18.64,1.3,13.27-21.38,13.27-27.63S1200.88,634.28,1200.88,634.28Z"/><path class="cls-69" d="M1160.58,635.85l2.26,15.9h-39s1.25-3.91,12.59-6.26,12.23-6.78,12.23-6.78l-1.15-9.9,10.33-1.57Z"/><polygon class="cls-70" points="1176.95 453.79 1153.9 537.64 1162.34 638.72 1147.47 638.72 1127.07 531.83 1147.47 409.43 1176.95 453.79"/><path class="cls-71" d="M1147.47,406.17l16,50.57s18.81,68.31,22.21,109.5,0,69.35,0,69.35l18.77,3.12s10.83-85.51,6.8-114.18.9-98.55.9-98.55l-7.7-19.81Z"/><polygon class="cls-72" points="1211.36 267.62 1195.67 262.08 1176.54 260.26 1164.31 263.32 1146.22 341.73 1146.83 413.31 1212.11 412.14 1194.59 365.39 1211.36 267.62"/><path class="cls-24" d="M1187.22,345.83c-4.33,3.12-7.15,7.65-16.48,10.38a161.27,161.27,0,0,0,17.68,12.58A133.09,133.09,0,0,0,1191,346.7C1190.83,346.79,1187.43,345.76,1187.22,345.83Z"/><path class="cls-73" d="M1222.89,282.44c-2.78-9.08-11.53-14.82-11.53-14.82-9.42-1.13-12,49.44-12,49.44l-3.74,28.31c-.77.85-3.57,0-4.58.45-.17,7.82-3,16.12-4.39,23.94,9.32,5.59,19.69,7.76,23.41,3.91C1218.51,364.93,1225.67,291.52,1222.89,282.44Z"/><path class="cls-74" d="M1142.93,318.31c-3.7-.83-15.23,3.32-15.23,3.32s-3,4.4-3,7.23c0,.47.25.71.68.66-.8.6-1.18,1.09-.86,1.42,1.53,1.58,13.57-4.41,14.29-3.66s-13.69,3.17-12.52,5.87c.49,1.13,6-.67,9.5-1.92-3,1.23-7.46,3.21-7.46,4.4,0,1.84,12.56-1,15.31-1,1,0,2.69,1.12,4.59,2.36.85-.16,1.42.26,1.79.14a157.3,157.3,0,0,1,21.36,1.32C1158.26,330.38,1143.93,318.53,1142.93,318.31Zm-13,8.63c-1,.49-1.9,1-2.74,1.45.81-.8,1.47-2.55,2.61-3.39,2.34-1.71,5.87-2.67,6.39-2.12S1133.26,325.24,1129.9,326.94Z"/><path class="cls-75" d="M1197.76,329.12c-.63,3.14-.53,12.52-2,14.87,0,0-1.56-1.14-2.07-.59h0c-5.12,2.82-12.35,10.6-26.45,13.7-13.85,3-32.75,4.56-32.75-5.18s9.46-15.05,15.46-15.05a196.1,196.1,0,0,1,21.36,1.6h0C1183.31,340,1196.51,328.14,1197.76,329.12Z"/><path class="cls-74" d="M1164.5,195.78s-8.41,11.43-9.67,19.19c-1.3,8-2.88,20.75-2.88,20.75h3.43s2.85,7.08,2.85,11.8,7.22,1.77,11.4,1.77,13.5-3.74,17.11-17.31S1197,194.21,1164.5,195.78Z"/><path class="cls-74" d="M1195.68,262.08s-23.2,10.77-23.2,7.08c0-1.12,0-9.07-.74-15.94-.33-3.12-.66-5.95-.84-7.67L1178,227h0l1.38-3.56Z"/><path class="cls-76" d="M1153.09,187.52c-.38.68-7,14.57,4.4,19.87s14.21-2.33,17.25,2.39-2.64,12.36-.17,16.69l3.8.75s.77-2.32,2.29-2.32,1.95,11.91,4.39,11.91,7.2-10.14,9.48-14.86,7-20.66-1.71-24.79-12.54-1-12.54-4.92-3.81.2-3.81.2a7.1,7.1,0,0,1-.75-6.3c1.33-3.34-9.32-4.52-11.79,2.17S1157.28,180.24,1153.09,187.52Z"/><path class="cls-74" d="M1177.4,220.59s-.19,7.76,1.62,7.76,5.77-4.39,5.1-9.07S1178.22,215.16,1177.4,220.59Z"/><path class="cls-24" d="M1178.66,219.74s-.9,3.09.45,4.5,4-2,2.53-4.5S1178.94,218,1178.66,219.74Z"/><path class="cls-76" d="M1158.94,217.59l-.29,1.87s3.18-.39,4.93,1.41,2,2,2,2S1164.63,218.64,1158.94,217.59Z"/><path class="cls-76" d="M1162.37,223.38a1.43,1.43,0,1,1-1.4-1.72A1.59,1.59,0,0,1,1162.37,223.38Z"/><path class="cls-76" d="M1159.67,240.7a5.83,5.83,0,0,0,3-.78,3.15,3.15,0,0,0,1-1.08,3.4,3.4,0,0,0,.38-1.4v-.06a.55.55,0,0,1,.61-.49.56.56,0,0,1,.47.63.19.19,0,0,1,0,.08,4.48,4.48,0,0,1-.78,1.72,3.8,3.8,0,0,1-1.43,1.1A6,6,0,0,1,1159.67,240.7Z"/><path class="cls-76" d="M1148.08,201.68a4.49,4.49,0,0,0,.93,2.3c2,2.69,5.88,3.07,8.48,3.41a16.9,16.9,0,0,1-6.72-.14,7.46,7.46,0,0,1-5.55-5.17Z"/><path class="cls-24" d="M1179.42,247.66a70.38,70.38,0,0,1-7.64,5.55c-.45-4.24-.88-7.66-.88-7.66s2.1,1.87,7.11-18.7a.42.42,0,0,1,0,.13h0C1178.32,228.75,1181.06,246,1179.42,247.66Z"/><path class="cls-76" d="M1157.9,244.3a32.86,32.86,0,0,0-.61,4.79c0,1.75,4.22,3.68,8,2.56s9.07-3.71,10.37-5.05,2.33-19.45,2.33-19.45l-3.44-.68s-1.7,11.8-3.11,13.27S1157.9,244.3,1157.9,244.3Z"/><path class="cls-24" d="M694.89,441.43c.15-.11,14.67-11,13.65-14.05s-5,.14-7.41,2.12-5.49,1.12-5.07-.16c.52-1.57,4.94-1.49,8.64-5a111.94,111.94,0,0,1,11.24-9.51c.11-.07,2.77-2.33,6.84-6.38,2,3.16,4.21,6.16,6.44,9.17l-2.52,1.77c-1.94,5.66-5.56,15-8.57,20.25a37.37,37.37,0,0,1-8,10.1.52.52,0,0,1-.74-.71c2-3.32,7.29-8.91,5.86-11.46-1,0-2.26,1.49-6.38,7.15-1.9,2.61-4.51,6.19-5.18,6.5-3.25.63,1.14-5.09,3.23-7.57s4.68-5,3.85-6.49c-.27-.49-3.57,2.28-7.2,6.29-13.18,14.57-11.1,7.12-4.18.46,6.31-6.07,9.24-8.72,8.87-9.39-.85-.17-2.36,1-7,5.05-2.66,2.31-7.46,5.53-8.42,5.54C691.12,444.74,693.46,442.47,694.89,441.43Z"/><path class="cls-74" d="M929.1,449c-.15-.11-14.84-10.73-13.86-13.83s5,.05,7.44,2,5.5,1,5.07-.24c-.55-1.57-5-1.41-8.72-4.9a113.16,113.16,0,0,0-11.37-9.33c-.12-.06-2.81-2.29-6.93-6.27-1.93,3.19-4.13,6.23-6.31,9.27.84.58,1.68,1.16,2.55,1.73,2,5.62,5.77,14.88,8.87,20.11a37.19,37.19,0,0,0,8.17,10,.52.52,0,0,0,.72-.72c-2.08-3.29-7.41-8.8-6-11.38,1,0,2.28,1.46,6.48,7.05,1.94,2.59,4.6,6.13,5.28,6.42,3.26.59-1.21-5.06-3.34-7.51s-4.76-4.94-4-6.44c.27-.49,3.61,2.23,7.29,6.18,13.39,14.36,11.2,6.95,4.19.4-6.4-6-9.36-8.57-9-9.25.84-.18,2.37,1,7.05,4.94,2.69,2.26,7.54,5.41,8.5,5.41C932.91,452.2,930.54,450,929.1,449Z"/><path class="cls-77" d="M749.89,370.57c18.13-33.65,19.81-75.88,31.9-81.45,6.37-4.23,2.34,31.3,2.41,36-2.47,13.47-4.38,62.63-53.16,98.48-2.07-2.87-13-12.42-14.8-15.44C723.66,400.55,740.35,388.29,749.89,370.57Z"/><polygon class="cls-78" points="799.81 281.98 822.72 281.98 821.98 360.61 791.56 362.75 799.81 281.98"/><polygon class="cls-78" points="760.58 472.58 853.8 472.58 836.87 397.55 782.2 392.48 760.58 472.58"/><path class="cls-78" d="M774.13,658.74c-12.91,0-12.59,5.53-12.59,5.53h37.77s-1.88-17-2.16-21h-8.87C787.3,648.15,784,658.74,774.13,658.74Z"/><path class="cls-78" d="M837.27,660.77c-11.75,0-14.15-14.87-14.49-17.54H814.3c0,.73,0,1.19,0,1.3,0,1.84-2.2,21.77-2.2,21.77h37.77S850.18,660.77,837.27,660.77Z"/><path class="cls-79" d="M833.91,553.73,846,447.31l-3.41-31.5H776.18l-.47,27.76-7,108.14s17.31,90,17,91.52h12.53c0-.32-3.54-98.72-3.54-98.72l14.32-87.66,5.6,92s-2.54,82.93-2.58,94.37h11.8C823.85,643,833.91,553.73,833.91,553.73Z"/><path class="cls-80" d="M843,420l-.45-4.14H776.18l-.06,3.63,13.93,4.94a55.94,55.94,0,0,0,35,.93Z"/><path class="cls-81" d="M847.16,302.89c-7.22-8.46-23.92-22-42.34-18.7l-27.21,10.42-2.77,41.83,0,82.55,68.61.82L850,339.46S854.38,311.36,847.16,302.89Z"/><path class="cls-74" d="M801.83,265.67s-.21,18.21-1.88,27.49c-.64,3.59.93,7.26,3.85,8.58a13.88,13.88,0,0,0,8.58.84c9.28-1.85,9.6-12.73,9.6-12.73l-3.13-33.22Z"/><path class="cls-24" d="M818.85,256.63l-17,9s-.08,6.72-.51,14.08c4.44.23,10-2.4,15.94-10.32.88-1.18,1.7-2.35,2.46-3.5Z"/><path class="cls-74" d="M802.93,219a32,32,0,0,0-8.34,13.84c-2.52,8.68-4.72,15-4.72,15l2.68,1.85s-2.13,12.1-.48,16.24c2.52,6.27,13.15,11.34,25.19-2.77s13.06-26.58,11-32.67S807.66,215.84,802.93,219Z"/><path class="cls-30" d="M821,232.64A14,14,0,0,0,808,229.69c-7.71,2.21-10.31-1.2-8.81-3,0,0-6.77.19-9.29-6.27s-1.89-26,10.07-22.33,9.55,12.55,9.55,12.55,3.83-4.25,7.45-2,3.15,5.35,3.15,5.35,3.3,7.2,7.87,8.12,4.09,11.63,4.09,11.63,2.68,2.21.79,10-13,19.75-13,23.44c0,0-2.74-4.8-.54-12.37s2.21-12-.15-12S821,232.64,821,232.64Z"/><path class="cls-74" d="M817.63,247.79s.77-6.36,2.48-6.36,3.3.69,2.89,4.29-2.18,7.61-4.42,5.95A2.94,2.94,0,0,1,817.63,247.79Z"/><path class="cls-30" d="M837.93,233.2a2.15,2.15,0,0,0-1-1.26c-1.49-.75-3.48.85-4.79,2l-.22-.31a10.35,10.35,0,0,1,3.13-2.82,3.06,3.06,0,0,1,4.38,1.83Z"/><path class="cls-30" d="M836.73,241a7.77,7.77,0,0,0-.05-2.76c-.95-4.45-5.58-4.06-5.8-4.19v-.28c.13.05,6.69-1.44,7.63,5.75a9,9,0,0,1,.07,1.91Z"/><path class="cls-82" d="M801.56,238.35c0,1.57-.59,2.84-1.31,2.84s-1.32-1.27-1.32-2.84.59-2.83,1.32-2.83S801.56,236.79,801.56,238.35Z"/><path class="cls-82" d="M803.8,236.7a9.65,9.65,0,0,0-3.55-5.06l.59-.9a10.34,10.34,0,0,1,3.93,5.62Z"/><path class="cls-83" d="M797.52,285.12l-5.11,187.46H760.58L770,387.44l1.18-53s1.43-36.72,7.91-43S797.52,285.12,797.52,285.12Z"/><path class="cls-24" d="M818.76,245.23s1-2.16,1.89-1.86,1.1,4.65-.49,6.47S817.24,248.68,818.76,245.23Z"/><path class="cls-83" d="M823.07,284.1l-3.35,188.48H853.8s1.29-149.39-2.49-165S823.07,284.1,823.07,284.1Z"/><polygon class="cls-84" points="786.49 469.51 763.13 467.69 766.93 429.38 786.49 429.38 786.49 469.51"/><polygon class="cls-84" points="853.92 471.83 831.01 472.58 831.01 431.54 854.01 431.54 853.92 471.83"/><polygon class="cls-84" points="784.16 286.06 799.81 281.98 795.43 361.63 787.03 316.45 789.87 314.42 784.16 286.06"/><polygon class="cls-84" points="821.69 361.63 822.72 281.98 835.78 288.18 828.67 314.36 830.47 315.83 821.69 361.63"/><path class="cls-85" d="M799.8,260.42c0,2.08-1,3.78-2.14,3.78s-2.14-1.7-2.14-3.78,1-3.79,2.14-3.79S799.8,258.33,799.8,260.42Z"/><path class="cls-77" d="M876.17,376.16c-18.61-33.35-20.88-75.55-33-80.93-6.42-4.13-1.9,31.34-1.9,36,2.66,13.43,5.27,62.55,54.55,97.62,2-2.91,12.79-12.64,14.58-15.69C902.83,405.71,886,393.72,876.17,376.16Z"/><path class="cls-86" d="M457.82,195.29s-1.4,6.2,1.86,8a4.84,4.84,0,0,0,5.76-.85s-.73,8.09,9.41,9.31c5.17.63,7.72-2.16,7.72-2.16s5.25,5.3,12.3,0,5.55-9.16,5.55-9.16a10.12,10.12,0,0,0,6.88-7.3,22.06,22.06,0,0,0-.55-11.38s6.36-8.5,4.81-15.14-3.68-9.45-3.68-9.45,1.55-6.47-3.89-10.24-12.81-1.25-12.81-1.25a14.73,14.73,0,0,0-16.33-5.21c-10.81,3-11.59,8.08-11.59,8.08s-10.15,1.08-11.84,6.64a22.22,22.22,0,0,0,0,11.31s-4.33.44-3.4,4.62,3.4,5.46,3.4,5.46-5.23,2.54-3.53,6.12a4.79,4.79,0,0,0,5.31,2.74s-1.66,6.89-.44,8.3S457.82,195.29,457.82,195.29Z"/><path class="cls-87" d="M485.81,548.68c-5.6,13.53-17.54,17.22-4.48,25.13,6.65,4,4.39,12.66,16.07,16.62,2.54.87,2.82-.76-1.29-7.21-3.2-5-3.57-17.14-3.57-25.65,0-1.71,3.15-7.45,8.18-15.52-3.39-1.08-6.49-3-10.1-4C488.38,542.82,486.69,546.57,485.81,548.68Z"/><path class="cls-87" d="M400.72,465.08c-6.84,2.29-16.82,5.1-18,4.26-3.56-2.55-12.65-6-12.65.94S366,486.81,366,490.66s1.48,8.83,1.86,11c.48,2.69,5,2.78,4.46-4.33-.56-6.9,7.8-17.41,11.15-17.41.65,0,9-1.37,17.27-2.31C399.21,473.81,400.55,469.11,400.72,465.08Z"/><path class="cls-87" d="M485.81,548.68c-5.6,13.53-17.54,17.22-4.48,25.13,6.65,4,4.39,12.66,16.07,16.62,2.54.87,2.82-.76-1.29-7.21-3.2-5-3.57-17.14-3.57-25.65,0-1.71,3.15-7.45,8.18-15.52-3.39-1.08-6.49-3-10.1-4C488.38,542.82,486.69,546.57,485.81,548.68Z"/><path class="cls-88" d="M567.52,431.07c-15.92-53.25-62.11-103.5-62.11-103.5l-31.56,33.24,66.56,82.67a44.85,44.85,0,0,1-6,7.36c-3.63,3.75-41.89,61.16-54,87.16,3.61,1,19.69,5.86,23.08,7,15.81-25.37,47.41-76.7,61-95.75A20.93,20.93,0,0,0,567.52,431.07Z"/><path class="cls-87" d="M469.92,189.83c1.05,1.09,12.31,27.52,7.63,35.46,0,0,15.4,4.87,21.35,1.54s.55-8.86.55-8.86l-11.6-21.39Z"/><path class="cls-89" d="M493.88,207.71l-6-11.13-17.93-6.75c.47.49,3,6.1,5.22,12.85,5.41,4.42,16.49,6,18.42,5.22C493.65,207.86,493.78,207.76,493.88,207.71Z"/><path class="cls-87" d="M517.9,314.35c1.46-25.78,2.75-54.39,3.23-67.15l-15.72-32.5a112.55,112.55,0,0,1-15.91,6.49s-54.95,1.35-70.38-5.76-40.69-72.65-40.69-75.73-4.37-8.94-3.34-12.11-1-5.09-3-1.92S372,135,372,135s-14-20.18-14.68-18,6.13,12.88,6.13,12.88-9.47-14-11.15-12.3c-1.24,1.28,3.5,8.37,6,12,.91,1.24,1.5,2.08,1.5,2.08s-.62-.83-1.5-2.08c-3.06-4.17-9.77-13-9.77-9.84,0,4,11.73,16.82,11.73,16.82s-13.1-11-11.61-7,21.57,17.46,23.43,22.84,22.15,66.48,31,75.65,57.23,16.05,65.84,21.81,20.89,34.81,17.08,47a78.12,78.12,0,0,1-5.93,12.82C492.72,308.89,505.31,311.48,517.9,314.35Z"/><path class="cls-90" d="M517.6,319.59c.1-1.73.2-3.48.3-5.24-12.59-2.87-25.18-5.46-37.77-4.72-6.14,11.27-14.26,24-14.26,30,0,8.47,28.69,99.93,28.69,99.93-11.56-8.59-72.17,13.24-99.15,22.28-.17,4,.91,12.8,2.42,16.57,26.8-3,83.73-9.7,107.85-12.54,7.57-.89,10.35-10.45,10.76-18.32,1.35-26,2.3-73.4,2.3-84.48C518.74,357.8,516.41,340,517.6,319.59Z"/><path class="cls-87" d="M568.25,87.12c-1.27,0-.64,6.21-.64,8.72,0,.39.06.85-.09.94-.68.42-6.69-14.1-8-12.69-.83.86,1.57,4.92,2.84,8,.66,1.18,1.79,5.46,1.12,4.43a26.72,26.72,0,0,1-2.28-4.43c-1.92-3.4-5.48-6.44-5.89-6.44-1.86,0-1.27,2,1.35,4.73s4.47,8.4,4.47,8.4-2.79-3.65-5.39-6.34-5.76-2.31-3.53,0,7.43,7.69,7.43,11.53-1,5.7-2.47,4.23-1.71-8.74-3.84-6.53,3.34,16.78,3.34,16.78,4,26.65-10.4,58.43c-8.61,19-27.24,31.16-40.81,37.84l15.72,32.5c.12-3.31.19-5.56.19-6.4,0-6.92,35.55-47.28,38.52-55.7s3.59-53.6,4.83-61.16,6.33-12.78,6.67-17.77C571.76,100,568.74,87.12,568.25,87.12Z"/><path class="cls-91" d="M506.61,214.1l20,35.28L520,327.57,478.15,309.5s5.49-21,4.06-22.48-2.61-2.11-1.4-3.36,1.4,0-1.11-2.6-1.3-1.25-.65-3.84,2.36-.5-.87-3.84S473,221.26,473,221.26l5.23,0s10.47,32.48,25,28.73-2.85-33-2.85-33Z"/><path class="cls-92" d="M370.07,470.28c0,6.92-4.09,16.53-4.09,20.38s1.48,8.83,1.86,11c.42,2.33,3.9,2.71,4.44-1.9v-3.24s-.86-8.65-.86-11.29c0-2.08,5-13.3,7.17-18C374.66,465.68,370.07,465.36,370.07,470.28Z"/><path class="cls-92" d="M497.4,590.43c2.54.87,2.82-.76-1.29-7.21-.11-.18-.21-.38-.32-.58-4.92-3.77-9.43-12.1-10.7-16.18a47.32,47.32,0,0,0-4.31-9.08c-5,7-9.17,10.55.55,16.43C488,577.84,485.72,586.47,497.4,590.43Z"/><path class="cls-93" d="M481.55,159.43s4.66-9.92,12-9.92c4.37,0,5.65,4.67,5.65,4.67a8,8,0,0,1,7,2.78c3,3.51,0,5.76,0,5.76s5.59,1.44,7.77,3.95.16,7.77-1.87,7.77c0,0,2.34,3-.15,7.39s-7.62,3.6-7.62,3.6a4.64,4.64,0,0,1-1.4,5.91c-3.26,2.62-10,.07-11.19-4.23a5,5,0,0,1-5.83-3c-1.95-4.13.74-8.4.74-8.4s-4.46-4.7-4.46-8.83,6.13-5.47,6.13-5.47S478.29,159.43,481.55,159.43Z"/><path class="cls-87" d="M492.29,160.88c2.61,1.7,7.26,6.54,6.88,10.61s2.84,9.45,1.61,17.87-5.59,13.65-7.65,14.52-15.4-1.13-18.83-6.86-13.51-13.42-5-28S487.17,157.52,492.29,160.88Z"/><path d="M492.44,181.4a6.78,6.78,0,0,0,3.12,1.59,28.5,28.5,0,0,1-1.93,3.59,25.35,25.35,0,0,1,.76-2.91,5.6,5.6,0,0,1-3.94-4.88A8.89,8.89,0,0,0,492.44,181.4Z"/><path d="M487.7,178.09c-.84-1.61-2.55-2.89-4.15-2.23s-2.05,2.56-3.64,3.13c1.57.38,2.74-1.68,3.95-2.15S486.43,177.18,487.7,178.09Z"/><path d="M493.09,179c.85-1.62,2.56-2.89,4.16-2.23s2.05,2.57,3.64,3.15c-1.58.37-2.75-1.69-3.95-2.17S494.37,178.07,493.09,179Z"/><path d="M483.11,169.29c-1.61-.17-3.19.91-4.28,2.26,2.89-1.94,4.41-1.49,6.07-.28s1.92,2.08,2.39,1.48C487.9,172,485.17,169.59,483.11,169.29Z"/><path d="M496.31,172.29c.86-.1,1.85.61,2.9,1.1-1.88-2.86-4-3.1-5.87.25-.3.55.37,1.11.73.61C494.07,174.25,495.79,172.35,496.31,172.29Z"/><path d="M489.29,191.56s6.95-2.06,6.95-1-.68,3.78-.68,4.71-.51,2.28-2.8,2.28S489.29,192.91,489.29,191.56Z"/><path class="cls-8" d="M489.29,191.56a7.84,7.84,0,0,0,.23,1.57c1.52-.53,4.93-1.59,6.52-.94a11.21,11.21,0,0,0,.2-1.61C496.24,189.5,489.29,191.56,489.29,191.56Z"/><path class="cls-94" d="M486.14,158.27s-10.45,4.82-7.31,6.22,1.13,7.07-.81,7.07.14,3.92,2,5.54-1.65,5.42-3.5,5.42,4.61,1.83,1.5,6-8.16,1.89-8.16,1.89a3.3,3.3,0,0,1,0,3.59c-1.24,1.74-10.22,4.39-10.22-.84s2.57-5.28,2.57-5.28-4.22-1.24-5-4.71,4.15-3.48,4.15-3.48-5.83-2.12-4.25-6.34,4.79-3.91,4.79-3.91-7.27-7.69.71-12.1c4.5-2.5,7.59-.66,7.59-.66s.26-2.81,6.83-3.65S486.14,158.27,486.14,158.27Z"/></g></g></svg>