<svg xmlns="http://www.w3.org/2000/svg" viewBox="0 0 1125.23 632.19"><defs><style>.cls-1{isolation:isolate;}.cls-2{fill:#ccebff;}.cls-3,.cls-6{fill:#245058;}.cls-4{fill:#1b3c42;}.cls-5{fill:#306b75;}.cls-6{opacity:0.42;}.cls-7{fill:#acc4c8;}.cls-11,.cls-8{fill:#e6d097;}.cls-9{fill:#f5ecd5;}.cls-10{fill:#f15a24;}.cls-11{opacity:0.51;}.cls-104,.cls-107,.cls-11,.cls-118,.cls-82,.cls-94{mix-blend-mode:multiply;}.cls-12{fill:#b9bcfc;}.cls-13{fill:#eceef6;}.cls-14{fill:#598891;}.cls-15{fill:#bdcfd3;}.cls-16{fill:#43666d;opacity:0.34;}.cls-17{fill:#e0e3f1;}.cls-18{fill:#858aa4;}.cls-18,.cls-74{opacity:0.44;}.cls-19{fill:#77a1a8;}.cls-20{fill:#e0c57d;}.cls-21{fill:#f3e8cb;}.cls-22{fill:#debdb5;}.cls-23{fill:#41355b;}.cls-24{fill:#95d6ff;}.cls-25{fill:#ed1e79;}.cls-26{fill:#ff8abd;}.cls-27{fill:#2b243d;}.cls-28{fill:#564779;}.cls-29{fill:#16121e;}.cls-30{fill:#e3e4fe;}.cls-31{fill:#fff;}.cls-32{fill:#fff7cf;}.cls-33{fill:#fd5e5a;}.cls-34{fill:#ed1c24;}.cls-35{fill:#c40056;}.cls-36{fill:#ff6dad;}.cls-37{fill:#e8c379;}.cls-38{fill:#570a39;}.cls-39{fill:#603e6b;}.cls-40{fill:#1b427e;}.cls-41{fill:#41889a;}.cls-42{fill:#ffff6e;}.cls-43{fill:#723c19;}.cls-44{fill:#592c13;}.cls-45{fill:#7a442a;}.cls-46{fill:#49220f;}.cls-47{fill:#29abe2;}.cls-48{fill:#3d8aab;}.cls-49{fill:#cd3179;}.cls-50{fill:#9e005d;}.cls-51{fill:#60213e;}.cls-52{fill:#a6cb73;}.cls-53{fill:#ff0;}.cls-54{fill:#fc7575;}.cls-55{fill:#552e5d;}.cls-56{fill:#643e6d;}.cls-57{fill:#095270;}.cls-58{fill:#acfcdd;}.cls-59{fill:#38534a;}.cls-60{fill:#ff9739;}.cls-61{fill:#4f6c61;}.cls-62{fill:#8addbd;}.cls-63{fill:#fffae3;}.cls-64{fill:#f478af;}.cls-65{fill:#f98f8f;}.cls-66{fill:#363f2a;}.cls-67{fill:#e79258;}.cls-68{fill:#0e1b29;}.cls-69{fill:#1b3753;}.cls-70{fill:#40232f;}.cls-71{fill:#9c5222;}.cls-72{fill:#753e1a;}.cls-73{fill:#673770;}.cls-74{fill:#f74733;}.cls-75{fill:#331579;}.cls-76{fill:#2e88c2;}.cls-77{fill:#190b3d;}.cls-78{fill:#0e061e;}.cls-79,.cls-82{fill:#d39926;}.cls-80{fill:#fcb942;}.cls-81{fill:#c18017;}.cls-82{opacity:0.72;}.cls-83{fill:#ef5050;}.cls-84{fill:#ff846c;}.cls-85{fill:#a02d4e;}.cls-86{fill:#e8316e;}.cls-87{fill:#e1e1e1;}.cls-88{fill:#af3152;}.cls-89{fill:#931643;}.cls-90{fill:#421120;}.cls-91{fill:#d8d0c7;}.cls-92{fill:#aaa59f;}.cls-93,.cls-94{fill:#bdb8b0;}.cls-118,.cls-94{opacity:0.29;}.cls-95{fill:#992549;}.cls-96{fill:#84183f;}.cls-97{fill:#f5f6f3;}.cls-98{fill:#d1d1d1;}.cls-99{fill:#dd3a6c;}.cls-100{fill:#fcfafb;}.cls-101{fill:#681634;}.cls-102{fill:#cec4c8;}.cls-103{fill:#efe6e9;}.cls-104{fill:#b7b2ab;}.cls-104,.cls-112{opacity:0.35;}.cls-105{fill:#7f5f16;opacity:0.38;}.cls-106{fill:#5b1f30;}.cls-107{fill:#300c1a;}.cls-107,.cls-115{opacity:0.4;}.cls-108{fill:#4f172a;}.cls-109{fill:#d3c888;}.cls-110{fill:#f2e8b1;}.cls-111{fill:#633b49;}.cls-112,.cls-113{fill:#efa8c3;}.cls-112,.cls-113,.cls-115{mix-blend-mode:overlay;}.cls-113{opacity:0.13;}.cls-114{fill:#634f16;}.cls-115{fill:#e5c77f;}.cls-116{fill:#3a1203;}.cls-117{fill:#2a3d2a;}.cls-118{fill:#142114;}.cls-119{fill:#394939;}.cls-120{fill:#4d594d;}.cls-121{fill:#93673e;}.cls-122{fill:#363f36;opacity:0.45;}.cls-123{fill:#bc875b;}.cls-124{fill:#d38d5e;}.cls-125{fill:#7f4b24;}.cls-126{fill:#f9b88c;}.cls-127{fill:#633e25;}.cls-128{fill:#fcb37c;}</style></defs><g class="cls-1"><g id="Layer_2" data-name="Layer 2"><g id="_Layer_" data-name="&lt;Layer&gt;"><path class="cls-2" d="M173.23,523.75l214.91-1.18s56.14,41,238.82,34.1c84.56-3.21,173.42-80.79,173.42-80.79h20.1S761.15,627,547.13,632,217.83,560.5,173.23,523.75Z"/><polygon class="cls-2" points="812.98 469.76 700.33 507.44 766.95 503.99 797.68 507.44 835.35 535.21 820.48 470.37 812.98 469.76"/><path class="cls-3" d="M914.44,480s-31.89-59.9-46.23-45.56-32.05-16.86-54-23.12c0,0-76-20.85-76-6.95s20.2,22.66,17.2,34.07C750,458.94,802,452.86,789.49,457s-6.09,23,18.94,23Z"/><path class="cls-4" d="M914.44,480s-31.89-59.9-46.23-45.56-32.05-16.86-54-23.12c0,0-16.54-4.53-34.19-8,1.77,18,38.2,11.31,38.2,16.56,0,7.37-22.74-8.1-30.69,12.95C781.1,450,816.08,478.23,834.07,480Z"/><path class="cls-5" d="M874.82,479.62S822.16,353.45,846.66,329s41.19.52,51.1-9.39-36.5-77.16-8.34-105.31,43.27,26.59,59.43,10.43S960.32,87,1004.12,97.46s-16.69,127.22,0,127.22,33.36-34.41,50.05-1.05-87.59,110.53-40.67,110.53,36.5,32.33,25,57.35S961.36,480,961.36,480Z"/><path class="cls-6" d="M1022.23,334.59c-1.69,7.3-3.35,12.66-5.19,14.49-9,9-13.15-13.16-37.81-8.33-6.94,1.36-11.87,13.11-15.37,29.29-17.52,2-29,16.18-36.37,33.8-1.52-5.84-4-10.89-7.65-14.58-21.94-21.94-28.37-4.83-48.1,0-14,3.43.64-41-3.22-71.43-6.45.31-13.72,3-21.86,11.12-24.5,24.5,28.16,150.67,28.16,150.67l39.61.17c0,.08,0,.14,0,.21h46.92s65.69-63.46,77.17-88.49C1049.22,368.18,1059,338.49,1022.23,334.59Z"/><path class="cls-7" d="M1053.46,222.26c-19.26,26-53.86,69-82.42,85,17.64-93.66,30.77-183,34.56-209.38-.48-.15-1-.29-1.48-.41s-1.06-.23-1.58-.32c-2.83,19.7-11.06,75.71-22.63,142.79C974,218.67,967,193.06,962,174.06l-1.25,7.5c7,26.14,16,58.53,17.94,65.57q-1.29,7.38-2.62,14.92l-21.21-50.56c-.46,1.67-.93,3.24-1.43,4.67L975,267.72c-4.75,26.56-9.93,54.22-15.44,81.61C933.89,328,909.78,249,898.57,207.62a23.29,23.29,0,0,0-2.89,1.54c11.48,42.55,36.13,123,63.22,143.61-8.49,41.91-17.74,83-27.34,118.28-24.47-16.77-58.38-107.58-73.37-150.58-.93.44-1.87.95-2.83,1.52,15.28,44,49.72,136.11,75.33,152.23-.52,1.9-1.05,3.78-1.57,5.64h3.32q5.89-21,12-46.33c21.52-10.59,75.37-57.32,103.08-82a21.39,21.39,0,0,0-1.09-3.25c-26.36,23.44-78.4,68.68-101,81.17q11.76-49.42,24.26-115c.2-1.09.41-2.18.62-3.27,29.36-15.13,64.67-58.68,84.68-85.63a17.27,17.27,0,0,0-.81-1.94Z"/><path class="cls-8" d="M774.57,288.41c19.69-19.69,60.62,39.5,60.62,39.5s9.92-13.35,25.13-8.35c31.7,10.43.42,86.38,17.1,82.29s22.12-18.55,40.67,0,0,77.77,0,77.77l-77.93.38s-50.85-19.15-43-40,22.94-14.08,22.94-21.38-48.48-7.89-45.36-32.36,25-11.95,25-19.25S761.28,301.71,774.57,288.41Z"/><path class="cls-9" d="M906.09,393.39a15.31,15.31,0,0,0-3.13-.7c-.18,11.47-2,55.7-19.35,67.15q-16.93-39.39-48-90.08c-4.55-7.41-9.11-14.65-13.62-21.66a209.43,209.43,0,0,0,3.4-33q-1.42-1.74-3-3.57a227.61,227.61,0,0,1-2.85,32.71q-4.57-7.05-9-13.7L797.8,289.12q-2-1.22-3.93-2.16l10.63,34.69c-9.62-14.18-18.41-26.58-25.44-36.28a12.9,12.9,0,0,0-2.74,1.54C790.5,306.47,812,337.18,833,371.42q3.22,5.26,6.31,10.42c-7,4.51-25.86-4.18-40.8-12.73a14,14,0,0,1-5.05.72c11.89,7.1,29.44,16.27,40.77,16.27a12.68,12.68,0,0,0,6.67-1.58q5.5,9.28,10.51,18.2c-18,3-57.66-5.18-76-9.38a15,15,0,0,0,1.86,3.65c16.29,3.68,45.15,9.51,64.64,9.51a57.74,57.74,0,0,0,11.12-.9c15.35,27.57,27.08,52.41,35.07,74.17l3.48,0q-3-8.21-6.68-17C903.85,450.92,905.9,406.35,906.09,393.39Z"/><path class="cls-10" d="M961.36,480s0-124,20.86-128.11,10.43,23.63,18.07,16,11.82-88,32.67-79.47,8.53,30.11,23,27.33,6.17-54.92,36.06-60.48,13.9,27.11,4.17,42.41,16.18,2.71,25.72,19.46c21.9,38.41-73.16,58.57-63.26,68.47s57-14.94,52.14,12.86S1002.38,480,1002.38,480Z"/><path class="cls-11" d="M1049.55,433.26c6-12.39,16-23.63,9.75-34.28a14.41,14.41,0,0,0-9.06-6.71c4.3-10,9.61-21.37,3.65-31.39-3.62-6.09-10.33-10-20-10.43-49.56-2-72.5,129.55-72.5,129.55h41s42.55-22.07,74.39-45.25C1069.67,426,1059.36,428.08,1049.55,433.26Z"/><path class="cls-12" d="M932.86,479.62s-6.53-89.5,22.46-94,15.78,31.14,30.37,25.83S999.6,358,1033,360.84s-9.73,41,10.43,41-7.27,22.95-7.27,41.1,53.21-20.19,59.56,4.42c9,35-54.37,32.63-54.37,32.63Z"/><path class="cls-13" d="M1073.33,476.44c-21.8-4.89-68.14-11.13-86.54.79-.64.87-1.28,1.73-1.92,2.57h-4c3-3.83,5.85-7.86,8.67-12-6.76-20.43-6.09-43.63-5-56h0l.15,0h0l.6-.17,0,0,.11,0,.06,0,.1,0,.16-.05.16-.06,0,0,.12-.05,0,0,.1,0,.05,0,.15-.06.06,0,.08,0,.08,0,.06,0,.09,0,0,0,.32-.18,0,0,.1-.06,0,0c.16-.09.32-.2.48-.31h0c-1.06,11.08-2.1,33.73,4,54.07,3.72-5.67,7.3-11.56,10.73-17.53-7.2-6.73-6.53-33.6-5.06-52.49h0c.23-.56.47-1.13.71-1.69v0c.06-.12.11-.25.16-.37,1-2.38,2-4.84,3.11-7.28-2.33,22.8-3.16,52.47,2.65,59.08,18.34-32.6,31.91-67.06,37.2-81.21a9.61,9.61,0,0,1,2.62,1.92,636.53,636.53,0,0,1-29.58,67.05A372.36,372.36,0,0,1,991,471.27c21.52-10.38,75.41-2.06,90.33,2.34A57.89,57.89,0,0,1,1073.33,476.44Z"/><path class="cls-14" d="M208.89,436.87l16.76-15c7.24-22.8,10.84-48.29,5.25-73.4a210.49,210.49,0,0,0-38.36,12l-9,18.84L179.2,367c-9.44,5.19-18.3,11.6-24.62,19.39L159.7,412l-12.15-13.75a37.47,37.47,0,0,0-2.09,7.93c-6.2,42.51-5.3,95.19-5.3,95.19h42.67a270.35,270.35,0,0,0,35.07-58.86Z"/><path class="cls-15" d="M184,483.72c-10.35,5.11-17.74,5.15-20.4,4.94,13.27-17.27,24.76-39.16,33.68-58.88.64,0,1.27,0,1.89,0,11.64,0,20.74-4.9,27.22-10.25.24-.79.47-1.59.71-2.39-6.57,5.88-16.36,11.68-29.23,11.28,2.6-5.79,5.06-11.57,7.44-17.42,9.76-1.26,19.39-7.16,26.09-12.22.12-.67.23-1.34.34-2-6.46,5-16.16,11.28-25.85,12.79,12-29.83,19.58-53.93,19.65-54.2l2.4-5.41-3.38,3.76c-.13.46-6.35,20-15.79,44.67-5-10.6-2.3-36.52-1.44-43.51l-1.42.48c-1,8.22-3.63,34.61,2.22,44.7a508.42,508.42,0,0,1-22.39,50.34c-3.59-5.4,2.36-40.36-7.62-54.15-6.09-8.41-6.9-18.21-6.58-24.72l-1.38.92c-.2,6.71.86,16.29,6.87,24.59,10.06,13.89,3.15,49.95,8,54.64q-2.6,5-5.33,9.79c-10-31.43-9.89-32.55-8.52-45,.78-7.17,1.52-13.94-3.28-18.72-4.16-4.15-5.54-12.37-5.92-19-.44.39-.88.77-1.3,1.17.48,6.67,2,14.58,6.27,18.82,7.65,7.61-.3,21.2,3.14,34.7,3.12,12.22,7.91,27.2,8.7,29.66-3.75,6.52-7.68,12.78-11.78,18.62-1.69-1.43-8.8-8.37-6.78-23,1.64-11.85-9.47-26.94-16.87-35.5-.07.64-.13,1.27-.19,1.91,7.21,8.55,17.22,22.63,15.73,33.41-2.16,15.59,5.52,22.79,7.33,24.25a141.44,141.44,0,0,1-15.55,18.57h1.89c.95-1,1.89-1.95,2.83-3,5.27,1.64,13.42.77,21.53-5.22a19.18,19.18,0,0,1,14.55-3.49l.85-1.22a20.65,20.65,0,0,0-16.21,3.63c-9.21,6.81-17,5.81-19.7,5.18q3.13-3.51,6.17-7.38c6.77,1,15.65-1.87,22-5a28.59,28.59,0,0,1,12-2.86c.29-.44.57-.89.86-1.35A30.16,30.16,0,0,0,184,483.72Z"/><path class="cls-16" d="M152.7,404.07l-5.15-5.82a37.47,37.47,0,0,0-2.09,7.93c-6.2,42.51-5.3,95.19-5.3,95.19S156.83,462.76,152.7,404.07Z"/><path class="cls-3" d="M0,467.93c1.8,0,24.71-11.64,63.79,0a232.43,232.43,0,0,1,67.59,33.44S86.7,510,45.82,503.27,0,467.93,0,467.93Z"/><path class="cls-4" d="M126.71,498.19c-25.65-17.59-64.95-35.95-98-35.42C35.63,482.33,45,496.56,63.58,505.3c28.1,2,54.74-1.58,64.24-3.07C127.5,501,127.13,499.62,126.71,498.19Z"/><path class="cls-3" d="M127.72,330.86,111,348.47l6.61-36.79a183.36,183.36,0,0,0-20.2-28.09c-20.22-22.82-56.6-56.71-56.6-56.71A218.21,218.21,0,0,0,23,276.5l18.8,19.17L20,293.5C3.86,417.17,116.91,501.37,116.91,501.37h23.25s10.44-100.67,2-131.54A239.77,239.77,0,0,0,127.72,330.86Z"/><path class="cls-17" d="M144.18,381.1q-.35-3-.79-5.66c-4.9,13.45-17.87,45.84-32,54.33-.48-1.35-1-2.7-1.48-4,14-5.18,25.38-39.9,31-60.41-.48-1.61-1-3.23-1.49-4.84-5.84,22.45-17.64,58.19-30.41,62.74a186.83,186.83,0,0,0-14.18-29.59c-4.48-7.35-9-17.45-13.54-29.08,12.12-9.23,21.39-48.43,25.52-69.23-.7-.95-1.4-1.89-2.11-2.82-3.78,19.4-13.16,59.77-24.42,69.42-3.23-8.56-6.41-17.86-9.48-27.44,10.3-15.38,13.71-48,14.78-63.63q-1.26-1.32-2.55-2.64c-.86,13.64-3.85,46.59-13.3,62.9C54.61,283.11,42,230.27,41.78,229.46l-1-1.87v2c.2.91,14.27,67.82,32,119.45-20,6.65-42-7.41-53.83-17,.1,1.25.21,2.5.33,3.74A115.31,115.31,0,0,0,29.61,343c11.41,7,22.34,10.49,32.24,10.49a37.14,37.14,0,0,0,11.83-1.86c4.87,14,9.94,26.67,15,36.45-18,6.27-44.27-.7-58.86-5.65.38,1.1.78,2.2,1.19,3.29,10.6,3.49,26.08,7.57,40.64,7.57a54.49,54.49,0,0,0,18.29-2.8c.87,1.61,1.74,3.14,2.61,4.56,23.46,38.53,33.06,100.6,33.91,106.35h2.73c-.24-1.64-5.15-35.28-16.82-69C126,424.56,138.22,396.71,144.18,381.1Z"/><path class="cls-18" d="M116.86,501.37H138.5s-5-46.28-48-77.08l-5.17,8.1-.78-12.1c-2.49-1.57-5.1-3.1-7.83-4.56l-6.73,15.68L67,411.06a154.38,154.38,0,0,0-29.36-9.31C65.8,462.53,115,500,116.86,501.37Z"/><path class="cls-19" d="M210,420.18l-4.52,20-5.47-14.35a129.63,129.63,0,0,0-16.51,12l-1.6,9.94-5.31-3.46c-13.85,14.17-24.14,32.77-25.69,57h35.93s77.27-21.36,80-100.11A199.6,199.6,0,0,0,210,420.18Z"/><path class="cls-15" d="M164.78,501.37h6c42.26-22.85,89.49-91.84,91.56-94.88l2.93-4.5-5.16,3C259.59,405.75,207.5,481.83,164.78,501.37Z"/><path class="cls-20" d="M90.24,435.58l-4.43,6.94-.67-10.37c-2.14-1.35-4.37-2.65-6.71-3.9l-5.76,13.43-2.5-17.43c-11.79-5.14-25.83-9-42.54-10.7,0,0,3.6,48.77,25.16,70.25S108,501.58,108,501.58H131.4S127.08,462,90.24,435.58Z"/><path class="cls-21" d="M110.65,501.58h3.53c-51.47-35.36-82.74-84.92-83.05-85.43l-2.71-1.59,1,2.65C29.72,417.72,60.24,466.1,110.65,501.58Z"/><path class="cls-10" d="M131.38,501.37s-43.12-19.22-71.73-16.84-58.07,34.1-58.07,34.1,9.38,3.36,22.9,6.7l12.74-10.1-3.56,12.2c21.11,4.45,48.15,7.44,66.63-.38C134.75,512.48,131.38,501.37,131.38,501.37Z"/><path class="cls-22" d="M131.38,501.37s-.55-.25-2.25-1c-8.56-.53-36.14-2-60.17-1.08-4-3.1-5.69-9.91-6.38-15-.66,0-1.32.05-2,.1.63,4.75,2.12,11.1,5.63,15-1.12.05-8.94.68-11.6,1.09-4.23-3-5.15-9.2-5.15-14-.66.2-1.32.4-2,.62.07,4.61,1,10.24,4.6,13.81-2.57.44-5.08,1-7.52,1.57-5.48-.89-8.77-5.54-10.59-9.3-.57.32-1.15.64-1.72,1,1.62,3.35,4.35,7.32,8.68,9.25q-3.19.87-6.18,1.85c-7.11-2-9.85-4.27-10.9-5.73l-1.6,1.14c1.18,1.64,3.76,3.77,9.33,5.65a199.64,199.64,0,0,0-24.2,10.21l-3.65,2.16L9,518.25c.25-.15,22.86-13.27,49.78-16.31-7.09,5.68-10.1,17.58-11.83,24.46-.29,1.14-.6,2.37-.87,3.31L48,530c.23-.82.5-1.85.82-3.14,1.93-7.64,5.5-21.78,14.41-25.33,1.43-.09,8.63-.37,10.38-.41C66.82,507,61.7,523,59.39,531.35l2,.15c3.08-11,9.3-28.5,16.14-30.45C103.89,500.63,131.38,501.37,131.38,501.37Z"/><rect class="cls-23" x="120.55" y="1.59" width="301.02" height="523.67" rx="49.53"/><path class="cls-24" d="M170.07,511.85c-19.91,0-36.11-15.91-36.11-35.46V59.45C134,39.89,150.16,24,170.07,24H372c19.91,0,36.11,15.9,36.11,35.46V476.39c0,19.55-16.2,35.46-36.11,35.46Z"/><path class="cls-25" d="M408.15,66.4v-7C408.15,39.89,392,24,372,24h-202C150.16,24,134,39.89,134,59.45v7Z"/><path class="cls-26" d="M372,24H346.12c16.18,0,29.34,15.9,29.34,35.46v7h32.69v-7C408.15,39.89,392,24,372,24Z"/><path class="cls-25" d="M346.12,24H312.44c4,0,7.32,15.9,7.32,35.46v7h55.7v-7C375.46,39.89,362.3,24,346.12,24Z"/><path class="cls-26" d="M223,24H182c-16.18,0-29.34,15.9-29.34,35.46v7h55.7v-7C208.36,39.89,214.94,24,223,24Z"/><path class="cls-25" d="M271.5,24H223c-8.09,0-14.67,15.9-14.67,35.46v7h55.82v-7C264.18,39.89,267.46,24,271.5,24Z"/><path class="cls-26" d="M312.44,24H271.5c-4,0-7.32,15.9-7.32,35.46v7h55.58v-7C319.76,39.89,316.48,24,312.44,24Z"/><path class="cls-27" d="M365.82,20.63H174.07a7.82,7.82,0,0,1-7.82-7.82h0A7.83,7.83,0,0,1,174.07,5H365.82a7.84,7.84,0,0,1,7.83,7.83h0A7.83,7.83,0,0,1,365.82,20.63Z"/><path class="cls-28" d="M368.12,13a6.36,6.36,0,1,1-6.35-6.36A6.35,6.35,0,0,1,368.12,13Z"/><path class="cls-29" d="M334.72,15.67H222.15A2.72,2.72,0,0,1,219.42,13h0a2.73,2.73,0,0,1,2.73-2.73H334.72A2.73,2.73,0,0,1,337.45,13h0A2.72,2.72,0,0,1,334.72,15.67Z"/><rect class="cls-30" x="155.37" y="68.71" width="231.69" height="429.6"/><rect class="cls-31" x="264.18" y="176.91" width="115.16" height="139.2"/><rect class="cls-31" x="264.18" y="336.38" width="115.16" height="139.2"/><rect class="cls-32" x="177.53" y="186.42" width="73.23" height="13.98"/><rect class="cls-32" x="177.53" y="214.93" width="73.23" height="13.98"/><rect class="cls-32" x="177.53" y="243.44" width="73.23" height="13.98"/><rect class="cls-32" x="177.53" y="340.15" width="73.23" height="13.98"/><rect class="cls-32" x="177.53" y="368.66" width="73.23" height="13.98"/><rect class="cls-32" x="177.53" y="397.17" width="73.23" height="13.98"/><path class="cls-28" d="M359.86,145a3.79,3.79,0,1,0,3.79-3.78A3.78,3.78,0,0,0,359.86,145Z"/><path class="cls-23" d="M361.6,145a2,2,0,1,0,2-2A2.05,2.05,0,0,0,361.6,145Z"/><path class="cls-28" d="M343.38,145a3.79,3.79,0,1,0,3.79-3.78A3.79,3.79,0,0,0,343.38,145Z"/><path class="cls-23" d="M345.12,145a2.05,2.05,0,1,0,2.05-2A2.05,2.05,0,0,0,345.12,145Z"/><path class="cls-28" d="M344.82,135l-7.07-12.22a1.65,1.65,0,0,1,.08-1.82,2.19,2.19,0,0,1,1.81-.9h28.08a.64.64,0,1,1,0,1.26H339.64a.69.69,0,0,0-.59.3.53.53,0,0,0,0,.59l7.06,12.21a.71.71,0,0,0,.62.34h18.37l4.65-16.33a4.51,4.51,0,0,1,4.32-3.26h5.18a.72.72,0,0,1,0,1.43h-5.18a3.06,3.06,0,0,0-2.94,2.22L365,140.15H345.09a.72.72,0,1,1,0-1.43h18.85l.78-2.74h-18A2.17,2.17,0,0,1,344.82,135Z"/><circle class="cls-33" cx="308.72" cy="131.21" r="13.77" transform="translate(-2.36 256.73) rotate(-45)"/><polygon class="cls-34" points="266.02 136.08 258.5 139.76 262.16 147.27 253.78 146.3 253.94 154.72 246.32 151.07 244.31 159.26 237.65 154.06 234.14 161.75 228.45 155.5 223.77 162.53 219.1 155.5 213.41 161.75 209.9 154.06 203.24 159.26 201.23 151.07 193.61 154.72 193.77 146.3 185.39 147.27 189.04 139.75 181.53 136.08 189.04 132.41 185.39 124.89 193.77 125.86 193.61 117.45 201.23 121.1 203.24 112.9 209.9 118.1 213.41 110.42 219.1 116.67 223.77 109.64 228.45 116.67 234.14 110.42 237.65 118.1 244.31 112.9 246.32 121.1 253.94 117.45 253.78 125.87 262.16 124.89 258.5 132.41 266.02 136.08"/><path class="cls-31" d="M209.48,129.86l-2,1.73c-1.87-2.59-4-1.11-3.06.13,1.6,2.07,5.26,3.38,5.26,6.57,0,4.31-6.29,5.81-8.75.92l2.23-1.34c1.62,3,3.92,1.75,3.92.53,0-1.94-5.49-3.9-5.49-7.26C201.63,128.13,205.86,125.65,209.48,129.86Z"/><path class="cls-31" d="M216.5,128h2.68l5.36,13.91h-2.76L220.69,139H215l-1.13,2.86h-2.75Zm1.36,3.69L216,136.43h3.72Z"/><path class="cls-31" d="M226.58,128h2.65v11.39h3.86v2.52h-6.51Z"/><path class="cls-31" d="M235.12,128h7.59v2.59h-5v2.52h5v2.54h-5v3.66h5v2.6h-7.59Z"/><path class="cls-35" d="M134,92.7a27.87,27.87,0,0,0,18.7-26.3H134Z"/><path class="cls-36" d="M180.51,94.25A27.85,27.85,0,0,0,208.36,66.4h-55.7A27.85,27.85,0,0,0,180.51,94.25Z"/><path class="cls-35" d="M236.21,94.25A27.85,27.85,0,0,0,264.06,66.4h-55.7A27.85,27.85,0,0,0,236.21,94.25Z"/><path class="cls-36" d="M291.91,94.25A27.85,27.85,0,0,0,319.76,66.4h-55.7A27.85,27.85,0,0,0,291.91,94.25Z"/><path class="cls-35" d="M347.61,94.25A27.85,27.85,0,0,0,375.46,66.4h-55.7A27.85,27.85,0,0,0,347.61,94.25Z"/><path class="cls-36" d="M408.15,93.82V66.4H375.46a27.85,27.85,0,0,0,27.85,27.85A27.57,27.57,0,0,0,408.15,93.82Z"/><path class="cls-37" d="M506.83,318.53l1.59-.38c-.67-2.86-1.35-5.69-2.1-8.49l-1.67.09C505.43,312.63,506.13,315.56,506.83,318.53Z"/><path class="cls-37" d="M494,285.49c-10.1-4.79-18.45,7.08-22.47,12.79-2.58,3.67-5,7.53-7.35,11.47l1.42.82c2.27-3.9,4.72-7.72,7.27-11.35,3.76-5.34,11.56-16.46,20.43-12.25,3.28,1.56,5.1,5.63,6.57,8.91a94.59,94.59,0,0,1,4.78,13.87l1.67-.09a96.23,96.23,0,0,0-5-14.45C499.78,291.69,497.82,287.31,494,285.49Z"/><polygon class="cls-38" points="563.55 383.07 548.99 507.39 528.53 504.07 558.14 383.11 563.55 383.07"/><polygon class="cls-39" points="531.6 389.7 529.97 389.53 534.16 350.77 493.86 354.82 493.69 353.2 536 348.94 531.6 389.7"/><polygon class="cls-40" points="492.55 345.86 429.58 411.29 483.14 455.45 532.14 377.02 492.55 345.86"/><path class="cls-32" d="M551.61,392.14c-.8-1.1-19.47-27.05-15.57-37.37a3.43,3.43,0,0,1,2.5-2.21c8.84-2.06,37.05,23.85,40.23,26.81l-1.11,1.2c-8.49-7.88-32-28-38.75-26.41a1.76,1.76,0,0,0-1.34,1.19c-3.6,9.5,15.17,35.57,15.36,35.83Z"/><path class="cls-37" d="M554.11,386.33c-1.83-7.84-3.75-15.48-7-22.64-1.46-3.29-3.29-7.36-6.56-8.92-8.87-4.2-16.68,6.91-20.43,12.25-2.56,3.64-5,7.45-7.28,11.35l-1.41-.82c2.3-3.94,4.77-7.8,7.35-11.47,4-5.7,12.36-17.58,22.47-12.79,3.82,1.82,5.78,6.2,7.35,9.72,3.27,7.3,5.21,15,7.07,22.94Z"/><polygon class="cls-41" points="510.06 372.25 447 475.9 528.53 504.07 558.14 383.11 510.06 372.25"/><polygon class="cls-42" points="536.8 384.3 555.89 458.78 617.18 441.25 586.79 369.62 536.8 384.3"/><path class="cls-31" d="M542.24,393a3.72,3.72,0,1,0-4.51-5.09l1.16,4.51A3.71,3.71,0,0,0,542.24,393Z"/><path class="cls-31" d="M554.2,389.23a3.72,3.72,0,1,0-4.67-2.43A3.72,3.72,0,0,0,554.2,389.23Z"/><path class="cls-31" d="M566.16,385.46a3.72,3.72,0,1,0-4.67-2.43A3.71,3.71,0,0,0,566.16,385.46Z"/><path class="cls-31" d="M578.12,381.7a3.72,3.72,0,1,0-4.67-2.44A3.72,3.72,0,0,0,578.12,381.7Z"/><path class="cls-31" d="M585.41,375.5a3.72,3.72,0,0,0,4.67,2.43l.21-.07L587.38,371A3.74,3.74,0,0,0,585.41,375.5Z"/><path class="cls-31" d="M545.14,402.23a3.72,3.72,0,1,0-4.79-4.11l.72,2.82A3.72,3.72,0,0,0,545.14,402.23Z"/><path class="cls-31" d="M554.87,391.36a3.72,3.72,0,1,0,4.67,2.43A3.72,3.72,0,0,0,554.87,391.36Z"/><path class="cls-31" d="M566.83,387.59A3.72,3.72,0,1,0,571.5,390,3.72,3.72,0,0,0,566.83,387.59Z"/><path class="cls-31" d="M578.79,383.83a3.72,3.72,0,1,0,4.67,2.43A3.72,3.72,0,0,0,578.79,383.83Z"/><path class="cls-31" d="M588.32,384.73a3.72,3.72,0,0,0,4.67,2.43,3.67,3.67,0,0,0,1-.51l-2.84-6.7-.43.11A3.72,3.72,0,0,0,588.32,384.73Z"/><path class="cls-31" d="M548.05,411.46a3.72,3.72,0,1,0-4.67-2.43A3.72,3.72,0,0,0,548.05,411.46Z"/><path class="cls-31" d="M562.44,403a3.72,3.72,0,1,0-2.43,4.67A3.71,3.71,0,0,0,562.44,403Z"/><path class="cls-31" d="M572,403.92a3.72,3.72,0,1,0-4.67-2.43A3.71,3.71,0,0,0,572,403.92Z"/><path class="cls-31" d="M581.7,393.06a3.72,3.72,0,1,0,4.67,2.43A3.72,3.72,0,0,0,581.7,393.06Z"/><path class="cls-31" d="M593.66,389.29a3.72,3.72,0,0,0,2.23,7.1,3.67,3.67,0,0,0,1.76-1.18l-2.58-6.08A3.61,3.61,0,0,0,593.66,389.29Z"/><path class="cls-31" d="M551,420.69a3.72,3.72,0,1,0-4.67-2.43A3.72,3.72,0,0,0,551,420.69Z"/><path class="cls-31" d="M562.92,416.92a3.72,3.72,0,1,0-4.67-2.43A3.72,3.72,0,0,0,562.92,416.92Z"/><path class="cls-31" d="M574.88,413.16a3.72,3.72,0,1,0-4.67-2.44A3.72,3.72,0,0,0,574.88,413.16Z"/><path class="cls-31" d="M584.6,402.29a3.72,3.72,0,1,0,4.67,2.43A3.73,3.73,0,0,0,584.6,402.29Z"/><path class="cls-31" d="M596.57,398.52a3.72,3.72,0,1,0,4.57,4.93l-2-4.82A3.72,3.72,0,0,0,596.57,398.52Z"/><path class="cls-31" d="M553.87,429.92a3.72,3.72,0,1,0-4.67-2.43A3.73,3.73,0,0,0,553.87,429.92Z"/><path class="cls-31" d="M565.83,426.15a3.72,3.72,0,1,0-4.67-2.43A3.71,3.71,0,0,0,565.83,426.15Z"/><path class="cls-31" d="M577.79,422.39a3.72,3.72,0,1,0-4.67-2.44A3.72,3.72,0,0,0,577.79,422.39Z"/><path class="cls-31" d="M587.51,411.52a3.72,3.72,0,1,0,4.67,2.43A3.72,3.72,0,0,0,587.51,411.52Z"/><path class="cls-31" d="M599.47,407.75a3.72,3.72,0,1,0,4.82,3.11l-.81-1.9A3.74,3.74,0,0,0,599.47,407.75Z"/><path class="cls-31" d="M556.77,439.15a3.72,3.72,0,1,0-4.67-2.43A3.72,3.72,0,0,0,556.77,439.15Z"/><path class="cls-31" d="M568.73,435.38a3.72,3.72,0,1,0-4.66-2.43A3.71,3.71,0,0,0,568.73,435.38Z"/><path class="cls-31" d="M580.69,431.62a3.72,3.72,0,1,0-4.66-2.43A3.72,3.72,0,0,0,580.69,431.62Z"/><path class="cls-31" d="M592.66,427.85a3.72,3.72,0,1,0-4.67-2.43A3.73,3.73,0,0,0,592.66,427.85Z"/><path class="cls-31" d="M602.38,417a3.72,3.72,0,1,0,4.67,2.44A3.72,3.72,0,0,0,602.38,417Z"/><path class="cls-31" d="M557.44,441.28a3.72,3.72,0,1,0,4.67,2.43A3.72,3.72,0,0,0,557.44,441.28Z"/><path class="cls-31" d="M569.4,437.52a3.72,3.72,0,1,0,4.67,2.43A3.72,3.72,0,0,0,569.4,437.52Z"/><path class="cls-31" d="M581.37,433.75a3.72,3.72,0,1,0,4.66,2.43A3.73,3.73,0,0,0,581.37,433.75Z"/><path class="cls-31" d="M595.56,437.08a3.72,3.72,0,1,0-4.67-2.43A3.72,3.72,0,0,0,595.56,437.08Z"/><path class="cls-31" d="M605.29,426.21a3.72,3.72,0,1,0,4.66,2.44A3.72,3.72,0,0,0,605.29,426.21Z"/><path class="cls-31" d="M565,452.94a3.72,3.72,0,1,0-4.84,4.61l4.23-1.2A3.74,3.74,0,0,0,565,452.94Z"/><path class="cls-31" d="M577,449.18a3.72,3.72,0,1,0-4.22,4.78l3.17-.91A3.72,3.72,0,0,0,577,449.18Z"/><path class="cls-31" d="M588.94,445.41a3.72,3.72,0,1,0-3.14,4.82l1.19-.34A3.74,3.74,0,0,0,588.94,445.41Z"/><path class="cls-31" d="M596.23,439.21a3.72,3.72,0,1,0,4.67,2.43A3.72,3.72,0,0,0,596.23,439.21Z"/><path class="cls-31" d="M608.19,435.45a3.72,3.72,0,1,0,4.67,2.43A3.72,3.72,0,0,0,608.19,435.45Z"/><path class="cls-43" d="M508.14,204.45s12.38,41.6,14.8,65.42,8.88,42.23,14.79,64.31,2.65,32,1.07,32-5.17-3-7.56-3-1.25.82-3.72-2.36,0-3.18,0-9.24-8.72-43.33-15-62.48S498.42,203.53,508.14,204.45Z"/><path class="cls-44" d="M511,400.56l18.73,53.06s-4.85,18.72-2.17,31.65,5.73,82,5.73,82h11.6l9.8-118.6-14.26-70.44Z"/><path class="cls-45" d="M470.84,394.77v63.75s-20.61,6-28.85,14.27-52.53,43.48-52.53,43.48l1.37,10.19,103.19-51,14.71-91.39Z"/><polygon class="cls-46" points="540.39 378.27 510.96 400.56 514.18 409.68 544.08 396.48 540.39 378.27"/><path class="cls-44" d="M504.53,410.16l4.2-26.09-37.89,10.7V420C481.21,416.08,495.93,411,504.53,410.16Z"/><path class="cls-12" d="M470,325.66s-16.5,23.19-16.5,37,3.57,47.7,3.57,47.7l101.46-17.28-48.32-59.85Z"/><path class="cls-47" d="M500.84,202.81s-10.2,3.8-13.93,11.93c-4.22,9.24-1.94,21.37-.05,37.25,3.57,29.87-2.61,56.36-10.7,63.39-11.85,10.28-24.39,30.48-24.39,30.48s43.14,3,68.11-.58c0,0-2.93-20.67-.79-38.58,2.81-23.54,13.1-48.92,13.1-57.78,0-15.61-3.81-17.91-17.9-44.47C512.2,200.5,500.84,202.81,500.84,202.81Z"/><path class="cls-48" d="M521,291.26c-26.46-1.47-33.82,4.55-34.5-2.64,0-.06,0-.14,0-.2a79.46,79.46,0,0,1-4.39,17.33c8.23.47,20.46.37,37.31-1.68.6-4.25,1.42-8.54,2.35-12.76Z"/><path class="cls-49" d="M372.2,511.06v13.67c0,5.62-.67,14.6-.67,17.41s6.56,13,8.71,12.33,1.6-9.91,4-14.74,10.12-13.6,8.85-14.87-.27-8.84-1.88-10.45S373.6,509.65,372.2,511.06Z"/><path class="cls-50" d="M375.87,513.07c3.5,22.44-3.26,16,2.8,38-2.14-5.33-4.26-13.23-3.16-18.9a51.68,51.68,0,0,0,.62-9.49C376.13,519.47,376,516.28,375.87,513.07Z"/><path class="cls-50" d="M382,526.91l2.66,12.63,6.44-8.9-4.55-7.25S382.39,523,382,526.91Z"/><path class="cls-49" d="M535.72,586.2l12.43-5.69c5.11-2.34,13.55-5.46,16.11-6.63s9.09-11.38,7.59-13-9.69,2.66-15.08,2.48-10.82-5.17-11.45-3.48-13.68,5.54-14.47,7.67S533.85,585.51,535.72,586.2Z"/><path class="cls-51" d="M536,582c19-12.51,15.94-3.71,33.38-18.35-4,4.16-10.26,9.39-15.88,10.74a52.39,52.39,0,0,0-8.89,3.38C541.73,579.12,538.88,580.56,536,582Z"/><polygon class="cls-50" points="542.07 567.09 547.29 571.89 554.24 561.88 549.43 559.48 542.07 567.09"/><path class="cls-45" d="M506,232.29c1.59-4.51,3.6-18.73-5.59-22.76-18.34-8-19.16,29.57-26,55.47s-5.73,32.1-5.73,32.1,15.27,4.24,51.93,0,37.63,2.69,42.94,4.94,7.7,7.36,9.41,5.65L567.08,301s6.34,6.06,7.09,5.31-6.81-8-6.81-8,6.24,5.32,6.86,5.32-6.59-9.41-11.22-11.8-15.52-5.1-42-6.47-33.82,4.23-34.5-2.45S501.46,245.06,506,232.29Z"/><polygon class="cls-52" points="459.27 308.01 447 367.72 528.21 367.82 512.25 308.01 459.27 308.01"/><polygon class="cls-53" points="512.69 309.66 458.93 309.66 458.74 310.57 512.93 310.57 512.69 309.66"/><polygon class="cls-53" points="514.06 314.8 457.87 314.8 457.68 315.71 514.31 315.71 514.06 314.8"/><polygon class="cls-53" points="515.43 319.94 456.81 319.94 456.63 320.85 515.68 320.85 515.43 319.94"/><polygon class="cls-53" points="516.81 325.08 455.76 325.08 455.57 325.99 517.05 325.99 516.81 325.08"/><polygon class="cls-53" points="518.18 330.22 454.7 330.22 454.52 331.13 518.42 331.13 518.18 330.22"/><polygon class="cls-53" points="519.55 335.36 453.65 335.36 453.46 336.27 519.79 336.27 519.55 335.36"/><polygon class="cls-53" points="520.92 340.49 452.59 340.49 452.4 341.4 521.16 341.4 520.92 340.49"/><polygon class="cls-53" points="522.29 345.63 451.53 345.63 451.35 346.54 522.53 346.54 522.29 345.63"/><polygon class="cls-53" points="523.66 350.77 450.48 350.77 450.29 351.68 523.91 351.68 523.66 350.77"/><polygon class="cls-53" points="525.03 355.91 449.42 355.91 449.23 356.82 525.28 356.82 525.03 355.91"/><polygon class="cls-53" points="526.41 361.05 448.37 361.05 448.18 361.96 526.65 361.96 526.41 361.05"/><polygon class="cls-53" points="527.78 366.19 447.31 366.19 447.12 367.1 528.02 367.1 527.78 366.19"/><path class="cls-37" d="M501.36,295.21c-1.58-3.52-3.54-7.9-7.36-9.72-2.27-1.08-5.19-1.83-7.25-1.49a2.28,2.28,0,0,0,.73,1.26c2.31.89,3.81.76,5.82,1.71,3.28,1.56,5.1,5.63,6.57,8.91a94.17,94.17,0,0,1,4.84,14.1h1.69A97.75,97.75,0,0,0,501.36,295.21Z"/><path class="cls-33" d="M415.27,203.31s7.88-13,16.22-.34.32,78.13,2.06,88.15,32.7,44.44,33.4,45.65,9.7,8.33,10.57,9.85-2.56,2.09-3.07,3.8a5.09,5.09,0,0,1-2.54,3.5c-1.49.87-3,1-4.57,1.93s-10.79-7.51-11-13.41-33.77-37.63-38.53-48.71S407.7,207.73,415.27,203.31Z"/><path class="cls-54" d="M397.74,387.94l18.69,57.28s-9.76,20.87-6.87,34.89,15.35,92,15.35,92l9,.41L438.14,439l-15.52-76.43Z"/><path class="cls-33" d="M373.8,354.69l-20.19,74.23s-17.81,12-24.11,24.46-42.81,76.71-42.81,76.71l3.7,7.87,86.34-97.37L411.28,373Z"/><path class="cls-55" d="M403.76,295.31s-19.93,14-29,28.56-44.2,78.24-44.2,78.24,39,14.44,59.44,18.19S442,418,442,418s-23.32-69.85-9.23-109.88C436.41,297.78,407,294.54,403.76,295.31Z"/><path class="cls-56" d="M401.34,329.1c-5.72-20.44-2.89-28.6-.28-31.8-5.75,4.36-19.27,15.31-26.26,26.57-9,14.54-44.2,78.24-44.2,78.24s39,14.44,59.44,18.19c12.24,2.24,28.44,1,39.47-.39Z"/><path class="cls-25" d="M418.51,191.82s20.77,8.87,24.28,35.27-.79,84-.79,84-31-1.4-52-10c0,0,6.33-22.12,6.33-39.57s-2.46-52.39,2.59-61C404.41,191.13,417.07,191.06,418.51,191.82Z"/><path class="cls-57" d="M269.79,521.26v14.42c0,5.94-.69,15.41-.69,18.38s6.85,13.72,9.09,13,1.67-10.46,4.19-15.55,10.56-14.36,9.23-15.7-1.69-10.09-3.37-11.78S271.26,519.77,269.79,521.26Z"/><path class="cls-58" d="M273.63,523.38c3.65,23.68-3.4,16.93,2.93,40.09-2.24-5.63-4.46-14-3.31-20a55.64,55.64,0,0,0,.66-10C273.91,530.13,273.77,526.76,273.63,523.38Z"/><path class="cls-58" d="M279.85,539.31a.92.92,0,0,0-.11,1.29,46.88,46.88,0,0,1,4.89,7.16l1.14-1.68a51.64,51.64,0,0,0-4.65-6.66A.9.9,0,0,0,279.85,539.31Z"/><path class="cls-58" d="M283.54,538a.92.92,0,0,0,.35,1.24,22.75,22.75,0,0,1,4.31,3.4l1-1.52a23.09,23.09,0,0,0-4.47-3.47A.9.9,0,0,0,283.54,538Z"/><path class="cls-57" d="M419.64,587.84l14.27-.24c5.87-.1,15.25.45,18.19.4s13.44-7.16,12.71-9.41-10.38-1.52-15.45-4-14.37-10.43-15.68-9.07-9.95,1.89-11.6,3.61S418.15,586.38,419.64,587.84Z"/><path class="cls-58" d="M421.68,583.93c23.36-4.09,16.8,3.15,39.6-3.63-5.53,2.35-13.74,4.74-19.68,3.67a53.59,53.59,0,0,0-9.91-.49C428.36,583.54,425,583.73,421.68,583.93Z"/><path class="cls-58" d="M437.33,577.38a.89.89,0,0,0,1.27.08,46.76,46.76,0,0,1,7-5.06c-.55-.36-1.11-.74-1.67-1.13a50.14,50.14,0,0,0-6.51,4.82A.93.93,0,0,0,437.33,577.38Z"/><path class="cls-58" d="M435.94,573.66a.89.89,0,0,0,1.22-.37,23.21,23.21,0,0,1,3.29-4.41l-1.52-1a22.94,22.94,0,0,0-3.35,4.58A.91.91,0,0,0,435.94,573.66Z"/><polygon class="cls-39" points="365.33 396.78 363.69 396.6 367.93 356.86 327.06 361.01 326.89 359.34 369.8 354.98 365.33 396.78"/><polygon class="cls-59" points="351.61 377.54 343.49 378.88 392.25 390.01 397.74 389.98 351.61 377.54"/><polygon class="cls-60" points="325.73 351.82 261.86 418.91 316.19 464.2 365.89 383.78 325.73 351.82"/><polygon class="cls-61" points="397.74 389.98 382.97 517.46 362.23 514.05 392.25 390.01 397.74 389.98"/><path class="cls-32" d="M385.63,399.28c-.81-1.13-19.75-27.75-15.79-38.32a3.47,3.47,0,0,1,2.54-2.27c9-2.12,37.57,24.45,40.8,27.49l-1.12,1.23c-8.62-8.08-32.48-28.68-39.31-27.08a1.83,1.83,0,0,0-1.36,1.22c-3.65,9.74,15.39,36.48,15.58,36.74Z"/><path class="cls-37" d="M388.17,393.32c-1.86-8.05-3.8-15.87-7.06-23.22-1.49-3.37-3.33-7.55-6.66-9.14-9-4.31-16.91,7.08-20.72,12.56-2.59,3.73-5.07,7.64-7.37,11.64l-1.44-.84c2.33-4,4.84-8,7.46-11.77,4.07-5.85,12.53-18,22.78-13.11,3.88,1.86,5.87,6.36,7.46,10,3.32,7.49,5.28,15.4,7.17,23.52Z"/><polygon class="cls-62" points="343.49 378.88 279.53 485.17 362.23 514.05 392.25 390.01 343.49 378.88"/><polygon class="cls-32" points="349 380.14 292.42 489.67 297.18 491.33 354.02 381.28 349 380.14"/><polygon class="cls-32" points="358.4 382.28 307.58 494.97 312.31 496.62 363.36 383.41 358.4 382.28"/><polygon class="cls-32" points="369.82 384.89 328.82 502.38 333.52 504.03 374.7 386 369.82 384.89"/><polygon class="cls-32" points="379.43 387.08 347.47 508.9 352.18 510.55 384.29 388.19 379.43 387.08"/><path class="cls-63" d="M380.91,431.92c-2.69,8.24-15.85,11.26-29.38,6.74s-22.33-14.87-19.63-23.12,15.85-11.26,29.38-6.73S383.6,423.68,380.91,431.92Z"/><polygon class="cls-64" points="370.62 391.24 389.97 467.62 452.13 449.64 421.32 376.18 370.62 391.24"/><polygon class="cls-25" points="389.97 467.62 370.62 391.24 393.75 457.49 452.13 449.64 389.97 467.62"/><path class="cls-54" d="M404.09,197.51s14.82,1.84,15.93,18.91S378.58,260,374.7,270.71s1.08,74.65,1.08,76.22,4.84,13.66,4.84,15.63-3.67.59-5.12,2a5.63,5.63,0,0,1-4.42,2c-1.94,0-3.46-.72-5.53-.72s-6.36-13.46-3.32-19.37-12-55.94-10.51-69.46S394.24,197.51,404.09,197.51Z"/><path class="cls-65" d="M404.09,197.51c5.71.75,11.1,4,14.54,10.68,1.48,3.51,2.76,8.74,1.57,12.45-4.71,17.74-40.9,39.95-45.5,50.07,4.59-13,47.7-38.51,44.45-56.28A18.94,18.94,0,0,0,404.09,197.51Z"/><circle class="cls-66" cx="505.85" cy="310.09" r="1.53"/><circle class="cls-66" cx="465.71" cy="310.12" r="1.53"/><polygon class="cls-67" points="586.79 369.62 617.18 441.25 556.8 458.78 613.91 441.02 586.79 369.62"/><path class="cls-68" d="M412.44,131.58s15.63,2.21,18.17,17.7-4,45.28-12.93,52.3-12,28.93-19.63,34.07-24.51,4.84-21.56-10.22c0,0,7.58,3.39,11.43-5.59,0,0-12.82,5-16.22-7.16s8.78-10.89,8.78-10.89-7.27,6.5.06,6.23,12.64-5.8,14.22-13.89-11.32-5.25-7.18-19.87S407.31,130.05,412.44,131.58Z"/><path class="cls-54" d="M437.25,169.71s-8.24,34.71-5.71,36.41,4.73,9.33,4.73,9.33S419.8,204.13,417.13,196l3.94-32.12Z"/><path class="cls-33" d="M421.07,163.86l16.18,5.85s-.41,1.75-1,4.47c-5.37-.41-13.66-1.45-15.92-4.07Z"/><path class="cls-68" d="M419.75,138.55,444,146.33s4.56-.78,3.57-5.84-7.53-8.91-13.77-10.69a54.28,54.28,0,0,0-13.6-1.63Z"/><path class="cls-54" d="M426.62,131.53s8.74-.22,11.8,3.36,5.55,13.05,8.27,14.87a19.83,19.83,0,0,0,4.79,2.46s.81.41-1.24,2-1.14,2.7.27,2.42,1.8,2.42.78,2.94a2.55,2.55,0,0,1,1,2.05,1.72,1.72,0,0,1-1,1.74,6.65,6.65,0,0,0,1,3.54c1.05,1.51,1.53,6-10,6,0,0-17.21-.65-19.1-5.1s-12.52-19.88-7.5-27.34S426.62,131.53,426.62,131.53Z"/><path class="cls-69" d="M417.76,128.45s2.56-2.33,13.44-1.41,15.45,11.12,15.45,11.12-7.52-3.19-11.7-2.37-13.94,1.08-15.77-.16S417.76,128.45,417.76,128.45Z"/><path class="cls-69" d="M419.11,127.75c1.44-.29,12.72,7.68,11.76,15.9s-7.51,5.92-10.82,8.71,3,11.46,3.08,15.46-6,28.16-6,28.16-17.93-45-14.31-54.75S419.11,127.75,419.11,127.75Z"/><path class="cls-54" d="M421.36,153.07s-4.26-5.91-5.38-4.25.07,11.39,5.16,11.36S421.36,153.07,421.36,153.07Z"/><path class="cls-33" d="M430.68,156.22c.22,1.16,2.34,1.71,4.74,1.24s4.14-1.78,3.91-2.94-2.34-1.71-4.73-1.24S430.45,155.06,430.68,156.22Z"/><path class="cls-33" d="M421.3,153.9s-2.24-3.24-2.91-2.24,1.32,6.4,2.45,6.18S421.92,155.63,421.3,153.9Z"/><path class="cls-69" d="M444.42,143.88s.47,3.22-4.44,6.48Z"/><path class="cls-69" d="M441.64,143.5a9.68,9.68,0,0,0-4.07-.54c-1.67.33-3.07,1.31-2.95,1.92a6.92,6.92,0,0,1,3.14-1.29c1.49-.06,2.38.92,3,.81S441.64,143.5,441.64,143.5Z"/><path class="cls-69" d="M423.13,167.82s3.16,53.75-16,56.43-15.09-18.38-11.45-22c0,0,1.17,6.55,5.1,5.24s2.94-.26.32-8.65,5.25-6,9.7-13.74S404,171.78,404.28,165s-1.67-16.5-1.67-16.5Z"/><path class="cls-69" d="M444,148.74c0,.9-.33,1.62-.74,1.62s-.74-.72-.74-1.62.33-1.62.74-1.62S444,147.85,444,148.74Z"/><path class="cls-70" d="M509.71,134.77c0-3-3.24-1.27-4.47-3.62-.59-1.14-6-1.63-8.48,1.38,3.41-5.82-2.64-5.4-8.7-1.18-1.81-2-7.18-1.29-11.6,5.41-2.86-.74-7.66,3-8.26,7.63a5,5,0,0,0,2.13,5s-6.25-1.55-7,4.42c-.26,2,3.72,2.7,4.14,3.49a3.64,3.64,0,0,1-.95,4.19c-2,2-3.85,4.67-2.58,6.24a3.46,3.46,0,0,0,2.38,1.25c-3.79,3.34.06,4.88,5.07,3a1.55,1.55,0,0,0,.35,1.68c1.47,1.21,8.58.7,11.25-1.68,6.11-.13,6.34-9.41,11.16-12.14,3.13-1.78,3.28.36,4.76-4.81.81-2.85,1.87-1.2,3.21-1.45,1.72-.33,7.17-6.84,8-8.23a7.79,7.79,0,0,0,1.33-5c-.45-2.38-2.61-2.19-3.89-1.85A3.8,3.8,0,0,0,509.71,134.77Z"/><path class="cls-71" d="M500.76,179.79c-.26-1-1.19-3.12-2.25-5.78l18.07,10.31c-2.62.66-4.73,15.43-3.13,19.47.18.46,9,14.28,2.5,14.33-1.05,0-18.78-13.25-18.78-13.25S502.13,185.17,500.76,179.79Z"/><path class="cls-72" d="M498.51,174l18.07,10.31c-.68.17-1.32,1.28-1.87,2.9a25.35,25.35,0,0,1-14.9-10C499.44,176.29,499,175.21,498.51,174Z"/><path class="cls-70" d="M523.83,147.89s2.54-1.9,4.08.68-.11,3.25.19,4.42,2,.35,1.86,2.69-1.66,3.51-1.4,4.54-4.28,6.53-6.73,3.89S519,147.4,523.83,147.89Z"/><path class="cls-71" d="M515.71,142.71s8.92,1.76,10.35,7.37-.35,9.43.35,12.17,3.13,6.75,5.37,7.09c0,0-.27,2.5-1.77,2.88a2.15,2.15,0,0,0,.25.87c.44-.11,1,1,.8,1.35.08.31-2.34.48-3.89.38l2.66,1.12a1,1,0,0,1-.78,1.83c-.55.6-1.2,1.11-1.12,1.42.17.69.87,2.95-1.16,4.34s-8.16,1-11,.93c0,0-10.67-1.12-16.36-10.29C493.36,164.37,488.53,142.88,515.71,142.71Z"/><path class="cls-70" d="M520,163.66a16.3,16.3,0,0,1,3.08-1.57,6.73,6.73,0,0,1,1.6-.35,10.22,10.22,0,0,1,1.75,0,3.53,3.53,0,0,0-1.74-.7,4.25,4.25,0,0,0-1.9.22,5.35,5.35,0,0,0-1.64.94A4.41,4.41,0,0,0,520,163.66Z"/><path class="cls-55" d="M524.31,157.94l.61-1.56c-.44,0-4.87.49-5.89,2.21l.69.41C520.37,157.91,523.33,157.87,524.31,157.94Z"/><path class="cls-55" d="M525.08,148c.36.17,1.25-4.78-2.33-6-1.41-.48-4.38-1.5-5.74-2.14-1.73-.82-4.06-.5-5.9-1-1.48-.4-3.1-1.36-4.62-1.43a5.82,5.82,0,0,0-2.77.82c-2.11,1-4.14,2.24-6.33,3.11-1.64.65-3.75.75-4.87,2.3-.75,1-.75,2.41-1,3.67a9.77,9.77,0,0,1-1.75,3.75c-.83,1.21-1.77,2.28-1.36,3.84a7.84,7.84,0,0,1,.26,3,16.53,16.53,0,0,0-.51,3.41,20.19,20.19,0,0,0,3.36,8.83,16.12,16.12,0,0,1,2.52,3.64,22,22,0,0,0,4.52,5.57c1,1,1.75,2,3.23,1.5,0,0,2.2-.73,2.55-5.1s-1.9-3.79-1.89-7.44S508.68,146.46,525.08,148Z"/><path class="cls-73" d="M525.08,148s7.22-12.9-11.38-5.21c-4,1.67-3.84,2.92-4.57,4.15s0,1.62-2.45,2.25-5.4,1.31-4.8,3.66,3.09,1.92-.33,4.87-4.17,0-3.42,3,4,2.73,2.27,5.67-1.9,4.41,1.18,5.06,2.07-1.3,4.81-2,5-2.2,4.35-4.65c0,0,3.72-.11,4-2.68a12.14,12.14,0,0,0,0-3.85s3.89-.13,3.59-3.66c0,0,1-.11,1.44-2s1.41-.07,1.36-2S525.08,148,525.08,148Z"/><path class="cls-74" d="M516.27,166s7.31,2.46,6.45,4.94S509.54,166.08,516.27,166Z"/><path class="cls-71" d="M511.45,167.71s-.39-6.07-3.27-4.8-4.77,4-2.23,7.41S511.12,170.31,511.45,167.71Z"/><path class="cls-72" d="M510.12,165.46s1.44,4.61-.27,3.87-3.55-2.09-2.58-3.71S509.41,163.55,510.12,165.46Z"/><path class="cls-70" d="M524.16,163.19c0,.72-.41,1.28-.81,1.25s-.69-.63-.63-1.35.41-1.28.82-1.25S524.22,162.47,524.16,163.19Z"/><rect class="cls-75" x="668.45" width="275.56" height="479.37" rx="45.34"/><path class="cls-76" d="M713.79,467.09c-18.23,0-33.06-14.56-33.06-32.46V53c0-17.9,14.83-32.46,33.06-32.46H898.67c18.23,0,33.06,14.56,33.06,32.46V434.63c0,17.9-14.83,32.46-33.06,32.46Z"/><path class="cls-77" d="M893,17.43H717.45a7.16,7.16,0,0,1-7.16-7.16h0a7.16,7.16,0,0,1,7.16-7.17H893a7.17,7.17,0,0,1,7.16,7.17h0A7.17,7.17,0,0,1,893,17.43Z"/><path class="cls-75" d="M895.09,10.4a5.83,5.83,0,1,1-5.82-5.82A5.83,5.83,0,0,1,895.09,10.4Z"/><path class="cls-78" d="M864.51,12.89h-103A2.5,2.5,0,0,1,759,10.4h0a2.5,2.5,0,0,1,2.5-2.5h103A2.49,2.49,0,0,1,867,10.4h0A2.49,2.49,0,0,1,864.51,12.89Z"/><rect class="cls-31" x="700.33" y="61.44" width="212.09" height="393.26"/><rect class="cls-32" x="714.39" y="134.72" width="79.96" height="96.65"/><rect class="cls-32" x="818.11" y="134.72" width="79.96" height="96.65"/><rect class="cls-32" x="714.39" y="256.23" width="79.96" height="96.65"/><rect class="cls-32" x="818.11" y="256.23" width="79.96" height="96.65"/><path d="M879.71,208.9a45.2,45.2,0,0,0,3.12-8.38c1-5.44,2.18-29.87,2.13-30.58a11.6,11.6,0,0,0-1.19-3.17,64.66,64.66,0,0,0-5.6-10.52c-2.7-4.26-3.83-2.76-4-2.64-2.95,2-6.33,9.31-7.37,14-.89,4-.43,3.92.52,8.11a46.76,46.76,0,0,1,1.46,14.16c-.55,6.49,1.15,16.67,1.8,18.55.57,1.61,2.28,2.46,3.86,2.77A4.7,4.7,0,0,0,879.71,208.9Z"/><path class="cls-79" d="M882.33,198.16a130.7,130.7,0,0,1,.53-16.29c.56-4.56,2.95-11,.9-15.36-1.48-3.11-3.33-7.69-5.44-10.46-3-4-4-2.86-4.19-2.74-1.87,1.27-3.79,4.75-4.73,6.77-1.13,2.41-3.18,8.91-3.13,10.06,0,0,2.38,2.69,4.33,5.38,9.82,13.56-.89,16.84.61,28,.29,2.2.77,6,3.38,6.57a3.88,3.88,0,0,0,2,.09C881.29,208.62,882.38,203.18,882.33,198.16Z"/><polygon class="cls-80" points="878.92 198.63 874.34 198.34 873.4 206.94 877.98 207.23 878.92 198.63"/><polygon class="cls-81" points="878.48 199.18 877.81 199.13 877.78 199.36 878.23 199.38 878.18 199.83 878.4 199.84 878.48 199.18"/><polygon class="cls-81" points="876.98 199.08 876.15 199.03 876.13 199.25 876.96 199.3 876.98 199.08"/><polygon class="cls-81" points="875.33 198.98 874.66 198.94 874.58 199.6 874.81 199.62 874.86 199.17 875.3 199.2 875.33 198.98"/><path class="cls-81" d="M874.53,202.14l-.22,0,.14-1.26.22,0Zm-.28,2.52H874l.14-1.26h.22Z"/><polygon class="cls-81" points="874.51 206.4 874.07 206.37 874.12 205.92 873.89 205.91 873.82 206.58 874.49 206.62 874.51 206.4"/><polygon class="cls-81" points="876.17 206.5 875.34 206.45 875.32 206.67 876.14 206.72 876.17 206.5"/><polygon class="cls-81" points="877.72 206.15 877.49 206.14 877.44 206.58 877 206.55 876.97 206.78 877.64 206.82 877.72 206.15"/><path class="cls-81" d="M878.13,202.37l-.22,0,.13-1.26h.23Zm-.28,2.52h-.22l.14-1.27.22,0Z"/><path class="cls-82" d="M884.19,174.77c1.06-6.26-.2-7.72-2-11.56-4.22.67-11.19-2.37-12.84-3.13-1.13,2.41-3.18,8.91-3.13,10.06,0,.06.07,0,2.27,2.72l.68.85a4,4,0,0,0,.37-.34C871.93,171,883.12,172.19,884.19,174.77Z"/><path class="cls-83" d="M882.27,203.73c.28-1.12.57-2.28.86-3.47,1.17-8.39,2-30.27,2-30.31s-5.37-9.15-5.22-8.24c1.36,8.44,3.66,25.67,1.33,33.85-1.76,6.21-2.82,9.82-3.56,11.89-.17.49-1,2.93-1.61,2.62-1.23-.74-6.1-14.33-6.31-17.41-.22-3.24-.43-15.71-.06-23.18a33.76,33.76,0,0,1,.69-6c.59-2-4.2,7.2-4.21,7.31.09,2.42,3.21,11.33,2.56,19.09-.55,6.49.88,16.61,1.54,18.48.78,2.27,5.33,3.89,7.71,2.42C880,209.51,881.15,206.23,882.27,203.73Z"/><path class="cls-84" d="M873.7,205.3c-.68-1.7-1.32-3.43-1.91-5.17-2.28-6.72-2.08-7.41-2.17-10.79-.16-6-.24-16.28.25-22.32h0c-.13,3.33-.14,7.39-.1,11.16.06,16.4.15,15.08,2.27,21.85q.84,2.61,1.81,5.19c.18.5,1.81,4.95,2.33,4.87.85-.39,1.65-3.46,2.11-5.09,3.6-12.4,4.73-13.37,2.36-38.16v-.22c.9,6.47,1.93,15.65,1.56,22.16a29.77,29.77,0,0,1-1.35,8.22c-.45,1.58-1.46,5.14-2.36,8.05-.74,2.35-1.46,4.72-2.27,5.06h-.06C875.6,210.31,873.92,205.86,873.7,205.3Z"/><path class="cls-85" d="M885.16,170c-.22-.86-2.3-5.49-2.56-6.06h0c-.36-.78-2-4.26-2.57-5.15a18.37,18.37,0,0,1-3.81,2.1c-3.68,1-6-2.47-6.12-2.18a38.62,38.62,0,0,0-3.31,8.86,11.45,11.45,0,0,0-.58,3.23s.84-1,.89-1.07c3.68-4.33,8-6,13.12-3.62A19.05,19.05,0,0,1,885.16,170Z"/><path class="cls-86" d="M875.74,165.35c3.88-.07,6.73,2.26,9.42,4.6a16.37,16.37,0,0,0-4.18-3.49c-5.7-3.24-10.82-1-14.77,4.29C866.75,170.17,871.56,165.42,875.74,165.35Z"/><path class="cls-83" d="M882.6,163.89c-.21-.45-.42-.9-.64-1.34-6-1.87-12.23-.16-13.74.31-.18.49-.36,1-.53,1.49C870.12,163.64,876.93,161.83,882.6,163.89Z"/><path d="M846.6,208.81a45.43,45.43,0,0,1-3.11-8.38c-1-5.44-2.19-29.87-2.13-30.58a11.91,11.91,0,0,1,1.18-3.17,64,64,0,0,1,5.61-10.52c2.7-4.26,3.83-2.76,4-2.64,3,2,6.34,9.31,7.38,14,.88,4,.43,3.92-.52,8.11a46.76,46.76,0,0,0-1.46,14.16c.54,6.49-1.16,16.67-1.81,18.55-.56,1.61-2.28,2.46-3.85,2.77A4.71,4.71,0,0,1,846.6,208.81Z"/><path class="cls-79" d="M844,198.07a130.7,130.7,0,0,0-.53-16.29c-.55-4.56-3-11-.89-15.36,1.48-3.11,3.33-7.69,5.43-10.46,3-4,4-2.86,4.19-2.74,1.87,1.26,3.79,4.75,4.73,6.77,1.13,2.41,3.18,8.91,3.14,10.06,0,0-2.38,2.69-4.33,5.38-9.82,13.57.88,16.84-.62,28-.29,2.2-.76,6-3.37,6.57a3.88,3.88,0,0,1-2,.09C845,208.53,843.93,203.09,844,198.07Z"/><polygon class="cls-80" points="847.39 198.54 851.97 198.25 852.92 206.85 848.34 207.14 847.39 198.54"/><polygon class="cls-81" points="847.84 199.09 848.51 199.04 848.53 199.27 848.08 199.29 848.13 199.74 847.91 199.75 847.84 199.09"/><polygon class="cls-81" points="849.33 198.99 850.16 198.94 850.18 199.16 849.36 199.21 849.33 198.99"/><polygon class="cls-81" points="850.99 198.89 851.66 198.84 851.73 199.51 851.51 199.53 851.46 199.08 851.01 199.11 850.99 198.89"/><path class="cls-81" d="M851.65,200.79l.22,0L852,202l-.23,0Zm.27,2.52h.23l.13,1.26h-.22Z"/><polygon class="cls-81" points="851.8 206.31 852.25 206.28 852.2 205.83 852.42 205.82 852.49 206.49 851.82 206.53 851.8 206.31"/><polygon class="cls-81" points="850.15 206.41 850.97 206.36 851 206.58 850.17 206.63 850.15 206.41"/><polygon class="cls-81" points="848.6 206.06 848.82 206.05 848.87 206.49 849.32 206.46 849.34 206.69 848.67 206.73 848.6 206.06"/><path class="cls-81" d="M848.05,201h.22l.14,1.26-.22,0Zm.27,2.53.23,0,.14,1.27h-.23Z"/><path class="cls-82" d="M842.13,174.68c-1.06-6.26.19-7.72,2-11.56,4.22.67,11.18-2.37,12.83-3.13,1.13,2.41,3.18,8.91,3.14,10.06,0,.06-.08,0-2.27,2.72-.23.28-.46.56-.68.85a4.17,4.17,0,0,1-.38-.34C854.38,170.92,843.19,172.09,842.13,174.68Z"/><path class="cls-83" d="M844,203.64l-.86-3.47c-1.16-8.39-2-30.27-2-30.31s5.37-9.15,5.22-8.24c-1.35,8.44-3.66,25.67-1.32,33.85,1.76,6.21,2.81,9.82,3.55,11.89.18.49,1,2.93,1.61,2.61,1.24-.73,6.11-14.32,6.32-17.4.21-3.24.43-15.71.05-23.18a34.69,34.69,0,0,0-.68-6c-.6-2,4.2,7.2,4.2,7.31-.08,2.42-3.21,11.33-2.55,19.09.54,6.49-.89,16.61-1.54,18.48-.79,2.27-5.34,3.89-7.72,2.42C846.34,209.42,845.17,206.14,844,203.64Z"/><path class="cls-84" d="M852.62,205.21c.68-1.7,1.31-3.43,1.91-5.17,2.28-6.72,2.07-7.41,2.16-10.79.16-6,.24-16.28-.25-22.32h0c.14,3.33.15,7.39.11,11.16-.07,16.4-.15,15.08-2.27,21.85q-.86,2.61-1.81,5.19c-.19.5-1.81,5-2.34,4.87-.84-.39-1.65-3.46-2.11-5.09-3.6-12.4-4.72-13.37-2.36-38.16l0-.21c-.9,6.46-1.94,15.64-1.57,22.15a30.18,30.18,0,0,0,1.35,8.22c.46,1.58,1.46,5.14,2.37,8.05.73,2.35,1.45,4.72,2.26,5.06h.06C850.71,210.22,852.39,205.77,852.62,205.21Z"/><path class="cls-85" d="M841.15,169.86c.23-.86,2.3-5.49,2.57-6.06h0c.36-.78,2-4.26,2.56-5.15a18.63,18.63,0,0,0,3.81,2.1c3.69,1,6-2.48,6.12-2.18a38.16,38.16,0,0,1,3.31,8.86,11.11,11.11,0,0,1,.58,3.23l-.88-1.07c-3.68-4.33-8.06-6-13.12-3.62A19.12,19.12,0,0,0,841.15,169.86Z"/><path class="cls-86" d="M850.58,165.26c-3.88-.07-6.73,2.26-9.43,4.6a16.12,16.12,0,0,1,4.19-3.48c5.69-3.25,10.81-1,14.76,4.28C859.56,170.08,854.76,165.33,850.58,165.26Z"/><path class="cls-83" d="M843.72,163.8c.2-.45.41-.9.63-1.34,5.95-1.87,12.24-.16,13.74.31.19.49.37,1,.53,1.49C856.19,163.55,849.39,161.74,843.72,163.8Z"/><path class="cls-87" d="M748.63,303.81a28.5,28.5,0,0,0,2.48-10.92c-.11-5.39-.57-13.08-5.38-15.72a9.39,9.39,0,0,0-10.33.91c-3,2.33-5.62,9.41-5.45,18.47s1.37,11.36,1.37,11.36Z"/><path class="cls-88" d="M731.4,309.8c-.35,2.27.45,11.53,1.48,15.22s2.29,8.42,8.14,8.93,8.26-5.5,7.81-10c-.05-.43-.09-.94-.13-1.52,0-.06,0-.12,0-.18,0-.22,0-.45,0-.68a.86.86,0,0,0,0-.16c-.25-4.1-.43-10.45-.2-15a25.89,25.89,0,0,1,.43-4h0a1.29,1.29,0,0,0,0-.19,33.21,33.21,0,0,0,1-10.54h0v0a28.66,28.66,0,0,0-1.59-7.45c-1-2.77-3.31-5.36-6.25-5.36-4.3,0-8.47,3.94-10.87,12.1v0c-.38,1.31-.72,2.72-1,4.25,0,0,0,.05,0,.08C729.27,300.14,731.74,307.55,731.4,309.8Z"/><path class="cls-89" d="M730.13,295.26c-.78,3.24-.23,6.68.25,9.93a35.83,35.83,0,0,1,.35,6.3c-.18,6.21.46,17.17,5.06,21.27a8.47,8.47,0,0,0,9.58,1.16,9.07,9.07,0,0,0,3.94-5.93c.59-2.62.13-5.21-.08-7.83s-.32-5.34-.44-8a82.09,82.09,0,0,1,.08-9.92,35,35,0,0,0-.59,6.31,116.79,116.79,0,0,0,.27,11.83,29.06,29.06,0,0,1,0,6.59c-.68,4.42-4.33,7.94-9,6.69a8.8,8.8,0,0,1-5.66-5.73,39.28,39.28,0,0,1-2.2-10.84c-.22-2.93,0-5.23-.12-8.16s-1.27-6.39-1.52-9.31a22.12,22.12,0,0,1,.06-4.38A0,0,0,0,1,730.13,295.26Z"/><path class="cls-90" d="M748.74,283.67c-3.06-8.63-13.37-8.27-17.58,5.24a33.1,33.1,0,0,0-1.14,7,36.38,36.38,0,0,1,1.79-6.94c.91-2.63,2.17-5.68,4.3-7.78,4.63-4.51,9.89-2.79,11.93,2.7a28,28,0,0,1,1.43,5.91,33.41,33.41,0,0,1-.92,12.76C748.87,301.34,752.1,293.14,748.74,283.67Z"/><path class="cls-91" d="M748.92,298.08s-2.64,15.37-2.36,17.49,1.53,9.55,1.16,13.45-7.93,4.71-10,1.94-3-9.29-3.28-17.29a121.07,121.07,0,0,0-2.06-16.83Z"/><path class="cls-92" d="M747.09,298.05s-2.35,15-2.1,17,1.36,9.3,1,13.11-7.06,4.59-8.89,1.89-2.67-9.05-2.92-16.84a129,129,0,0,0-1.83-16.4Z"/><path class="cls-93" d="M732.38,296.84a130.75,130.75,0,0,1,1.79,16.4c.24,7.79,1.05,14.14,2.85,16.84s8.38,1.91,8.7-1.89-.76-11-1-13.11,2-17,2.06-17Z"/><path class="cls-94" d="M732.38,296.84a128.34,128.34,0,0,1,1.88,16.65c.26,7.92,1.12,14.37,3,17.11.93,1.35,3.16,2,5.15,1.7-2.81-1.44-5.31-25.68-.92-27.51a6.41,6.41,0,0,1,5,0c.52-3.61,1-6.71,1-6.71Z"/><path class="cls-95" d="M749.78,291.7,731.27,291l3.17,24.33a4.24,4.24,0,0,0,4.88,3.6h0a4.3,4.3,0,0,1,1.24,0l1.17.16a4.23,4.23,0,0,0,4.76-3.67l1.37-10.83Z"/><path class="cls-96" d="M734.44,315.31a4.24,4.24,0,0,0,4.88,3.6,8.09,8.09,0,0,1,2.41.14,4.23,4.23,0,0,0,4.76-3.67l3.33-23.3h.09l-3.38,23.64a4.24,4.24,0,0,1-4.77,3.66l-1.17-.15a4.64,4.64,0,0,0-1.24,0,4.22,4.22,0,0,1-4.87-3.6l-3.33-24.19h0Z"/><path class="cls-97" d="M731.16,291l18.71.71a28.66,28.66,0,0,0-1.59-7.45c-1-2.77-3.31-5.36-6.25-5.36C737.73,278.87,733.56,282.82,731.16,291Z"/><path class="cls-98" d="M731.16,291l18.71.71v-.19c0-.28-7.09-.39-7.61-.4-2.66-.1-6.92-.35-11.09-.16Z"/><path class="cls-88" d="M731.39,309.61c-.06,2.58.46,11.52,1.49,15.21s2.28,8.42,8.13,8.93,8.27-5.5,7.81-10a145.34,145.34,0,0,1-.4-17.51,26.19,26.19,0,0,1,.43-4h0a30.14,30.14,0,0,0,1.06-10.16l0-.57S744.51,293,743,295s-1.73,17.42-.87,19,4.41.78,4.75,3.32,1.14,8.12,1,9.78-.4,3.66-2.06,4.32a12.69,12.69,0,0,1-5.69.7c-1.75-.2-3-2.49-3.53-3.86a89.44,89.44,0,0,1-2.13-11.49c0-1.37,4-1.8,4.64-2.39s.32-18.53-.94-19.68-6.93-4-6.93-4l-.09.26a35.5,35.5,0,0,0-1,4s0,.05,0,.08C729.27,300,731.45,307.33,731.39,309.61Z"/><path class="cls-99" d="M734.45,317c.08-1.35,3.66-2,4.72-2.32.25-.06.2-.41.21-.69,0-.62.63-11.59-.67-17.83a3.53,3.53,0,0,0-.51-1.35c.56,1,.87,7.43.92,8.61.09,2.35,0,10.3,0,10.51,0,.57-.46.61-.93.78C737.13,315.11,734.11,315.43,734.45,317Z"/><path class="cls-100" d="M743.39,280.7a8.53,8.53,0,0,1,3.59,3.83c.62,1.15,1.86,3.91.73,5.09a2.2,2.2,0,0,1-1.6.45c-3.72,0-7.45.06-11.17,0-1.57,0-1.21-1.23-.69-2.23a23.35,23.35,0,0,1,1.83-2.88,12.13,12.13,0,0,1,4.9-4.34A3,3,0,0,1,743.39,280.7Z"/><path class="cls-101" d="M744.55,296.9c.41,0,.74.46.74,1s-.33,1-.74,1-.73-.46-.73-1S744.15,296.9,744.55,296.9Z"/><path class="cls-102" d="M743.65,297.93c0-.68.4-1.21.9-1.21s.91.53.91,1.21-.4,1.2-.91,1.2S743.65,298.6,743.65,297.93Zm.35,0c0,.46.25.86.55.86s.56-.4.56-.86-.25-.86-.56-.86S744,297.46,744,297.93Z"/><path class="cls-101" d="M744.21,301.89c.4,0,.73.46.73,1s-.33,1-.73,1-.73-.46-.73-1S743.8,301.89,744.21,301.89Z"/><path class="cls-102" d="M743.3,302.92c0-.68.4-1.21.91-1.21s.9.53.9,1.21-.4,1.2-.9,1.2S743.3,303.59,743.3,302.92Zm.35,0c0,.46.25.86.56.86s.56-.4.56-.86-.26-.86-.56-.86S743.65,302.45,743.65,302.92Z"/><path class="cls-95" d="M743.47,307.6c0,.57.33,1,.73,1s.74-.47.74-1-.33-1-.74-1S743.47,307,743.47,307.6Z"/><path class="cls-102" d="M743.3,307.6c0-.67.4-1.2.9-1.2s.91.53.91,1.2-.4,1.21-.91,1.21S743.3,308.28,743.3,307.6Zm.35,0c0,.47.25.86.55.86s.56-.39.56-.86-.25-.86-.56-.86S743.65,307.14,743.65,307.6Z"/><path class="cls-101" d="M743.65,312.36c.05.56.42,1,.82,1s.68-.53.63-1.1-.42-1-.82-1S743.59,311.79,743.65,312.36Z"/><path class="cls-102" d="M743.47,312.37c-.06-.67.29-1.24.79-1.28s1,.44,1,1.12a1.07,1.07,0,0,1-.79,1.28C744,313.53,743.54,313,743.47,312.37Zm.35,0c0,.46.33.83.63.8s.52-.44.48-.9-.33-.84-.64-.81S743.77,311.88,743.82,312.34Z"/><path class="cls-101" d="M736.51,296.89c.4,0,.73.46.73,1s-.33,1-.73,1-.73-.47-.73-1S736.11,296.89,736.51,296.89Z"/><path class="cls-102" d="M736.51,299.13c-.51,0-.9-.53-.9-1.21s.39-1.2.9-1.2.9.53.9,1.2S737,299.13,736.51,299.13Zm0-2.07c-.3,0-.56.4-.56.86s.26.86.56.86.56-.39.56-.86S736.81,297.06,736.51,297.06Z"/><path class="cls-101" d="M737.58,302.91c0,.57-.33,1-.73,1s-.73-.47-.73-1,.33-1,.73-1S737.58,302.34,737.58,302.91Z"/><path class="cls-102" d="M736.85,304.12c-.51,0-.9-.53-.9-1.21s.4-1.2.9-1.2.9.53.9,1.2S737.36,304.12,736.85,304.12Zm0-2.07c-.3,0-.56.4-.56.86s.26.86.56.86.56-.39.56-.86S737.16,302.05,736.85,302.05Z"/><path class="cls-101" d="M737.58,307.6c0,.57-.33,1-.73,1s-.73-.46-.73-1,.33-1,.73-1S737.58,307,737.58,307.6Z"/><path class="cls-102" d="M736.85,308.8c-.51,0-.9-.53-.9-1.2s.39-1.21.9-1.21.9.53.9,1.21S737.35,308.8,736.85,308.8Zm0-2.06c-.3,0-.56.39-.56.86s.25.86.56.86.56-.39.56-.86S737.15,306.74,736.85,306.74Z"/><path class="cls-101" d="M736,312.22c0-.57.42-1,.82-1s.68.52.63,1.09-.42,1-.82,1S735.89,312.78,736,312.22Z"/><path class="cls-102" d="M736.56,313.48c-.5,0-.85-.61-.79-1.28s.51-1.16,1-1.12a1.08,1.08,0,0,1,.78,1.29C737.51,313,737.07,313.53,736.56,313.48Zm.19-2.05c-.3,0-.59.34-.63.8s.17.88.47.91.6-.34.64-.8S737.05,311.46,736.75,311.43Z"/><path class="cls-103" d="M736.37,302.78c0,.68.6,1,.87.74l4.68-4.15.2-1.44s-5.55,4.24-5.57,4.27A1,1,0,0,0,736.37,302.78Z"/><path class="cls-104" d="M739.32,300.07a1.38,1.38,0,0,1,1,.69l1.6-1.39.2-1.44Z"/><path class="cls-103" d="M737.2,308.26l4.4-4.31,0-1.43-5,4.31C736.19,307.24,736.5,308.63,737.2,308.26Z"/><path class="cls-104" d="M739.33,304.5a1.74,1.74,0,0,1,.9.79L741.6,304l0-1.43Z"/><path class="cls-103" d="M736.94,313l4.53-4.38v-1.47c-5.37,4.68-5.17,4.29-5.25,5C736.18,312.68,736.45,313.24,736.94,313Z"/><path class="cls-104" d="M739.27,309.07a.37.37,0,0,0,.14.07,2,2,0,0,1,1,.55l1.1-1.07v-1.47Z"/><path class="cls-103" d="M739.5,306.65l0,1.88c4.52,4.41,4.55,4.41,4.55,4.44a.4.4,0,0,0,.32,0c.47,0,.67-1,.23-1.49C744.62,311.51,742.71,309.71,739.5,306.65Z"/><path class="cls-103" d="M739.37,302.4l.09,1.86s4.44,4.14,4.54,4.14c.49,0,.8-1,.46-1.56Z"/><path class="cls-103" d="M738.91,297.56l.22,2,4.77,4.07h0c.59.3.93-1,.52-1.53Z"/><path class="cls-103" d="M736.19,298.63c2-.07,7.48-.05,8.71,0a1.16,1.16,0,0,0,0-1.38c-.44,0-6.14-.05-8.71,0A1.17,1.17,0,0,0,736.19,298.63Z"/><path class="cls-87" d="M757.69,303.81a28.5,28.5,0,0,1-2.48-10.92c.11-5.39.57-13.08,5.39-15.72a9.38,9.38,0,0,1,10.32.91c3,2.33,5.62,9.41,5.46,18.47S775,307.91,775,307.91Z"/><path class="cls-88" d="M774.93,309.8c.34,2.27-.46,11.53-1.49,15.22s-2.29,8.42-8.14,8.93-8.26-5.5-7.8-10a147.54,147.54,0,0,0,.4-17.5,25.89,25.89,0,0,0-.43-4h0l0-.19a33.5,33.5,0,0,1-1-10.54h0v0a28.66,28.66,0,0,1,1.59-7.45c1-2.77,3.31-5.36,6.25-5.36,4.3,0,8.47,3.94,10.87,12.1a0,0,0,0,1,0,0,42.92,42.92,0,0,1,1,4.25s0,.05,0,.08C777.05,300.14,774.58,307.55,774.93,309.8Z"/><path class="cls-89" d="M776.19,295.26c.78,3.24.23,6.68-.24,9.93a35.84,35.84,0,0,0-.36,6.3c.18,6.21-.46,17.17-5.06,21.27a8.47,8.47,0,0,1-9.58,1.16A9.1,9.1,0,0,1,757,328c-.68-3,0-3.47.52-15.84a84.19,84.19,0,0,0-.07-9.92,36.94,36.94,0,0,1,.59,6.31c.29,11-.93,14.44-.32,18.42.68,4.42,4.33,7.94,9,6.69a8.8,8.8,0,0,0,5.66-5.73,39.28,39.28,0,0,0,2.2-10.84c.22-2.93,0-5.23.12-8.16s1.27-6.39,1.52-9.31a21.39,21.39,0,0,0-.06-4.38Z"/><path class="cls-90" d="M757.58,283.67c3.06-8.63,13.37-8.27,17.58,5.24a33.53,33.53,0,0,1,1.15,7,37.94,37.94,0,0,0-1.79-6.94c-.92-2.63-2.18-5.68-4.31-7.78-4.63-4.51-9.89-2.79-11.93,2.7a28.63,28.63,0,0,0-1.43,5.91,33.61,33.61,0,0,0,.92,12.76C757.46,301.34,754.22,293.14,757.58,283.67Z"/><path class="cls-91" d="M757.4,298.08s2.64,15.37,2.36,17.49-1.53,9.55-1.16,13.45,7.94,4.71,10,1.94,3-9.29,3.28-17.29a121.07,121.07,0,0,1,2.06-16.83Z"/><path class="cls-92" d="M759.23,298.05s2.35,15,2.1,17-1.36,9.3-1,13.11,7.06,4.59,8.9,1.89,2.67-9.05,2.91-16.84a129,129,0,0,1,1.83-16.4Z"/><path class="cls-93" d="M773.94,296.84a130.75,130.75,0,0,0-1.79,16.4c-.24,7.79-1,14.14-2.85,16.84s-8.37,1.91-8.7-1.89.77-11,1-13.11-2.05-17-2.05-17Z"/><path class="cls-94" d="M773.94,296.84a128.34,128.34,0,0,0-1.88,16.65c-.26,7.92-1.11,14.37-3,17.11-.94,1.35-3.17,2-5.16,1.7,2.81-1.44,5.31-25.68.93-27.51a6.43,6.43,0,0,0-5,0c-.52-3.61-1-6.71-1-6.71Z"/><path class="cls-95" d="M756.54,291.7l18.51-.72-3.17,24.33a4.24,4.24,0,0,1-4.88,3.6h0a4.3,4.3,0,0,0-1.24,0l-1.17.16a4.23,4.23,0,0,1-4.76-3.67l-1.37-10.83Z"/><path class="cls-96" d="M771.88,315.31a4.24,4.24,0,0,1-4.88,3.6,8.11,8.11,0,0,0-2.41.14,4.23,4.23,0,0,1-4.76-3.67l-3.33-23.3h-.08l3.38,23.64a4.22,4.22,0,0,0,4.76,3.66l1.17-.15a4.64,4.64,0,0,1,1.24,0,4.23,4.23,0,0,0,4.88-3.6l3.32-24.19h0Z"/><path class="cls-97" d="M775.16,291l-18.71.71a28.66,28.66,0,0,1,1.59-7.45c1-2.77,3.31-5.36,6.25-5.36C768.59,278.87,772.76,282.82,775.16,291Z"/><path class="cls-98" d="M775.16,291l-18.71.71,0-.19c0-.28,7.09-.39,7.6-.4,2.66-.1,6.92-.35,11.09-.16Z"/><path class="cls-88" d="M774.93,309.61c.07,2.58-.45,11.52-1.48,15.21s-2.29,8.42-8.14,8.93-8.27-5.5-7.81-10,.9-17.25,0-21.48h0a30.15,30.15,0,0,1-1.05-10.16l.05-.57s5.34,1.49,6.89,3.52,1.73,17.42.87,19-4.4.78-4.75,3.32-1.14,8.12-1,9.78.39,3.66,2,4.32a12.71,12.71,0,0,0,5.69.7c1.75-.2,3-2.49,3.53-3.86a89.44,89.44,0,0,0,2.13-11.49c0-1.37-4-1.8-4.64-2.39s-.32-18.53.94-19.68,6.93-4,6.93-4l.09.26a35.5,35.5,0,0,1,1,4s0,.05,0,.08C777.06,300,774.87,307.33,774.93,309.61Z"/><path class="cls-99" d="M771.87,317c-.08-1.35-3.66-2-4.72-2.32-.24-.06-.2-.41-.21-.69,0-.62-.62-11.59.67-17.83a3.53,3.53,0,0,1,.51-1.35c-.56,1-.87,7.43-.92,8.61-.09,2.35,0,10.3,0,10.51,0,.57.46.61.93.78C769.2,315.11,772.21,315.43,771.87,317Z"/><path class="cls-100" d="M762.93,280.7a8.53,8.53,0,0,0-3.59,3.83c-.61,1.15-1.86,3.91-.73,5.09a2.21,2.21,0,0,0,1.61.45c3.72,0,7.44.06,11.16,0,1.57,0,1.21-1.23.69-2.23a24.52,24.52,0,0,0-1.82-2.88c-1.24-1.69-2.9-3.57-4.9-4.34A3,3,0,0,0,762.93,280.7Z"/><path class="cls-101" d="M761.77,296.9c-.41,0-.73.46-.73,1s.33,1,.73,1,.73-.46.73-1S762.17,296.9,761.77,296.9Z"/><path class="cls-102" d="M761.77,299.13c-.51,0-.9-.53-.9-1.2s.39-1.21.9-1.21.9.53.9,1.21S762.28,299.13,761.77,299.13Zm0-2.06c-.31,0-.56.39-.56.86s.25.86.56.86.56-.4.56-.86S762.07,297.07,761.77,297.07Z"/><path class="cls-101" d="M762.12,301.89c-.41,0-.74.46-.74,1s.33,1,.74,1,.73-.46.73-1S762.52,301.89,762.12,301.89Z"/><path class="cls-102" d="M762.12,304.12c-.51,0-.91-.53-.91-1.2s.4-1.21.9-1.21.91.53.91,1.21S762.62,304.12,762.12,304.12Zm0-2.06c-.31,0-.57.39-.56.86s.25.86.56.86.55-.4.55-.86S762.42,302.06,762.12,302.06Z"/><path class="cls-95" d="M762.85,307.6c0,.57-.33,1-.73,1s-.73-.47-.73-1,.32-1,.73-1S762.85,307,762.85,307.6Z"/><path class="cls-102" d="M762.12,308.81c-.51,0-.91-.53-.91-1.21s.4-1.2.91-1.2.9.53.9,1.2S762.62,308.81,762.12,308.81Zm0-2.07c-.31,0-.56.4-.56.86s.26.86.56.86.56-.39.56-.86S762.42,306.74,762.12,306.74Z"/><path class="cls-101" d="M762.68,312.36c-.06.56-.42,1-.83,1s-.68-.53-.63-1.1.42-1,.82-1S762.73,311.79,762.68,312.36Z"/><path class="cls-102" d="M761.84,313.49c-.51-.05-.85-.61-.79-1.28s.5-1.17,1-1.12.85.61.79,1.28S762.34,313.53,761.84,313.49Zm.19-2.06c-.31,0-.6.34-.64.81s.18.88.48.9.59-.34.63-.8S762.33,311.46,762,311.43Z"/><path class="cls-101" d="M769.81,296.89c-.4,0-.73.46-.73,1s.33,1,.73,1,.73-.47.73-1S770.22,296.89,769.81,296.89Z"/><path class="cls-102" d="M768.91,297.92c0-.67.4-1.2.9-1.2s.91.53.91,1.2-.4,1.21-.91,1.21S768.91,298.6,768.91,297.92Zm.34,0c0,.47.26.86.56.86s.56-.39.56-.86-.25-.86-.56-.86S769.25,297.46,769.25,297.92Z"/><path class="cls-101" d="M768.74,302.91c0,.57.33,1,.73,1s.73-.47.73-1-.32-1-.73-1S768.74,302.34,768.74,302.91Z"/><path class="cls-102" d="M768.57,302.91c0-.67.39-1.2.9-1.2s.9.53.91,1.2-.4,1.21-.91,1.21S768.57,303.59,768.57,302.91Zm.34,0c0,.47.26.86.56.86s.56-.39.56-.86-.26-.86-.56-.86S768.91,302.45,768.91,302.91Z"/><path class="cls-101" d="M768.74,307.6c0,.57.33,1,.73,1s.73-.46.73-1-.32-1-.73-1S768.74,307,768.74,307.6Z"/><path class="cls-102" d="M768.57,307.6c0-.68.4-1.21.9-1.21s.91.53.91,1.21-.4,1.2-.91,1.2S768.57,308.28,768.57,307.6Zm.34,0c0,.47.26.86.56.86s.56-.4.56-.86-.25-.86-.56-.86S768.91,307.13,768.91,307.6Z"/><path class="cls-101" d="M770.38,312.22c-.06-.57-.43-1-.83-1s-.68.52-.63,1.09.42,1,.82,1S770.43,312.78,770.38,312.22Z"/><path class="cls-102" d="M768.75,312.37c-.06-.67.28-1.24.79-1.29s1,.45,1,1.12-.29,1.24-.79,1.28S768.81,313,768.75,312.37Zm.34,0c0,.46.34.83.64.8s.52-.44.47-.91-.33-.83-.63-.8S769.05,311.87,769.09,312.34Z"/><path class="cls-103" d="M770,302.78c0,.68-.61,1-.88.74l-4.68-4.15-.2-1.44,5.58,4.27A1.05,1.05,0,0,1,770,302.78Z"/><path class="cls-104" d="M767,300.07a1.42,1.42,0,0,0-1,.69l-1.6-1.39-.2-1.44Z"/><path class="cls-103" d="M769.12,308.26l-4.4-4.31,0-1.43,5,4.31C770.13,307.24,769.82,308.63,769.12,308.26Z"/><path class="cls-104" d="M767,304.5a1.74,1.74,0,0,0-.9.79L764.72,304l0-1.43Z"/><path class="cls-103" d="M769.38,313l-4.53-4.38v-1.47c5.37,4.68,5.18,4.29,5.25,5C770.15,312.68,769.87,313.24,769.38,313Z"/><path class="cls-104" d="M767.05,309.07a.31.31,0,0,1-.14.07,1.93,1.93,0,0,0-.95.55l-1.11-1.07v-1.47Z"/><path class="cls-103" d="M766.82,306.65l0,1.88c-4.52,4.41-4.55,4.41-4.55,4.44a.4.4,0,0,1-.32,0c-.47,0-.67-1-.23-1.49C761.7,311.51,763.61,309.71,766.82,306.65Z"/><path class="cls-103" d="M767,302.4l-.09,1.86s-4.44,4.14-4.53,4.14c-.5,0-.81-1-.46-1.56Z"/><path class="cls-103" d="M767.41,297.56l-.22,2-4.77,4.07h0c-.59.3-.93-1-.52-1.53Z"/><path class="cls-103" d="M770.13,298.63c-2-.07-7.48-.05-8.7,0a1.16,1.16,0,0,1,0-1.38c.44,0,6.14-.05,8.71,0A1.17,1.17,0,0,1,770.13,298.63Z"/><polygon class="cls-10" points="867 27.65 875.63 40.18 889.66 34.31 890.15 49.51 905.12 52.15 897.32 65.2 908.48 75.52 894.86 82.28 898.67 97 883.56 95.32 878.81 109.77 867 100.18 855.2 109.77 850.45 95.32 835.34 97 839.15 82.28 825.52 75.52 836.69 65.2 828.89 52.15 843.86 49.51 844.35 34.31 858.38 40.18 867 27.65"/><path class="cls-31" d="M879.14,50.06h4.46L857.81,86.23h-4.47l22.07-31.06a36.71,36.71,0,0,1-10.22.51c2.72,8.68-7.2,13.79-12.76,8.29-5.09-5-1-13.29,5.27-13.29C860.78,50.68,870.42,54.33,879.14,50.06Zm-23.86,5.75a3.72,3.72,0,0,0,0,5.29c3.51,3.53,8.78-1.82,5.28-5.3C859.83,55.07,856.75,54.33,855.28,55.81ZM885,71.64a7.76,7.76,0,1,1-13.24,5.51A7.77,7.77,0,0,1,885,71.64Zm-8.16,2.85c-3.54,3.55,1.88,8.75,5.32,5.29S880.26,71,876.79,74.49Z"/><rect class="cls-24" x="723.35" y="376.6" width="174.72" height="12.01"/><rect class="cls-24" x="723.35" y="393.45" width="174.72" height="12.01"/><polygon class="cls-105" points="855.74 334.19 855.74 334.55 841.84 334.55 841.82 334.19 855.74 334.19"/><polygon class="cls-105" points="855.74 333.21 855.74 333.95 841.8 333.95 841.76 333.38 841.75 333.21 855.74 333.21"/><polygon class="cls-105" points="855.74 332.65 855.74 333.38 841.76 333.38 841.75 333.21 841.72 332.76 841.71 332.65 855.74 332.65"/><polygon class="cls-105" points="855.74 331.78 855.74 332.52 841.7 332.52 841.69 332.35 841.64 331.78 855.74 331.78"/><polygon class="cls-105" points="855.74 330.91 855.74 331.65 841.64 331.65 841.59 330.93 841.58 330.91 855.74 330.91"/><polygon class="cls-105" points="855.74 332.35 855.74 332.76 841.72 332.76 841.71 332.65 841.7 332.52 841.69 332.35 855.74 332.35"/><path class="cls-106" d="M889.85,329.74A136.51,136.51,0,0,1,874,333.46c-6.5.93-13.47-3.72-16.11-4.5s-16.16-.62-16.16-.62c-.21-2.94-.65-9.73-.1-11.46,2.85-8.9-1.86-43.22-1.86-43.22l26.8.93s0,.11-.05.31c-.22,1.51-1.22,8.28-2.13,14.75-.57,4.09-1.11,8.06-1.38,10.5a16,16,0,0,0,.22,4.76c1,5.51,4.31,10.91,6.59,12.59,2.95,2.17,12.47,3.67,16.34,5.68S889.85,329.74,889.85,329.74Z"/><path class="cls-107" d="M866.56,274.9c-.22,1.51-1.22,8.28-2.13,14.75l-4.32,2.05a2.61,2.61,0,0,0-1.48,2.35v.74a5.17,5.17,0,0,1-10.33,0v-1.17c0-1.27-.38-3.48-1.48-4.11l-5.51-3-1.17-12Z"/><path class="cls-108" d="M889.85,329.74A136.51,136.51,0,0,1,874,333.46c-6.5.93-13.47-3.72-16.11-4.5s-16.16-.62-16.16-.62c0-.38-.06-.83-.09-1.33-.22-3.3-.49-8.63,0-10.13,0,0,8.41.39,11.27,2.34s12.91,6.07,15.25,5.09-4.49-6.44-6.05-10.54c-1.36-3.58-1.9-8.35,1.13-8.86,1,5.51,4.31,10.91,6.59,12.59s9.1,3.07,13.62,4.58a20.08,20.08,0,0,1,2.72,1.1C890.08,325.19,889.85,329.74,889.85,329.74Z"/><path class="cls-107" d="M889.85,329.74A136.51,136.51,0,0,1,874,333.46c-6.5.93-13.47-3.72-16.11-4.5s-16.16-.62-16.16-.62c0-.38-.06-.83-.09-1.33,3.19-.29,9-.76,13.87-.76,7,0,14.58,5.34,21.87,2.31,4.09-1.69,5.56-4.41,6.06-6.48a20.08,20.08,0,0,1,2.72,1.1C890.08,325.19,889.85,329.74,889.85,329.74Z"/><path class="cls-109" d="M890.38,329.64s0,.23,0,.55a6.8,6.8,0,0,1-.24,1.82c-.25.59-16.47,2.54-21.23,2.54-.91,0-9.31-4.33-11.06-4.39l-2.09.06v4.33h-13.9l0-.37,0-.23,0-.57v-.17l0-.45v-.41l0-.57v-.13l0-.52v-.41l0-.53-.16-2.27,0-.68,15.86.64a9.77,9.77,0,0,1,3,.6l8.15,3a10.35,10.35,0,0,0,4.9.53Z"/><polygon class="cls-105" points="855.74 330.22 855.74 330.93 841.59 330.93 841.58 330.91 841.53 330.19 855.74 330.22"/><polygon class="cls-105" points="855.74 330.72 855.74 331.13 841.6 331.13 841.59 330.93 841.58 330.91 841.57 330.72 855.74 330.72"/><path class="cls-110" d="M890.38,329.64s0,.23,0,.55c-3.32.46-17.36,2.64-19.64,2.64-1.83,0-10.48-3.91-12.11-4.27-1.28-.28-12.5-.54-17.24-.64l0-.68,15.86.64a9.77,9.77,0,0,1,3,.6l8.15,3a10.35,10.35,0,0,0,4.9.53Z"/><path class="cls-111" d="M867.18,273.66l-27.86-.4.49,12.67,5.89,3.37a3.52,3.52,0,0,1,1.77,3.06v1.17a5.17,5.17,0,0,0,5.17,5.16h0a5.16,5.16,0,0,0,5.16-5.16v-.74a2.6,2.6,0,0,1,1.49-2.35l7-3.33Z"/><path class="cls-112" d="M843.31,314.53s-.26,1.76-.72,3.65,0,8,0,8,.72-10.94,2.35-11.66,1.36-14.5,0-15.36-1.37,1.56-1.05,6.51A33.38,33.38,0,0,1,843.31,314.53Z"/><path class="cls-113" d="M840.14,274.52l.69,10.59a37.41,37.41,0,0,1,5.23,2.12c.76.61,1.76-12.63,1.76-12.63Z"/><path class="cls-114" d="M850.77,303.42v4.26h4.47v-4.26Zm4.08,3.87h-3.69v-3.48h3.69Z"/><polygon class="cls-108" points="853.03 310.58 851.38 308.37 851.38 294.73 854.68 294.73 854.68 308.28 853.03 310.58"/><rect class="cls-114" x="850.77" y="305.16" width="4.47" height="0.78"/><polygon class="cls-115" points="851.37 305.26 851.33 305.26 851.08 305.26 851.08 303.74 851.33 303.74 851.33 303.53 850.9 303.53 850.9 307.57 851.33 307.57 851.33 307.37 851.12 307.37 851.12 305.84 851.33 305.84 851.37 305.84 854.68 305.84 854.68 305.26 851.37 305.26"/><path class="cls-116" d="M854.21,298h-.84s-.07,0-.07-.06a.07.07,0,0,1,.07-.07h.71v-.71a.07.07,0,0,1,.07-.07.07.07,0,0,1,.06.07Z"/><path class="cls-116" d="M852.72,298h-.85v-.84a.07.07,0,0,1,.06-.07.07.07,0,0,1,.07.07v.71h.72a.07.07,0,0,1,.06.07A.06.06,0,0,1,852.72,298Z"/><path class="cls-116" d="M851.93,296a.06.06,0,0,1-.06-.06v-.85h.85a.06.06,0,0,1,.06.06.07.07,0,0,1-.06.07H852V296A.07.07,0,0,1,851.93,296Z"/><path class="cls-116" d="M854.15,296a.07.07,0,0,1-.07-.06v-.72h-.71a.07.07,0,0,1-.07-.07.07.07,0,0,1,.07-.06h.84V296A.06.06,0,0,1,854.15,296Z"/><rect class="cls-117" x="730.01" y="171.08" width="43.51" height="24.56"/><path class="cls-118" d="M773.52,171.08V193s-10.83-5.81-21.17-7.32S730,189.79,730,189.79V171.08Z"/><path class="cls-119" d="M772.4,188.58l-1.75-.66a53.37,53.37,0,0,0-17.52-3.51c-1.4,0-2.81,0-4.21.06a53.29,53.29,0,0,0-16,3.41l-2,.73c-1.43.54-2.8-1.13-2.68-3.27l.9-16.12H774l1.13,16C775.23,187.41,773.85,189.12,772.4,188.58Z"/><path class="cls-120" d="M731.13,171s-2.58,15.4-.64,15.5,10.77-3.84,13-4.4,1.43-11,1.43-11S733.25,170.32,731.13,171Z"/><path class="cls-120" d="M731.13,171s-2.58,15.4-.64,15.5,10.77-3.84,13-4.4,1.43-11,1.43-11S733.25,170.32,731.13,171Z"/><path class="cls-120" d="M769.69,171s2.58,15.4.64,15.5-10.76-3.84-13-4.4-1.42-11-1.42-11S767.57,170.32,769.69,171Z"/><path class="cls-120" d="M752.46,169.15h0c0-.25-.35-.74-2.1-.74h0c-1.75,0-2.07.45-2.11.68h0a.45.45,0,0,0,0,.13v18.54h4.21V169.29A.27.27,0,0,0,752.46,169.15Z"/><rect class="cls-121" x="746.88" y="177.47" width="1.6" height="2.78"/><rect class="cls-121" x="752" y="177.47" width="1.59" height="2.78"/><path class="cls-118" d="M753.11,186.23c-.06-4.44-.25-17-.25-17h-3.94v17h-.72v2.47c0,1.36,2.47,2.6,2.47,2.6s2.46-1.24,2.46-2.6v-2.47Z"/><path class="cls-120" d="M752.46,169.15h0c0-.25-.35-.74-2.1-.74h0c-1.75,0-2.07.45-2.11.68h0a.45.45,0,0,0,0,.13v18.54h4.21V169.29A.27.27,0,0,0,752.46,169.15Z"/><path class="cls-122" d="M752.46,169.15h0c0-.25-.35-.74-2.1-.74h-.46c1.38.07,1.64.5,1.68.73h0a.54.54,0,0,1,0,.14v18.47h.88V169.29A.27.27,0,0,0,752.46,169.15Z"/><path class="cls-121" d="M750.33,190.94s-2.46-1.24-2.46-2.6v-2.47h4.93v2.47C752.8,189.7,750.33,190.94,750.33,190.94Z"/><path class="cls-123" d="M748,186.09v2.28a3.91,3.91,0,0,0,1.75,1.81,6,6,0,0,0,1.13-.84,2.7,2.7,0,0,0,.66-.86v-2.39Z"/><path class="cls-124" d="M749,186.53a.32.32,0,1,1-.63,0,.32.32,0,0,1,.63,0Z"/><path class="cls-125" d="M749,186.53a.35.35,0,0,1-.35.35.35.35,0,0,1,0-.7A.35.35,0,0,1,749,186.53Z"/><path class="cls-124" d="M749,186.53a.32.32,0,1,1-.63,0,.32.32,0,0,1,.63,0Z"/><path class="cls-126" d="M748.44,186.62a.32.32,0,0,1,.53-.23.31.31,0,0,0-.28-.17.31.31,0,0,0-.31.31.32.32,0,0,0,.09.23A.32.32,0,0,1,748.44,186.62Z"/><path class="cls-127" d="M748.69,186.33s0,0,0,0v.36a0,0,0,0,0,0,0s0,0,0,0v-.36A0,0,0,0,0,748.69,186.33Z"/><path class="cls-127" d="M748.48,186.55a0,0,0,0,1,0,0h.36s0,0,0,0a0,0,0,0,1,0,0h-.36S748.48,186.57,748.48,186.55Z"/><path class="cls-125" d="M752.35,186.55a.35.35,0,0,1-.69,0,.35.35,0,1,1,.69,0Z"/><path class="cls-124" d="M752.32,186.55a.32.32,0,0,1-.63,0,.32.32,0,1,1,.63,0Z"/><path class="cls-126" d="M751.75,186.63a.31.31,0,0,1,.32-.31.31.31,0,0,1,.22.09.31.31,0,0,0-.28-.18.32.32,0,0,0-.32.32.32.32,0,0,0,.1.22A.33.33,0,0,1,751.75,186.63Z"/><path class="cls-127" d="M752,186.35s0,0,0,0v.36a0,0,0,0,0,0,0s0,0,0,0v-.36A0,0,0,0,0,752,186.35Z"/><path class="cls-127" d="M751.79,186.56a0,0,0,0,1,0,0h.36s0,0,0,0a0,0,0,0,1,0,0h-.36S751.79,186.58,751.79,186.56Z"/><path class="cls-123" d="M752.26,179.48H748.4a.53.53,0,0,1-.53-.53h0a.54.54,0,0,1,.53-.54h3.86a.54.54,0,0,1,.54.54h0A.54.54,0,0,1,752.26,179.48Z"/><path class="cls-128" d="M751.49,179.27h-3.13A.33.33,0,0,1,748,179h0a.33.33,0,0,1,.33-.33h3.13a.32.32,0,0,1,.32.33h0A.32.32,0,0,1,751.49,179.27Z"/></g></g></g></svg>