<svg xmlns="http://www.w3.org/2000/svg" xmlns:xlink="http://www.w3.org/1999/xlink" viewBox="0 0 1135.93 536.02"><defs><style>.cls-1{fill:none;}.cls-2{isolation:isolate;}.cls-3{clip-path:url(#clip-path);}.cls-4{fill:#ccebff;}.cls-5{fill:#a0a2b3;}.cls-6{fill:#dbe1ff;}.cls-7{fill:#c2ccff;}.cls-22,.cls-8{fill:#fff;}.cls-9{fill:#29abe2;}.cls-10{fill:#bfe6ff;}.cls-11{fill:#a8c681;}.cls-12{fill:#121841;}.cls-13{fill:#fbb03b;}.cls-14{fill:#f7931e;}.cls-15{fill:#1e0c00;}.cls-16{fill:#00485c;}.cls-17{fill:#5279e0;}.cls-18{fill:#1c0f00;}.cls-19{fill:#887ea8;}.cls-20{fill:#30273f;}.cls-21{fill:#40375b;}.cls-22{opacity:0.31;}.cls-23{fill:#302944;}.cls-24{fill:#d1c7e5;}.cls-25{fill:#eac733;}.cls-26{fill:#00c9f7;}.cls-27{fill:#dad2e0;}.cls-28{fill:#0089a9;}.cls-29{fill:#66a1ad;}.cls-30{fill:#c16400;}.cls-31{fill:#26151a;}.cls-32{fill:#564779;}.cls-33{fill:#41355b;}.cls-34{fill:#598891;}.cls-35{fill:#bdcfd3;}.cls-36{fill:#43666d;opacity:0.34;}.cls-37{fill:#245058;}.cls-38{fill:#1b3c42;}.cls-39{fill:#e0e3f1;}.cls-40{fill:#858aa4;opacity:0.44;}.cls-41{fill:#77a1a8;}.cls-42{fill:#e0c57d;}.cls-43{fill:#f3e8cb;}.cls-44{fill:#f15a24;}.cls-45{fill:#debdb5;}.cls-46{fill:#3d2e5f;}.cls-47{fill:#2e2347;}.cls-48{fill:#372c52;}.cls-49{fill:#fc7575;}.cls-50{fill:#8ab3bc;}.cls-51{fill:#fd5e5a;}.cls-52{fill:#1a1722;}.cls-53{fill:#332f44;}.cls-54{fill:#ff4747;}.cls-55{fill:#cef2fa;}.cls-56{fill:#7f71a4;}.cls-57{fill:#005569;}.cls-58{fill:#000086;}.cls-59{fill:#000065;}.cls-60{fill:#4f005e;}.cls-61{fill:#42004a;}.cls-62{fill:#0000bf;}.cls-63{fill:blue;}.cls-64{fill:#70c3f8;}.cls-65{fill:#513d7e;}.cls-66{fill:#ac95e0;}.cls-67{fill:#3a0049;}.cls-68{fill:#001542;}.cls-69{fill:#904;}.cls-70{fill:#ffba00;}.cls-71{fill:#fff7cf;}.cls-72{fill:#2e0a29;}.cls-73{fill:#450f3d;}.cls-74{fill:#340b2e;}.cls-75{fill:#5c1451;}.cls-76{fill:#170053;}.cls-77{fill:#2d1175;}.cls-78{fill:#ffcb57;}.cls-79{fill:red;}.cls-80{fill:#586086;}.cls-81,.cls-84{fill:#c61937;}.cls-82{fill:#ff1900;}.cls-83{fill:#ff1d3b;}.cls-84{opacity:0.78;}.cls-84,.cls-99{mix-blend-mode:multiply;}.cls-85{fill:#4b314c;}.cls-86{fill:#745075;}.cls-87{fill:#ffce00;}.cls-88{fill:#3c233d;}.cls-89{fill:#ffd15f;}.cls-90{fill:#ff875f;}.cls-91{fill:#fff983;}.cls-92{fill:#ffa18b;opacity:0.24;mix-blend-mode:screen;}.cls-93{fill:#ff751d;}.cls-94{fill:#ff951d;}.cls-95{fill:#ffbd1d;}.cls-96{fill:#cc3403;}.cls-97{fill:#ff1932;}.cls-98{fill:#d81809;}.cls-99{fill:#ff891d;opacity:0.33;}.cls-100{fill:#ff4304;}</style><clipPath id="clip-path" transform="translate(0 0.43)"><rect class="cls-1" width="1135.93" height="533.48"/></clipPath></defs><g class="cls-2"><g id="Layer_2" data-name="Layer 2"><g id="_Layer_" data-name="&lt;Layer&gt;"><g class="cls-3"><path class="cls-4" d="M940.37,98.32s-217.68.69-405-9.65S88.3,94.7,103.7,125.93s99.18-2.7,222.21,100.26,648.73,175.68,684.43,138S861,329.74,871.48,247.07,1024.33,132.73,940.37,98.32Z" transform="translate(0 0.43)"/><rect class="cls-5" x="217.61" y="24.73" width="628.44" height="426.02" rx="32.39"/><rect class="cls-6" x="333.69" y="-62.81" width="396.28" height="600.23" rx="17.52" transform="translate(769.14 -294.08) rotate(90)"/><path class="cls-7" d="M815.33,39.17h-567c-9.17,0-16.62,7.86-16.62,17.52V96.56H831.94V56.69C831.94,47,824.49,39.17,815.33,39.17Z" transform="translate(0 0.43)"/><rect class="cls-8" x="257.49" y="50.32" width="495.08" height="28.44" rx="14.22"/><rect class="cls-9" x="767.75" y="52.38" width="47.95" height="24.3" rx="12.15"/><rect class="cls-8" x="269.04" y="126.37" width="522.69" height="262.93" rx="25.3"/><path class="cls-7" d="M767.74,125.94H293c-13.25,0-24,11.32-24,25.29v10.18H791.73V151.23C791.73,137.26,781,125.94,767.74,125.94Z" transform="translate(0 0.43)"/><rect class="cls-8" x="651.12" y="133.26" width="25.31" height="20.08"/><path class="cls-8" d="M711.05,136.46H684.78a1.49,1.49,0,0,1,0-3h26.27a1.49,1.49,0,0,1,0,3Z" transform="translate(0 0.43)"/><path class="cls-8" d="M711.05,144.82H684.78a1.49,1.49,0,0,1,0-3h26.27a1.49,1.49,0,0,1,0,3Z" transform="translate(0 0.43)"/><path class="cls-8" d="M711.05,153.19H684.78a1.49,1.49,0,0,1,0-3h26.27a1.49,1.49,0,0,1,0,3Z" transform="translate(0 0.43)"/><rect class="cls-10" x="337.17" y="182.66" width="103.04" height="96.49"/><rect class="cls-10" x="484.83" y="182.66" width="103.04" height="96.49"/><rect class="cls-10" x="632.48" y="182.66" width="103.04" height="96.49"/><rect class="cls-11" x="499.39" y="326.71" width="106.88" height="21.44" rx="9.31"/><path class="cls-12" d="M738.33,71.48l-3.46-6a6.3,6.3,0,0,0,2.31-4.91,5.87,5.87,0,1,0-5.86,6.18,5.6,5.6,0,0,0,2.27-.48L736,72.7a1.31,1.31,0,0,0,1.87.65A1.4,1.4,0,0,0,738.33,71.48ZM726.87,60.61a4.46,4.46,0,1,1,4.45,4.7A4.57,4.57,0,0,1,726.87,60.61Z" transform="translate(0 0.43)"/><rect class="cls-7" y="84.87" width="162.28" height="98.08" rx="6.39"/><rect class="cls-5" y="136.33" width="162.28" height="28.02"/><rect class="cls-13" x="119.09" y="142.55" width="32.23" height="15.05"/><rect class="cls-8" x="23.61" y="95.29" width="117.63" height="6.19"/><rect class="cls-6" x="949.34" y="279.95" width="186.59" height="142.98" rx="29.26"/><path class="cls-14" d="M855.65,508.49c0,8.53-157.53,15.44-351.86,15.44S151.92,517,151.92,508.49s157.54-15.44,351.87-15.44S855.65,500,855.65,508.49Z" transform="translate(0 0.43)"/><polygon class="cls-15" points="312.91 502.24 317.01 502.24 317.01 419.59 309.72 419.59 312.91 502.24"/><path class="cls-16" d="M259,440.58l48.35-11.4a7.58,7.58,0,0,0,6.06-7.51l-.32-8.79c-.31-8.4-8.7-14.22-17.34-12L248,413.14Z" transform="translate(0 0.43)"/><path class="cls-17" d="M290.9,382.05h0Z" transform="translate(0 0.43)"/><path class="cls-18" d="M482.39,511.61H464.51a2.18,2.18,0,0,0-2.29-2H448.61A4.36,4.36,0,0,0,444,505.5h-4.78c2.42-17.85,3.55-29.79,4.38-39.82.68-8.56,5.05-21.92-2.71-41.95,2.49-.36,9.27,1.37,9.27-3a2.76,2.76,0,0,0-.53-1.6h9.41c3.13,0,5.32-3,3.67-5.62h102.1c-1.44-1.28-9.78-18.22-31.82-18.22H340.91c-23.09,0-31,18-31.19,18.22h102.1c-1.66,2.61.55,5.62,3.68,5.62h9.4a2.76,2.76,0,0,0-.53,1.6c0,4.38,6.86,2.65,9.27,3-3.28,8.48-5.52,19.86-4.22,30,2.74,21.58,2.15,24.22,5.89,51.81h-4.78a4.36,4.36,0,0,0-4.57,4.07H412.35a2.18,2.18,0,0,0-2.29,2H392.18a2.84,2.84,0,0,0-3,2.5h96.13A2.84,2.84,0,0,0,482.39,511.61Z" transform="translate(0 0.43)"/><path class="cls-19" d="M309.72,413.51H564.85c-.45-.4-1.6-2.38-3.66-4.9H312.83A32.08,32.08,0,0,0,309.72,413.51Z" transform="translate(0 0.43)"/><path class="cls-20" d="M408.89,314.15c-6.16.32-9.47-.95-12.77,1.74a5.8,5.8,0,0,0-2,2.42c-.37,1.68-6.91,69.57-6.91,69.57s.36,2,2.57,1S408.89,314.15,408.89,314.15Z" transform="translate(0 0.43)"/><path class="cls-21" d="M391.61,389.37,437,395a3.93,3.93,0,0,0,4.46-2.69l2.09-9.38,3.53-15.84,1.18-5.3L451.79,346l1.45-6.56,3.53-15.83L458,318.1c.46-2.05-1.41-4-3.89-4H406.81c-4.8,0-8.85,3-9.42,7.05l-9.13,64.47C388,387.47,389.49,389.11,391.61,389.37Z" transform="translate(0 0.43)"/><polygon class="cls-22" points="432.13 314.58 448.26 362.24 451.79 346.4 441.01 314.58 432.13 314.58"/><polygon class="cls-22" points="420.27 314.58 443.56 383.38 447.09 367.54 429.17 314.58 420.27 314.58"/><polygon class="cls-22" points="444.69 314.58 453.25 339.84 456.77 324.01 453.56 314.58 444.69 314.58"/><path class="cls-23" d="M344.18,395.57h98.28l0-8.8-89.23-.22a9,9,0,0,0-9,9Z" transform="translate(0 0.43)"/><path class="cls-24" d="M439.29,342.64c0,1.79-5.79,3.24-12.93,3.24s-12.92-1.45-12.92-3.24,5.79-3.23,12.92-3.23S439.29,340.86,439.29,342.64Z" transform="translate(0 0.43)"/><path class="cls-25" d="M488.61,353.56a2.31,2.31,0,0,0-2.31-2.19h-15a2.32,2.32,0,0,0-2.32,2.19l0,.4h19.69Z" transform="translate(0 0.43)"/><polygon class="cls-26" points="468.95 354.39 466.52 395.72 491.07 395.72 488.64 354.39 468.95 354.39"/><path class="cls-25" d="M480,344.63a.72.72,0,0,0-.71-.81h-.9a.72.72,0,0,0-.72.81v0H480Z" transform="translate(0 0.43)"/><path class="cls-26" d="M489.81,382.89l-1.65-1c5.69-9.27,12.76-23.58,10.64-26.34-2.82-3.67-10.35,1.68-10.43,1.73l-1.15-1.56c.37-.27,9.11-6.57,13.12-1.35C504,359.17,492.22,379,489.81,382.89Z" transform="translate(0 0.43)"/><polygon class="cls-27" points="477.63 345.1 478.18 349.48 479.42 349.48 479.96 345.1 477.63 345.1"/><path class="cls-28" d="M478.8,346.73c-3.93,0-7.11,2.07-7.2,4.64H486C485.91,348.8,482.72,346.73,478.8,346.73Z" transform="translate(0 0.43)"/><polygon class="cls-29" points="468.49 362.37 467.85 373.14 460.86 357.44 464.56 357.44 468.49 362.37"/><path class="cls-26" d="M525.07,391.38c.58-.19,1.19-.37,1.8-.54,3.81-1.11,8.12-2.36,8.48-7.44a3.73,3.73,0,0,0-.65-2.64c-1.39-1.76-4.34-1.66-6-1l.52,1.37c1.22-.46,3.46-.53,4.32.56a2.37,2.37,0,0,1,.35,1.63c-.29,4.07-3.76,5.07-7.43,6.14-.62.18-1.25.36-1.84.55Z" transform="translate(0 0.43)"/><path class="cls-28" d="M539.65,392.58v0c0,1-1.73,1.92-4.64,2.65H499.3c-2.91-.73-4.64-1.65-4.64-2.65v0Z" transform="translate(0 0.43)"/><path class="cls-25" d="M508.81,377.84h20c.07.3.12.61.18.92H508.63C508.68,378.45,508.74,378.14,508.81,377.84Z" transform="translate(0 0.43)"/><path class="cls-26" d="M529,378.76a21.5,21.5,0,0,1,.29,3.45,18.18,18.18,0,0,1-3.06,10.43H511.4a18.18,18.18,0,0,1-3.06-10.43,20.41,20.41,0,0,1,.29-3.45Z" transform="translate(0 0.43)"/><path class="cls-30" d="M515.15,377.72c.64-.67,1.69-.14,2.12.12h-.87a.93.93,0,0,0-1,.13c-.48.5-.82,3.71-.93,5.75a.17.17,0,0,1-.18.17h0a.17.17,0,0,1-.17-.19C514.15,383.17,514.42,378.48,515.15,377.72Z" transform="translate(0 0.43)"/><path class="cls-31" d="M511.83,389.4h4.95v-4.18a1.51,1.51,0,0,1-1.51-1.51h-1.94a1.51,1.51,0,0,1-1.5,1.51Z" transform="translate(0 0.43)"/><rect class="cls-30" x="512.76" y="385.58" width="2.98" height="2.98" transform="translate(1028.49 774.56) rotate(180)"/><path class="cls-32" d="M748.94,154.89a3.19,3.19,0,1,0,3.19-3.36A3.28,3.28,0,0,0,748.94,154.89Z" transform="translate(0 0.43)"/><path class="cls-33" d="M750.41,154.89a1.72,1.72,0,1,0,1.72-1.82A1.78,1.78,0,0,0,750.41,154.89Z" transform="translate(0 0.43)"/><ellipse class="cls-32" cx="738.27" cy="155.32" rx="3.19" ry="3.36"/><path class="cls-33" d="M736.55,154.89a1.73,1.73,0,1,0,1.72-1.82A1.78,1.78,0,0,0,736.55,154.89Z" transform="translate(0 0.43)"/><path class="cls-32" d="M736.3,146l-5.95-10.83a1.55,1.55,0,0,1,.07-1.62,1.8,1.8,0,0,1,1.52-.79h23.62a.56.56,0,1,1,0,1.11H731.94a.57.57,0,0,0-.49.26.49.49,0,0,0,0,.53l6,10.83a.6.6,0,0,0,.52.3h15.44l3.92-14.48a3.82,3.82,0,0,1,3.63-2.89h4.35a.62.62,0,0,1,.6.63.62.62,0,0,1-.6.64h-4.35a2.6,2.6,0,0,0-2.48,2l-5.12,18.94H736.52a.62.62,0,0,1-.6-.63.62.62,0,0,1,.6-.64h15.86l.65-2.43H737.89A1.78,1.78,0,0,1,736.3,146Z" transform="translate(0 0.43)"/><path class="cls-34" d="M730.44,433.48l-17.71-15.85c-7.65-24.09-11.45-51-5.55-77.57a223,223,0,0,1,40.54,12.72l9.54,19.9,4.55-13.08c10,5.49,19.34,12.26,26,20.49l-5.41,27.11,12.84-14.54a39.4,39.4,0,0,1,2.21,8.39c6.55,44.92,5.6,100.59,5.6,100.59H758a285.55,285.55,0,0,1-37.05-62.2Z" transform="translate(0 0.43)"/><path class="cls-35" d="M756.76,483c10.94,5.41,18.75,5.45,21.56,5.23-14-18.25-26.17-41.38-35.59-62.22-.68,0-1.34.05-2,.05-12.3,0-21.92-5.19-28.76-10.84l-.75-2.52c6.94,6.21,17.29,12.34,30.88,11.91-2.74-6.11-5.34-12.22-7.85-18.41-10.32-1.33-20.5-7.57-27.58-12.91-.12-.71-.24-1.41-.35-2.12,6.82,5.3,17.07,11.92,27.31,13.51-12.7-31.52-20.69-57-20.77-57.27l-2.54-5.72,3.58,4c.14.49,6.71,21.14,16.69,47.21,5.3-11.2,2.42-38.59,1.52-46q.75.24,1.5.51c1.06,8.68,3.84,36.57-2.34,47.24a534.66,534.66,0,0,0,23.66,53.19c3.79-5.71-2.51-42.65,8-57.22,6.44-8.89,7.3-19.24,7-26.12l1.46,1c.21,7.09-.91,17.21-7.26,26-10.63,14.68-3.33,52.79-8.5,57.75q2.75,5.24,5.64,10.34c10.59-33.22,10.45-34.4,9-47.57-.83-7.57-1.61-14.73,3.46-19.78,4.4-4.38,5.86-13.07,6.26-20.12.47.41.93.82,1.38,1.24-.51,7.05-2.13,15.4-6.63,19.89-8.08,8,.31,22.4-3.32,36.66-3.29,12.91-8.36,28.75-9.19,31.35,4,6.89,8.11,13.51,12.44,19.67,1.79-1.51,9.3-8.84,7.16-24.27-1.73-12.52,10-28.47,17.84-37.51.07.67.14,1.34.2,2-7.62,9-18.2,23.92-16.62,35.31,2.27,16.47-5.84,24.08-7.75,25.63a150,150,0,0,0,16.43,19.62h-2c-1-1-2-2.06-3-3.13-5.56,1.74-14.18.81-22.75-5.52a20.32,20.32,0,0,0-15.38-3.68c-.29-.42-.59-.85-.89-1.3A21.87,21.87,0,0,1,765,491.85c9.74,7.21,18,6.14,20.83,5.47-2.22-2.46-4.39-5.07-6.52-7.79-7.16,1.05-16.55-2-23.22-5.28a30.35,30.35,0,0,0-12.72-3c-.31-.46-.61-.94-.92-1.42A32,32,0,0,1,756.76,483Z" transform="translate(0 0.43)"/><path class="cls-36" d="M789.82,398.82l5.44-6.16a39.4,39.4,0,0,1,2.21,8.39c6.55,44.92,5.6,100.59,5.6,100.59S785.45,460.83,789.82,398.82Z" transform="translate(0 0.43)"/><path class="cls-37" d="M951.18,466.3c-1.9,0-26.11-12.29-67.41,0a245.47,245.47,0,0,0-71.42,35.34s47.21,9.1,90.41,2S951.18,466.3,951.18,466.3Z" transform="translate(0 0.43)"/><path class="cls-38" d="M817.28,498.28c27.11-18.59,68.64-38,103.58-37.43-7.34,20.67-17.21,35.71-36.87,44.95-29.69,2.06-57.84-1.68-67.88-3.25C816.45,501.22,816.83,499.79,817.28,498.28Z" transform="translate(0 0.43)"/><path class="cls-37" d="M816.21,321.45l17.72,18.61-7-38.87a193.48,193.48,0,0,1,21.35-29.68c21.36-24.12,59.81-59.93,59.81-59.93A230.57,230.57,0,0,1,926.89,264L907,284.27l23-2.29c17,130.68-102.42,219.66-102.42,219.66H803.07s-11-106.38-2.14-139A255.52,255.52,0,0,1,816.21,321.45Z" transform="translate(0 0.43)"/><path class="cls-39" d="M798.82,374.54q.36-3.18.84-6c5.18,14.22,18.88,48.45,33.77,57.42.51-1.43,1-2.85,1.56-4.28-14.83-5.47-26.81-42.15-32.7-63.83q.75-2.55,1.58-5.12c6.16,23.73,18.63,61.5,32.13,66.31a195.55,195.55,0,0,1,15-31.27c4.72-7.77,9.56-18.45,14.3-30.73-12.81-9.76-22.61-51.18-27-73.16.74-1,1.48-2,2.23-3,4,20.5,13.91,63.16,25.8,73.36,3.42-9,6.79-18.88,10-29C865.49,309,861.89,274.59,860.76,258l2.69-2.79c.91,14.42,4.07,49.24,14,66.47C893.47,271,906.84,215.16,907,214.3l1.07-2v2.14c-.22,1-15.08,71.67-33.84,126.23,21.16,7,44.35-7.84,56.88-17.92-.1,1.32-.22,2.64-.35,4a119.65,119.65,0,0,1-10.89,7.52c-12.06,7.36-23.61,11.09-34.06,11.09a39.53,39.53,0,0,1-12.51-2c-5.15,14.75-10.51,28.17-15.81,38.51,19.06,6.63,46.78-.74,62.21-6-.42,1.17-.83,2.32-1.26,3.47-11.2,3.7-27.57,8-43,8a57.43,57.43,0,0,1-19.33-3q-1.38,2.56-2.76,4.83c-24.79,40.71-34.94,106.3-35.84,112.38H814.7c.25-1.73,5.44-37.28,17.77-72.93C818,420.47,805.12,391,798.82,374.54Z" transform="translate(0 0.43)"/><path class="cls-40" d="M827.69,501.64H804.82s5.33-48.91,50.77-81.45l5.47,8.56.82-12.79q4-2.49,8.28-4.82l7.11,16.57,3.08-21.5a162.3,162.3,0,0,1,31-9.84C881.65,460.6,829.65,500.17,827.69,501.64Z" transform="translate(0 0.43)"/><path class="cls-41" d="M729.22,415.84,734,437l5.78-15.16a139.06,139.06,0,0,1,17.45,12.69L758.92,445l5.61-3.66c14.64,15,25.51,34.63,27.15,60.28h-38s-81.66-22.58-84.51-105.79A210.85,210.85,0,0,1,729.22,415.84Z" transform="translate(0 0.43)"/><path class="cls-35" d="M777.06,501.64h-6.35c-44.65-24.15-94.57-97.06-96.75-100.26l-3.09-4.76,5.45,3.16C676.87,400.59,731.91,481,777.06,501.64Z" transform="translate(0 0.43)"/><path class="cls-42" d="M855.82,432.12l4.68,7.33.71-10.95q3.39-2.14,7.09-4.13l6.09,14.2L877,420.14c12.46-5.43,27.3-9.48,45-11.3,0,0-3.8,51.54-26.58,74.23S837,501.86,837,501.86H812.32S816.89,460,855.82,432.12Z" transform="translate(0 0.43)"/><path class="cls-43" d="M834.25,501.86h-3.73c54.39-37.37,87.44-89.74,87.77-90.27l2.86-1.69-1,2.81C919.77,413.24,887.52,464.37,834.25,501.86Z" transform="translate(0 0.43)"/><path class="cls-44" d="M812.35,501.64s45.56-20.31,75.79-17.8,61.37,36,61.37,36-9.91,3.55-24.2,7.08l-13.46-10.67,3.76,12.89c-22.31,4.7-50.88,7.86-70.41-.4C808.78,513.38,812.35,501.64,812.35,501.64Z" transform="translate(0 0.43)"/><path class="cls-45" d="M812.35,501.64s.58-.26,2.37-1c9-.56,38.19-2.08,63.59-1.14,4.25-3.28,6-10.46,6.74-15.82.7,0,1.4.06,2.08.11-.67,5-2.24,11.73-5.94,15.83,1.17,0,9.43.72,12.25,1.15,4.47-3.21,5.45-9.72,5.45-14.81.69.2,1.38.42,2.08.65-.08,4.87-1.07,10.82-4.86,14.59,2.71.47,5.36,1,7.94,1.66,5.79-.94,9.27-5.85,11.19-9.83l1.82,1c-1.72,3.54-4.6,7.74-9.18,9.78,2.25.61,4.44,1.27,6.54,1.95,7.51-2.07,10.4-4.51,11.51-6l1.69,1.2c-1.25,1.73-4,4-9.86,6a210.55,210.55,0,0,1,25.58,10.78l3.85,2.29-5.47-.5c-.26-.16-24.16-14-52.6-17.23,7.49,6,10.67,18.57,12.5,25.84.3,1.21.63,2.51.92,3.5l-2,.31c-.25-.86-.53-1.95-.87-3.31-2-8.08-5.8-23-15.22-26.77-1.52-.1-9.13-.39-11-.44,7.14,6.16,12.56,23.09,15,31.94l-2.08.16c-3.25-11.66-9.83-30.12-17.06-32.18C841.4,500.86,812.35,501.64,812.35,501.64Z" transform="translate(0 0.43)"/><polygon class="cls-15" points="627.66 516.83 623.56 516.83 623.56 429.34 630.85 429.34 627.66 516.83"/><polygon class="cls-15" points="720.55 510.9 716.15 510.9 713.26 434.13 720.55 434.13 720.55 510.9"/><polygon class="cls-15" points="574.51 508.05 570.4 508.05 570.4 427.65 577.69 427.65 574.51 508.05"/><polygon class="cls-15" points="676.24 514.58 671.84 514.53 669.81 440.88 677.1 440.96 676.24 514.58"/><path class="cls-46" d="M689.48,406.33c-1.92-14,14.37-100.09,21.58-102.63,3.67-1.3,22.17-.58,38,.33a22,22,0,0,1,20.47,25.33l-10.48,67.83c-4.41,28.54-131.58,8.73-131.58,8.73Z" transform="translate(0 0.43)"/><path class="cls-47" d="M580.7,357.8c23.34-2.56,75,5.19,84.62,1.41S679,330.59,686.09,320c10.31-15.27,14-13.08,25-16.34L694.65,406.91l-63.83,28-64.74-2.61c-1.06-.07-3.58-19.88-3.52-22.26C562.89,395.51,553.64,360.78,580.7,357.8Z" transform="translate(0 0.43)"/><path class="cls-46" d="M630.8,434.94l-56.17-.07a7.81,7.81,0,0,1-7.84-6l-1.7-8.64c-1.63-8.27,5.51-15.8,14.75-15.56l51,1.35Z" transform="translate(0 0.43)"/><path class="cls-48" d="M670.15,353.32s-4.14,20.49.82,19S672.56,355.16,670.15,353.32Z" transform="translate(0 0.43)"/><path class="cls-48" d="M584.84,354.31s-5.36,13.54,1.83,31.45c6.26,15.58,14.35,22.81,17.91,22.85.53,0,16.92-19.05,9.59-34.13S584.84,354.31,584.84,354.31Z" transform="translate(0 0.43)"/><path class="cls-49" d="M654.71,296.52c-2.39-3.38-7.73-3.31-10.08-3.58s-5.25-4.26-6.81-4.43-.13,4.65,2.35,5.49,0,3.33-1.7,3.7-8.09,1.14-10.18-1.81-5.14-4.36-5.28-3.16,4.54,5.41,4.54,5.41-7-4.24-7.2-2.81,6,4.23,6,4.23-4-.95-4.93-.11,10,4.91,12.07,5.14,13.27-2.84,17-4c1.55-.48,5.1,7.28,9.82,16.87a34.2,34.2,0,0,1,3.78-7.67C659.48,303.54,655.65,297.86,654.71,296.52Z" transform="translate(0 0.43)"/><path class="cls-50" d="M685,330.88c-.53.61-1.27-1.57-1.7-1.44-3.21,1-12.11-10-19.17-19.63-1.53,2.42-4.44,5.35-5.32,8.1,6.54,13.3,16.87,29.72,25.68,33.1,0,0,3.49-4.12,7.52-9.93A72.71,72.71,0,0,0,685,330.88Z" transform="translate(0 0.43)"/><path class="cls-51" d="M656.84,371.83s-64.18-19.78-74.27-16.25l18.48,26.05,10.92,11,55.31-11.16Z" transform="translate(0 0.43)"/><polygon class="cls-52" points="601.1 501.08 600.9 516.37 602.6 516.41 604.74 498.98 601.1 501.08"/><path class="cls-49" d="M674.67,375.59c-12.85,6.81-69.15,4.57-81.42,7.5s-13.59,14.87-14.5,23c-.71,6.34,9.76,57.82,12.16,83.89-.79,13.93-1,16.4-3.65,21s-3.31,5.6.32,5.6c4.68,0,8.77-.9,9.67-2.82,1.55-3.31,2.9-14.69,6.1-14.69,0,0,2.17-4.25,1.61-6.49-.79-3.21-2.92-1.76-3.09-5.74,2.14-26.18,5.31-69.15,3.71-72.66a30.77,30.77,0,0,0-4.24-7.07S670.21,423,678.26,421c4.58-1.09,14.53-16.53,23.07-31.82Z" transform="translate(0 0.43)"/><path class="cls-53" d="M602.17,488.66c-1.41,8.55-7,25.54-10.25,25.55-4.43,0-4.69-.22-4.66-3.21-2.7,4.65-10,7-6.35,7,4.67,0,16.18.27,17.08-1.65,1.56-3.31,2.41-15.83,5.61-15.83l-1,15.41,1.7,0s2.52-21.22,2-23.34C605.51,489.79,603.07,489.18,602.17,488.66Z" transform="translate(0 0.43)"/><polygon class="cls-52" points="559.98 466.95 557.94 482.1 559.62 482.35 563.85 465.3 559.98 466.95"/><path class="cls-54" d="M597.38,372.07c1.12-9.92-10-21.68-14.81-16.49-14.76,15.9-23.06,62.37-27.42,81.26-.69,3-6.22,33.07-10.16,38.28-3.24,4.29-4,5.16-.35,5.6,4.64.56,8.8.16,9.93-1.64,1.94-3.09,4.66-14.23,7.83-13.85,0,0,2.67-4,2.39-6.23-.32-2.61-1.82-2.4-2.28-4.18.11-2.8.77-7.89,2.07-10.92C567.91,436.12,596.26,382,597.38,372.07Z" transform="translate(0 0.43)"/><path class="cls-53" d="M562.51,454.82c-2.43,8.32-10,24.43-13.28,24.05-4.4-.52-4.62-.79-4.24-3.75-6.66,3.27-9.76,6.28-6.15,6.72,4.64.57,15,1.73,16.16-.06,1.94-3.1,4.3-15.42,7.47-15l-2.85,15.18,1.68.25s5.06-20.76,4.77-22.93C565.67,456.27,563.35,455.44,562.51,454.82Z" transform="translate(0 0.43)"/><path class="cls-55" d="M727.09,299.33c-1.46-5.95-12.64-8.34-17.06-4.53,0,0-30,20.41-28.48,33.15,1.51,12.44,5.77,39.55-6,47.14l-.57-.22,29.19,13.57c6.47-11.58,9.32-22.31,11.22-27.44C719.78,349.12,728.55,305.28,727.09,299.33Z" transform="translate(0 0.43)"/><path class="cls-56" d="M675,374.87c-11.54-4.46-72.82-23.59-90.12-20.56,0,0,27.65,29.92,19.74,54.3,0,0,67.36,19.51,73.47,14.83s22.84-30.6,22.88-30.67l3.22-4.33Z" transform="translate(0 0.43)"/><path class="cls-49" d="M674.72,357.86c-12.53-3.74-25.29-8.37-25.29-8.37a9.41,9.41,0,0,1,1.85-8.07c3.1-3.65,4.84-5.54,3.46-5.69s-5.85,4.37-5.85,4.37,2.42-5.26,5.06-7.29.28-3.89-4.57,2.93-4.41,4-4.24,2.59,5.61-8,5.14-10.59c-.43-2.44-7.37,8.83-8.62,12.52,2.9-17.28-1.23-13.41-3.11,3.35-.54,4.8,3.88,11.45,4,11.61.31.6,17.78,10,32.06,17.09C674.69,367.54,675.28,362.57,674.72,357.86Z" transform="translate(0 0.43)"/><path class="cls-57" d="M630.62,317.9c-23.63-2.65-26.25-21.53-26.27-21.72a.72.72,0,0,1,.66-.8.76.76,0,0,1,.85.64c.09.73,2.53,17.91,24.92,20.43a.73.73,0,1,1-.16,1.45Z" transform="translate(0 0.43)"/><path class="cls-58" d="M726.28,263.56s8.56-1.47,9.3,3.07-2.22,11.52-5.6,13.74c-2.62,1.72-11.69,7.3-14.2,1.91S716.12,262.71,726.28,263.56Z" transform="translate(0 0.43)"/><path class="cls-59" d="M731.14,265.3c1.78,4.49,1.67,9.26-2.87,12.48l1,1.38C733.75,275.18,733.71,270.12,731.14,265.3Z" transform="translate(0 0.43)"/><path class="cls-49" d="M710.14,272.42s-.52,7.66-.44,13.9c0,3.38-1.32,5.63-2.16,8.17S697.24,309,700,309.81c1.7.52,13.57-7.62,15.56-8.52,3.18-1.44,6.33-4.09,9.18-5.57l-4.46-31.67Z" transform="translate(0 0.43)"/><path class="cls-51" d="M720.29,264.05l-10.15,8.37s-.3,4.44-.41,9.32c3.24-1.3,8.32-7,10.1-14.11C720.29,264.59,720.29,264.05,720.29,264.05Z" transform="translate(0 0.43)"/><path class="cls-49" d="M706.14,236a12.43,12.43,0,0,0-6.42,5.41c-2.32,4.11-1.09,10.06-2.44,13.73s1.36,22.14,9.67,22.61c10.41.59,14.57-14.61,15.67-17.6s.6-14.82-3.77-19.07S706.14,236,706.14,236Z" transform="translate(0 0.43)"/><path class="cls-60" d="M704,256.87a59.36,59.36,0,0,1-1.46,7.77,5,5,0,0,0,2.86.61,4.66,4.66,0,0,1-3.34-.39A63.87,63.87,0,0,1,704,256.87Z" transform="translate(0 0.43)"/><path class="cls-60" d="M709.7,252.91a9.81,9.81,0,0,1,4.45-.53c2.23.34,4.53,3.53,4.53,3.53s-2.76-2.67-4.26-2.84a8.91,8.91,0,0,0-3.17.36Z" transform="translate(0 0.43)"/><path class="cls-60" d="M704.48,251.57a7.92,7.92,0,0,0-3-2.53c-1.76-.74-4.81,1-4.81,1s3.16-1.07,4.31-.52a7,7,0,0,1,2.13,1.78Z" transform="translate(0 0.43)"/><path class="cls-8" d="M709.29,268.18c-4.08,2.1-5.69,2.24-7.22,2.16C704.44,271.59,708,270.14,709.29,268.18Z" transform="translate(0 0.43)"/><path class="cls-60" d="M710.22,256.59a1.36,1.36,0,0,0,1.46,1.22,1.33,1.33,0,0,0,1.07-1.54,1.35,1.35,0,0,0-1.45-1.22A1.33,1.33,0,0,0,710.22,256.59Z" transform="translate(0 0.43)"/><path class="cls-61" d="M716,257.41c-4.57-4.78-6.53-1.42-8.11-1.22,1.27.11,2.77-1.18,4.16-.79A21,21,0,0,1,716,257.41Z" transform="translate(0 0.43)"/><path class="cls-60" d="M699.78,255.69c.13.76.67,1.29,1.21,1.19a1.28,1.28,0,0,0,.76-1.56c-.13-.76-.67-1.29-1.21-1.18S699.66,254.94,699.78,255.69Z" transform="translate(0 0.43)"/><path class="cls-61" d="M703.79,256.16c-3.8-4.34-5.48-.86-6.81-.54,1.07,0,2.34-1.39,3.51-1.12A14.59,14.59,0,0,1,703.79,256.16Z" transform="translate(0 0.43)"/><path class="cls-51" d="M710.49,263.43c.39,1.26,2.11,1.85,3.85,1.33s2.82-2,2.44-3.23-2.11-1.85-3.85-1.33S710.1,262.17,710.49,263.43Z" transform="translate(0 0.43)"/><path class="cls-62" d="M715.49,241.4c-5.48-5.82-9.73-5-10.1-5.17a1.47,1.47,0,0,1,.29-.45c1-1.3,4.29-4.93,11-3.55,6.9,1.26,10.82,2.25,14.71,7.72,1.75,2.45,2,6.81,1.48,9.62-.87,5.14-3.23,5.82-2.85,11.11.36,5.06-11,8.24-11,8.24.22-.62,1.36-5.52,1.93-6.76a9.8,9.8,0,0,0,.23-7.8c-.54.19-2-.46-2.76-1.23C716,250.62,718.45,248.34,715.49,241.4Z" transform="translate(0 0.43)"/><path class="cls-58" d="M709.31,233.4a14.75,14.75,0,0,0-9.95.53c-5,2.24-7.78,14.34-6,17.3s-9.35,4.3-3.77,5.81C697.53,259.19,714,235.59,709.31,233.4Z" transform="translate(0 0.43)"/><path class="cls-63" d="M707.41,234.81c-7.57-1.67-13.51,3.34-12.68,9.84a3.64,3.64,0,0,0,1.49,2.83l.73-1.4c-.41-.12-.73-1.23-.82-1.63C694.91,238.7,700.1,233.75,707.41,234.81Z" transform="translate(0 0.43)"/><path class="cls-49" d="M719.79,257.18s1.57-5.28,3.33-2.32-1.22,8.37-2.91,7.62S719.79,257.18,719.79,257.18Z" transform="translate(0 0.43)"/><path class="cls-51" d="M720.11,258s1.18-3.05,1.9-2.33-.52,6.4-1.43,5.48S720.11,258,720.11,258Z" transform="translate(0 0.43)"/><path class="cls-64" d="M725,295.37s-10.64,3.66-16.62,22-6.76,41.86-13.35,44c-3,1-14.8-5.09-24.88-8.1,3,6.21.91,14.22.82,19,5.28,2.6,11,4,14.39,5.39C698,382.88,702,381.59,709.67,373S742.92,294.73,725,295.37Z" transform="translate(0 0.43)"/><path class="cls-65" d="M628.47,448.64l86-.58a45.52,45.52,0,0,0,42.73-38.51l13-84.22c1.76-11.35-9.2-20.85-20-17a4,4,0,0,0-2.26,1.45C742.77,320,734.77,356,722.57,366.44c-14.46,12.42-53.15,5.95-80.22,3.59,0,0-14.93-2.2-17.42,10.73C622.82,391.7,628,435.9,628.47,448.64Z" transform="translate(0 0.43)"/><path class="cls-66" d="M745.26,313.82c-5.57,11.13-17.11,42.12-24.69,47.83l-1.07,1c-11,9.2-48.59,4.32-63.32,2.89L645,364.56c-8.43-.69-16.77.41-21.75,7.28-4,5.2-3.7,11.43-3.51,17.48,1.23,20.33,5,39.68,8.69,59.32,1.5-17.83-.6-56.8,1.23-66.05.63-3.33,1.88-5.44,5.51-6.54,8.81-2.61,67.11,12.19,88.95-4.57,17.21-14.55,21.3-59.06,24.49-62.11a6.88,6.88,0,0,1,1.53-1C747.66,308.93,747.68,309.24,745.26,313.82Z" transform="translate(0 0.43)"/><path class="cls-46" d="M750.18,308.36c9.07-2.78,21,4.44,18.12,18.3-7.61,39.87-10.1,56.16-14.27,81.58-3.1,20.1-19.08,36.36-42.84,36.89-16.46.28-53.37,1.45-82.72,3.51,27.87,1.58,56.9,2.14,84.95,2.41,14.84.44,32.61-8.57,41.7-25,6-10.93,5.54-20.2,7.88-33.15,2.06-15.07,4.17-28.46,8.59-65.7C773.42,311.78,760.25,304,750.18,308.36Z" transform="translate(0 0.43)"/><path class="cls-34" d="M243.36,439.05l17-15.24c7.35-23.16,11-49.07,5.33-74.58a213.68,213.68,0,0,0-39,12.23l-9.18,19.13L213.2,368c-9.6,5.28-18.6,11.79-25,19.7l5.2,26.07L181,399.8a37.75,37.75,0,0,0-2.13,8.07c-6.3,43.19-5.38,96.71-5.38,96.71h43.36a274.54,274.54,0,0,0,35.62-59.8Z" transform="translate(0 0.43)"/><path class="cls-35" d="M218.05,486.65c-10.51,5.19-18,5.23-20.73,5,13.48-17.55,25.16-39.79,34.22-59.82.65,0,1.29,0,1.93,0,11.82,0,21.07-5,27.65-10.42l.72-2.42c-6.67,6-16.62,11.86-29.69,11.45,2.63-5.87,5.13-11.75,7.55-17.7,9.91-1.28,19.7-7.27,26.51-12.42.12-.67.23-1.35.35-2-6.56,5.09-16.42,11.46-26.27,13,12.22-30.31,19.89-54.8,20-55.07l2.44-5.49-3.44,3.82c-.13.47-6.45,20.32-16,45.38-5.1-10.77-2.34-37.1-1.47-44.21l-1.44.49c-1,8.35-3.69,35.17,2.25,45.42a512.88,512.88,0,0,1-22.75,51.15c-3.64-5.49,2.41-41-7.73-55-6.19-8.55-7-18.5-6.69-25.12l-1.4.94c-.2,6.82.87,16.54,7,25,10.22,14.11,3.2,50.75,8.17,55.52q-2.64,5-5.42,9.94c-10.18-31.94-10.05-33.07-8.66-45.73.8-7.28,1.55-14.16-3.32-19-4.24-4.21-5.63-12.57-6-19.34l-1.32,1.18c.49,6.78,2.05,14.82,6.38,19.13,7.77,7.73-.3,21.54,3.19,35.25,3.16,12.42,8,27.64,8.84,30.14-3.81,6.62-7.81,13-12,18.91-1.72-1.45-8.94-8.5-6.89-23.33,1.67-12-9.63-27.37-17.14-36.07-.07.65-.14,1.29-.2,1.94,7.33,8.69,17.5,23,16,33.95-2.19,15.83,5.61,23.15,7.45,24.63a143.38,143.38,0,0,1-15.8,18.87h1.92c1-1,1.92-2,2.87-3,5.35,1.68,13.64.79,21.87-5.3a19.56,19.56,0,0,1,14.79-3.55c.28-.4.57-.81.86-1.24a21,21,0,0,0-16.46,3.69c-9.36,6.93-17.33,5.9-20,5.26q3.19-3.56,6.27-7.49c6.88,1,15.9-1.9,22.32-5.07A28.89,28.89,0,0,1,230.89,485c.29-.45.59-.9.88-1.36A30.41,30.41,0,0,0,218.05,486.65Z" transform="translate(0 0.43)"/><path class="cls-36" d="M186.27,405.72,181,399.8a37.75,37.75,0,0,0-2.13,8.07c-6.3,43.19-5.38,96.71-5.38,96.71S190.47,465.35,186.27,405.72Z" transform="translate(0 0.43)"/><path class="cls-37" d="M31.12,470.6c1.83,0,25.1-11.82,64.81,0a236.24,236.24,0,0,1,68.68,34s-45.4,8.75-86.93,1.94S31.12,470.6,31.12,470.6Z" transform="translate(0 0.43)"/><path class="cls-38" d="M159.86,501.35c-26.06-17.87-66-36.53-99.59-36,7.06,19.87,16.55,34.34,35.45,43.22,28.55,2,55.61-1.61,65.27-3.13C160.67,504.18,160.29,502.81,159.86,501.35Z" transform="translate(0 0.43)"/><path class="cls-37" d="M160.89,331.33l-17,17.9,6.72-37.38a187.11,187.11,0,0,0-20.53-28.54c-20.54-23.18-57.51-57.62-57.51-57.62a221.69,221.69,0,0,0-18.07,50.42l19.1,19.48-22.15-2.21C35,419,149.91,504.58,149.91,504.58h23.62s10.61-102.28,2.05-133.65A245,245,0,0,0,160.89,331.33Z" transform="translate(0 0.43)"/><path class="cls-39" d="M177.61,382.38q-.35-3.06-.8-5.75c-5,13.67-18.16,46.58-32.48,55.21q-.72-2.07-1.5-4.11c14.27-5.27,25.79-40.54,31.45-61.38-.49-1.64-1-3.28-1.52-4.92-5.93,22.82-17.91,59.13-30.89,63.75a189.76,189.76,0,0,0-14.41-30.06c-4.55-7.47-9.2-17.74-13.76-29.55,12.32-9.38,21.74-49.21,25.94-70.34-.71-1-1.43-1.92-2.15-2.87-3.84,19.71-13.37,60.73-24.81,70.53-3.29-8.69-6.52-18.14-9.63-27.87,10.46-15.63,13.92-48.74,15-64.65l-2.59-2.69c-.87,13.87-3.91,47.35-13.51,63.91C86.6,282.82,73.75,229.14,73.57,228.31l-1-1.89v2.05c.21.93,14.5,68.91,32.54,121.37-20.35,6.76-42.65-7.53-54.69-17.23.1,1.27.21,2.54.33,3.79a117.43,117.43,0,0,0,10.47,7.24c11.6,7.08,22.7,10.67,32.76,10.67a37.73,37.73,0,0,0,12-1.9c5,14.19,10.1,27.1,15.2,37-18.33,6.36-45-.71-59.81-5.74.4,1.12.8,2.23,1.21,3.33,10.77,3.56,26.51,7.7,41.3,7.7a55.16,55.16,0,0,0,18.58-2.85q1.33,2.46,2.65,4.64c23.84,39.15,33.6,102.21,34.46,108.05h2.77c-.24-1.66-5.23-35.84-17.09-70.12C159.16,426.54,171.55,398.25,177.61,382.38Z" transform="translate(0 0.43)"/><path class="cls-40" d="M149.85,504.58h22s-5.13-47-48.82-78.31l-5.26,8.23L117,422.2q-3.81-2.4-8-4.63l-6.83,15.94-3-20.68a155.55,155.55,0,0,0-29.83-9.46C98,465.12,148,503.17,149.85,504.58Z" transform="translate(0 0.43)"/><path class="cls-41" d="M244.53,422.09l-4.59,20.33-5.56-14.58A132.85,132.85,0,0,0,217.6,440L216,450.15l-5.39-3.53c-14.07,14.41-24.52,33.3-26.1,58H221s78.51-21.7,81.25-101.71A203,203,0,0,0,244.53,422.09Z" transform="translate(0 0.43)"/><path class="cls-35" d="M198.54,504.58h6.1c42.93-23.21,90.93-93.31,93-96.4l3-4.57-5.24,3C294.87,407.43,242,484.73,198.54,504.58Z" transform="translate(0 0.43)"/><path class="cls-42" d="M122.81,437.74l-4.51,7.05-.68-10.53c-2.17-1.37-4.44-2.7-6.81-4L105,443.94l-2.54-17.71c-12-5.23-26.24-9.12-43.21-10.87,0,0,3.65,49.55,25.56,71.37S140.9,504.8,140.9,504.8h23.73S160.24,464.55,122.81,437.74Z" transform="translate(0 0.43)"/><path class="cls-43" d="M143.55,504.8h3.58C94.84,468.87,63.07,418.51,62.75,418L60,416.38l1,2.7C61.32,419.59,92.32,468.75,143.55,504.8Z" transform="translate(0 0.43)"/><path class="cls-44" d="M164.61,504.58s-43.81-19.52-72.88-17.11-59,34.65-59,34.65,9.54,3.41,23.27,6.8l12.95-10.25-3.62,12.39c21.45,4.52,48.92,7.56,67.7-.38C168,515.87,164.61,504.58,164.61,504.58Z" transform="translate(0 0.43)"/><path class="cls-45" d="M164.61,504.58l-2.29-1c-8.7-.53-36.72-2-61.14-1.1-4.08-3.14-5.77-10.06-6.48-15.2-.67,0-1.34.05-2,.1.65,4.83,2.16,11.28,5.72,15.22-1.13.05-9.08.7-11.79,1.1-4.29-3.08-5.23-9.34-5.23-14.24-.67.2-1.33.41-2,.64.07,4.68,1,10.4,4.67,14-2.6.46-5.16,1-7.64,1.6-5.56-.91-8.91-5.62-10.75-9.45-.59.32-1.17.66-1.75,1,1.65,3.41,4.42,7.45,8.82,9.41-2.17.59-4.27,1.22-6.29,1.87-7.22-2-10-4.34-11.06-5.81l-1.63,1.15c1.2,1.67,3.82,3.84,9.48,5.75A201.3,201.3,0,0,0,38.66,520L35,522.22l5.27-.49c.24-.15,23.22-13.48,50.57-16.56-7.2,5.76-10.26,17.86-12,24.85-.29,1.16-.61,2.41-.89,3.36l2,.3c.24-.83.5-1.87.83-3.18,2-7.77,5.59-22.13,14.64-25.74,1.46-.1,8.78-.38,10.55-.42C99,510.25,93.8,526.53,91.46,535l2,.16c3.13-11.21,9.45-29,16.4-31C136.67,503.83,164.61,504.58,164.61,504.58Z" transform="translate(0 0.43)"/><polygon class="cls-15" points="259.76 508.77 263.86 508.77 263.86 421.29 256.57 421.29 259.76 508.77"/><polygon class="cls-15" points="166.86 508.05 171.26 508.05 174.15 426.08 166.86 426.08 166.86 508.05"/><polygon class="cls-15" points="211.12 506.76 215.52 506.7 217.61 433.28 210.32 433.37 211.12 506.76"/><path class="cls-46" d="M197.93,398.27c1.93-14-14.37-100.08-21.58-102.63-3.47-1.22-20.2-.64-35.44.19a24.29,24.29,0,0,0-22.68,28l10.1,65.35c4.41,28.54,131.57,8.72,131.57,8.72Z" transform="translate(0 0.43)"/><path class="cls-47" d="M293,354.31c-22.08-2.43-60.41.45-69.54-3.14S206.71,327.86,200,317.85c-9.75-14.5-13.3-12.42-23.63-15.51l15.53,97.94,60.38,26.56,61.24-2.47c1-.06,3.38-18.87,3.33-21.13C316.52,389.47,318.59,357.13,293,354.31Z" transform="translate(0 0.43)"/><path class="cls-51" d="M326,489.15c-.15,1.41-2.58,3.6.82,5.81,1.14.74,1.38-1.08,5.66,1,2.87,1.38,8,7.15,10.88,7.85a16.61,16.61,0,0,0,10.07-.74c-2.78-1.8-5-4-8.05-5.57-9.41-5-14-42.87-15.62-41.25-3.47,1.63-9.32,3.14-12.74,4.16C322.14,467,326.64,483.05,326,489.15Z" transform="translate(0 0.43)"/><path class="cls-67" d="M330.42,489.66c-1.12-.72-2.83-.53-4.43-.51,0,1.42-3.93,4.09-.62,6.24s8.13,15.68,8.13,15.68l2.24-.63s-7.28-14.94-4-13.65,9.14,11.82,9.14,11.82L356.16,504l-1-2.78c-1.6-1.05-4.16-2-5.71-.69C343,506.07,335.31,491.9,330.42,489.66Z" transform="translate(0 0.43)"/><path class="cls-68" d="M308.86,382.05c-5.34-8.8-41.44-11.76-72.32-17.58-20-3.78-32.31-10-32.31-10l-5.85,15.75,25,17.16,74.82,6.13s16.46,63.06,25.2,78l17-3.81C330.51,448.29,313.76,390.14,308.86,382.05Z" transform="translate(0 0.43)"/><path class="cls-49" d="M319.45,461.42c-3.74,1-7.48,2-11.22,3.23,2.55,7.34,4.23,13.29,3.62,15.11-.47,1.41-1,2.83-1.57,4.19-1.53,3.85-1.15,6.84-.13,8.16.62.8,3.5-.72,6.11,3.26,3.22,4.88,4.44,15.7,4.44,15.7l16.83-.51s2.06-1.46-1.92-4.1-6.94-3.19-8.72-6.57-4.37-21.9-6.65-33.64C320,465,319.74,463.4,319.45,461.42Z" transform="translate(0 0.43)"/><path class="cls-60" d="M338.19,509h0a17.85,17.85,0,0,0-9-7l-3.09,3.1c-5.07-4.22-6.58-12.29-10.15-16.89a11.4,11.4,0,0,0-5.67-4.28c-1.53,3.84-2.92,7.21-1.89,8.53,1.39,1.78,4.75,19.58,4.75,19.58l2.45-.48s-4.33-14.39-2-15.74,6.35,16.39,6.35,16.39l18.64-1S339.23,510.7,338.19,509Z" transform="translate(0 0.43)"/><path class="cls-51" d="M294.81,359.41c-1.06-1.38-7.76-1.52-7.76-1.52A45.18,45.18,0,0,1,272.2,356c-4.63-1.5-28.95-8.32-43.15-17.59-4.17,4.55-10.41,7.83-13.3,12.94.75.44,1.5.88,2.26,1.28,28.86,15.17,50.82,12.39,50.82,12.39s9.88,3.8,14.6,4.34,8.21-.83,5.74-2.39-3.9,0-6.17-1.45-1.42-1.32-.26-2.73,8.16,0,8.34,1.1,3,9.63,4.43,7.93-2.05-9.86-3-10.44-5.8-1.52-5.8-1.52l6.65,1.05s2.52,8.73,3.69,8.54S295.86,360.79,294.81,359.41Z" transform="translate(0 0.43)"/><path class="cls-14" d="M229.05,338.44C227.12,337.17,201.8,285,184.33,285c-3.75,0-17.12,2.89-17.12,2.89S188,338,215.75,354.51C218.64,349.4,224.88,343,229.05,338.44Z" transform="translate(0 0.43)"/><path class="cls-69" d="M291.1,380.77,239,373.69s-32.89-11.9-33-17.13c-1,.24-19,11.42-19,11.42-4.07,13,1.12,41.8,10.41,40,12.85,3.4,81.46,2,81.46,2s21.94,49.48,28,67.05c4.56-1.46,11.87-4.25,16.44-5.43C320.69,453.06,295.84,381.19,291.1,380.77Z" transform="translate(0 0.43)"/><path class="cls-70" d="M226.46,362.23c-1.26-5.72-18.84.74-18.84-25.63,0-8.74-.6-13.31.15-21,.73-7.48-27.5-34.58-27.5-34.58s-24.45,4-24.14,11.92,9,49.88,9.31,52.43c.9,7.95,22.19,41.27,21.6,47.28C197.22,390.58,222.64,373.83,226.46,362.23Z" transform="translate(0 0.43)"/><path class="cls-71" d="M208.31,336.6c0-8.73-.6-13.29.15-21s-24.8-32.34-27.71-35.14l-.95,1c7.78,7.48,27.85,28.16,27.29,34a99.78,99.78,0,0,0-.29,13.56c.41,15.4-.8,26,14.58,30.69,2.62.8,4.11,1.32,4.4,2.64l1.35-.3C225.67,355.42,208.31,362.92,208.31,336.6Z" transform="translate(0 0.43)"/><path class="cls-72" d="M168.08,222.53c-.89,1.23-11.6,1.84-18.47,13.12-6.7,11,.5,29.83,5.13,38.87a19.45,19.45,0,0,0,3.65,5,30.63,30.63,0,0,1,9.17-3.23c4.93-.81,12.79-1.53,17.94-3.4s-.7-34.31-6-41.64S168.08,222.53,168.08,222.53Z" transform="translate(0 0.43)"/><path class="cls-73" d="M161.27,222.58s17.23-5.34,23.06,6.57c3.61,7.36,5.33,30.56,12.26,30.06,0,0-2.71,3.69-5.3,4.11,0,0-1,2.14,3.93,5.68a33.72,33.72,0,0,1-9.72,3.92c-.36.07-3.91,1.9-4.91-1.22-1.18-3.68.13-12.64-1-16.21C174.78,240.37,161.27,222.58,161.27,222.58Z" transform="translate(0 0.43)"/><path class="cls-74" d="M168.58,223.87a11.43,11.43,0,0,1,3.12-.27s8.49,1.77,10.44,9,2.6,11.88,4.37,16.45c2.78,7.2,2.13,20.79-6,22.27-1-3.89.19-12.39-.91-15.84C175.56,242.84,170.22,228.29,168.58,223.87Z" transform="translate(0 0.43)"/><path class="cls-49" d="M165.44,259.82l1.74,24.47s16.3,18.13,23.61,16.47c.38-.09-7.52-16.22-7.72-16.82,0,0-1.79-14.35-2.15-18.65S165.44,259.82,165.44,259.82Z" transform="translate(0 0.43)"/><path class="cls-51" d="M166.05,260.68,167.21,274c9.12,6,14-5.28,14-5.35-.93-3.51-.21-1.84-.34-3.35C180.57,261,166.05,260.68,166.05,260.68Z" transform="translate(0 0.43)"/><path class="cls-49" d="M168.57,224A16.06,16.06,0,0,1,181,230.78c3.21,4.72,2.9,11,4.9,16.2,1.69,4.38,2.21,16.91-4.28,21.43s-18.36-5.29-21.1-10.22a43.06,43.06,0,0,1-4.74-21,13.73,13.73,0,0,1,6.86-11.86A10.82,10.82,0,0,1,168.57,224Z" transform="translate(0 0.43)"/><path class="cls-73" d="M180.24,254.21c-1.42-.94-2.21-3.33-2.31-4.92.71,1.38,1.8,3.89,2.91,4.63l.24.16a4.77,4.77,0,0,1-2.67,1.61A6.68,6.68,0,0,0,180.24,254.21Z" transform="translate(0 0.43)"/><path class="cls-75" d="M173.92,242.71a4.93,4.93,0,0,0-2.66-.73c-1.69,0-4.76,2.56-4.76,2.56a30,30,0,0,1,4.23-1.78,7.31,7.31,0,0,1,2.67.47Z" transform="translate(0 0.43)"/><path class="cls-75" d="M178.45,242.17a4.42,4.42,0,0,1,1.8-1.58c1.31-.68,4.62,0,4.62,0A26.35,26.35,0,0,0,181,241a6.58,6.58,0,0,0-1.91,1.39Z" transform="translate(0 0.43)"/><path class="cls-72" d="M175.19,247.06a4.51,4.51,0,0,0-3.84-.29c-1.46.62-2.06,2-3,2.42,1.49.05,1.65-1.64,5-2.15A6.38,6.38,0,0,1,175.19,247.06Z" transform="translate(0 0.43)"/><path class="cls-72" d="M180.07,247.51a4.53,4.53,0,0,1,2.62-2.82c1.48-.55,2.89.08,3.82-.26-1.06,1.06-2.33-.07-5.1,1.82A5.7,5.7,0,0,0,180.07,247.51Z" transform="translate(0 0.43)"/><path class="cls-51" d="M173.06,253.56c.24,1.16-1.08,2.41-2.95,2.8s-3.58-.23-3.82-1.39,1.08-2.41,3-2.8S172.82,252.4,173.06,253.56Z" transform="translate(0 0.43)"/><path class="cls-51" d="M186.58,250c.18.88-.68,1.8-1.92,2.06s-2.4-.25-2.58-1.13.68-1.8,1.92-2.06S186.4,249.14,186.58,250Z" transform="translate(0 0.43)"/><path class="cls-76" d="M168.58,223.87s-8.13,12.69-5.8,22.1,12.61,20,12.61,20l-6.21,4.86,7.17,4.22s-20.77,5.75-25,5.75-22-20.11-8.46-45.92C149.27,222.71,161.9,220.5,168.58,223.87Z" transform="translate(0 0.43)"/><path class="cls-76" d="M174.83,259.82s8.57-.85,9.5-2.68c0,0-.47,4.09-3.25,4.87S174.83,259.82,174.83,259.82Z" transform="translate(0 0.43)"/><path class="cls-8" d="M184,258.47a8,8,0,0,0,.29-1.33c-.93,1.83-9.5,2.68-9.5,2.68a13,13,0,0,0,1.18.86C178.19,260.39,182.72,259.67,184,258.47Z" transform="translate(0 0.43)"/><path class="cls-65" d="M259,440.58,173,440a45.52,45.52,0,0,1-42.73-38.52l-13-84.21c-1.75-11.35,9.2-20.85,20-17a4,4,0,0,1,2.25,1.45c5.16,10.21,13.15,46.15,25.35,56.62,14.47,12.42,53.16,5.95,80.22,3.59,0,0,14.93-2.2,17.43,10.73C264.59,383.64,259.44,427.85,259,440.58Z" transform="translate(0 0.43)"/><path class="cls-46" d="M259,440.58c-11.16.42-82.18,2.58-91.42,1.13a47.38,47.38,0,0,1-39.87-40.64c0-.2-11.89-80.43-11.7-86.33.5-10.81,11.3-18.57,21.28-14.43-9.28-3-21.31,4.38-18.54,18.36,16,87.61,12.77,85.47,18.79,96.46a43.71,43.71,0,0,0,38.72,22.68C186.07,438.08,215.9,438.38,259,440.58Z" transform="translate(0 0.43)"/><path class="cls-66" d="M137.24,300.31c2.17.57,2.24.55,4.68,5.55,5,10.75,16,42.36,23.93,48.7l1.14,1.06c11.45,9.86,48.43,5.08,64.41,3.5L244.32,358c11.54-.88,20.57,3.94,21.83,15.36,1.49,14.21-5.57,56.35-7.2,67.24-1-34.88,3.61-65-1.9-71.31-4.44-5.54-14.94-2.65-17.42-2.67l-7.37.83c-57.34,6.17-70.27,2-80.89-25.27-6.67-17.28-10.65-39.21-12.57-40.9A6.64,6.64,0,0,0,137.24,300.31Z" transform="translate(0 0.43)"/><path class="cls-77" d="M164,225.13a17.47,17.47,0,0,0-4.24,3.46c-9.72,10.5-7.59,24.06,3,31.53l-3.1,4c-11.37-10.23-12.19-25.87-.35-36A17.64,17.64,0,0,1,164,225.13Z" transform="translate(0 0.43)"/><path class="cls-77" d="M159,224c-10.17,7.63-18.08,21.13-12.36,32.41l.81,1.88c.17.17,6.43,13.59,20,14.24l-.32,5.06C144.91,274.76,129.7,242.75,159,224Z" transform="translate(0 0.43)"/><path class="cls-77" d="M168.58,223.87s6.58-2.05,11.49,1.26-.16,11.06-6.15,13.54-14.08,4.33-12.65,10.52,4.17,7.95,4.17,7.95-9.31-3-9.31-11.17S159.06,224.72,168.58,223.87Z" transform="translate(0 0.43)"/><path class="cls-49" d="M253.89,362.7a21.82,21.82,0,0,0-8-4.94,22.15,22.15,0,0,0-6.39-.23,32.8,32.8,0,0,0-6,0c-7.45.66-44.43-.16-48.61-3a9.86,9.86,0,0,1-2-1.85c-5.62,4.68-11,9.57-13.5,15.5a10.24,10.24,0,0,0,1.09.72c13.72,7.68,49.91-3.4,60.06-5.1s16.59,4.18,19.35,6.88c.23.22.92.46.92-.85s-2.85-5.22-2.85-5.22a11.42,11.42,0,0,1,4.6,6c1.27,4,1.51-.05.93-1.66s-3.6-4.64-3.6-4.92c0-.71,4.66,5.28,5.3,6.91s1.21-1.06.41-2.64a12.78,12.78,0,0,0-1-1.57,10,10,0,0,0,2.12,2.22C257.21,368.88,256.45,365.29,253.89,362.7Z" transform="translate(0 0.43)"/><path class="cls-78" d="M184.87,354.51c-3.61-16.85-15.5-68.88-23.6-67.69,0,0-9.11-.49-12.24,10.77-3.06,11,7.18,62.06,20.39,71.79C171.88,363.45,179.25,359.19,184.87,354.51Z" transform="translate(0 0.43)"/><rect class="cls-8" x="1000.05" y="280.46" width="87.52" height="129.31" transform="translate(1388.92 -698.26) rotate(90)"/><rect class="cls-14" x="996.08" y="364.43" width="75.87" height="3.07"/><rect class="cls-14" x="1019.58" y="330.39" width="3.07" height="35.58"/><path class="cls-14" d="M1057.05,364.15a8.91,8.91,0,1,0,8.91,8.91A8.91,8.91,0,0,0,1057.05,364.15Zm0,14.74a5.84,5.84,0,1,1,5.84-5.83A5.83,5.83,0,0,1,1057.05,378.89Z" transform="translate(0 0.43)"/><path class="cls-14" d="M1010.34,364.15a8.91,8.91,0,1,0,8.91,8.91A8.91,8.91,0,0,0,1010.34,364.15Zm0,14.74a5.84,5.84,0,1,1,5.83-5.83A5.84,5.84,0,0,1,1010.34,378.89Z" transform="translate(0 0.43)"/><path class="cls-14" d="M1057.05,364.15a8.91,8.91,0,1,0,8.91,8.91A8.91,8.91,0,0,0,1057.05,364.15Zm0,14.74a5.84,5.84,0,1,1,5.84-5.83A5.83,5.83,0,0,1,1057.05,378.89Z" transform="translate(0 0.43)"/><path class="cls-14" d="M1010.34,364.15a8.91,8.91,0,1,0,8.91,8.91A8.91,8.91,0,0,0,1010.34,364.15Zm0,14.74a5.84,5.84,0,1,1,5.83-5.83A5.84,5.84,0,0,1,1010.34,378.89Z" transform="translate(0 0.43)"/><path class="cls-14" d="M1044.46,306a19.35,19.35,0,1,0,19.35,19.35A19.35,19.35,0,0,0,1044.46,306Zm0,35.63a16.27,16.27,0,0,1-16.28-16.28c0-14.44,17.57-21.73,27.79-11.51S1058.78,341.63,1044.46,341.63Z" transform="translate(0 0.43)"/><path class="cls-14" d="M1068.88,370V333h-6.65a20.5,20.5,0,0,0,1-3.07H1072v43.1h-6a8.89,8.89,0,0,0-.54-3.07Z" transform="translate(0 0.43)"/><path class="cls-14" d="M1003.91,344.6l6.91-14.64h14.84a19.42,19.42,0,0,0,1,3.07h-13.92l-6.08,12.89-.34.72-.66.47-6.54,4.65V370H1002a8.89,8.89,0,0,0-.54,3.07h-5.35V350.17Z" transform="translate(0 0.43)"/><path class="cls-14" d="M1048.69,370a8.89,8.89,0,0,0-.55,3.07h-28.89a8.89,8.89,0,0,0-.55-3.07Z" transform="translate(0 0.43)"/><path class="cls-14" d="M1034,328.5h14.09V312.23a1,1,0,1,0-2.08,0v14.2h-12a1,1,0,1,0,0,2.07Z" transform="translate(0 0.43)"/><path class="cls-14" d="M1067.55,345.41H1095c.26,0,.46-.36.46-.81s-.2-.8-.46-.8h-27.44c-.25,0-.46.36-.46.8S1067.3,345.41,1067.55,345.41Z" transform="translate(0 0.43)"/><path class="cls-14" d="M1077.93,352.31h25.5c.26,0,.46-.36.46-.8s-.2-.81-.46-.81h-25.5c-.26,0-.46.36-.46.81S1077.67,352.31,1077.93,352.31Z" transform="translate(0 0.43)"/><path class="cls-14" d="M1078.81,362.65h24.62c.26,0,.46-.36.46-.8s-.2-.81-.46-.81h-24.62c-.26,0-.46.36-.46.81S1078.55,362.65,1078.81,362.65Z" transform="translate(0 0.43)"/><path class="cls-14" d="M1070.72,333.57h17.76c.26,0,.46-.36.46-.81s-.2-.8-.46-.8h-17.76c-.26,0-.47.36-.47.8S1070.46,333.57,1070.72,333.57Z" transform="translate(0 0.43)"/><rect class="cls-5" x="879.73" width="156.46" height="271.31" rx="36.9"/><rect class="cls-6" x="837.1" y="71.79" width="241.73" height="126.88" rx="21.71" transform="translate(1093.19 -822.31) rotate(90)"/><rect class="cls-8" x="907.45" y="36.54" width="101.32" height="189.5"/><path class="cls-79" d="M945.46,203.53c.87,1.9,5.54,11.69,10.09,13.93a.33.33,0,0,0,.14,0l4.76.73.13,0,4.74,2.25a.45.45,0,0,0,.2,0h0a.49.49,0,0,1,.48.48v.61a.47.47,0,0,1-.34.45c-.89.27-3.83.84-12,.47a.49.49,0,0,1-.4-.26c-.68-1.32-4-7.6-7.3-8.74a.48.48,0,0,0-.63.45v8.19a.48.48,0,0,1-.48.48h-.75a.48.48,0,0,1-.47-.44c-.18-2.11-1-11.26-1.79-12.07s-1.71-6.13,3.12-6.92A.46.46,0,0,1,945.46,203.53Z" transform="translate(0 0.43)"/><path class="cls-79" d="M949.34,217.88c.18,1.72.31,3.22.37,3.93a.48.48,0,0,0,.47.44h.75a.49.49,0,0,0,.48-.48V221A33.38,33.38,0,0,0,949.34,217.88Z" transform="translate(0 0.43)"/><path class="cls-79" d="M971.61,220.12a.45.45,0,0,1-.2,0l-4.74-2.25-.13-.05-4.76-.72-.14,0c-4.55-2.24-9.22-12-10.09-13.94a.49.49,0,0,0-.51-.27,4.14,4.14,0,0,0-3.51,2.71,48.21,48.21,0,0,0,4.83,7.74,10.79,10.79,0,0,1,3.63,3.28l4.61.7a1.51,1.51,0,0,1,.41.13l4.64,2.2A1.48,1.48,0,0,1,967,221v.61a1.51,1.51,0,0,1-.11.56,21.29,21.29,0,0,0,4.87-.55.48.48,0,0,0,.34-.46v-.6A.48.48,0,0,0,971.61,220.12Z" transform="translate(0 0.43)"/><path class="cls-80" d="M989.28,237a2.35,2.35,0,1,1-2.34-2.34A2.34,2.34,0,0,1,989.28,237Z" transform="translate(0 0.43)"/><path class="cls-80" d="M1003,237a2.34,2.34,0,1,1-2.34-2.34A2.34,2.34,0,0,1,1003,237Z" transform="translate(0 0.43)"/><path class="cls-80" d="M1016.64,237a2.34,2.34,0,1,1-2.34-2.34A2.34,2.34,0,0,1,1016.64,237Z" transform="translate(0 0.43)"/><polygon class="cls-44" points="920.02 21.97 924.89 29.04 932.82 25.73 933.09 34.31 941.55 35.81 937.14 43.18 943.45 49.01 935.75 52.82 937.91 61.14 929.37 60.19 926.69 68.35 920.02 62.94 913.35 68.35 910.67 60.19 902.13 61.14 904.29 52.82 896.59 49.01 902.9 43.18 898.49 35.81 906.95 34.31 907.23 25.73 915.15 29.04 920.02 21.97"/><path class="cls-8" d="M926.87,34.2h2.53L914.83,54.62H912.3l12.47-17.54a21.2,21.2,0,0,1-5.77.29,4.39,4.39,0,1,1-4.23-2.82C916.5,34.55,922,36.61,926.87,34.2ZM913.4,37.44a2.11,2.11,0,1,0,3,0A2.58,2.58,0,0,0,913.4,37.44Zm16.76,8.94a4.38,4.38,0,1,1-7.48,3.11A4.39,4.39,0,0,1,930.16,46.38ZM925.55,48c-2,2,1.06,4.94,3,3A2.12,2.12,0,0,0,925.55,48Z" transform="translate(0 0.43)"/><path class="cls-81" d="M945.7,93.45l2.77-.8s4.12,3.51,8.95,3.08a23.19,23.19,0,0,0,8.6-2.62l4.43,1.09s-6.69,17.37-12.37,15.78S945.7,93.45,945.7,93.45Z" transform="translate(0 0.43)"/><path class="cls-82" d="M943.59,108s.1,4.42.6,5.72,1.4,3.71,1.4,3.71l1.11,8.33h20.66l.9-8.88s1.81-4.26,1.81-5.57v-4.06c0-.31,0-.63,0-.94.21-2.15,1.24-10.23,2.17-11.68L966,93.11s-3.58,11.47-9.9,10.13-7.65-10.59-7.65-10.59l-6.76,2S945.09,105.21,943.59,108Z" transform="translate(0 0.43)"/><path class="cls-83" d="M946.7,125.78h20.66s12.57,15.78,18.18,33.56,5.09,19.12,5.09,19.12-15.12,7.63-27.82,4.82-30.22,3.2-38.6-5.19C924.21,178.09,936.7,135.77,946.7,125.78Z" transform="translate(0 0.43)"/><path class="cls-84" d="M975.82,183.25A59.38,59.38,0,0,0,987.15,180c-3.23-11.32-15.46-47.56-19.79-50C967.36,130,974.06,166.55,975.82,183.25Z" transform="translate(0 0.43)"/><path class="cls-84" d="M963.14,128.78s10.84,42.53,4.22,46.14S963.14,128.78,963.14,128.78Z" transform="translate(0 0.43)"/><path class="cls-84" d="M930.36,181.62c5,1.52,11.24,1.2,17.49,1-.42-20,4.26-55,4.26-55C941.66,133.47,933.81,165.16,930.36,181.62Z" transform="translate(0 0.43)"/><path class="cls-84" d="M957.13,128.78s-5.82,34.91-1.61,34.91S957.13,128.78,957.13,128.78Z" transform="translate(0 0.43)"/><path class="cls-84" d="M952.94,123.53c-5.25-2.61-6.75-21.35-9.75-29.34l-1.48.43s3.38,10.59,1.88,13.4c0,0,.1,4.42.6,5.72s1.4,3.71,1.4,3.71l1.11,8.33h20.66l.24-2.43C965.23,124.29,957.54,125.81,952.94,123.53Z" transform="translate(0 0.43)"/><path class="cls-85" d="M957,126.74c-6,0-9.81-.46-10.7-.83l.13-1c.68.28,4.61.83,10.57.83a57.32,57.32,0,0,0,10.63-.86l0,1.08A58.54,58.54,0,0,1,957,126.74Z" transform="translate(0 0.43)"/><path class="cls-86" d="M958.57,126.21a1,1,0,0,1-.15.51l-.76,0h-.87a18.07,18.07,0,0,1-5.06-.7.5.5,0,0,1-.31-.59h0a.5.5,0,0,1,.64-.37,18.88,18.88,0,0,0,4.74.61h1.61A1,1,0,0,1,958.57,126.21Z" transform="translate(0 0.43)"/><path class="cls-86" d="M958.32,126.72h0a22.72,22.72,0,0,1-6.59-.71.51.51,0,0,1,.18-1l.15,0a23.38,23.38,0,0,0,6.24.62A.65.65,0,0,1,958.32,126.72Z" transform="translate(0 0.43)"/><path class="cls-87" d="M958.77,126.71a2.14,2.14,0,0,1-3.29,0c.17,0,.27,0,.47,0a1.9,1.9,0,0,0,2.37,0c.92-1-1.19-2-2.31-1.08-.15,0-.32,0-.47,0a2,2,0,0,1,1.59-.68C958.44,124.93,959.27,125.9,958.77,126.71Z" transform="translate(0 0.43)"/><path class="cls-88" d="M958.57,126.21a.13.13,0,0,1-.14.13.13.13,0,0,1-.13-.13.13.13,0,0,1,.13-.14A.14.14,0,0,1,958.57,126.21Z" transform="translate(0 0.43)"/><path class="cls-89" d="M958.69,126.34h-.25a.13.13,0,0,1-.13-.13h0a.13.13,0,0,1,.13-.13h.25a.13.13,0,0,1,.13.13h0A.13.13,0,0,1,958.69,126.34Z" transform="translate(0 0.43)"/><path class="cls-90" d="M958.81,126.18a.13.13,0,0,1-.12.1h-.35a.13.13,0,0,0,.1.06h.25a.13.13,0,0,0,.13-.13Z" transform="translate(0 0.43)"/><path class="cls-91" d="M956.2,125.29a2.11,2.11,0,0,1,2.34.29c.08.09,0,.21-.12.13h0A2,2,0,0,0,956.2,125.29Z" transform="translate(0 0.43)"/><path class="cls-91" d="M956.21,127.25a2.11,2.11,0,0,0,2.34-.32c.08-.08,0-.21-.13-.12h0A2,2,0,0,1,956.21,127.25Z" transform="translate(0 0.43)"/><path class="cls-92" d="M953.51,105.37a4.28,4.28,0,0,0-3.27,6.14l.06.11c2,3.85,14.35,6.47,17.06,2.36C970,110,971.28,103,953.51,105.37Z" transform="translate(0 0.43)"/><path class="cls-93" d="M981.08,73.58s-12,.79-27.9,3-29.56-2.29-24-5.9a3.32,3.32,0,0,1,.93-.35C934.13,69.47,981.08,73.58,981.08,73.58Z" transform="translate(0 0.43)"/><path class="cls-94" d="M965.25,53.39c-1.29,0-7.62-.39-10.49,2.48s-1.68,7.12-7.42,8.9-17.22,5.52-17.22,5.52a52.72,52.72,0,0,1,13.27.81c7.91,1.39,33,10.59,40.56,10.59s13-.6,14.83-4c0,0-15.63-5.87-20.87-8.42,0,0-1.09-1.18-1.09-4.24s.89-4.75-2.62-8.26S965.25,53.39,965.25,53.39Z" transform="translate(0 0.43)"/><path class="cls-95" d="M960.83,54.92s-5.17-.67-6.33,2.49-.85,3.19,2.21,4.56,8,.68,8.66-2.28S962.11,54.92,960.83,54.92Z" transform="translate(0 0.43)"/><path class="cls-96" d="M930.12,70.29a52.49,52.49,0,0,1,13.35.6c9.65,1.78,34,10.72,40.88,10.55,3.77,0,10,0,12.94-2.09a5.24,5.24,0,0,0,1.49-1.62c-1.37,2.63-4.77,3.41-7.74,3.81a47.88,47.88,0,0,1-8.95.28L981,81.66c-8.26-1.11-30.38-8.85-37.59-10.33A58.78,58.78,0,0,0,930.12,70.29Z" transform="translate(0 0.43)"/><path class="cls-97" d="M976.86,69.18l.92-.05a5.32,5.32,0,0,1-.77-2,43.41,43.41,0,0,1-8.51-.28c-7.17-1.13-10.35-3.6-16.91-5.09a6.5,6.5,0,0,1-1.66,1.8C960,65.48,962.7,69.87,976.86,69.18Z" transform="translate(0 0.43)"/><path class="cls-98" d="M977,67.09a53.42,53.42,0,0,1-5.53,0,5.26,5.26,0,0,1-1.17,2,48.12,48.12,0,0,0,6.55.29c.33,0,.76-.08,1-.09A6.29,6.29,0,0,1,977,67.09Z" transform="translate(0 0.43)"/><path class="cls-99" d="M998.78,77.73s-15.63-5.87-20.87-8.42c0,0-1.09-1.18-1.09-4.24s.89-4.75-2.62-8.26-9-3.42-9-3.42h-.15c2.37,2.5,4.85,5.55,5.86,8.33A7.85,7.85,0,0,1,968.28,71s11.13,5,14,7.8a8.27,8.27,0,0,1,1.8,2.86C991.52,81.68,997,81.08,998.78,77.73Z" transform="translate(0 0.43)"/><path class="cls-95" d="M942.55,67.54a13.76,13.76,0,0,1,7.38-.9c3.56.78,10.26,3.17,8.34,5.09S939.83,69.66,942.55,67.54Z" transform="translate(0 0.43)"/><path class="cls-100" d="M969.22,67.83c.43-3.15.26-8.76-1.62-11a2.06,2.06,0,0,0-3.56.91c-1,2.89,2.87,7.69,5.13,9.71C969.18,67.61,969.2,67.72,969.22,67.83Zm-3.64-10c.41-.37.64-.48,1-.06,1.44,1.51,2.29,7.61,2.59,9.66C967.87,65.35,964.13,59.59,965.58,57.85Z" transform="translate(0 0.43)"/><path class="cls-100" d="M979.57,64.72c2.6-2.67-1-4.5-1-4.53-3.83-2-7.14,3.54-8.23,7.35,2.19-3.43,5.61-8.46,8.35-5.55,1.34,1.28-.79,2.58-2.46,3.4a45.68,45.68,0,0,1-5.89,2.15,20.59,20.59,0,0,0,6.32-1.14A8.44,8.44,0,0,0,979.57,64.72Z" transform="translate(0 0.43)"/><path class="cls-100" d="M970.94,74.28c-1.63-1.25-1.71-4-1.65-6a5.09,5.09,0,0,0-.21,1.56c.18,5.73,3.1,6.33,8.35,4.28l-.48-.93C975.39,74.15,972.44,75.34,970.94,74.28Z" transform="translate(0 0.43)"/><path class="cls-100" d="M979.85,68.25l-.89.56c1.17,1.84.44,2.74.43,2.78a2,2,0,0,1-.72.62c-1.91,1.12-6.91-2.62-8.64-4h0c1.88,1.79,6.62,5.87,9,4.69a2.63,2.63,0,0,0,1.06-.81S981.21,70.7,979.85,68.25Z" transform="translate(0 0.43)"/><path class="cls-100" d="M971.05,67.57a1.26,1.26,0,1,1-1.26-1.14A1.2,1.2,0,0,1,971.05,67.57Z" transform="translate(0 0.43)"/></g></g></g></g></svg>