<svg xmlns="http://www.w3.org/2000/svg" viewBox="0 0 732.55 681.27"><defs><style>.cls-1{fill:#99d7ff;}.cls-2{fill:#f78500;}.cls-3{fill:#217f91;}.cls-4{fill:#a7cbd3;}.cls-5{fill:#195f6d;opacity:0.34;}.cls-6{fill:#004a58;}.cls-7{fill:#003842;}.cls-8{fill:#cfd5f1;}.cls-9{fill:#6670a4;opacity:0.44;}.cls-10{fill:#469aa8;}.cls-11{fill:#e0aa1a;}.cls-12{fill:#f3dda3;}.cls-13{fill:#ad2500;}.cls-14{fill:#de9c8c;}.cls-15{fill:#fff;}.cls-16{fill:#331579;}.cls-17{fill:#2badff;}.cls-18{fill:#190b3d;}.cls-19{fill:#0e061e;}.cls-20{fill:#fff7cf;}.cls-21{fill:#270f5b;}.cls-22{fill:#fd5e5a;}.cls-23{fill:#8d75bb;}.cls-24{fill:#ed0009;}.cls-25{fill:#000a40;}.cls-26{fill:#0086ac;}.cls-27{fill:#005971;}.cls-28{fill:#00145d;}.cls-29{fill:#00627d;}.cls-30{fill:#80003b;}.cls-31{fill:#b73000;}.cls-32{fill:#cd3179;}.cls-33{fill:#fb9900;}.cls-34{fill:#fc7575;}.cls-35{fill:#e80000;}.cls-36{fill:#007697;}.cls-37{fill:#a6a8fe;}.cls-38{fill:#000f60;}.cls-39{fill:#2e0028;}.cls-40{fill:#172866;}.cls-41{fill:#1b2b80;}.cls-42{fill:#2846a6;}.cls-43{fill:#023135;}.cls-44{fill:#603e6b;}.cls-45{fill:#907897;}.cls-46{fill:#ff0076;}.cls-47{fill:#7fcdff;}.cls-48{fill:#0a4cfe;}.cls-49{fill:#0033bf;}</style></defs><g id="Layer_2" data-name="Layer 2"><g id="_Layer_" data-name="&lt;Layer&gt;"><path class="cls-1" d="M391,58.45a2.21,2.21,0,0,1-1.15-.33c-1.73-1.12-3.53-2.24-5.34-3.33a2.12,2.12,0,0,1,2.19-3.64c1.84,1.11,3.68,2.25,5.45,3.4a2.12,2.12,0,0,1-1.15,3.9Z"/><path class="cls-1" d="M108.84,367a2.16,2.16,0,0,1-1-.25c-4.55-2.46-8.27-4.51-11-6.08A2.12,2.12,0,0,1,98.87,357c2.75,1.55,6.45,3.58,11,6a2.12,2.12,0,0,1-1,4Zm-26.1-16.1a2.12,2.12,0,0,1-1.26-.42c-3.41-2.53-6.76-5.14-10-7.77a2.12,2.12,0,0,1,2.69-3.28c3.15,2.58,6.44,5.15,9.8,7.64a2.12,2.12,0,0,1-1.27,3.83Zm-23.4-19.73a2.09,2.09,0,0,1-1.47-.59c-3.06-2.93-6-6-8.87-9a2.12,2.12,0,0,1,3.11-2.89c2.78,3,5.7,6,8.7,8.85a2.12,2.12,0,0,1-1.47,3.65ZM38.85,308.41a2.14,2.14,0,0,1-1.68-.83c-2.59-3.35-5.09-6.81-7.42-10.27a2.13,2.13,0,0,1,3.53-2.37c2.27,3.39,4.71,6.77,7.25,10.05a2.13,2.13,0,0,1-1.68,3.42ZM22.18,282.75a2.12,2.12,0,0,1-1.87-1.12c-2-3.73-3.88-7.56-5.58-11.4a2.12,2.12,0,1,1,3.87-1.72c1.67,3.74,3.5,7.48,5.45,11.11a2.12,2.12,0,0,1-1.87,3.13Zm-12-28.16a2.13,2.13,0,0,1-2-1.48c-1.29-4-2.45-8.12-3.44-12.22a2.12,2.12,0,1,1,4.13-1c1,4,2.09,8,3.35,11.91a2.12,2.12,0,0,1-1.37,2.67A2.16,2.16,0,0,1,10.2,254.59ZM3.5,224.73a2.13,2.13,0,0,1-2.11-1.85c-.12-1-.24-1.92-.35-2.89-.37-3.22-.66-6.49-.85-9.73A2.12,2.12,0,1,1,4.42,210c.19,3.17.47,6.36.84,9.51.1,1,.22,1.88.34,2.82a2.12,2.12,0,0,1-1.82,2.38ZM2.12,194.15H2A2.13,2.13,0,0,1,0,192c.17-4.19.48-8.44.94-12.64a2.12,2.12,0,1,1,4.21.45c-.44,4.11-.75,8.26-.91,12.35A2.11,2.11,0,0,1,2.12,194.15Zm3.75-30.37a2.18,2.18,0,0,1-.44,0,2.13,2.13,0,0,1-1.65-2.51c.85-4.1,1.85-8.24,3-12.32A2.12,2.12,0,1,1,10.85,150c-1.1,4-2.08,8-2.91,12.05A2.12,2.12,0,0,1,5.87,163.78Zm8.57-29.38a2.21,2.21,0,0,1-.75-.14,2.12,2.12,0,0,1-1.23-2.74c1.49-3.92,3.13-7.86,4.88-11.69a2.12,2.12,0,1,1,3.86,1.76c-1.71,3.75-3.31,7.6-4.77,11.44A2.12,2.12,0,0,1,14.44,134.4Zm13.07-27.69a2.25,2.25,0,0,1-1.05-.27,2.13,2.13,0,0,1-.79-2.9c2.08-3.64,4.31-7.28,6.62-10.8a2.12,2.12,0,0,1,3.55,2.33c-2.27,3.45-4.44,7-6.48,10.57A2.12,2.12,0,0,1,27.51,106.71ZM44.69,81.37A2.12,2.12,0,0,1,43,77.93c2.62-3.3,5.38-6.55,8.2-9.66a2.12,2.12,0,1,1,3.14,2.85c-2.76,3-5.46,6.23-8,9.45A2.11,2.11,0,0,1,44.69,81.37ZM65.56,59A2.09,2.09,0,0,1,64,58.28a2.13,2.13,0,0,1,.14-3c3.13-2.84,6.42-5.58,9.77-8.14a2.12,2.12,0,0,1,2.57,3.38C73.22,53,70,55.66,67,58.42A2.12,2.12,0,0,1,65.56,59ZM369.68,46.39a2,2,0,0,1-.94-.23c-3.66-1.81-7.45-3.58-11.27-5.24A2.12,2.12,0,0,1,359.16,37c3.89,1.69,7.75,3.48,11.47,5.33a2.13,2.13,0,0,1-.95,4ZM90.2,40.86a2.12,2.12,0,0,1-1.08-4c3.6-2.12,7.37-4.14,11.2-6a2.12,2.12,0,0,1,1.85,3.81c-3.73,1.81-7.39,3.78-10.89,5.84A2.11,2.11,0,0,1,90.2,40.86Zm251.27-6.39a2.21,2.21,0,0,1-.71-.12c-3.86-1.37-7.83-2.68-11.81-3.9a2.12,2.12,0,0,1,1.24-4.06c4,1.24,8.07,2.57,12,4a2.12,2.12,0,0,1-.71,4.12ZM117.93,28a2.12,2.12,0,0,1-.72-4.12c3.9-1.4,8-2.7,12.07-3.87A2.12,2.12,0,0,1,130.44,24c-4,1.15-8,2.42-11.79,3.79A2.27,2.27,0,0,1,117.93,28ZM312.1,25.77a2.2,2.2,0,0,1-.5-.06c-4-1-8.05-1.87-12.16-2.71a2.12,2.12,0,0,1,.85-4.16c4.16.85,8.3,1.77,12.31,2.75a2.12,2.12,0,0,1-.5,4.18ZM147.47,19.92a2.12,2.12,0,0,1-.4-4.2c4-.79,8.23-1.5,12.47-2.1a2.12,2.12,0,0,1,.6,4.2c-4.17.6-8.3,1.29-12.26,2.07Zm134.58-.05a1.84,1.84,0,0,1-.33,0c-4.06-.62-8.22-1.19-12.36-1.7a2.12,2.12,0,0,1-1.85-2.36,2.15,2.15,0,0,1,2.37-1.85c4.18.51,8.38,1.09,12.48,1.72a2.12,2.12,0,0,1-.31,4.22Zm-30.44-3.53h-.18c-4.08-.33-8.27-.61-12.46-.84a2.12,2.12,0,0,1,.23-4.24c4.22.23,8.45.52,12.57.85a2.12,2.12,0,0,1-.16,4.23Zm-73.78-.48a2.12,2.12,0,0,1-.16-4.24c4.06-.32,8.29-.58,12.59-.77a2.12,2.12,0,1,1,.18,4.24c-4.24.18-8.43.44-12.43.76Zm43.16-1h0c-4.07-.09-8-.13-11.82-.13h-.67a2.13,2.13,0,0,1,0-4.25h.67c3.81,0,7.82.05,11.91.14a2.12,2.12,0,0,1,0,4.24Z"/><ellipse class="cls-2" cx="315.75" cy="645.57" rx="276.69" ry="21.25"/><path class="cls-3" d="M409.28,567.43l-20.09-18c-8.67-27.31-13-57.86-6.29-87.94a252.28,252.28,0,0,1,46,14.42l10.83,22.56,5.15-14.83c11.32,6.22,21.93,13.9,29.5,23.23l-6.13,30.74,14.56-16.48a43.78,43.78,0,0,1,2.5,9.51c7.43,50.93,6.36,114.05,6.36,114.05H440.49a323.93,323.93,0,0,1-42-70.53Z"/><path class="cls-4" d="M439.12,623.55c12.4,6.13,21.25,6.18,24.44,5.93-15.89-20.7-29.67-46.92-40.35-70.55-.76,0-1.52.05-2.27.05-13.94,0-24.85-5.87-32.6-12.28-.29-1-.58-1.91-.85-2.86,7.86,7,19.6,14,35,13.51-3.11-6.93-6.06-13.86-8.91-20.88-11.69-1.51-23.23-8.58-31.26-14.64-.14-.8-.27-1.6-.41-2.4,7.74,6,19.36,13.52,31,15.32-14.41-35.74-23.46-64.62-23.55-64.94l-2.88-6.48,4.06,4.51c.15.55,7.61,24,18.91,53.52,6-12.71,2.75-43.76,1.73-52.14l1.71.58c1.19,9.85,4.34,41.47-2.67,53.56A608.35,608.35,0,0,0,437,583.68c4.3-6.48-2.84-48.36,9.12-64.88,7.3-10.09,8.28-21.82,7.89-29.62l1.65,1.1c.24,8-1,19.51-8.23,29.46-12.05,16.64-3.78,59.85-9.63,65.47q3.11,5.94,6.39,11.72c12-37.66,11.85-39,10.21-53.93-.94-8.58-1.83-16.69,3.92-22.42,5-5,6.64-14.82,7.1-22.81.53.46,1.05.92,1.56,1.39-.58,8-2.42,17.47-7.52,22.56-9.16,9.12.36,25.4-3.76,41.57-3.73,14.64-9.47,32.59-10.43,35.54,4.49,7.81,9.21,15.32,14.12,22.3,2-1.71,10.54-10,8.12-27.51-2-14.2,11.35-32.28,20.22-42.53.08.76.15,1.52.23,2.28-8.64,10.25-20.64,27.12-18.85,40,2.58,18.67-6.62,27.3-8.79,29.06A170.15,170.15,0,0,0,479,644.71h-2.27c-1.14-1.15-2.27-2.34-3.39-3.55-6.31,2-16.09.92-25.79-6.26a23,23,0,0,0-17.44-4.18l-1-1.46a24.76,24.76,0,0,1,19.41,4.35c11,8.17,20.44,7,23.61,6.2-2.51-2.79-5-5.75-7.39-8.84-8.12,1.2-18.76-2.24-26.33-6A34.21,34.21,0,0,0,424,621.57c-.35-.53-.69-1.07-1-1.61A36,36,0,0,1,439.12,623.55Z"/><path class="cls-5" d="M476.6,528.13l6.17-7a43.78,43.78,0,0,1,2.5,9.51c7.43,50.93,6.36,114.05,6.36,114.05S471.65,598.44,476.6,528.13Z"/><path class="cls-6" d="M659.55,604.64c-2.15,0-29.6-13.94-76.42,0s-81,40.07-81,40.07S555.68,655,604.65,647,659.55,604.64,659.55,604.64Z"/><path class="cls-7" d="M507.74,640.9c30.73-21.08,77.82-43.08,117.44-42.44-8.32,23.43-19.52,40.49-41.81,51-33.66,2.34-65.58-1.9-77-3.69C506.79,644.23,507.23,642.61,507.74,640.9Z"/><path class="cls-6" d="M506.52,440.41l20.09,21.1-7.92-44.08a219.93,219.93,0,0,1,24.2-33.65c24.22-27.34,67.82-67.95,67.82-67.95A261.78,261.78,0,0,1,632,375.28l-22.52,23,26.11-2.6c19.32,148.17-116.13,249.06-116.13,249.06H491.63S479.11,524.09,489.2,487.1A289.11,289.11,0,0,1,506.52,440.41Z"/><path class="cls-8" d="M486.81,500.6c.27-2.4.59-4.67.95-6.78,5.87,16.12,21.41,54.93,38.29,65.1.58-1.62,1.17-3.23,1.77-4.85-16.82-6.2-30.41-47.8-37.08-72.37.57-1.93,1.17-3.87,1.79-5.8,7,26.9,21.12,69.72,36.43,75.17a223.72,223.72,0,0,1,17-35.45c5.36-8.8,10.84-20.91,16.22-34.84-14.52-11.06-25.63-58-30.58-82.95.84-1.14,1.68-2.27,2.53-3.38,4.53,23.24,15.77,71.61,29.26,83.17,3.87-10.25,7.69-21.4,11.36-32.87-12.34-18.43-16.43-57.47-17.71-76.24l3.06-3.17c1,16.36,4.61,55.83,15.93,75.37,18.11-57.51,33.26-120.82,33.48-121.79l1.21-2.24,0,2.43c-.24,1.09-17.09,81.26-38.36,143.11,24,8,50.29-8.87,64.49-20.31-.11,1.5-.25,3-.39,4.47a138.44,138.44,0,0,1-12.35,8.54c-13.68,8.34-26.77,12.57-38.62,12.57a44.93,44.93,0,0,1-14.18-2.22c-5.84,16.72-11.92,31.94-17.93,43.67,21.62,7.5,53-.84,70.53-6.78-.47,1.32-.94,2.64-1.43,3.94-12.7,4.19-31.25,9.08-48.69,9.08a65.24,65.24,0,0,1-21.92-3.36c-1.05,1.93-2.09,3.76-3.13,5.47-28.11,46.16-39.61,120.52-40.63,127.42h-3.26c.28-2,6.16-42.27,20.14-82.7C508.57,552.68,494,519.31,486.81,500.6Z"/><path class="cls-9" d="M519.54,644.71H493.61s6-55.45,57.57-92.35l6.2,9.7.93-14.5q4.49-2.84,9.38-5.46l8.06,18.79,3.5-24.38a183.93,183.93,0,0,1,35.17-11.16C580.72,598.17,521.76,643,519.54,644.71Z"/><path class="cls-10" d="M407.89,547.43l5.42,24,6.55-17.19a154.46,154.46,0,0,1,19.79,14.39l1.92,11.91,6.36-4.15c16.6,17,28.92,39.26,30.78,68.35h-43s-92.59-25.6-95.81-120A239.21,239.21,0,0,1,407.89,547.43Z"/><path class="cls-4" d="M462.13,644.71h-7.19C404.31,617.33,347.71,534.66,345.24,531l-3.51-5.4,6.18,3.59C348.53,530.14,410.94,621.29,462.13,644.71Z"/><path class="cls-11" d="M551.43,565.88l5.32,8.32.8-12.42q3.84-2.43,8-4.68l6.91,16.09,3-20.89c14.12-6.16,30.94-10.74,51-12.81,0,0-4.31,58.43-30.14,84.16S530.1,645,530.1,645h-28S507.3,597.5,551.43,565.88Z"/><path class="cls-12" d="M527,645h-4.23c61.67-42.37,99.13-101.75,99.51-102.36l3.24-1.91-1.18,3.19C623.94,544.48,587.38,602.45,527,645Z"/><path class="cls-13" d="M502.15,644.71s51.66-23,85.93-20.18,69.58,40.86,69.58,40.86-11.24,4-27.43,8L615,661.32l4.27,14.61c-25.29,5.33-57.7,8.91-79.84-.45C498.1,658,502.15,644.71,502.15,644.71Z"/><path class="cls-14" d="M502.15,644.71s.66-.3,2.69-1.16c10.25-.63,43.3-2.36,72.09-1.3,4.82-3.71,6.82-11.86,7.65-17.92.79,0,1.58.06,2.36.11-.76,5.7-2.55,13.3-6.75,17.95,1.34.06,10.71.82,13.9,1.3,5.07-3.63,6.17-11,6.17-16.79.79.23,1.58.48,2.36.75-.08,5.52-1.21,12.27-5.51,16.54,3.08.53,6.09,1.17,9,1.88,6.56-1.07,10.51-6.63,12.68-11.15l2.07,1.18c-2,4-5.22,8.78-10.41,11.08,2.56.7,5,1.45,7.42,2.22,8.51-2.35,11.79-5.12,13-6.86l1.92,1.36c-1.42,2-4.51,4.52-11.18,6.78a241.66,241.66,0,0,1,29,12.22l4.36,2.6-6.21-.57c-.28-.18-27.38-15.9-59.63-19.54,8.5,6.8,12.09,21.07,14.17,29.31.35,1.37.72,2.84,1,4l-2.33.36c-.28-1-.59-2.21-1-3.76-2.31-9.15-6.59-26.09-17.27-30.35-1.71-.11-10.34-.45-12.43-.5,8.09,7,14.24,26.18,17,36.21l-2.36.19c-3.69-13.22-11.15-34.16-19.34-36.49C535.08,643.82,502.15,644.71,502.15,644.71Z"/><path class="cls-1" d="M718.14,334a32.54,32.54,0,1,1-32.54-32.54A32.53,32.53,0,0,1,718.14,334Z"/><path class="cls-15" d="M685.6,322.65a4.8,4.8,0,0,0,4.8-4.8h-9.6A4.8,4.8,0,0,0,685.6,322.65Z"/><path class="cls-15" d="M706.37,322.43l-14.07-4.54a.75.75,0,0,0-.26,0H692a6.35,6.35,0,0,1-12.7,0h-.09a.84.84,0,0,0-.27,0l-14.07,4.54a.86.86,0,0,0-.57,1.05l1.89,7.18a.87.87,0,0,0,1.05.62l5.66-1.38a.87.87,0,0,1,1.07.83l.35,18.56a.87.87,0,0,0,.87.85h20.92a.87.87,0,0,0,.87-.85l.35-18.56a.87.87,0,0,1,1.07-.83l5.66,1.38a.87.87,0,0,0,1-.62l1.89-7.18A.87.87,0,0,0,706.37,322.43Z"/><path class="cls-1" d="M267.27,181.8a32.54,32.54,0,1,1-32.53-32.53A32.53,32.53,0,0,1,267.27,181.8Z"/><path class="cls-15" d="M216.54,165.5c1.42,3.12,9.07,19.16,16.52,22.83l.23.07,7.79,1.19a.9.9,0,0,1,.22.06l7.76,3.69a.78.78,0,0,0,.33.07h0a.78.78,0,0,1,.78.78v1a.77.77,0,0,1-.55.75c-1.46.43-6.27,1.37-19.67.77a.79.79,0,0,1-.66-.42c-1.11-2.17-6.63-12.47-12-14.32a.78.78,0,0,0-1,.74v13.41a.78.78,0,0,1-.78.78h-1.23a.77.77,0,0,1-.77-.71c-.29-3.46-1.61-18.45-2.94-19.77s-2.79-10,5.12-11.35A.79.79,0,0,1,216.54,165.5Z"/><path class="cls-15" d="M222.89,189c.29,2.81.51,5.27.61,6.44a.77.77,0,0,0,.77.71h1.23a.77.77,0,0,0,.77-.78v-1.23A53,53,0,0,0,222.89,189Z"/><path class="cls-15" d="M259.37,192.69a.73.73,0,0,1-.33-.08l-7.77-3.68a.58.58,0,0,0-.21-.07l-7.8-1.19a1,1,0,0,1-.23-.07c-7.45-3.66-15.09-19.7-16.52-22.82a.77.77,0,0,0-.83-.44,6.78,6.78,0,0,0-5.75,4.42,78.71,78.71,0,0,0,7.9,12.69c2.07.92,4.15,3,6,5.37l7.54,1.15a2.74,2.74,0,0,1,.67.21l7.61,3.61a2.41,2.41,0,0,1,2.19,2.4v1a2.41,2.41,0,0,1-.19.93,33.79,33.79,0,0,0,8-.91.77.77,0,0,0,.56-.74v-1A.77.77,0,0,0,259.37,192.69Z"/><path class="cls-1" d="M707,42.71a32.54,32.54,0,1,1-32.54-32.54A32.54,32.54,0,0,1,707,42.71Z"/><path class="cls-15" d="M679,37.34l1.94-10h-1.81V22.57a.7.7,0,1,0-1.39,0v4.74h-5.85V22.57a.7.7,0,1,0-1.39,0v4.74h-2s1.81,7.38,1.81,10a41,41,0,0,0-9.2,13.09c-3.06,7.52-2.78,10.31-2.78,10.31a24.86,24.86,0,0,0,7.66,0c3.48-.7,3.06,2.37,7.24,1.25s8.85-2,10.31-.55,7,.14,7,.14S689.57,44.16,679,37.34Z"/><path class="cls-1" d="M267.27,298a32.54,32.54,0,1,1-32.53-32.54A32.53,32.53,0,0,1,267.27,298Z"/><path class="cls-15" d="M243.62,295.33,236.69,287a4.77,4.77,0,0,0-6.71-.61l-22,18.31,13,15.64L243,302A4.76,4.76,0,0,0,243.62,295.33Zm-8.84.32a2.68,2.68,0,1,1,3.77.34A2.67,2.67,0,0,1,234.78,295.65Z"/><path class="cls-15" d="M237.87,292.4c.11,0,10.53-2,14.43-5.27,3.37-2.81,3.61-8.46-2.68-7.79-4.93.52-9.05,8-10.59,11.14a.89.89,0,0,1-1.6-.78c2.07-4.28,6.39-11.55,12-12.14,7.86-.84,8.95,6.82,4,10.94-4.25,3.54-14.79,5.57-15.24,5.66A.9.9,0,0,1,237.87,292.4Z"/><path class="cls-1" d="M711.85,181.8a32.54,32.54,0,1,1-32.54-32.53A32.54,32.54,0,0,1,711.85,181.8Z"/><path class="cls-15" d="M659.71,174.74v11.8a.71.71,0,0,0,.71.71h19.35c1.12-1.76,3.39-4.61,8-9.41,1.25-1.31,2.52-2.6,3.73-3.81H660.42A.71.71,0,0,0,659.71,174.74Z"/><path class="cls-15" d="M683.44,187.25h14a.71.71,0,0,0,.71-.71v-11.8a.71.71,0,0,0-.71-.71h-1.55A175.33,175.33,0,0,0,683.44,187.25Z"/><path class="cls-1" d="M695.86,174l-1.41,1.4h3.67V174Z"/><path class="cls-1" d="M659.71,175.43h17.12v6.19l2.4-2.89,1.91,2.89v-6.19h9l1.39-1.4H659.71Z"/><path class="cls-15" d="M691.49,174c3-3,5.58-5.45,6.65-6.46H660.7a1.54,1.54,0,0,1-.06.43c-.43,1.46-1,3.58-1.68,6a1.2,1.2,0,0,0,.2,0Z"/><path class="cls-15" d="M699.3,174a.71.71,0,0,0,.71-.71V170c-1.19,1.12-2.61,2.49-4.15,4Z"/><path class="cls-15" d="M680.14,198.51c-4.94,0-27.71-.38-27.71-5.36,0-5.33,5.7-25,5.94-25.81a.83.83,0,0,1,1.59.46c-.06.21-5.87,20.26-5.87,25.35,0,.1.21.45,1.16.89,8,3.67,42.77,3.77,46.93.23.05-.05.2-.19.18-.26-.8-2.88-8.92-2.64-14.28-2.48-5,.14-8.65.35-8.62-1.76,0-3.58,16.94-19.59,19.51-22a.83.83,0,0,1,1.14,1.2c-2.5,2.34-18.17,17.38-19,20.7,3,1.34,21.06-2.36,22.82,3.9a1.82,1.82,0,0,1-.7,2C699.94,198.35,684.48,198.54,680.14,198.51Z"/><path class="cls-1" d="M657.3,501.85a32.54,32.54,0,1,0,32.54-32.54A32.54,32.54,0,0,0,657.3,501.85Z"/><path class="cls-15" d="M691.86,488.42c-12.92,0-23.4,4.51-23.4,10.07,0,2.79,2.62,5.31,6.85,7.13l-2.17,9.67,8-7.84a50.34,50.34,0,0,0,10.75,1.12c12.92,0,23.4-4.51,23.4-10.08S704.78,488.42,691.86,488.42Z"/><path class="cls-1" d="M701,501.06a1.93,1.93,0,1,0,1.92-1.92A1.93,1.93,0,0,0,701,501.06Z"/><path class="cls-1" d="M696,501.06a1.93,1.93,0,1,0,1.93-1.92A1.94,1.94,0,0,0,696,501.06Z"/><path class="cls-1" d="M690.87,501.06a1.93,1.93,0,1,0,1.92-1.92A1.93,1.93,0,0,0,690.87,501.06Z"/><rect class="cls-16" x="330.62" y="123.62" width="253.93" height="441.75" rx="41.78"/><path class="cls-17" d="M372.4,554.05c-16.79,0-30.46-13.42-30.46-29.91V172.42c0-16.49,13.67-29.91,30.46-29.91H542.78c16.79,0,30.46,13.42,30.46,29.91V524.14c0,16.49-13.67,29.91-30.46,29.91Z"/><path class="cls-18" d="M537.53,139.68H375.78a6.6,6.6,0,0,1-6.61-6.6h0a6.6,6.6,0,0,1,6.61-6.6H537.53a6.6,6.6,0,0,1,6.6,6.6h0A6.6,6.6,0,0,1,537.53,139.68Z"/><path class="cls-16" d="M539.47,133.2a5.37,5.37,0,1,1-5.36-5.37A5.36,5.36,0,0,1,539.47,133.2Z"/><path class="cls-19" d="M511.3,135.5h-95a2.3,2.3,0,0,1-2.3-2.3h0a2.3,2.3,0,0,1,2.3-2.3h95a2.29,2.29,0,0,1,2.29,2.3h0A2.29,2.29,0,0,1,511.3,135.5Z"/><rect class="cls-15" x="360" y="180.24" width="195.45" height="287.19"/><rect class="cls-20" x="446.99" y="192.5" width="97.14" height="117.42"/><rect class="cls-20" x="446.99" y="327.01" width="97.14" height="117.42"/><rect class="cls-20" x="373.89" y="200.52" width="61.78" height="11.79"/><rect class="cls-20" x="373.89" y="224.57" width="61.78" height="11.79"/><rect class="cls-20" x="373.89" y="248.62" width="61.78" height="11.79"/><rect class="cls-20" x="373.89" y="330.2" width="61.78" height="11.79"/><rect class="cls-20" x="373.89" y="354.25" width="61.78" height="11.79"/><rect class="cls-20" x="373.89" y="378.3" width="61.78" height="11.79"/><path class="cls-16" d="M442.62,483.64a3.48,3.48,0,1,1-3.47-3.48A3.47,3.47,0,0,1,442.62,483.64Z"/><path class="cls-16" d="M455.59,483.64a3.48,3.48,0,1,1-3.48-3.48A3.48,3.48,0,0,1,455.59,483.64Z"/><path class="cls-16" d="M468.56,483.64a3.48,3.48,0,1,1-3.48-3.48A3.48,3.48,0,0,1,468.56,483.64Z"/><path class="cls-16" d="M535.45,173.41a3.2,3.2,0,1,0,3.2-3.2A3.19,3.19,0,0,0,535.45,173.41Z"/><circle class="cls-21" cx="538.65" cy="173.41" r="1.73"/><path class="cls-16" d="M521.56,173.41a3.2,3.2,0,1,0,3.19-3.2A3.19,3.19,0,0,0,521.56,173.41Z"/><path class="cls-21" d="M523,173.41a1.73,1.73,0,1,0,1.73-1.73A1.73,1.73,0,0,0,523,173.41Z"/><path class="cls-16" d="M522.77,165l-6-10.31a1.43,1.43,0,0,1,.07-1.54,1.85,1.85,0,0,1,1.53-.75h23.69a.53.53,0,1,1,0,1.06H518.4a.59.59,0,0,0-.5.25.44.44,0,0,0,0,.5l6,10.3a.59.59,0,0,0,.52.29h15.5L543.78,151a3.8,3.8,0,0,1,3.64-2.75h4.37a.61.61,0,1,1,0,1.21h-4.37a2.59,2.59,0,0,0-2.48,1.87l-5.13,18H523a.61.61,0,0,1,0-1.21H538.9l.66-2.31h-15.2A1.83,1.83,0,0,1,522.77,165Z"/><circle class="cls-22" cx="492.32" cy="161.79" r="11.62"/><path class="cls-15" d="M489.89,158.51h-1.24a3.63,3.63,0,0,1,6.62-1.52,2.79,2.79,0,0,1-1.11,4,3.52,3.52,0,0,1,1.69,5.19,4.11,4.11,0,0,1-7.61-1.61h1.19c1.27,4.78,7.47,1.66,5.36-1.6-.7-1.09-1.84-1.26-3.17-1.33v-1.12c1.38,0,2.84-.67,2.84-2,0-1.73-2.3-2.52-3.6-1.51A3.31,3.31,0,0,0,489.89,158.51Z"/><rect class="cls-23" x="408.79" y="495.25" width="146.66" height="6.6"/><rect class="cls-23" x="408.79" y="509.99" width="146.66" height="6.6"/><polygon class="cls-24" points="467.77 293.71 461.43 296.81 464.51 303.15 457.44 302.33 457.58 309.43 451.15 306.35 449.45 313.26 443.84 308.88 440.88 315.36 436.08 310.09 432.13 316.02 428.19 310.09 423.39 315.36 420.43 308.88 414.81 313.26 413.11 306.35 406.69 309.43 406.82 302.33 399.75 303.15 402.84 296.81 396.5 293.71 402.84 290.61 399.75 284.27 406.82 285.09 406.69 277.99 413.12 281.07 414.81 274.16 420.43 278.54 423.39 272.06 428.19 277.33 432.13 271.4 436.08 277.33 440.88 272.06 443.83 278.54 449.45 274.16 451.15 281.07 457.58 277.99 457.45 285.09 464.52 284.27 461.43 290.61 467.77 293.71"/><path class="cls-15" d="M420.07,288.46l-1.65,1.46c-1.57-2.19-3.37-.94-2.58.11,1.35,1.74,4.44,2.85,4.44,5.54,0,3.64-5.31,4.9-7.38.78l1.88-1.13c1.36,2.5,3.31,1.48,3.31.45,0-1.64-4.64-3.29-4.64-6.13C413.45,287,417,284.91,420.07,288.46Z"/><path class="cls-15" d="M426,286.86h2.27l4.51,11.74h-2.32l-.92-2.42h-4.79l-.95,2.42h-2.32Zm1.15,3.12-1.57,4h3.14Z"/><path class="cls-15" d="M434.5,286.86h2.24v9.61H440v2.13H434.5Z"/><path class="cls-15" d="M441.7,286.86h6.41v2.19h-4.19v2.12h4.19v2.15h-4.19v3.09h4.19v2.19H441.7Z"/><path class="cls-25" d="M143.54,338.14s-8.19.69-9.2,10.77-9.67,10.41-12.25,5.55a4.68,4.68,0,0,1,2.11-6.88s-8.72,1.78-7.85,8.28,8.89,8.67,8.89,8.67-10-4-11.42,5.52,8,11.73,8,11.73-3.3-5.53.39-7.48,7.2,9.81,7.2,9.81-.42,6,7.33-.68,16.37,3.21,15.53,5.94,10.92-4.07,10.23-9.47,5.91-4.52,4.81-.91c0,0,8.77-6.62,2.4-11.43s-5.61-3.36-4.39-7.36-1.79-15.29-6-19.32S143.54,338.14,143.54,338.14Z"/><path class="cls-26" d="M36.73,429.74C8.09,462.66,86,657.88,86,657.88H312S346.89,569.07,336.67,544c-11.39-27.9-81.19-4.78-81.19-4.78s-7.25-92.38-22-106C188.31,391.71,74.42,386.43,36.73,429.74Z"/><path class="cls-27" d="M62.85,411.36c9.81-4.36,86.67-23,108.46,45.85,4.47,14.1,7.35,29.27,9.54,43.67q3.72,24.57,5.74,49.38c0,.23,0,.46,0,.69,0,0,69.8-23.12,81.19,4.78,7.92,19.42-11.27,77.19-20.28,102.15H86S8.09,462.66,36.73,429.74C43.35,422.14,52.31,416,62.85,411.36Z"/><path class="cls-28" d="M255.48,539.26s69.8-23.12,81.18,4.78c7.55,18.47-9.46,71.65-18.89,98.27l-7.85,15.57H215.37Z"/><polygon class="cls-29" points="310.88 657.88 179.29 657.88 188.9 584.92 334.76 584.92 310.88 657.88"/><path class="cls-26" d="M319.5,658l-20.23-.09s50.81-89.66,36.24-114.67c-4.27-7.24-67.65-2.27-80-4,23.15-17.79,115.41-36.63,120.64-6.69C381.09,561.08,319.5,658,319.5,658Z"/><path class="cls-22" d="M200.3,437.85c-.32-.32-1.91-6.81-2.2-7.39-4.81,1.89-7.26,4.38-11.92,6.48,1.37,3.12.1,10.1,1.36,11.36,8.72,8.72,41.6,13.9,51.62,7.93,1.53-.92,2.55-6.67,2.55-6.67S203.7,441.26,200.3,437.85Z"/><path class="cls-30" d="M192.84,396.48C188.07,378.9,168.67,373,168.67,373s5.23,49.51,13.4,68.05c4.67-2.1,15.19-8.22,20-10.11C199.29,425.39,196.16,408.69,192.84,396.48Z"/><path class="cls-31" d="M178.27,522.4s92.4-48.87,110-48.87S308,484.2,308,491.13,272.55,547,243.13,563.67s-68.3-41.27-68.3-41.27Z"/><path class="cls-31" d="M144.37,509.41c-7.68,8.19-12.71,22.09-12.5,26.2,0,0,47.6-2.26,51.9-6.83,1.36-1.45,2-3,3.77-16.48C170.92,513,161.23,508.07,144.37,509.41Z"/><path class="cls-32" d="M134.11,370.22s-16.34,2.11-21.82,5.95c0,0,17.45,33.73,22.31,52.92,4,15.58,0,69.64-3.59,93.31,16.85-1.35,42.27-7.71,58.88-8.45,3.83-29-2.26-86.5-3.12-103.15C185.52,386.41,182.83,369.79,134.11,370.22Z"/><path class="cls-33" d="M325.6,522.4c-4.8-8.36-192-15.63-194.24,16.81s30.22,47.72,88.21,40.51S343.73,553.94,325.6,522.4Z"/><path class="cls-20" d="M322.74,520.77c-1.05-.35-2.12-.65-3.19-.92-2.16-.52-4.34-.92-6.52-1.29-38.91-6.49-135.79-8.25-171.18,8.64a35.67,35.67,0,0,0-5.72,3.56,14.54,14.54,0,0,0-4.31,5.24c-.22.53-.36,1.09-.55,1.63s-.17,1.14-.22,1.7c0,1.11-.06,2.22,0,3.33a39.31,39.31,0,0,0,.82,6.59,38.31,38.31,0,0,1-.39-6.59c.1-2.19,0-4.47,1-6.35a13.56,13.56,0,0,1,4.28-4.7,34.1,34.1,0,0,1,5.67-3.16c32.62-14.38,135.14-13.32,170.47-9.15,2.19.26,4.37.56,6.54,1,1.08.19,2.16.42,3.22.7a6.27,6.27,0,0,1,2.92,1.43A6.29,6.29,0,0,0,322.74,520.77Z"/><path class="cls-34" d="M196.78,577.07s-9.45,8.65-3.26,12.34,20.38-1.53,31.74,3.86,24.46,5.83,25.83,3.54S247.65,582,235,577.27,196.78,577.07,196.78,577.07Z"/><path class="cls-35" d="M238.37,577s-5-1.21-5,.39,3.26,2,3.26,2a3.26,3.26,0,0,0,2.07,3.33,21.09,21.09,0,0,1,2.74,1.13s-.94,1.8,1.79,3.14l2.74,1.33s-.47,2.93,1.46,3.53c0,0-3.26,3.8,1.27,5.54s5.53-1.74,5.53-2.67-3.26-2.53-3.26-2.53,1.4-3.94-2.2-4.34c0,0,.66-5-4.27-4.6,0,0,1.27-2.93-3.93-4.26C240.54,579,240,577,238.37,577Z"/><path class="cls-36" d="M223.3,544c-16.27-27.9-116-4.78-116-4.78-2.73-24.41-11.66-82.53-27.1-101.93C67,420.64,34.32,412.67,28.74,448.55,18.68,513.29,96.12,681.32,86,657.88H188.1S237.89,569.07,223.3,544Z"/><path class="cls-26" d="M188.11,657.89H149.52s52.17-88.41,40.2-114.81c-7-15.5-19.16-10.11-31.55-11.79,27.25-2.41,63.36-4.87,71.6,9.27C244.35,565.62,188.11,657.89,188.11,657.89Z"/><path class="cls-26" d="M80.25,437.33c15.44,19.4,24.37,77.52,27.1,101.93.21,0,59.05-13,91-9.68,43.05,6-33.67,125.93-34.32,128.31H149.52c.93-2.83,50.64-112.94,36-119.12-13.45-5.69-80.64,8.4-86.84,9.13C96,523.49,87.05,465.37,71.62,446c-8.76-11-25.93-18.22-38.22-11.58C44.41,415.49,69.13,423.35,80.25,437.33Z"/><path class="cls-26" d="M169.35,530.37c3.92-.34,5.08-.37,0,0Z"/><path class="cls-37" d="M84.17,441c.3.95,15.77,20.77,25.27,95.31,24.78-5.52,95.18-16.45,116.41-2.82,6,3.9,6.46,7.63,7.13,8.64,9.52,24.68-30.08,93-44.87,115.79C199.85,636.66,239,563.67,228,542.17c-10.58-20.61-99.85-4.5-122.77.05-4-32.34-6.55-52.49-15.93-83.39-.07-.2-2.47-6.84-2.32-6.41-5.59-13.35-11.26-22.29-25.11-27.12-5.66-2-12-2.63-17.86-.47C54.89,420,72.71,424.22,84.17,441Z"/><path class="cls-38" d="M178.62,310.92c.52,1.3,3.34,27.26-1.23,34.11s-12.19,3.24-18.9,1.18a55.06,55.06,0,0,1-11.2-4.76S174.93,301.73,178.62,310.92Z"/><path class="cls-34" d="M165.44,348.8c.5.94-8.81,20.87-7.69,27.53,0,0,8.76,27.09,3.4,26.12-4.65-.84-23.68-25.36-23.31-29.75.49-5.9,10.17-33.19,10.17-33.19Z"/><path class="cls-22" d="M162.78,356.41c-8.76,4.1-17.21-1.66-16.05-13.23,1.32-3.88,1.2-3.45,1.28-3.67l17.43,9.29C165.65,349.19,164.48,351.86,162.78,356.41Z"/><path class="cls-34" d="M177.63,301.33s8.17,4.32,6.93,12.07-1.7,14.39-5.81,22.63-12.82,18.21-21.87,17.47S143.25,336,145.59,328.35,148.76,307,157,300.87,177.63,301.33,177.63,301.33Z"/><path class="cls-15" d="M155.55,338.33c4,3.39,10.72,5.52,10.72,5.52a12.8,12.8,0,0,1-1.9,1.52,35.85,35.85,0,0,1-8.55-4.37A15.29,15.29,0,0,1,155.55,338.33Z"/><path class="cls-39" d="M155.82,341a35.85,35.85,0,0,0,8.55,4.37C160,348.24,156.81,346.25,155.82,341Z"/><path class="cls-22" d="M177.63,301.33s8.17,4.32,6.93,12.07c-1.13,7-1.61,13.14-4.75,20.35a17.21,17.21,0,0,0-5.24-4.69c-7.69-4.33-10.32-18.46-9.5-28.08.06-.2.7-3.27,2.7-4.33A10.56,10.56,0,0,1,177.63,301.33Z"/><path class="cls-40" d="M167,336.36a70.56,70.56,0,0,1,1.83-7.25,77.19,77.19,0,0,1-1.45,7.69c-1.37,0-3.1.2-4.79-1.1A8.28,8.28,0,0,0,167,336.36Z"/><path class="cls-40" d="M164.53,327.56a4.93,4.93,0,0,0-2.24-4.08c-2.61-1.61-5.6,1.94-7.53,1.3,1.18,1.14,4.15-.56,5.87-.69a2.94,2.94,0,0,1,2.3,1A7.81,7.81,0,0,1,164.53,327.56Z"/><path class="cls-40" d="M159.77,324.76a1.45,1.45,0,1,0,1.86-1.14A1.55,1.55,0,0,0,159.77,324.76Z"/><path class="cls-40" d="M170.56,330.38a4.91,4.91,0,0,1,4.24-1.93c3.06.26,3.33,4.89,5.26,5.53-1.63.22-3-2.92-4.29-4.05a2.89,2.89,0,0,0-2.45-.56A7.58,7.58,0,0,0,170.56,330.38Z"/><path class="cls-40" d="M176.05,331a1.45,1.45,0,1,1-.81-2A1.53,1.53,0,0,1,176.05,331Z"/><path class="cls-40" d="M167.56,321.25c.38-.1-1.34-3.35-4.22-4.54s-7.09,1.08-7.09,1.08,5.17-1.27,6.76.14S165.51,321.84,167.56,321.25Z"/><path class="cls-41" d="M171.88,292.68c-6.55-1.22-16.1-5.84-23.94,3.05-4.55,5-7.7-.47-13.85,19.61-9.18,29.92,12.71,27.71,12.71,27.71s-1.44-1.93,2.33-18.5l.07.16s.64-2.41,1.58-5.48v0c.33-.88.62-1.8.87-2.74a57.84,57.84,0,0,1,3.07-7.92c2.48-4.78,5.13-6.79,10.35-7.57s19.6,10.4,19.6,10.4C187,301.79,178.43,293.89,171.88,292.68Z"/><path class="cls-42" d="M179.84,297c7.42,4.2,6.07,17.17,10.58,25.68s0,17.39-5,22.64-8.74-.31-8.74-.31,2.15,2.24,5.39-2.41,1.57-9.58-6.33-15.16S165.07,301,165.07,301C165.94,297.34,172.41,292.79,179.84,297Z"/><path class="cls-43" d="M176.67,345c2.48,2.69,9-3.39,7.37-9.17-1.11-4.42-5.58-7.51-9-10.36-5.16-5.51-8.14-17.29-9.93-24.48.42,8.06,3,19.82,8.5,25.89l1.41,1.21c1.47,1.18,6.14,4.12,7.58,8.18,1.19,3.21-1,6.95-2.9,8.46A2.44,2.44,0,0,1,176.67,345Z"/><path class="cls-34" d="M150.57,326.14s.73-10.27-3.67-9.08-3.69,13-.26,14.07S150.57,326.14,150.57,326.14Z"/><path class="cls-22" d="M148.6,319.79s2.77,10.38-.67,8.28S145.6,317.1,148.6,319.79Z"/><path class="cls-22" d="M159.82,332.22c-.73,1-2.91.71-4.87-.69s-3-3.36-2.24-4.38,2.91-.7,4.87.7S160.54,331.21,159.82,332.22Z"/><path class="cls-22" d="M177.62,337.06c-.17,1.13-1.93,1.81-3.93,1.51s-3.49-1.45-3.32-2.58,1.92-1.81,3.92-1.51S177.78,335.93,177.62,337.06Z"/><path class="cls-34" d="M226.56,414.13c-2-.66-7.36-.66-12.2-.5a22.25,22.25,0,0,0-2.52-1c4.14-1,8.88-2.34,10-3.49,1.74-1.73-10.48,1.51-15,2.76-5.79.68-8.83,10.34-12.79,14.3s-34.73,20-41.68,21.52c-5.64,1.21-9.2-12-10.75-18-8.69,5.88-12,14.5-18.7,22.37,2.85,9.34,7.45,19.7,11.59,22,14.91,8.47,51.67-28.61,59.21-36.16a162.35,162.35,0,0,0,14.58-17.36s6.24-2.46,8.81-2.46c2.26,0,2.48-.8,1.54-1.84C224,415.59,228.36,414.71,226.56,414.13Z"/><path class="cls-22" d="M144,437.72c-1-2.9-1.8-5.85-2.34-7.93-8.69,5.88-12,14.5-18.7,22.37.79,2.6,1.72,5.27,2.74,7.84C129.94,454.2,138.3,443.18,144,437.72Z"/><path class="cls-22" d="M137.63,471s.55,3.93,1.64,3.93,7.22-1.64,7.22-3.28S137.63,469.23,137.63,471Z"/><polygon class="cls-44" points="280.25 398.78 230.48 392.76 199.3 452.16 239.67 452.16 280.25 398.78"/><path class="cls-34" d="M240,437.75c0-5.16,1.61-9.6-1.51-6.48s-.76,10.5-3.17,11.92-8.75-19.47-12.36-19.47c-2.83,0,1.74,8.33,3,13.66-2.65-4.06-7-10.23-9.23-10.95-2.6-.82,3.88,9.45,7,14.26-3.5-2.63-9.54-11.4-11.29-10.4-2.3,1.31,4.81,9.51,8.69,13.39s-9.76-6.3-9.76-2.58,8.17,5.65,11.07,8.55c2.08,2.07,7.45,5,10.34,6.44,7.25,3.71,10.38-3.42,8.2-11.56A27.25,27.25,0,0,1,240,437.75Z"/><polygon class="cls-45" points="228.65 390.06 196.93 451.1 199.3 452.16 230.48 392.76 280.25 398.78 277.22 396.4 228.65 390.06"/><path class="cls-46" d="M115.88,373s-10.58.77-13.55,9.66S118,457.1,118,457.1l27-24.79S133.67,373,115.88,373Z"/><path class="cls-47" d="M234.74,138.26A42.71,42.71,0,1,0,277.45,181,42.72,42.72,0,0,0,234.74,138.26Zm0,79.76A37.05,37.05,0,1,1,271.79,181,37.1,37.1,0,0,1,234.74,218Z"/><path class="cls-47" d="M679.31,139.09A42.72,42.72,0,1,0,722,181.8,42.71,42.71,0,0,0,679.31,139.09Zm0,79.77a37.06,37.06,0,1,1,37.05-37.06A37.09,37.09,0,0,1,679.31,218.86Z"/><path class="cls-47" d="M674.45,0a42.71,42.71,0,1,0,42.71,42.71A42.71,42.71,0,0,0,674.45,0Zm0,79.76a37.05,37.05,0,1,1,37.06-37.05A37.09,37.09,0,0,1,674.45,79.76Z"/><path class="cls-47" d="M685.6,291.29A42.71,42.71,0,1,0,728.31,334,42.71,42.71,0,0,0,685.6,291.29Zm0,79.76a37.06,37.06,0,1,1,37-37.05A37.09,37.09,0,0,1,685.6,371.05Z"/><path class="cls-47" d="M689.84,459.14a42.71,42.71,0,1,0,42.71,42.71A42.71,42.71,0,0,0,689.84,459.14Zm0,79.76a37,37,0,1,1,37-37A37.09,37.09,0,0,1,689.84,538.9Z"/><path class="cls-47" d="M234.74,255.89a42.71,42.71,0,1,0,42.71,42.71A42.72,42.72,0,0,0,234.74,255.89Zm0,79.76a37,37,0,1,1,37.05-37A37.1,37.1,0,0,1,234.74,335.65Z"/><path class="cls-47" d="M379.74,225.42a4,4,0,0,1-1.07-.14L274.15,196.69a4.26,4.26,0,0,1-2.93-5.19,4.14,4.14,0,0,1,5.07-3L380.8,217.08a4.25,4.25,0,0,1,2.94,5.19A4.16,4.16,0,0,1,379.74,225.42Z"/><path class="cls-47" d="M389.54,314.17h0l-114.31-.39a4.24,4.24,0,0,1,0-8.48h0l114.32.38a4.25,4.25,0,0,1,0,8.49Z"/><path class="cls-47" d="M533.9,200.52a4.38,4.38,0,0,1-2.58-.83,3.85,3.85,0,0,1-.77-5.61L637,63.93a4.42,4.42,0,0,1,6-.73,3.84,3.84,0,0,1,.77,5.6L537.27,199A4.33,4.33,0,0,1,533.9,200.52Z"/><path class="cls-47" d="M531.39,258.76a4.25,4.25,0,0,1-1.81-8.09l111.5-52.43a4.24,4.24,0,1,1,3.61,7.68L533.2,258.35A4.19,4.19,0,0,1,531.39,258.76Z"/><path class="cls-47" d="M521.43,354.38a4.16,4.16,0,0,1-4.09-3.77,4.21,4.21,0,0,1,3.63-4.69l121.58-14a4.16,4.16,0,0,1,4.56,3.74,4.22,4.22,0,0,1-3.64,4.69L521.89,354.36A3.54,3.54,0,0,1,521.43,354.38Z"/><path class="cls-47" d="M651.56,487.05a4.26,4.26,0,0,1-2.25-.2l-135.55-50.3a4.24,4.24,0,1,1,3-8l135.55,50.3a4.25,4.25,0,0,1-.7,8.16Z"/><polygon class="cls-48" points="452.6 76.86 390.07 38.99 374.76 54.6 452.6 76.86"/><polygon class="cls-1" points="390.06 85.64 390.95 56.33 452.6 76.86 390.06 85.64"/><polygon class="cls-1" points="390 14.73 452.6 76.86 390.07 38.99 390 14.73"/><polygon class="cls-49" points="374.76 54.6 390.95 56.33 390.82 60.59 374.76 54.6"/></g></g></svg>