<svg viewBox="0 0 80 40" color="#FFF" width="32" height="20"><defs><path id="iconCab_svg__a" d="M34.46 7.683L33 4.137c.73-2.17 2.54-.566 2.54-.566l2.018 4.254 8.525.388c.4.024.588-.07.588-.306-.024-.236-.447-.472-.447-.472-.8-.52-1.976-1.251-3.293-2.03-2.376-1.393-3.74-2.337-6.046-3.068-1.458-.472-2.258-.897-4.846-1.086V0c.47.047.965.07 1.412.118 1.928.189 2.21.283 3.952.873C43.566 3.045 47.847 6.68 47.847 6.68l3.881 1.039s11.127.991 14.68 2.03c3.528 1.038 3.434 4.177 3.434 4.177v2.077h.211c.259 0 .47.213.47.472v3.942c0 .26-.211.472-.47.472l-5.363.708a.473.473 0 01-.47-.472v-4.65c-.871-2.69-3.341-4.65-6.117-4.65-3.105 0-5.41 2.526-6.069 5.594l-.517 2.715H18.7l-.306-3.234c-.329-2.856-3.27-5.074-6.186-5.074-3.105 0-6.258 2.501-6.258 5.593v1.7s-.14.755-1.105.4l-3.623-1.18S0 17.632 0 16.074v-2.761s.047-1.133 1.529-1.133c0 0 .259-2.502.33-3.281.07-.779 1.105-1.227 1.058-1.18 5.998-1.345 27.123-.236 27.123-.236l4.42.201zm18.42 10.585a5.29 5.29 0 005.293 5.287 5.29 5.29 0 005.293-5.287 5.29 5.29 0 00-5.293-5.287 5.29 5.29 0 00-5.293 5.287zm1.458 0c0-2.1 1.718-3.824 3.835-3.824a3.836 3.836 0 013.834 3.824 3.821 3.821 0 01-3.834 3.823 3.821 3.821 0 01-3.835-3.823zm-47.376 0a5.29 5.29 0 005.293 5.287 5.29 5.29 0 005.293-5.287 5.274 5.274 0 00-5.293-5.287 5.29 5.29 0 00-5.293 5.287zm1.482 0c0-2.1 1.717-3.824 3.834-3.824a3.836 3.836 0 013.835 3.824 3.821 3.821 0 01-3.835 3.823 3.806 3.806 0 01-3.834-3.823z"></path></defs><use fill="currentColor" xlink:href="#iconCab_svg__a" fill-rule="evenodd" transform="translate(5 14)"></use></svg>
