<svg viewBox="0 0 80 40" color="#363433" width="32" height="20"><defs><path id="iconWagon_svg__a" d="M0 15.374v2.839a2.728 2.728 0 001.248 2.33l3.695 1.237c.984.364 1.128-.413 1.128-.413v-1.771c0-3.203 3.24-5.775 6.383-5.775 2.975 0 5.974 2.305 6.31 5.241l.312 3.349h33.498l.528-2.79c.672-3.18 3.023-5.776 6.19-5.776 2.832 0 5.352 2.014 6.24 4.78v4.78c0 .267.215.486.48.486l5.47-.728c.264 0 .48-.219.48-.486v-4.076a.484.484 0 00-.48-.485h-.192V15.98s.096-3.252-3.503-4.32c-3.623-1.067-10.75-2.741-10.75-2.741l-3.96-1.068S47.08 3.68 40.793 1.568c-1.776-.607-3.527-.8-5.47-1.02-5.592-.557-13.846-.751-19.053-.29l-.6.048c-3.288.291-6.12.607-6.12.607l-4.03.557s-3.24.194-3.24 2.256c0 0-.695 4.004-.695 5.775v4.707C.024 14.21 0 15.374 0 15.374zM32.49 1.617c3.191.17 6.119.558 7.87 1.14 2.352.752 5.303 2.354 7.727 3.785 1.343.8 2.543 1.553 3.36 2.111 0 0 .431.243.455.485 0 .243-.192.34-.6.316l-17.637-.68-1.175-7.157zM17.037 8.75l.36-6.89c.552-.074 1.103-.05 1.8-.074 1.679-.072 7.222-.267 9.262-.267.503 0 1.007 0 1.535.025.072 2.038.216 5.338.264 7.133l-13.221.073zm-13.702.291c.048-2.499 1.056-5.799 1.056-5.799l8.087-1.116c1.2-.097 2.495-.267 3.023-.267-.048 2.16-.36 5.338-.432 6.891 0 0-3.671.243-11.734.291zM7 20.46c0 3.009 2.424 5.46 5.399 5.46s5.399-2.451 5.399-5.46c0-3.008-2.424-5.459-5.399-5.459A5.453 5.453 0 007 20.46zm1.488 0a3.913 3.913 0 013.911-3.93c2.16 0 3.911 1.77 3.911 3.93 0 2.184-1.751 3.955-3.911 3.955s-3.911-1.77-3.911-3.955zm45.512 0c0 3.009 2.424 5.46 5.399 5.46s5.399-2.451 5.399-5.46c0-3.008-2.424-5.459-5.399-5.459A5.453 5.453 0 0054 20.46zm1.488 0a3.913 3.913 0 013.911-3.93c2.16 0 3.911 1.77 3.911 3.93 0 2.184-1.751 3.955-3.911 3.955s-3.911-1.77-3.911-3.955z"></path></defs><use fill="currentColor" xlink:href="#iconWagon_svg__a" fill-rule="evenodd" transform="translate(4 12)"></use></svg>
