<svg viewBox="0 0 80 40" color="#363433" width="32" height="20"><defs><path id="iconCommercialVehicle_svg__a" d="M0 26.943v.864c0 .356.306.66.663.66h14.041a.746.746 0 00.688-.482l.484-1.627c.79-2.516 3.059-4.32 5.76-4.346 2.956 0 5.402 2.16 5.989 5.058 0 0 .076.915.942.915h31.448c.611 0 .713-.508.713-.508l.178-.636c.892-2.974 3.008-5.21 5.887-5.21 5.25 0 6.167 4.829 6.167 4.829.077.356.434.66.79.66h2.09a.674.674 0 00.663-.66v-2.39a.674.674 0 00-.663-.66h-.153v-4.931c0-1.424-1.401-1.932-1.401-1.932l-4.664-2.135-7.543-13.166C61.263-.051 60.04 0 60.04 0H3.848c-1.02 0-1.07.864-1.07.864v25.393H.663c-.357.05-.663.33-.663.686zm62.894-11.82V6.66h.153l4.332 7.701-1.427.763h-3.058zM48.93 25.52V6.761c0-.838.688-1.5 1.504-1.5h9.582c.84 0 1.503.662 1.503 1.5v10.854c0 .61-.153 1.525-.382 2.11l-2.192 6.023c-.255.712-1.07 1.271-1.835 1.271h-6.65c-.842 0-1.53-.66-1.53-1.5zm13.456 2.746c0 2.516 2.064 4.55 4.587 4.55 2.523 0 4.587-2.034 4.587-4.55 0-2.517-2.064-4.55-4.587-4.55-2.523-.026-4.587 2.033-4.587 4.55zm2.344 0c0-1.22 1.02-2.237 2.243-2.237 1.223 0 2.242.991 2.242 2.237a2.243 2.243 0 01-4.485 0zm-47.68 0c0 2.516 2.064 4.55 4.587 4.55 2.523 0 4.587-2.034 4.587-4.55 0-2.517-2.064-4.55-4.587-4.55a4.54 4.54 0 00-4.587 4.55zm2.344 0c0-1.22.994-2.237 2.243-2.237 1.249 0 2.242.991 2.242 2.237 0 1.22-.993 2.236-2.242 2.236-1.249-.025-2.268-1.016-2.243-2.236zM49.617 6.76v18.76c0 .458.382.84.841.84h6.702c.485 0 1.02-.382 1.198-.84l2.192-6.023c.178-.509.331-1.348.331-1.881V6.76a.847.847 0 00-.841-.838h-9.582a.847.847 0 00-.84.838zm1.223 9.964c0-.203.179-.381.383-.381h.637c.204 0 .382.178.382.381v2.313a.391.391 0 01-.382.381h-.637a.391.391 0 01-.383-.381v-2.313zm-.025-8.87c0-.204.178-.382.382-.382h7.875c.204 0 .382.178.382.381v6.838a.391.391 0 01-.382.38h-7.875a.391.391 0 01-.382-.38V7.854z"></path></defs><use fill="currentColor" xlink:href="#iconCommercialVehicle_svg__a" fill-rule="evenodd" transform="translate(2 5)"></use></svg>
