<svg viewBox="0 0 78 22" color="#363433" width="32" height="20"><g fill="currentColor" fill-rule="evenodd"><path d="M58.971 16.302c0 2.787 2.251 5.052 5.02 5.052 2.769 0 5.02-2.265 5.02-5.052 0-2.786-2.251-5.052-5.02-5.052-2.769.026-5.02 2.266-5.02 5.052zm1.682 0c0-1.849 1.501-3.36 3.338-3.36 1.837 0 3.338 1.511 3.338 3.36 0 1.85-1.5 3.36-3.338 3.36a3.34 3.34 0 01-3.338-3.36zm-49.578 0c0 2.787 2.251 5.052 5.02 5.052 2.769 0 5.02-2.265 5.02-5.052 0-2.786-2.251-5.052-5.02-5.052-2.795 0-5.02 2.266-5.02 5.052zm1.682 0c0-1.849 1.5-3.36 3.338-3.36 1.837 0 3.338 1.511 3.338 3.36 0 1.85-1.501 3.36-3.338 3.36a3.34 3.34 0 01-3.338-3.36z"></path><path d="M0 15.755v.912c0 1.067 1.113 1.12 1.113 1.12h7.22c1.19 0 1.319-.99 1.319-.99l1.112-3.281c.777-2.136 2.873-3.646 5.33-3.646 2.821 0 5.15 2.005 5.59 4.661l.595 2.683s.259 1.614 2.277 1.614l31.336-.13c.699 0 1.035-.99 1.035-.99l1.45-2.942c1.215-3.698 3.88-4.375 5.614-4.375 2.433 0 4.787 1.562 5.538 3.698.103.312.18.65.233.99l.517 2.447s.078.573.776.573h1.165c.414 0 1.19.156 1.526.182 1.76.235 3.908-.026 3.908-.885 0-1.016-1.708-1.589-1.708-1.589v-.833s.078-.677-.336-.677l-1.036-2.682s-.051-1.172-.905-1.797c-1.01-.703-7.297-3.646-22.124-3.88 0 0-4.994-3.256-10.997-4.922 0 0-7.375-1.823-17.182.156l-2.251.599S13.404 3.802 8.46 6.12c0 0-4.476 1.51-5.64 1.719-.854.156-.854.39-.854.39s-.078.26-.078.365v.286l-.207 1.042s-.957 1.302-.336 4.297l-.725.286c0 .026-.621.365-.621 1.25zM19.536 4.193c7.815-2.943 15.862-2.136 15.862-2.136 7.504.547 14.154 4.558 14.154 4.558-20.726.833-26.833-.782-26.833-.782-3.183-.599-3.183-1.64-3.183-1.64z"></path><path d="M26.782 1.849l.698 4.844h1.579L27.79 1.849z"></path></g></svg>
