<svg viewBox="0 0 80 40" color="#363433" width="32" height="20"><defs><path id="iconMinivan_svg__a" d="M45.747 1.015S43.657.025 41.517 0H6.175S4.74 0 4.132 1.522c-.607 1.546-2.65 5.847-2.65 20.632H.925a.92.92 0 00-.924.918v1.088a.92.92 0 00.924.918l8.678.145c1.288 0 1.336-1.04 1.458-1.547.608-3.551 3.379-6.233 6.733-6.233 3.792 0 6.855 3.455 6.855 7.683v.338h26.325v-.338c0-4.252 3.063-7.683 6.855-7.683 3.282 0 6.004 2.561 6.709 5.992 0 0 .243 1.643 1.702 1.643h5.785a.92.92 0 00.923-.918v-2.634a.92.92 0 00-.923-.918h-.195l-.534-3.865s-3.063-3.407-4.424-4.47C59.53 6.643 45.747 1.015 45.747 1.015zm-27.006 8.987c0 .7-.486 1.184-1.07 1.184H6.492c-.584 0-1.07-.483-1.07-1.111.486-5.098 1.36-7.055 1.385-7.128.17-.386.56-.652.997-.652h9.844c.584 0 1.07.483 1.07.967l.024 6.74zm17.623 0a1.06 1.06 0 01-1.07 1.063h-12.42a1.01 1.01 0 01-.462-.12h-.535c-.583 0-1.07-.484-1.07-1.064v-6.74c0-.58.487-1.063 1.07-1.063h11.109c.145 0 .267.048.388.12h1.896c.584 0 1.07.484 1.07 1.064v6.74h.024zm4.206 6.064c0 .17-.146.338-.34.338h-.681a.331.331 0 01-.34-.338v-2.464a.33.33 0 01.34-.338h.68c.17 0 .34.145.34.338v2.464zm18.157-4.977l-18.498-.193s-1.24.024-1.24-1.111v-6.04c0-1.136 1.24-1.112 1.24-1.112h1.459c2.576-.096 11.157 3.842 11.157 3.842L58.8 9.736c1.629 1.208-.073 1.353-.073 1.353zM52.19 25.126c0 3.068 2.503 5.557 5.615 5.557 3.087 0 5.615-2.489 5.615-5.557 0-3.068-2.504-5.557-5.615-5.557-3.112 0-5.615 2.489-5.615 5.557zm2.868 0c0-1.498 1.24-2.73 2.747-2.73s2.746 1.232 2.746 2.73-1.24 2.73-2.746 2.73a2.736 2.736 0 01-2.747-2.73zm-42.903 0c0 3.068 2.504 5.557 5.615 5.557s5.615-2.489 5.615-5.557c0-3.068-2.504-5.557-5.615-5.557s-5.615 2.489-5.615 5.557zm2.868 0c0-1.498 1.24-2.73 2.747-2.73s2.747 1.232 2.747 2.73-1.24 2.73-2.747 2.73-2.747-1.232-2.747-2.73z"></path></defs><use fill="currentColor" xlink:href="#iconMinivan_svg__a" fill-rule="evenodd" transform="translate(4 7)"></use></svg>
