<svg viewBox="0 0 80 40" color="#363433" width="32" height="20"><defs><path id="iconHatchback_svg__a" d="M0 17.555v2.583c0 1.466 1.145 2.101 1.145 2.101l3.393 1.117c.903.328 1.035-.373 1.035-.373v-1.597c0-2.89 2.974-5.232 5.86-5.232 2.731 0 5.485 2.08 5.793 4.728l.287 3.043h30.752l.484-2.54c.617-2.867 2.776-5.231 5.684-5.231 2.599 0 4.912 1.817 5.727 4.334v4.334c0 .24.198.438.44.438l5.023-.657a.44.44 0 00.44-.438v-3.699a.44.44 0 00-.44-.438h-.176V18.08s.088-2.933-3.216-3.896c-3.327-.963-9.87-2.473-9.87-2.473l-3.634-.964S43.22 6.983 37.45 5.057c-1.63-.548-3.239-.745-5.023-.92-5.133-.525-12.028-.11-16.83.306L10.926 0l-.396.394 4.317 4.115c-3.018.263-4.89.525-4.89.525l.308 1.03S4.538 8.47 2.864 9.74c0 0-1.432.94-1.432 2.517v4.246c-1.41 0-1.432 1.05-1.432 1.05zM29.827 5.1c2.93.153 5.617.504 7.225 1.029 2.159.7 4.868 2.123 7.093 3.436a86.933 86.933 0 013.084 1.905s.397.219.419.438c0 .218-.177.306-.551.284l-16.191-1.007-1.08-6.085zm-13.878 5.122l3.348-4.794c.507-.065 1.035-.153 1.608-.197a53.42 53.42 0 015.22-.24c.463 0 .926 0 1.41.022.067 1.86.155 4.312.199 5.953l-11.785-.744zm-5.706-1.357l.022-.066c.044-.043.11-.131.22-.219.243-.197.661-.437 1.278-.7 1.564-.7 3.128-1.554 5.882-2.145l-3.943 4.29c-.243-.044-.529-.087-.86-.153-.792-.153-1.74-.394-2.158-.657a1.572 1.572 0 01-.375-.284c-.066-.044-.066-.066-.066-.066zm39.255 13.33a4.953 4.953 0 004.957 4.947 4.953 4.953 0 004.956-4.947c0-2.714-2.225-4.925-4.956-4.925-2.732 0-4.957 2.211-4.957 4.925zm1.366 0c0-1.97 1.608-3.568 3.59-3.568 1.983 0 3.591 1.598 3.591 3.568s-1.608 3.568-3.59 3.568a3.552 3.552 0 01-3.591-3.568zm-44.366 0a4.953 4.953 0 004.957 4.947 4.953 4.953 0 004.956-4.947c0-2.714-2.225-4.925-4.956-4.925-2.732 0-4.957 2.211-4.957 4.925zm1.366 0c0-1.97 1.608-3.568 3.59-3.568 1.983 0 3.591 1.598 3.591 3.568s-1.608 3.568-3.59 3.568a3.552 3.552 0 01-3.59-3.568z"></path></defs><use fill="currentColor" xlink:href="#iconHatchback_svg__a" fill-rule="evenodd" transform="translate(7 11)"></use></svg>
