<svg viewBox="0 0 80 40" color="#363433" width="32" height="20"><defs><path id="iconSedan_svg__a" d="M66.776 20.074c.122.425.586.425.586.425l4.195-.236s.853-.26 1.146-2.313c.268-2.053.951-3.517-.122-3.753l-1.146-2.478s-.39-1.605-4.293-2.313c-5-.92-10.365-1.534-10.365-1.534l-.805-.142S46.461 1.476 41.632.673c-4.83-.802-19.243-1.487-25.34 1.676a265.707 265.707 0 00-7.756 4.225l-7.292.613S0 6.645 0 12.451l.951 5.287c.195 1.038.951 1.274.951 1.274l2.805.779c1.098.354 1.17-.354 1.17-.354l1.39-3.375c.952-1.96 3.025-2.927 5.44-2.927 2.853 0 5.243 1.44 5.853 4.107l.731 3.304c.147.661.854.661.854.661H52.85c.61 0 .756-.401.78-.66l1.171-3.872c.757-2.407 2.976-3.823 5.586-3.823 2.585 0 4.755 1.369 5.56 3.705l.83 3.517zm-27.9-9.63c0-.165.122-.306.268-.306h1.83c.145 0 .267.141.267.307v.4c0 .166-.122.308-.268.308h-1.83c-.145 0-.267-.142-.267-.307v-.401zm-2.073-9.039h.122c2.34.094 5.536.66 6.56 1.015 2.39.826 6.122 2.832 7.975 3.941 0 0 2.805 1.7 3.049 2.054.244.377-.244.354-.244.354L38.485 7.8l-1.682-6.396zM17.316 9.43c0-.166.122-.307.268-.307h1.83c.146 0 .268.141.268.307v.4c0 .166-.122.308-.269.308h-1.829c-.146 0-.268-.142-.268-.307V9.43zm3.122-2.455l2.195-4.956c1.756-.992 8.365-.685 12.78-.543l1 6.254-15.975-.755zm-6.512-1.18s4.317-2.667 6.268-3.399L18.34 6.81l-2.487.094-2.22-.165c0 .024-.658 0 .293-.944zM7.219 19.413c0 2.833 2.39 5.146 5.317 5.146 2.926 0 5.317-2.313 5.317-5.146 0-2.832-2.39-5.145-5.317-5.145s-5.317 2.313-5.317 5.145zm2.707 0c0-1.392 1.17-2.525 2.61-2.525 1.439 0 2.61 1.133 2.61 2.525 0 1.393-1.171 2.526-2.61 2.526-1.44 0-2.61-1.133-2.61-2.526zm45.12 0c0 2.833 2.39 5.146 5.316 5.146 2.927 0 5.317-2.313 5.317-5.146 0-2.832-2.39-5.145-5.317-5.145-2.95 0-5.317 2.313-5.317 5.145zm2.707 0c0-1.392 1.17-2.525 2.61-2.525 1.438 0 2.609 1.133 2.609 2.525 0 1.393-1.171 2.526-2.61 2.526-1.439 0-2.61-1.133-2.61-2.526z"></path></defs><use fill="currentColor" xlink:href="#iconSedan_svg__a" fill-rule="evenodd" transform="translate(3 13)"></use></svg>
