<svg viewBox="0 0 80 40" color="#363433" width="32" height="20"><defs><path id="iconSuv_svg__a" d="M2.739 17.993H.627a.62.62 0 00-.627.62V21c0 .344.279.62.627.62H6.08c1.09 0 1.346-.965 1.346-.965l1.996-4.957s.51-1.905 2.947-1.905h5.199c2.344 0 3.017 2.112 3.017 2.112l1.555 3.97c.441 1.17 1.764 1.193 1.764 1.193h25.599c.975 0 1.3-.872 1.3-.872l1.717-4.383s.58-1.997 2.994-1.997h5.199c2.437 0 2.878 1.79 2.878 1.79l1.485 4.75c.14.483.812.506.812.506h3.087a.62.62 0 00.627-.62v-2.364a.62.62 0 00-.627-.62h-1.09v-3.51s-.024-.575-.372-.69v-.94c0-.253-.093-.482-.279-.597-1.392-.918-7.357-1.4-7.357-1.4L49.62 9.593l-5.71-7.94C42.403-.024 40.732 0 40.732 0H8.912a2.166 2.166 0 00-1.996 1.24L2.762 14.068v3.924h-.023zm38.897-16.18c.14.069.325.23.51.436l.395.505c.21.275.418.574.58.78l4.735 6.082h-5.941l-.279-7.803zm-1.787-.23h.023l.256 8.056h-7.682l-.07-8.055h7.473zm-9.19 0h.046V9.64H18.961l1.254-8.055h10.444zm-10.514 9.25c0-.138.116-.253.255-.253h2.182c.14 0 .255.115.255.253v.344a.256.256 0 01-.255.252H20.4a.256.256 0 01-.255-.252v-.344zm13.832 0c0-.138.116-.253.256-.253h2.181c.14 0 .256.115.256.253v.344a.256.256 0 01-.256.252h-2.181a.256.256 0 01-.256-.252v-.344zm-27.2-1.194L8.75 1.584h8.564l-.882 8.055H6.777zm2.251 11.682c0 3.259 2.692 5.921 5.988 5.921 3.296 0 5.988-2.64 5.988-5.921 0-3.26-2.692-5.921-5.988-5.921-3.319.023-5.988 2.662-5.988 5.92zm3.04 0c0-1.607 1.323-2.892 2.925-2.892 1.624 0 2.924 1.285 2.924 2.892 0 1.606-1.323 2.892-2.924 2.892a2.896 2.896 0 01-2.925-2.892zm39.943 0c0 3.259 2.692 5.921 5.987 5.921 3.296 0 5.988-2.64 5.988-5.921 0-3.26-2.692-5.921-5.988-5.921-3.295 0-5.987 2.662-5.987 5.92zm3.063 0c0-1.607 1.323-2.892 2.924-2.892 1.625 0 2.925 1.285 2.925 2.892 0 1.606-1.323 2.892-2.925 2.892-1.601 0-2.924-1.286-2.924-2.892z"></path></defs><use fill="currentColor" xlink:href="#iconSuv_svg__a" fill-rule="evenodd" transform="translate(5 11)"></use></svg>
