<svg id="Layer_1" enable-background="new 0 0 512.002 512.002" height="512" viewBox="0 0 512.002 512.002" width="512" xmlns="http://www.w3.org/2000/svg"><g><g clip-rule="evenodd" fill-rule="evenodd"><path d="m241.001 142.002 15-33.171-44.691-98.831h-70.001l59.692 132.002z" fill="#ff7d97"/><path d="m300.693 10-44.692 98.831-15 33.171h70.001l59.691-132.002z" fill="#ff5d7d"/><path d="m311.002 142.002h-70-40.001-64.999c-11 0-20 8.999-20 20v320c0 11 8.999 20 20 20h240c11 0 20-8.999 20-20v-320c0-11.001-8.999-20-20-20zm-44.386 56.723 16.325 30.029 33.006 5.847c6.604 1.153 11.023 7.442 9.871 14.046-.472 2.705-1.806 5.043-3.67 6.782l-23.029 24.289 4.641 33.212c.917 6.63-3.715 12.75-10.345 13.667-2.438.337-4.815-.058-6.881-1.044l-30.877-14.709-30.121 14.662c-6.027 2.935-13.294.428-16.229-5.6-1.22-2.504-1.499-5.223-.977-7.756l4.334-33.046-23.28-24.145c-4.638-4.822-4.49-12.493.332-17.131 1.88-1.808 4.191-2.888 6.587-3.249l33.248-6.178 15.759-29.583c3.145-5.897 10.475-8.128 16.372-4.982 2.169 1.157 3.841 2.88 4.934 4.889z" fill="#ffda8f"/><path d="m282.941 228.754-16.325-30.029c-1.093-2.009-2.765-3.732-4.934-4.889-5.897-3.145-13.227-.915-16.372 4.982l-15.759 29.583-33.248 6.178c-2.395.36-4.707 1.441-6.587 3.249-4.822 4.638-4.971 12.309-.332 17.131l23.28 24.145-4.334 33.046c-.522 2.533-.243 5.252.977 7.756 2.935 6.028 10.202 8.534 16.229 5.6l30.121-14.662 30.877 14.709c2.066.986 4.443 1.381 6.881 1.044 6.631-.917 11.262-7.036 10.345-13.667l-4.641-33.212 23.029-24.289c1.864-1.739 3.198-4.077 3.67-6.782 1.153-6.604-3.266-12.893-9.871-14.046z" fill="#ffc144"/></g><g><path d="m376 132.002h-49.502l53.306-117.882c1.4-3.095 1.133-6.688-.709-9.542s-5.006-4.578-8.402-4.578h-70c-3.929 0-7.493 2.3-9.111 5.88l-35.58 78.683-35.581-78.683c-1.618-3.58-5.182-5.88-9.111-5.88h-70.001c-3.396 0-6.561 1.724-8.402 4.578-1.842 2.854-2.109 6.447-.709 9.542l53.307 117.882h-49.503c-16.542 0-30 13.458-30 30v115.004c.529 13.268 19.476 13.258 20 0v-115.004c0-5.514 4.486-10 10-10h239.998c5.514 0 10 4.486 10 10v320c0 5.514-4.486 10-10 10h-239.999c-5.514 0-10-4.486-10-10v-114.996c-.529-13.268-19.476-13.258-20 0v114.996c0 16.542 13.458 30 30 30h239.999c16.542 0 30-13.458 30-30v-320c0-16.542-13.458-30-30-30zm-68.854-112.002h48.05l-50.646 112.002h-48.051zm-150.34 0h48.051l40.17 88.832-10.478 23.17h-27.096z"/><path d="m173.252 372.385c-5.311 1.518-8.386 7.052-6.868 12.362l20 70c2.782 9.606 16.452 9.601 19.23 0l20-70c1.518-5.311-1.558-10.845-6.868-12.362-5.31-1.518-10.845 1.559-12.362 6.868l-10.384 36.347-10.385-36.347c-1.517-5.31-7.052-8.387-12.363-6.868z"/><path d="m246.001 382v70c.529 13.268 19.476 13.258 20 0v-70c-.528-13.268-19.476-13.258-20 0z"/><path d="m296.002 372c-5.522 0-10 4.478-10 10v70c.529 13.268 19.476 13.258 20 0v-20h10c39.809-1.653 39.778-58.362 0-60zm30 30c0 5.514-4.486 10-10 10h-10v-20h10c5.514 0 10 4.486 10 10z"/><path d="m317.691 224.754-28.264-5.007-14.024-25.799c-.001-.002-.003-.004-.004-.006-4.774-9.059-16.085-13.719-25.846-10.572-5.647 1.719-10.288 5.533-13.069 10.747l-13.494 25.332-28.369 5.271c-4.473.713-8.562 2.751-11.835 5.899-4.258 4.095-6.666 9.604-6.781 15.51-.114 5.906 2.077 11.504 6.181 15.771l19.938 20.678-3.669 27.963c-2.134 10.475 4.37 21.665 14.545 24.979 5.574 1.925 11.587 1.571 16.913-1.022l25.792-12.555 26.521 12.635c3.895 1.859 8.237 2.524 12.559 1.926 11.819-1.391 20.754-13.197 18.88-24.957l-3.975-28.441 19.533-20.605c3.403-3.274 5.63-7.462 6.446-12.133 2.098-12.027-5.977-23.518-17.978-25.614zm-1.724 22.172c-.082.47-.298.87-.642 1.191-.15.139-.295.283-.436.432l-23.027 24.29c-2.094 2.208-3.068 5.25-2.647 8.264l4.639 33.197c.161 1.158-.651 2.23-1.812 2.392-.55.078-.955-.046-1.207-.167l-30.876-14.709c-2.747-1.308-5.942-1.296-8.678.037l-30.123 14.662c-.659.321-1.253.23-1.635.099s-.904-.427-1.225-1.085c-.212-.435-.271-.894-.174-1.363.049-.237.089-.476.12-.715l4.335-33.046c.396-3.018-.604-6.051-2.716-8.242l-23.272-24.136c-.502-.521-.598-1.107-.59-1.508.008-.399.126-.981.648-1.484.323-.311.707-.501 1.141-.566.113-.017.227-.036.34-.057l33.248-6.178c2.992-.557 5.568-2.444 6.999-5.131l15.756-29.577c.339-.636.863-.906 1.243-1.022.508-.151 1.051-.134 1.599.156.371.197.66.482.858.846l16.321 30.025c1.454 2.673 4.046 4.54 7.042 5.07l33.029 5.851c1.164.202 1.944 1.314 1.742 2.474z"/><path d="m116.001 332.01c5.522 0 10-4.478 10-10v-.008c0-5.522-4.478-9.996-10-9.996-13.263.529-13.262 19.479 0 20.004z"/></g></g></svg>