<?xml version="1.0" standalone="no"?>
<!DOCTYPE svg PUBLIC "-//W3C//DTD SVG 20010904//EN"
 "http://www.w3.org/TR/2001/REC-SVG-20010904/DTD/svg10.dtd">
<svg version="1.0" xmlns="http://www.w3.org/2000/svg"
 width="512.000000pt" height="512.000000pt" viewBox="0 0 512.000000 512.000000"
 preserveAspectRatio="xMidYMid meet">

<g transform="translate(0.000000,512.000000) scale(0.100000,-0.100000)"
fill="#000000" stroke="none">
<path d="M3674 4708 c-12 -5 -45 -52 -73 -103 l-51 -93 -94 -52 c-153 -85
-153 -129 -1 -216 78 -44 94 -59 122 -105 17 -30 43 -73 57 -97 30 -51 67 -68
108 -51 20 8 41 36 78 105 l51 93 94 52 c70 39 97 59 106 81 22 53 4 77 -103
138 -97 55 -98 55 -140 135 -65 121 -94 142 -154 113z m64 -282 c11 -19 34
-42 51 -51 17 -8 31 -19 31 -23 0 -4 -15 -16 -34 -26 -19 -10 -42 -33 -52 -52
-10 -19 -21 -34 -25 -34 -4 0 -12 14 -19 31 -7 17 -31 42 -53 56 l-40 25 36
21 c19 11 44 35 54 54 9 18 21 33 24 33 4 0 16 -15 27 -34z"/>
<path d="M2157 4378 c-12 -13 -42 -60 -66 -105 -40 -75 -48 -84 -105 -114
-105 -55 -135 -78 -142 -104 -12 -50 11 -79 109 -132 l92 -50 54 -96 c59 -105
86 -126 134 -108 27 10 54 48 109 150 21 39 40 58 79 79 144 78 171 108 149
162 -10 24 -71 66 -167 114 -23 11 -45 41 -83 110 -52 93 -76 116 -121 116
-11 0 -30 -10 -42 -22z m77 -272 c10 -19 33 -42 52 -52 19 -10 34 -21 34 -24
0 -4 -16 -14 -35 -23 -21 -10 -42 -31 -52 -52 -9 -19 -19 -35 -23 -35 -3 0
-14 15 -24 34 -10 19 -33 42 -52 52 -19 10 -34 22 -34 25 0 4 15 16 34 27 19
11 42 34 51 51 8 17 19 31 23 31 4 0 16 -15 26 -34z"/>
<path d="M185 3976 l-25 -25 0 -216 0 -215 40 0 40 0 0 -80 0 -80 -40 0 -40 0
0 -1455 0 -1456 25 -24 c23 -24 29 -25 162 -25 156 0 224 13 313 61 115 61
185 151 241 308 l37 106 1371 3 1371 2 0 40 0 40 80 0 80 0 0 -40 0 -40 171
-2 171 -3 37 -106 c56 -157 126 -247 241 -308 89 -48 157 -61 313 -61 134 0
139 1 163 25 l25 25 -3 512 -3 513 -27 51 c-35 66 -98 120 -162 139 -27 8 -55
15 -62 15 -9 0 -8 9 2 37 9 28 13 104 14 279 0 291 -6 321 -85 399 -62 63
-124 85 -235 85 l-78 0 -12 34 c-16 50 -48 86 -94 107 -39 18 -97 19 -1344 19
l-1303 0 -24 -25 c-21 -20 -25 -34 -25 -80 l0 -55 -106 0 c-97 0 -106 1 -99
18 22 53 14 164 -39 592 -32 254 -63 464 -73 490 -24 66 -94 135 -162 161 -48
18 -71 20 -166 16 -60 -3 -119 -8 -131 -12 -19 -6 -23 -1 -33 40 -21 82 -69
142 -146 183 -46 25 -61 27 -202 30 -152 4 -152 4 -178 -22z m811 -392 c19 -9
41 -29 49 -43 7 -15 39 -233 71 -493 56 -446 58 -468 42 -501 -28 -58 -61 -67
-262 -67 l-176 0 0 510 c0 564 -1 551 63 590 42 26 163 28 213 4z m1004 -1344
l0 -240 -160 0 -160 0 0 240 0 240 160 0 160 0 0 -240z m2158 -2 l2 -238
-1000 0 -1000 0 0 240 0 240 998 -2 997 -3 3 -237z m-2638 -133 c0 -216 0
-216 25 -240 l24 -25 1351 0 1351 0 24 25 c25 24 25 24 25 240 l0 215 73 0
c54 0 80 -5 104 -20 59 -36 63 -55 63 -300 0 -245 -4 -264 -63 -300 -31 -20
-65 -20 -1904 -20 l-1873 0 0 320 0 320 400 0 400 0 0 -215z"/>
<path d="M3151 3528 c-14 -8 -47 -54 -76 -107 l-53 -94 -88 -48 c-98 -53 -114
-69 -114 -114 0 -40 22 -60 125 -115 80 -42 81 -44 125 -127 48 -90 78 -123
115 -123 36 0 62 28 113 120 45 81 51 87 122 127 108 60 130 79 130 114 0 49
-16 66 -113 118 l-92 50 -48 89 c-26 50 -53 94 -60 100 -22 18 -61 23 -86 10z
m54 -278 c9 -17 34 -42 56 -57 l41 -27 -36 -18 c-20 -10 -46 -36 -58 -57 l-22
-39 -24 39 c-13 22 -39 47 -59 57 l-35 19 36 21 c20 12 46 37 57 57 12 19 23
35 25 35 2 0 10 -14 19 -30z"/>
</g>
</svg>
