<?xml version="1.0" encoding="UTF-8"?>
<!-- Generator: Adobe Illustrator 16.0.0, SVG Export Plug-In . SVG Version: 6.00 Build 0)  -->
<!DOCTYPE svg PUBLIC "-//W3C//DTD SVG 1.1//EN" "http://www.w3.org/Graphics/SVG/1.1/DTD/svg11.dtd">
<svg version="1.1" id="Layer_1" xmlns="http://www.w3.org/2000/svg" xmlns:xlink="http://www.w3.org/1999/xlink" x="0px" y="0px" width="34px" height="26px" viewBox="-129.5 65.5 34 26" enable-background="new -129.5 65.5 34 26" xml:space="preserve">
<path fill="#D7D7D7" d="M-100.1,69.7h-3.3c-0.2-0.8-0.7-3.2-2.3-3.2h-12.8c-1.6,0-2.1,2.4-2.2,3.2h-3.4c-2.2,0-4.4,1-4.4,3.2v14.5  c0,2.2,2.1,3,4.4,3h24c2.2,0,3.6-0.8,3.6-3V72.9C-96.5,70.7-97.9,69.7-100.1,69.7z M-112.3,87.1c-4.3,0-7.8-3.5-7.8-7.8  s3.5-7.8,7.8-7.8c4.3,0,7.8,3.5,7.8,7.8S-108,87.1-112.3,87.1z"/>
<path fill="#D7D7D7" d="M-112.3,75c2.2,0,4.3,2,4.3,4.3s-2,4.3-4.3,4.3s-4.3-2-4.3-4.3S-114.6,75-112.3,75z"/>
</svg>