<?xml version="1.0" encoding="UTF-8"?>
<svg width="106px" height="94px" viewBox="0 0 106 94" version="1.1" xmlns="http://www.w3.org/2000/svg" xmlns:xlink="http://www.w3.org/1999/xlink">
    <!-- Generator: Sketch 61 (89581) - https://sketch.com -->
    <title>Contract</title>
    <desc>Created with Sketch.</desc>
    <g id="💥-[Explorations]-VI-" stroke="none" stroke-width="1" fill="none" fill-rule="evenodd">
        <g id="Vi-v.4-(komprimerad-boxar)" transform="translate(-717.000000, -1864.000000)" fill-rule="nonzero">
            <g id="Contract" transform="translate(717.000000, 1864.000000)">
                <path d="M81.4412408,11.9663632 C73.0073833,3.36012626 59.8555927,0.0891618038 46.703802,0 C33.5520114,0.0891618038 20.4002207,3.36097542 11.9672124,11.9663632 C3.36012626,20.4010699 0.0891618038,33.5520114 0,46.703802 C0.0900109639,59.8555927 3.36097542,73.0073833 11.9672124,81.4403916 C20.3993716,90.0474777 33.5520114,93.3184422 46.703802,93.407604 C59.8555927,93.3184422 73.0065341,90.0474777 81.4412408,81.4403916 C90.0474777,73.0065341 93.3184422,59.8547435 93.407604,46.703802 C93.3184422,33.5511622 90.0474777,20.4002207 81.4412408,11.9663632" id="Path" fill="#679BCF"></path>
                <polygon id="Path" fill="#FFFFFF" points="13.3640807 13.6808173 25.9350458 11.970609 53.6032273 9.47153105 69.9393681 7.73584793 72.6813058 28.5402688 75.0776355 57.1399789 77.2429936 77.2209154 37.7264821 80.5666059 20.666857 83.1675831 18.4123371 53.1404351 15.7689019 32.0048418"></polygon>
                <g id="Group" transform="translate(21.229001, 16.983201)" fill="#3D3C36">
                    <path d="M20.0962214,56.2313776 C20.3339862,56.2169419 20.5726002,56.2008079 20.8112142,56.1872213 C21.3691123,56.1541041 21.9490886,56.3035562 22.471322,55.9902162 C22.5690536,55.9399032 22.6398171,55.8492763 22.6649305,55.7422614 C22.6951517,55.5737771 22.6608991,55.4000892 22.5689754,55.2556927 C22.5040812,55.1552741 22.398059,55.0887382 22.2794119,55.0739725 C22.141848,55.0527435 22.0076807,55.0850116 21.8743625,55.1096372 C21.2740064,55.2166314 20.6651586,55.1843633 20.0571601,55.1945532 C17.7584838,55.2293688 15.4555618,55.3185306 13.153489,55.4340163 C12.9437464,55.4442063 12.7340039,55.4552453 12.5242614,55.4679827 C11.3643088,55.5401613 10.2077528,55.6429097 9.05119683,55.7533005 L7.31296623,55.9197359 C6.79412945,55.968138 6.26085695,55.8186858 5.75051177,55.9503056 C5.50510452,56.0131435 5.27158551,55.9936128 5.01938498,56.0071994 C4.91578745,56.0114452 4.81049161,56.0199368 4.71878232,56.0895679 C4.6279222,56.1600482 4.55064864,56.3035562 4.54895032,56.4869748 C4.54470452,56.668695 4.610939,56.8470186 4.68906172,56.9820351 C4.7213298,57.039778 4.75699452,57.0924259 4.79945253,57.1128057 C4.83341893,57.1297889 4.86738533,57.124694 4.90135173,57.1187499 C5.46859063,57.0210964 6.02054466,56.9845826 6.59627516,56.9599569 C7.8513337,56.9047615 9.11658215,56.8920241 10.3622999,56.817298 L20.0962214,56.2313776 M23.5675877,16.8099721 C26.5651226,16.4193585 29.5881323,16.246979 32.5958572,15.9370356 C34.0984021,15.7898753 35.5948428,15.5859311 37.0819696,15.3256403 C37.7528061,15.2050596 38.4440223,15.1642999 39.1182554,15.0649482 C39.8009801,14.963049 40.6518384,15.0674957 41.2301164,14.6165917 C41.4729762,14.4297765 41.6504506,14.087565 41.51968,13.8047947 C41.40844,13.5542925 41.1171781,13.4591866 40.8530894,13.4260693 C40.1635714,13.3360584 39.4774501,13.5704265 38.8040662,13.684214 C34.0827364,14.4951618 29.2212952,14.665843 24.4558091,15.0963671 C19.5977645,15.5353829 14.7176418,15.6924775 9.8570497,16.0992251 C8.13665147,16.2452807 6.41795156,16.4210568 4.70519576,16.65033 C3.78130964,16.7760057 2.79118904,16.7097712 1.88938108,16.9373461 C1.64227551,16.9993348 1.3917733,17.0901949 1.19901397,17.2617252 C1.00455632,17.4341047 0.877182318,17.7092326 0.9306794,17.9707739 C0.979930682,18.2110861 1.17353917,18.4021472 1.3917733,18.4989514 C1.61170575,18.597454 1.85201804,18.6178338 2.08978285,18.6314204 C3.41447251,18.703599 4.75444704,18.3002479 6.08932662,18.2722257 C8.52641593,18.2212761 10.9448237,17.9953995 13.3589857,17.71178 C16.740341,17.3101273 20.1633051,17.2549319 23.5675877,16.8099721 Z M28.9223908,7.10152538 C29.5533167,7.02510098 30.3090692,6.95292238 30.9196152,7.0650115 C32.1619364,7.29258639 31.570921,8.12136659 30.7039286,8.51707517 C30.0118632,8.83381186 29.2000662,8.92721946 28.4162915,9.01298463 C23.1077746,9.58549733 17.7921659,10.0902226 12.4707643,10.527037 C8.97392327,10.8132039 5.45330575,11.2547671 1.97429708,11.6513249 C1.81550416,11.6700064 1.64482299,11.6852913 1.50386242,11.6173585 C1.3111031,11.5256492 1.24147197,11.2895827 1.30346066,11.0925776 C1.36544934,10.8938741 1.53188471,10.7325337 1.71445411,10.6077072 C3.15802618,9.62013405 5.88382989,9.62268153 7.56177012,9.37812344 C14.5140196,8.36515009 21.5026856,7.62016826 28.5122465,7.14483255 C28.6073525,7.13803927 28.7491622,7.12360355 28.92324,7.10237454 M38.3854303,0.367686296 C39.2719534,0.285317772 40.3300068,0.202949249 41.1834126,0.267485411 C42.9233415,0.400803537 42.0818239,1.07333829 40.8598826,1.41385146 C39.8892927,1.68728099 38.7497199,1.7891802 37.651756,1.88343696 C30.2012259,2.52455279 22.7472991,3.11132237 15.2891265,3.64289656 C10.7384778,3.96812485 6.13263378,4.34685023 1.59472255,4.83087145 C1.44781786,4.84785465 1.29751654,4.86229037 1.15740513,4.83766473 C0.989753714,4.80624382 0.836029303,4.72344631 0.717540231,4.60074908 C0.625830947,4.50734147 0.553652344,4.39864899 0.547466625,4.27806826 C0.539216623,4.06323077 0.755752432,3.86197985 1.01050044,3.75838232 C1.42234306,3.59449443 1.84947056,3.65648312 2.28084386,3.60723183 C14.0938873,2.23355891 25.9409076,1.16976217 37.8096998,0.416937578 C37.9447162,0.408445978 38.1442688,0.389764457 38.3854303,0.367686296 M40.5159728,20.635438 C41.4024959,20.5539187 42.4605493,20.470701 43.313106,20.5360863 C45.0538841,20.6694044 44.2123665,21.34109 42.9904252,21.6824524 C42.0189861,21.9558819 40.8802625,22.0569319 39.7822985,22.1511887 C32.3317684,22.7923045 24.8778416,23.3790741 17.419669,23.9114975 C12.8681712,24.2367258 8.26317631,24.614602 3.72526508,25.0986232 C3.57836039,25.1156064 3.42805907,25.1300421 3.2870985,25.1054165 C3.11985346,25.0740644 2.96646002,24.9915821 2.84808276,24.86935 C2.75552432,24.7759424 2.68419488,24.6672499 2.67796046,24.5466692 C2.66890999,24.3309825 2.88629496,24.1297316 3.14104297,24.0269832 C3.55288559,23.8622462 3.97916393,23.925084 4.41053723,23.8749836 C16.2235806,22.5013107 28.070601,21.4375139 39.9393932,20.6846893 C40.0752588,20.6761977 40.2748114,20.6583654 40.516822,20.635438" id="Shape"></path>
                </g>
                <path d="M32.6756782,70.1525073 C33.4399222,69.753402 33.5435198,69.2991014 33.3142466,68.5951477 C33.1783809,68.1790593 33.2182915,68.0720652 33.9706473,67.6500326 C34.4725008,67.3681115 34.3069146,67.0726038 33.4730395,66.7609621 C32.2884612,67.4241561 32.0608863,68.0397971 32.3453549,68.9110353 C32.4370642,69.1921073 32.4540474,69.1190795 32.2043944,69.249001 C31.724619,69.4995032 30.8635707,68.5119301 29.8097631,65.9466176 L29.7392828,65.8277352 C28.7364248,64.5404086 27.5951537,63.9307117 26.3434918,64.0623315 C24.4337309,64.2627332 23.3272754,66.6777444 24.2036085,68.3905002 C24.7215961,69.4035481 25.5877394,70.1864737 26.7833567,70.7358802 C27.5815671,71.1027173 27.7225277,70.7936231 27.2087859,69.8102958 C26.2127212,69.3517493 25.5189574,68.7250692 25.1096623,67.9260096 C24.5449709,66.8221016 25.288835,65.1976584 26.450486,65.0762286 C27.2979477,64.9870668 28.1038006,65.407401 28.8935194,66.4009182 C30.1672595,69.4748775 31.3662734,70.8360811 32.6756782,70.1525073 L32.6756782,70.1525073 Z" id="Path" fill="#3D3C36"></path>
                <g id="Group" transform="translate(34.815561, 35.664722)">
                    <path d="M15.2483668,10.824243 L4.19485058,15.2628025 C3.74309744,15.4445227 3.26417118,15.6457737 2.99074165,16.0491247 C2.62390451,16.5891905 2.7453344,17.3432446 3.09179169,17.8960478 C3.76347728,18.974481 5.13402158,19.451709 6.40351583,19.399061 C7.67301009,19.345564 8.87796818,18.8513528 10.0506582,18.3630858 C13.6816665,16.8558267 17.3406971,15.3341319 20.6014716,13.1382041 C21.2723081,12.6881493 21.9533344,12.1727091 22.2726186,11.4296941 C23.8596987,7.72565801 16.4202076,10.3538083 15.2483668,10.824243" id="Path" fill="#F8CEA3"></path>
                    <path d="M56.8521136,4.93956393 C54.259628,7.9192665 50.8171332,10.46335 47.5826826,12.6949425 C41.4780711,16.9067763 33.1851742,11.5256492 27.219825,8.9263703 C23.2550968,7.20002795 20.0665008,10.0362225 16.9789549,12.3017814 C13.5610858,14.8102002 10.5677967,18.3214769 7.54223944,21.3334476 C7.14822919,21.7240612 6.74063237,22.1477921 6.61410752,22.6870087 C6.41200744,23.5565486 7.05567074,24.4617532 7.88614926,24.7886798 C8.71662777,25.1173047 9.66259205,24.9780425 10.5049588,24.6808365 C12.0699608,24.1288824 13.4005945,23.075924 14.6981111,22.0399487 C18.2892089,19.1757319 21.9720159,17.5011884 26.6610777,19.0466596 C29.5567134,20.0011155 31.0393468,21.7096255 31.4087314,23.4733309 C37.1490533,29.1796863 45.1031353,31.5004407 52.805866,33.2972633 C57.5025702,30.3447339 61.6770409,26.6636251 65.747065,22.9145836 C67.8529819,20.9725546 59.3919513,2.01930257 56.8521136,4.93956393 L56.8521136,4.93956393 Z" id="Path" fill="#F8CEA3"></path>
                    <path d="M53.0436308,10.6408244 C54.5031402,12.0448228 55.8676391,13.5443531 57.1280906,15.1294844 C58.8086703,17.2449497 60.2980062,19.5055234 61.5785384,21.8845525 C62.1067159,22.8644831 62.717262,23.8605479 63.078155,24.9177521 C63.3312047,25.6624655 63.4365005,26.7009882 64.4945539,26.6814575 C64.8282738,26.6746642 65.1433122,26.5362511 65.4456132,26.3944414 C66.821335,25.7466141 68.1404367,24.9848074 69.3891124,24.1169942 C69.8578487,23.7917659 70.8666508,23.2865157 71.0959241,22.7557907 C71.3438788,22.179211 70.883634,21.3190119 70.7817348,20.7543205 C70.6458692,19.9926239 70.6059587,19.2682904 70.3563057,18.5210296 C69.8722844,17.0732117 69.0910572,15.737483 68.2682211,14.4603463 C66.7962805,12.1753369 65.4657022,9.80230209 64.2839622,7.35457508 C63.651338,6.04601946 62.4243018,1.01389708 61.2040588,0.398256057 C60.7531548,0.171530327 60.213089,0.399954377 59.809738,0.624132627 C59.1389016,0.998612203 58.5529812,1.52848807 58.0035746,2.05921309 C57.9492284,2.11186101 57.8931838,2.16535809 57.8405359,2.21885518 C56.9098565,3.13424969 56.1575007,4.05473917 55.1682292,4.91493829 C54.0941559,5.84912915 53.084732,6.85514857 52.1469178,7.92605978 C51.8616001,8.25213723 51.5677907,8.61727605 51.5397684,9.05034767 C51.5312768,9.16243679 51.5567516,9.27028012 51.6051537,9.37302848 C51.8480135,9.88761946 52.6827378,10.293518 53.0436308,10.6408244 L53.0436308,10.6408244 Z" id="Path" fill="#EF414F"></path>
                    <g transform="translate(0.000000, 3.396640)">
                        <path d="M50.5309663,3.12236145 C50.6889101,2.71476464 50.5437037,2.33264262 50.3135813,1.88004032 C49.9620291,1.19137153 48.8275513,0.173228647 48.1057652,1.06909249 C48.0947261,1.08437737 48.5074179,2.01760425 48.5549709,2.12799505 C48.7120655,2.49313387 48.9498303,2.817513 49.1103215,3.1809535 C49.1960867,3.37371282 49.2911926,3.56732131 49.4389465,3.7184718 C49.8439958,4.1328619 50.1496934,3.72951088 50.391704,3.37965695 C50.4519944,3.29219346 50.497849,3.20727746 50.5309663,3.12236145" id="Path" fill="#E8836B"></path>
                        <path d="M6.40436499,21.9108764 C6.52834236,21.8089772 6.71770505,21.7393461 6.85102317,21.6705641 C7.25012839,21.4633691 7.66451849,21.2918388 8.07805943,21.1186101 C8.6870802,20.8611774 9.29313705,20.5967883 9.89611106,20.3254946 C11.3405734,19.6724555 12.7738778,18.9950118 14.1954083,18.2934547 C16.1671579,17.3262614 27.3743721,11.4594147 29.369049,10.5728916 C31.6830101,9.54370965 33.8721447,8.07126615 36.1283629,6.89602866 C38.4509772,5.68668507 40.8018243,4.53235485 43.1789387,3.43400319 C44.4059749,2.86676428 45.7620835,5.55350664 45.2593808,6.59033104 C44.9562307,7.21616199 43.7741999,7.73245129 43.206961,8.10778003 C42.4398245,8.61477031 41.6632734,9.10736926 40.877715,9.58531849 C37.8886717,11.4033701 33.0467611,13.8056439 29.9575169,15.4470702 C26.9820602,17.0282062 16.2503756,22.7693772 13.2205726,24.2460665 C11.8687098,24.9041655 10.0506582,25.9868446 8.60963361,26.424162 C7.56516676,26.7408987 7.06670982,25.2540195 6.61920248,24.3267367 C6.28803007,23.6397663 6.14367286,23.3603926 6.16065606,22.5689754 C6.1640527,22.3685737 6.20905819,22.1248648 6.34407463,21.9686193 C6.36213822,21.9476484 6.38203024,21.9283247 6.40351583,21.9108764" id="Path" fill="#F9CC6C"></path>
                        <path d="M8.60878445,26.424162 C10.0506582,25.9868446 11.869559,24.9041655 13.2197234,24.2460665 C16.2503756,22.7693772 26.9820602,17.0282062 29.9575169,15.4470702 C33.0467611,13.8056439 37.8886717,11.4033701 40.877715,9.58531849 C41.6632734,9.10736926 42.4398245,8.61477031 43.206961,8.10778003 C43.7741999,7.73245129 44.9562307,7.21616199 45.2593808,6.59033104 C45.4113804,6.27784015 45.3926989,5.81504793 45.2610791,5.33612167 C33.083275,12.8817578 19.8983671,18.740962 7.17030735,25.4815944 C7.51676464,26.1150678 7.95662954,26.6220163 8.60878445,26.424162 M6.37124775,23.7900676 C19.1995084,17.3228647 32.1899587,11.0781418 44.523159,3.92821433 C44.1291488,3.47391371 43.6451276,3.21831654 43.1789387,3.43400319 C40.8015308,4.5326231 38.4504003,5.68723654 36.1275138,6.89687782 C33.8721447,8.07126615 31.6830101,9.54370965 29.3681999,10.5728916 C27.3735229,11.4594147 16.1671579,17.3262614 14.1954083,18.2934547 C12.7722161,18.9914642 11.3422306,19.6758872 9.89611106,20.3254946 C9.29320744,20.5963767 8.68690717,20.8604655 8.07805943,21.1177609 C7.66451849,21.2918388 7.24927923,21.4633691 6.85102317,21.669715 C6.71770505,21.7393461 6.52834236,21.8098264 6.40436499,21.9108764 C6.38252904,21.9282219 6.3623461,21.9475521 6.34407463,21.9686193 C6.20820903,22.1248648 6.1640527,22.3685737 6.16065606,22.5681263 C6.14876782,23.1200803 6.21754979,23.4249288 6.37124775,23.7909167" id="Shape" fill="#F6BF4E"></path>
                        <path d="M6.61920248,24.3275859 C6.78733617,24.6757415 6.96141398,25.1003215 7.17030735,25.4815944 C19.8983671,18.7392637 33.083275,12.8817578 45.2602299,5.33612167 C45.1173043,4.81971733 44.865394,4.33992971 44.5214607,3.92906349 C32.1891095,11.0781418 19.1995084,17.3228647 6.37039859,23.7909167 C6.43748224,23.9497097 6.51815244,24.1186925 6.61835332,24.3275859" id="Path" fill="#B38D36"></path>
                        <path d="M2.33264262,26.3282069 C2.2842405,26.6135247 2.75212768,27.0321606 3.09858497,27.0567862 C3.23699806,27.0669762 3.25992538,27.0355572 3.40343343,27.0253673 C3.61572344,27.0109316 3.82631512,26.9998925 4.03860513,26.9795127 L4.61008984,26.9243173 C5.10430098,26.875066 5.59766296,26.8258147 6.09102494,26.7723176 C6.60380248,26.7187488 7.11588643,26.6587368 7.62715545,26.5922957 C7.82670806,26.5659717 8.02626066,26.5379495 8.22496411,26.5048322 C8.48735456,26.4615251 8.96882831,26.4199162 9.05714095,26.1235594 C9.13016871,25.8781521 9.08346491,25.6047226 8.9518451,25.3847901 C8.90122229,25.2963053 8.83267483,25.2193702 8.75059418,25.1589136 C8.62642992,25.0810099 8.48726949,25.0300905 8.3421482,25.0094614 C8.2996902,25.0009698 8.07551195,24.9958748 8.07551195,24.9958748 C8.07551195,24.9958748 8.17910947,24.8549143 8.21392503,24.800568 C8.37781292,24.5432725 8.410081,24.2231392 8.31497508,23.9293298 C8.24154585,23.713047 8.08935125,23.5323538 7.88869674,23.4232304 C7.75622777,23.3502027 7.39193812,23.2279236 7.25607251,23.3340686 C7.57790417,23.0818681 7.65178109,22.5936011 7.48959152,22.2199707 C7.43663388,22.0849317 7.34358062,21.969356 7.22295527,21.8887983 C6.69647605,21.5669666 6.20566155,21.9397479 5.84222105,22.2632778 C5.41933935,22.6394557 4.99051353,23.1379127 4.57442512,23.5208838 C4.1540909,23.9072517 3.735455,24.2953178 3.31766826,24.6825348 L2.95847357,25.0145564 C2.93299877,25.0383328 2.65022847,25.2820418 2.65702175,25.2922317 C2.7580718,25.4646112 2.3776481,26.0649673 2.33264262,26.3282069" id="Path" fill="#D9BFA3"></path>
                        <path d="M1.27034341,27.2665288 L1.3450695,27.2665288 C1.57179523,27.2758695 1.79937012,27.262283 2.02439753,27.2436014 C2.20187197,27.2300149 2.36406154,27.188406 2.53813935,27.156138 C2.59418391,27.145948 3.09179169,27.0899035 3.09858497,27.0567862 C3.24718798,26.3596259 2.92705465,25.8348449 2.65702175,25.2922317 C2.66721167,25.3143098 1.57094607,26.0675148 1.47329266,26.1447884 C1.22703625,26.3400952 0.645361628,26.7069323 0.781227234,27.1009426 C0.837271796,27.262283 1.09881309,27.2639813 1.27034341,27.2656796" id="Path" fill="#595A59"></path>
                        <path d="M42.9870285,3.43739983 C42.8865231,3.49255725 42.7879612,3.55118455 42.6915208,3.61317596 C42.824839,4.18550982 43.2511173,4.7085924 43.6094628,5.15949638 C43.75382,5.33951831 44.9655714,7.05567074 44.9044319,7.08878798 C45.3816598,6.83319081 49.8202193,4.64575456 49.8711689,4.01482865 C49.9136269,3.47646119 49.3913935,2.93979205 49.1171148,2.52625111 C48.9676627,2.3012237 48.8088697,2.07959293 48.6772499,1.84267728 C48.5668591,1.64397383 48.5031721,1.20580725 48.3579658,1.05805341 C47.9928269,0.686121309 47.2905716,1.15146101 46.9449635,1.36884598 C46.7683382,1.48008594 43.1662013,3.33719894 42.9870285,3.43739983" id="Path" fill="#2E8655"></path>
                    </g>
                    <path d="M16.1051693,26.3664191 C15.1727915,26.1626207 14.2140899,25.9588223 13.2723714,26.1159169 C12.331502,26.2721624 11.3999735,26.8767643 11.147773,27.7964046 C10.8318854,28.9512623 11.6470791,30.0993267 12.511524,30.9272577 C13.9576435,32.3130869 18.268829,35.0499297 20.1454727,35.7496375 C30.3489797,39.5453829 40.0294041,40.2858504 49.9696715,34.9556729 C50.9377139,34.4368361 52.6869836,33.5910727 53.6125681,33.0102473 C45.9106865,31.2134246 37.1490533,29.1805355 31.4087314,23.4733309 C32.1194784,26.8674236 28.705855,30.4670129 23.2924598,29.2875297 C21.6365977,28.9266366 17.7618805,26.7273121 16.1051693,26.3664191 Z" id="Path" fill="#F8CEA3"></path>
                </g>
            </g>
        </g>
    </g>
</svg>