<?xml version="1.0" encoding="utf-8"?>
<!-- Generator: Adobe Illustrator 21.1.0, SVG Export Plug-In . SVG Version: 6.00 Build 0)  -->
<svg version="1.1" id="Layer_1" xmlns="http://www.w3.org/2000/svg" xmlns:xlink="http://www.w3.org/1999/xlink" x="0px" y="0px"
	 viewBox="0 0 146 48.5" style="enable-background:new 0 0 146 48.5;" xml:space="preserve">
<style type="text/css">
	.st0{fill:#255697;}
	.st1{fill:#DFAD19;}
	.st2{fill:#BF3225;}
	.st3{fill:#FFFFFF;}
	.st4{fill:url(#SVGID_1_);}
	.st5{fill:#D8D8D8;}
	.st6{clip-path:url(#SVGID_3_);fill:#FFFFFF;}
	.st7{clip-path:url(#SVGID_5_);fill:#FFFFFF;}
	.st8{clip-path:url(#SVGID_7_);fill:#FFFFFF;}
	.st9{clip-path:url(#SVGID_9_);fill:none;}
	.st10{clip-path:url(#SVGID_11_);fill:none;}
	.st11{clip-path:url(#SVGID_13_);fill:none;}
	.st12{clip-path:url(#SVGID_15_);fill:none;}
	.st13{clip-path:url(#SVGID_17_);fill:none;}
	.st14{clip-path:url(#SVGID_19_);fill:none;}
	.st15{clip-path:url(#SVGID_21_);fill:none;}
	.st16{clip-path:url(#SVGID_23_);fill:none;}
	.st17{clip-path:url(#SVGID_25_);fill:none;}
	.st18{clip-path:url(#SVGID_27_);fill:none;}
	.st19{clip-path:url(#SVGID_29_);fill:none;}
	.st20{clip-path:url(#SVGID_31_);fill:none;}
	.st21{clip-path:url(#SVGID_33_);fill:none;}
	.st22{clip-path:url(#SVGID_35_);fill:none;}
	.st23{clip-path:url(#SVGID_37_);fill:none;}
	.st24{clip-path:url(#SVGID_39_);fill:none;}
	.st25{clip-path:url(#SVGID_41_);fill:none;}
	.st26{clip-path:url(#SVGID_43_);fill:none;}
	.st27{clip-path:url(#SVGID_45_);fill:none;}
	.st28{clip-path:url(#SVGID_47_);fill:none;}
	.st29{clip-path:url(#SVGID_49_);fill:none;}
	.st30{clip-path:url(#SVGID_51_);fill:#F6F6F5;}
	.st31{clip-path:url(#SVGID_53_);fill:none;}
	.st32{clip-path:url(#SVGID_55_);fill:none;}
	.st33{clip-path:url(#SVGID_57_);fill:none;}
	.st34{clip-path:url(#SVGID_59_);fill:none;}
	.st35{clip-path:url(#SVGID_61_);fill:none;}
	.st36{clip-path:url(#SVGID_63_);fill:none;}
	.st37{clip-path:url(#SVGID_65_);fill:#F2F2F2;}
	.st38{clip-path:url(#SVGID_67_);fill:none;}
	.st39{clip-path:url(#SVGID_69_);fill:none;}
	.st40{clip-path:url(#SVGID_71_);fill:none;}
	.st41{clip-path:url(#SVGID_73_);fill:none;}
	.st42{clip-path:url(#SVGID_75_);fill:none;}
	.st43{clip-path:url(#SVGID_77_);fill:#F0F0F0;}
	.st44{clip-path:url(#SVGID_79_);fill:#F0F0F0;}
	.st45{clip-path:url(#SVGID_81_);fill:#EFEFEF;}
	.st46{clip-path:url(#SVGID_83_);fill:#EEEEEE;}
	.st47{clip-path:url(#SVGID_85_);fill:#EDEDED;}
	.st48{clip-path:url(#SVGID_87_);fill:#ECECEC;}
	.st49{clip-path:url(#SVGID_89_);fill:#ECEBEB;}
	.st50{clip-path:url(#SVGID_91_);fill:#EBEAEB;}
	.st51{clip-path:url(#SVGID_93_);fill:#EAEAEA;}
	.st52{clip-path:url(#SVGID_95_);fill:#E9E9E9;}
	.st53{clip-path:url(#SVGID_97_);fill:#E8E8E8;}
	.st54{clip-path:url(#SVGID_99_);fill:#E7E7E7;}
	.st55{clip-path:url(#SVGID_101_);fill:#E6E6E6;}
	.st56{fill:#CCCCCB;}
	.st57{fill:#D97C17;}
</style>
<g>
	<path class="st0" d="M140.8,0.2c-3.5,0-40.3,0-60.8,0c-1.7,0-3.5,1.8-3.5,3.5c0,10.6,0,31.7,0,35.2s1.7,5.3,5.2,5.3
		c19.4,0,55.6,0,59.1,0s5.2-1.8,5.2-5.3s0-21.7,0-33.4C146,2,144.3,0.2,140.8,0.2z"/>
</g>
<g id="Master" transform="translate(-1.000000, 0.000000)">
	<g id="path2268">
		<path class="st1" d="M135.9,22.2c0,8.2-6.6,14.9-14.7,14.9s-14.7-6.6-14.7-14.9l0,0c0-8.2,6.6-14.9,14.7-14.9
			C129.3,7.3,135.9,14,135.9,22.2L135.9,22.2L135.9,22.2L135.9,22.2L135.9,22.2z"/>
	</g>
	<g id="path1350">
		<path class="st2" d="M101.4,7.3C93.3,7.4,86.8,14,86.8,22.2s6.6,14.9,14.7,14.9c3.8,0,7.3-1.5,9.9-3.9l0,0l0,0
			c0.5-0.5,1-1,1.5-1.6h-3c-0.4-0.5-0.8-1-1.1-1.5h5.2c0.3-0.5,0.6-1,0.8-1.6h-6.9c-0.2-0.5-0.4-1-0.6-1.6h8.1
			c0.5-1.5,0.7-3.1,0.7-4.7c0-1.1-0.1-2.2-0.3-3.2h-9c0.1-0.5,0.2-1,0.4-1.6h8.1c-0.2-0.5-0.4-1.1-0.6-1.6h-6.9
			c0.2-0.5,0.5-1.1,0.8-1.6h5.2c-0.3-0.6-0.7-1.1-1.1-1.6h-2.9c0.4-0.5,0.9-1,1.5-1.5C108.8,8.8,105.3,7.3,101.4,7.3
			C101.5,7.3,101.4,7.3,101.4,7.3L101.4,7.3L101.4,7.3L101.4,7.3z"/>
	</g>
	<g id="path4157">
		<path class="st3" d="M106.8,26l0.2-1.3c-0.1,0-0.3,0-0.4,0c-0.5,0-0.6-0.3-0.6-0.5l0.4-2.7h0.8l0.2-1.5h-0.8l0.2-0.9h-1.6
			c0,0-0.9,5.2-0.9,5.8c0,0.9,0.5,1.3,1.2,1.3C106.2,26.2,106.6,26,106.8,26C106.8,26,106.6,26,106.8,26L106.8,26L106.8,26z"/>
	</g>
	<g id="path4155">
		<path class="st3" d="M107.3,23.4c0,2.2,1.5,2.8,2.7,2.8s1.7-0.3,1.7-0.3l0.3-1.5c0,0-0.9,0.4-1.7,0.4c-1.7,0-1.4-1.3-1.4-1.3h3.2
			c0,0,0.2-1,0.2-1.4c0-1-0.5-2.3-2.2-2.3S107.3,21.5,107.3,23.4C107.3,23.4,107.3,21.5,107.3,23.4L107.3,23.4L107.3,23.4z
			 M110,21.2c0.9,0,0.7,1,0.7,1.1H109C109,22.1,109.2,21.2,110,21.2C110,21.2,109.2,21.2,110,21.2L110,21.2L110,21.2z"/>
	</g>
	<g id="path4151">
		<path class="st3" d="M119.9,26l0.3-1.7c0,0-0.8,0.4-1.3,0.4c-1.1,0-1.6-0.9-1.6-1.8c0-1.9,1-2.9,2-2.9c0.8,0,1.4,0.5,1.4,0.5
			l0.2-1.7c0,0-0.9-0.4-1.8-0.4c-1.8,0-3.6,1.6-3.6,4.6c0,2,0.9,3.3,2.8,3.3C119.1,26.2,119.9,26,119.9,26L119.9,26L119.9,26
			L119.9,26z"/>
	</g>
	<g id="path4149">
		<path class="st3" d="M98.2,19.9c-1.1,0-1.9,0.3-1.9,0.3l-0.2,1.4c0,0,0.7-0.3,1.7-0.3c0.6,0,1,0.1,1,0.5c0,0.3-0.1,0.4-0.1,0.4
			s-0.5,0-0.7,0c-1.3,0-2.8,0.6-2.8,2.3c0,1.4,0.9,1.7,1.5,1.7c1.1,0,1.6-0.7,1.6-0.7L98.2,26h1.4l0.6-4.4
			C100.3,19.9,98.7,19.9,98.2,19.9L98.2,19.9L98.2,19.9L98.2,19.9z M98.5,23.4c0,0.3-0.2,1.5-1.1,1.5c-0.5,0-0.6-0.4-0.6-0.6
			c0-0.4,0.2-1,1.4-1C98.4,23.4,98.5,23.4,98.5,23.4L98.5,23.4L98.5,23.4L98.5,23.4z"/>
	</g>
	<g id="path4145">
		<path class="st3" d="M101.8,26.1c0.3,0,2.4,0.1,2.4-2c0-2-1.9-1.6-1.9-2.4c0-0.4,0.3-0.5,0.9-0.5c0.2,0,1.1,0.1,1.1,0.1l0.2-1.4
			c0,0-0.6-0.1-1.4-0.1c-1.2,0-2.3,0.5-2.3,2.1c0,1.8,2,1.6,2,2.4c0,0.5-0.5,0.6-1,0.6c-0.7,0-1.4-0.3-1.4-0.3l-0.3,1.3
			C100.1,25.9,100.5,26.1,101.8,26.1C101.8,26.1,100.5,26.1,101.8,26.1L101.8,26.1L101.8,26.1z"/>
	</g>
	<g id="path4139">
		<path class="st3" d="M132.9,18.5l-0.3,2.1c0,0-0.6-0.8-1.5-0.8c-1.4,0-2.6,1.7-2.6,3.7c0,1.3,0.6,2.6,1.9,2.6
			c0.9,0,1.5-0.7,1.5-0.7l-0.1,0.6h1.5l1.2-7.5L132.9,18.5L132.9,18.5L132.9,18.5L132.9,18.5z M132.1,22.6c0,0.8-0.4,2-1.2,2
			c-0.6,0-0.8-0.5-0.8-1.2c0-1.2,0.5-2,1.2-2C131.9,21.4,132.1,21.8,132.1,22.6C132.1,22.6,132.1,21.8,132.1,22.6L132.1,22.6
			L132.1,22.6z"/>
	</g>
	<g id="path4133">
		<path class="st3" d="M89.7,26l1-5.7l0.1,5.7h1.1l2-5.7L93,26.1h1.6l1.2-7.5h-2.5l-1.5,4.6l-0.1-4.6h-2.3L88.2,26H89.7L89.7,26
			L89.7,26L89.7,26z"/>
	</g>
	<g id="path4131">
		<path class="st3" d="M113.8,26.1c0.5-2.6,0.5-4.7,1.6-4.4c0.2-1,0.4-1.4,0.6-1.8c0,0-0.1,0-0.3,0c-0.7,0-1.2,1-1.2,1l0.1-0.9h-1.5
			l-1,6.1L113.8,26.1L113.8,26.1L113.8,26.1L113.8,26.1z"/>
	</g>
	<g id="path4149_1_">
		<path class="st3" d="M123.5,19.9c-1.1,0-1.9,0.3-1.9,0.3l-0.2,1.4c0,0,0.7-0.3,1.7-0.3c0.6,0,1,0.1,1,0.5c0,0.3-0.1,0.4-0.1,0.4
			s-0.5,0-0.7,0c-1.3,0-2.8,0.6-2.8,2.3c0,1.4,0.9,1.7,1.5,1.7c1.1,0,1.6-0.7,1.6-0.7l-0.1,0.6h1.6l0.6-4.4
			C125.7,19.9,124.1,19.9,123.5,19.9L123.5,19.9L123.5,19.9L123.5,19.9z M123.9,23.4c0,0.3-0.2,1.5-1.1,1.5c-0.5,0-0.6-0.4-0.6-0.6
			c0-0.4,0.2-1,1.4-1C123.8,23.4,123.8,23.4,123.9,23.4C123.9,23.4,123.8,23.4,123.9,23.4L123.9,23.4L123.9,23.4z"/>
	</g>
	<g id="path4131_1_">
		<path class="st3" d="M126.9,26.1c0.5-2.6,0.5-4.7,1.6-4.4c0.2-1,0.4-1.4,0.6-1.8c0,0-0.1,0-0.3,0c-0.7,0-1.2,1-1.2,1l0.1-0.9h-1.5
			l-1,6.1L126.9,26.1L126.9,26.1L126.9,26.1L126.9,26.1z"/>
	</g>
</g>
<g id="Rectangle-1_7_">
	<g>
		
			<linearGradient id="SVGID_1_" gradientUnits="userSpaceOnUse" x1="0.2" y1="19.3" x2="69.3" y2="19.3" gradientTransform="matrix(1 0 0 1 0 3)">
			<stop  offset="0" style="stop-color:#FFFFFF"/>
			<stop  offset="1" style="stop-color:#E3E3E3"/>
		</linearGradient>
		<path class="st4" d="M5.3,43.8c-3.4,0-5.1-1.7-5.1-5.1V3.9c0-1.7,1.7-3.3,3.3-3.3h60.7c3.4,0,5.1,1.7,5.1,5.1v33.1
			c0,3.4-1.7,5.1-5.1,5.1C64.3,43.8,5.3,43.8,5.3,43.8z"/>
		<path class="st5" d="M64.3,0.7c3.3,0,4.9,1.6,4.9,5v33.1c0,3.3-1.6,4.9-4.9,4.9h-59c-3.3,0-4.9-1.6-4.9-4.9V3.9
			c0-1.6,1.6-3.2,3.2-3.2L64.3,0.7 M64.3,0.4c-3.5,0-40.2,0-60.7,0c-1.7,0-3.5,1.7-3.5,3.5v34.9c0,3.5,1.7,5.2,5.2,5.2
			c19.3,0,55.5,0,59,0s5.2-1.7,5.2-5.2V5.6C69.5,2.1,67.8,0.4,64.3,0.4L64.3,0.4z"/>
	</g>
</g>
<g>
	<g>
		<g>
			<g>
				<g>
					<defs>
						<path id="SVGID_2_" d="M0.1,3.9c0-1.7,1.7-3.4,3.4-3.4h60.8c3.5,0,5.1,1.7,5.1,5.1"/>
					</defs>
					<clipPath id="SVGID_3_">
						<use xlink:href="#SVGID_2_"  style="overflow:visible;"/>
					</clipPath>
					<polygon class="st6" points="11.2,0.5 0.1,9.3 0.1,0.5 					"/>
				</g>
			</g>
		</g>
		<g>
			<g>
				<g>
					<defs>
						<path id="SVGID_4_" d="M0.1,3.9c0-1.7,1.7-3.4,3.4-3.4h60.8c3.5,0,5.1,1.7,5.1,5.1"/>
					</defs>
					<clipPath id="SVGID_5_">
						<use xlink:href="#SVGID_4_"  style="overflow:visible;"/>
					</clipPath>
					<polyline class="st7" points="0.1,9.3 11.2,0.5 15,0.5 					"/>
				</g>
			</g>
		</g>
		<g>
			<g>
				<g>
					<defs>
						<path id="SVGID_6_" d="M0.1,3.9c0-1.7,1.7-3.4,3.4-3.4h60.8c3.5,0,5.1,1.7,5.1,5.1"/>
					</defs>
					<clipPath id="SVGID_7_">
						<use xlink:href="#SVGID_6_"  style="overflow:visible;"/>
					</clipPath>
					<path class="st8" d="M0.1,12.4"/>
				</g>
			</g>
		</g>
		<g>
			<g>
				<g>
					<defs>
						<path id="SVGID_8_" d="M0.1,3.9c0-1.7,1.7-3.4,3.4-3.4h60.8c3.5,0,5.1,1.7,5.1,5.1"/>
					</defs>
					<clipPath id="SVGID_9_">
						<use xlink:href="#SVGID_8_"  style="overflow:visible;"/>
					</clipPath>
					<line class="st9" x1="15" y1="0.5" x2="18.8" y2="0.5"/>
				</g>
			</g>
		</g>
		<g>
			<g>
				<g>
					<defs>
						<path id="SVGID_10_" d="M0.1,3.9c0-1.7,1.7-3.4,3.4-3.4h60.8c3.5,0,5.1,1.7,5.1,5.1"/>
					</defs>
					<clipPath id="SVGID_11_">
						<use xlink:href="#SVGID_10_"  style="overflow:visible;"/>
					</clipPath>
					<line class="st10" x1="0.1" y1="15.4" x2="0.1" y2="12.4"/>
				</g>
			</g>
		</g>
		<g>
			<g>
				<g>
					<defs>
						<path id="SVGID_12_" d="M0.1,3.9c0-1.7,1.7-3.4,3.4-3.4h60.8c3.5,0,5.1,1.7,5.1,5.1"/>
					</defs>
					<clipPath id="SVGID_13_">
						<use xlink:href="#SVGID_12_"  style="overflow:visible;"/>
					</clipPath>
					<line class="st11" x1="18.8" y1="0.5" x2="22.6" y2="0.5"/>
				</g>
			</g>
		</g>
		<g>
			<g>
				<g>
					<defs>
						<path id="SVGID_14_" d="M0.1,3.9c0-1.7,1.7-3.4,3.4-3.4h60.8c3.5,0,5.1,1.7,5.1,5.1"/>
					</defs>
					<clipPath id="SVGID_15_">
						<use xlink:href="#SVGID_14_"  style="overflow:visible;"/>
					</clipPath>
					<line class="st12" x1="0.1" y1="18.5" x2="0.1" y2="15.4"/>
				</g>
			</g>
		</g>
		<g>
			<g>
				<g>
					<defs>
						<path id="SVGID_16_" d="M0.1,3.9c0-1.7,1.7-3.4,3.4-3.4h60.8c3.5,0,5.1,1.7,5.1,5.1"/>
					</defs>
					<clipPath id="SVGID_17_">
						<use xlink:href="#SVGID_16_"  style="overflow:visible;"/>
					</clipPath>
					<line class="st13" x1="22.6" y1="0.5" x2="26.5" y2="0.5"/>
				</g>
			</g>
		</g>
		<g>
			<g>
				<g>
					<defs>
						<path id="SVGID_18_" d="M0.1,3.9c0-1.7,1.7-3.4,3.4-3.4h60.8c3.5,0,5.1,1.7,5.1,5.1"/>
					</defs>
					<clipPath id="SVGID_19_">
						<use xlink:href="#SVGID_18_"  style="overflow:visible;"/>
					</clipPath>
					<line class="st14" x1="0.1" y1="21.5" x2="0.1" y2="18.5"/>
				</g>
			</g>
		</g>
		<g>
			<g>
				<g>
					<defs>
						<path id="SVGID_20_" d="M0.1,3.9c0-1.7,1.7-3.4,3.4-3.4h60.8c3.5,0,5.1,1.7,5.1,5.1"/>
					</defs>
					<clipPath id="SVGID_21_">
						<use xlink:href="#SVGID_20_"  style="overflow:visible;"/>
					</clipPath>
					<line class="st15" x1="26.5" y1="0.5" x2="30.3" y2="0.5"/>
				</g>
			</g>
		</g>
		<g>
			<g>
				<g>
					<defs>
						<path id="SVGID_22_" d="M0.1,3.9c0-1.7,1.7-3.4,3.4-3.4h60.8c3.5,0,5.1,1.7,5.1,5.1"/>
					</defs>
					<clipPath id="SVGID_23_">
						<use xlink:href="#SVGID_22_"  style="overflow:visible;"/>
					</clipPath>
					<line class="st16" x1="0.1" y1="24.5" x2="0.1" y2="21.5"/>
				</g>
			</g>
		</g>
		<g>
			<g>
				<g>
					<defs>
						<path id="SVGID_24_" d="M0.1,3.9c0-1.7,1.7-3.4,3.4-3.4h60.8c3.5,0,5.1,1.7,5.1,5.1"/>
					</defs>
					<clipPath id="SVGID_25_">
						<use xlink:href="#SVGID_24_"  style="overflow:visible;"/>
					</clipPath>
					<line class="st17" x1="30.3" y1="0.5" x2="34.1" y2="0.5"/>
				</g>
			</g>
		</g>
		<g>
			<g>
				<g>
					<defs>
						<path id="SVGID_26_" d="M0.1,3.9c0-1.7,1.7-3.4,3.4-3.4h60.8c3.5,0,5.1,1.7,5.1,5.1"/>
					</defs>
					<clipPath id="SVGID_27_">
						<use xlink:href="#SVGID_26_"  style="overflow:visible;"/>
					</clipPath>
					<line class="st18" x1="0.1" y1="27.6" x2="0.1" y2="24.5"/>
				</g>
			</g>
		</g>
		<g>
			<g>
				<g>
					<defs>
						<path id="SVGID_28_" d="M0.1,3.9c0-1.7,1.7-3.4,3.4-3.4h60.8c3.5,0,5.1,1.7,5.1,5.1"/>
					</defs>
					<clipPath id="SVGID_29_">
						<use xlink:href="#SVGID_28_"  style="overflow:visible;"/>
					</clipPath>
					<line class="st19" x1="34.1" y1="0.5" x2="37.9" y2="0.5"/>
				</g>
			</g>
		</g>
		<g>
			<g>
				<g>
					<defs>
						<path id="SVGID_30_" d="M0.1,3.9c0-1.7,1.7-3.4,3.4-3.4h60.8c3.5,0,5.1,1.7,5.1,5.1"/>
					</defs>
					<clipPath id="SVGID_31_">
						<use xlink:href="#SVGID_30_"  style="overflow:visible;"/>
					</clipPath>
					<line class="st20" x1="0.1" y1="30.6" x2="0.1" y2="27.6"/>
				</g>
			</g>
		</g>
		<g>
			<g>
				<g>
					<defs>
						<path id="SVGID_32_" d="M0.1,3.9c0-1.7,1.7-3.4,3.4-3.4h60.8c3.5,0,5.1,1.7,5.1,5.1"/>
					</defs>
					<clipPath id="SVGID_33_">
						<use xlink:href="#SVGID_32_"  style="overflow:visible;"/>
					</clipPath>
					<line class="st21" x1="37.9" y1="0.5" x2="41.7" y2="0.5"/>
				</g>
			</g>
		</g>
		<g>
			<g>
				<g>
					<defs>
						<path id="SVGID_34_" d="M0.1,3.9c0-1.7,1.7-3.4,3.4-3.4h60.8c3.5,0,5.1,1.7,5.1,5.1"/>
					</defs>
					<clipPath id="SVGID_35_">
						<use xlink:href="#SVGID_34_"  style="overflow:visible;"/>
					</clipPath>
					<line class="st22" x1="0.1" y1="33.7" x2="0.1" y2="30.6"/>
				</g>
			</g>
		</g>
		<g>
			<g>
				<g>
					<defs>
						<path id="SVGID_36_" d="M0.1,3.9c0-1.7,1.7-3.4,3.4-3.4h60.8c3.5,0,5.1,1.7,5.1,5.1"/>
					</defs>
					<clipPath id="SVGID_37_">
						<use xlink:href="#SVGID_36_"  style="overflow:visible;"/>
					</clipPath>
					<line class="st23" x1="41.7" y1="0.5" x2="45.5" y2="0.5"/>
				</g>
			</g>
		</g>
		<g>
			<g>
				<g>
					<defs>
						<path id="SVGID_38_" d="M0.1,3.9c0-1.7,1.7-3.4,3.4-3.4h60.8c3.5,0,5.1,1.7,5.1,5.1"/>
					</defs>
					<clipPath id="SVGID_39_">
						<use xlink:href="#SVGID_38_"  style="overflow:visible;"/>
					</clipPath>
					<line class="st24" x1="0.1" y1="36.7" x2="0.1" y2="33.7"/>
				</g>
			</g>
		</g>
		<g>
			<g>
				<g>
					<defs>
						<path id="SVGID_40_" d="M0.1,3.9c0-1.7,1.7-3.4,3.4-3.4h60.8c3.5,0,5.1,1.7,5.1,5.1"/>
					</defs>
					<clipPath id="SVGID_41_">
						<use xlink:href="#SVGID_40_"  style="overflow:visible;"/>
					</clipPath>
					<line class="st25" x1="45.5" y1="0.5" x2="49.3" y2="0.5"/>
				</g>
			</g>
		</g>
		<g>
			<g>
				<g>
					<defs>
						<path id="SVGID_42_" d="M0.1,3.9c0-1.7,1.7-3.4,3.4-3.4h60.8c3.5,0,5.1,1.7,5.1,5.1"/>
					</defs>
					<clipPath id="SVGID_43_">
						<use xlink:href="#SVGID_42_"  style="overflow:visible;"/>
					</clipPath>
					<line class="st26" x1="0.1" y1="39.8" x2="0.1" y2="36.7"/>
				</g>
			</g>
		</g>
		<g>
			<g>
				<g>
					<defs>
						<path id="SVGID_44_" d="M0.1,3.9c0-1.7,1.7-3.4,3.4-3.4h60.8c3.5,0,5.1,1.7,5.1,5.1"/>
					</defs>
					<clipPath id="SVGID_45_">
						<use xlink:href="#SVGID_44_"  style="overflow:visible;"/>
					</clipPath>
					<line class="st27" x1="49.3" y1="0.5" x2="53.2" y2="0.5"/>
				</g>
			</g>
		</g>
		<g>
			<g>
				<g>
					<defs>
						<path id="SVGID_46_" d="M0.1,3.9c0-1.7,1.7-3.4,3.4-3.4h60.8c3.5,0,5.1,1.7,5.1,5.1"/>
					</defs>
					<clipPath id="SVGID_47_">
						<use xlink:href="#SVGID_46_"  style="overflow:visible;"/>
					</clipPath>
					<line class="st28" x1="0.1" y1="42.8" x2="0.1" y2="39.8"/>
				</g>
			</g>
		</g>
		<g>
			<g>
				<g>
					<defs>
						<path id="SVGID_48_" d="M0.1,3.9c0-1.7,1.7-3.4,3.4-3.4h60.8c3.5,0,5.1,1.7,5.1,5.1"/>
					</defs>
					<clipPath id="SVGID_49_">
						<use xlink:href="#SVGID_48_"  style="overflow:visible;"/>
					</clipPath>
					<line class="st29" x1="53.2" y1="0.5" x2="57" y2="0.5"/>
				</g>
			</g>
		</g>
		<g>
			<g>
				<g>
					<defs>
						<path id="SVGID_50_" d="M0.1,3.9c0-1.7,1.7-3.4,3.4-3.4h60.8c3.5,0,5.1,1.7,5.1,5.1"/>
					</defs>
					<clipPath id="SVGID_51_">
						<use xlink:href="#SVGID_50_"  style="overflow:visible;"/>
					</clipPath>
					<polyline class="st30" points="2.7,43.8 0.1,43.8 0.1,42.8 					"/>
				</g>
			</g>
		</g>
		<g>
			<g>
				<g>
					<defs>
						<path id="SVGID_52_" d="M0.1,3.9c0-1.7,1.7-3.4,3.4-3.4h60.8c3.5,0,5.1,1.7,5.1,5.1"/>
					</defs>
					<clipPath id="SVGID_53_">
						<use xlink:href="#SVGID_52_"  style="overflow:visible;"/>
					</clipPath>
					<line class="st31" x1="57" y1="0.5" x2="60.8" y2="0.5"/>
				</g>
			</g>
		</g>
		<g>
			<g>
				<g>
					<defs>
						<path id="SVGID_54_" d="M0.1,3.9c0-1.7,1.7-3.4,3.4-3.4h60.8c3.5,0,5.1,1.7,5.1,5.1"/>
					</defs>
					<clipPath id="SVGID_55_">
						<use xlink:href="#SVGID_54_"  style="overflow:visible;"/>
					</clipPath>
					<line class="st32" x1="6.5" y1="43.8" x2="2.7" y2="43.8"/>
				</g>
			</g>
		</g>
		<g>
			<g>
				<g>
					<defs>
						<path id="SVGID_56_" d="M0.1,3.9c0-1.7,1.7-3.4,3.4-3.4h60.8c3.5,0,5.1,1.7,5.1,5.1"/>
					</defs>
					<clipPath id="SVGID_57_">
						<use xlink:href="#SVGID_56_"  style="overflow:visible;"/>
					</clipPath>
					<line class="st33" x1="60.8" y1="0.5" x2="64.6" y2="0.5"/>
				</g>
			</g>
		</g>
		<g>
			<g>
				<g>
					<defs>
						<path id="SVGID_58_" d="M0.1,3.9c0-1.7,1.7-3.4,3.4-3.4h60.8c3.5,0,5.1,1.7,5.1,5.1"/>
					</defs>
					<clipPath id="SVGID_59_">
						<use xlink:href="#SVGID_58_"  style="overflow:visible;"/>
					</clipPath>
					<line class="st34" x1="10.3" y1="43.8" x2="6.5" y2="43.8"/>
				</g>
			</g>
		</g>
		<g>
			<g>
				<g>
					<defs>
						<path id="SVGID_60_" d="M0.1,3.9c0-1.7,1.7-3.4,3.4-3.4h60.8c3.5,0,5.1,1.7,5.1,5.1"/>
					</defs>
					<clipPath id="SVGID_61_">
						<use xlink:href="#SVGID_60_"  style="overflow:visible;"/>
					</clipPath>
					<line class="st35" x1="64.6" y1="0.5" x2="68.4" y2="0.5"/>
				</g>
			</g>
		</g>
		<g>
			<g>
				<g>
					<defs>
						<path id="SVGID_62_" d="M0.1,3.9c0-1.7,1.7-3.4,3.4-3.4h60.8c3.5,0,5.1,1.7,5.1,5.1"/>
					</defs>
					<clipPath id="SVGID_63_">
						<use xlink:href="#SVGID_62_"  style="overflow:visible;"/>
					</clipPath>
					<line class="st36" x1="14.1" y1="43.8" x2="10.3" y2="43.8"/>
				</g>
			</g>
		</g>
		<g>
			<g>
				<g>
					<defs>
						<path id="SVGID_64_" d="M0.1,3.9c0-1.7,1.7-3.4,3.4-3.4h60.8c3.5,0,5.1,1.7,5.1,5.1"/>
					</defs>
					<clipPath id="SVGID_65_">
						<use xlink:href="#SVGID_64_"  style="overflow:visible;"/>
					</clipPath>
					<polyline class="st37" points="68.4,0.5 69.5,0.5 69.5,2.7 					"/>
				</g>
			</g>
		</g>
		<g>
			<g>
				<g>
					<defs>
						<path id="SVGID_66_" d="M0.1,3.9c0-1.7,1.7-3.4,3.4-3.4h60.8c3.5,0,5.1,1.7,5.1,5.1"/>
					</defs>
					<clipPath id="SVGID_67_">
						<use xlink:href="#SVGID_66_"  style="overflow:visible;"/>
					</clipPath>
					<line class="st38" x1="17.9" y1="43.8" x2="14.1" y2="43.8"/>
				</g>
			</g>
		</g>
		<g>
			<g>
				<g>
					<defs>
						<path id="SVGID_68_" d="M0.1,3.9c0-1.7,1.7-3.4,3.4-3.4h60.8c3.5,0,5.1,1.7,5.1,5.1"/>
					</defs>
					<clipPath id="SVGID_69_">
						<use xlink:href="#SVGID_68_"  style="overflow:visible;"/>
					</clipPath>
					<line class="st39" x1="69.5" y1="2.7" x2="69.5" y2="5.8"/>
				</g>
			</g>
		</g>
		<g>
			<g>
				<g>
					<defs>
						<path id="SVGID_70_" d="M0.1,3.9c0-1.7,1.7-3.4,3.4-3.4h60.8c3.5,0,5.1,1.7,5.1,5.1"/>
					</defs>
					<clipPath id="SVGID_71_">
						<use xlink:href="#SVGID_70_"  style="overflow:visible;"/>
					</clipPath>
					<line class="st40" x1="21.7" y1="43.8" x2="17.9" y2="43.8"/>
				</g>
			</g>
		</g>
		<g>
			<g>
				<g>
					<defs>
						<path id="SVGID_72_" d="M0.1,3.9c0-1.7,1.7-3.4,3.4-3.4h60.8c3.5,0,5.1,1.7,5.1,5.1"/>
					</defs>
					<clipPath id="SVGID_73_">
						<use xlink:href="#SVGID_72_"  style="overflow:visible;"/>
					</clipPath>
					<line class="st41" x1="69.5" y1="5.8" x2="69.5" y2="8.8"/>
				</g>
			</g>
		</g>
		<g>
			<g>
				<g>
					<defs>
						<path id="SVGID_74_" d="M0.1,3.9c0-1.7,1.7-3.4,3.4-3.4h60.8c3.5,0,5.1,1.7,5.1,5.1"/>
					</defs>
					<clipPath id="SVGID_75_">
						<use xlink:href="#SVGID_74_"  style="overflow:visible;"/>
					</clipPath>
					<line class="st42" x1="25.5" y1="43.8" x2="21.7" y2="43.8"/>
				</g>
			</g>
		</g>
		<g>
			<g>
				<g>
					<defs>
						<path id="SVGID_76_" d="M0.1,3.9c0-1.7,1.7-3.4,3.4-3.4h60.8c3.5,0,5.1,1.7,5.1,5.1"/>
					</defs>
					<clipPath id="SVGID_77_">
						<use xlink:href="#SVGID_76_"  style="overflow:visible;"/>
					</clipPath>
					<path class="st43" d="M69.5,8.8"/>
				</g>
			</g>
		</g>
		<g>
			<g>
				<g>
					<defs>
						<path id="SVGID_78_" d="M0.1,3.9c0-1.7,1.7-3.4,3.4-3.4h60.8c3.5,0,5.1,1.7,5.1,5.1"/>
					</defs>
					<clipPath id="SVGID_79_">
						<use xlink:href="#SVGID_78_"  style="overflow:visible;"/>
					</clipPath>
					<polyline class="st44" points="69.5,11.9 29.4,43.8 25.5,43.8 					"/>
				</g>
			</g>
		</g>
		<g>
			<g>
				<g>
					<defs>
						<path id="SVGID_80_" d="M0.1,3.9c0-1.7,1.7-3.4,3.4-3.4h60.8c3.5,0,5.1,1.7,5.1,5.1"/>
					</defs>
					<clipPath id="SVGID_81_">
						<use xlink:href="#SVGID_80_"  style="overflow:visible;"/>
					</clipPath>
					<polygon class="st45" points="69.5,14.9 33.2,43.8 29.4,43.8 69.5,11.9 					"/>
				</g>
			</g>
		</g>
		<g>
			<g>
				<g>
					<defs>
						<path id="SVGID_82_" d="M0.1,3.9c0-1.7,1.7-3.4,3.4-3.4h60.8c3.5,0,5.1,1.7,5.1,5.1"/>
					</defs>
					<clipPath id="SVGID_83_">
						<use xlink:href="#SVGID_82_"  style="overflow:visible;"/>
					</clipPath>
					<polygon class="st46" points="69.5,18 37,43.8 33.2,43.8 69.5,14.9 					"/>
				</g>
			</g>
		</g>
		<g>
			<g>
				<g>
					<defs>
						<path id="SVGID_84_" d="M0.1,3.9c0-1.7,1.7-3.4,3.4-3.4h60.8c3.5,0,5.1,1.7,5.1,5.1"/>
					</defs>
					<clipPath id="SVGID_85_">
						<use xlink:href="#SVGID_84_"  style="overflow:visible;"/>
					</clipPath>
					<polygon class="st47" points="69.5,21 40.8,43.8 37,43.8 69.5,18 					"/>
				</g>
			</g>
		</g>
		<g>
			<g>
				<g>
					<defs>
						<path id="SVGID_86_" d="M0.1,3.9c0-1.7,1.7-3.4,3.4-3.4h60.8c3.5,0,5.1,1.7,5.1,5.1"/>
					</defs>
					<clipPath id="SVGID_87_">
						<use xlink:href="#SVGID_86_"  style="overflow:visible;"/>
					</clipPath>
					<polygon class="st48" points="69.5,24 44.6,43.8 40.8,43.8 69.5,21 					"/>
				</g>
			</g>
		</g>
		<g>
			<g>
				<g>
					<defs>
						<path id="SVGID_88_" d="M0.1,3.9c0-1.7,1.7-3.4,3.4-3.4h60.8c3.5,0,5.1,1.7,5.1,5.1"/>
					</defs>
					<clipPath id="SVGID_89_">
						<use xlink:href="#SVGID_88_"  style="overflow:visible;"/>
					</clipPath>
					<polygon class="st49" points="69.5,27.1 48.4,43.8 44.6,43.8 69.5,24 					"/>
				</g>
			</g>
		</g>
		<g>
			<g>
				<g>
					<defs>
						<path id="SVGID_90_" d="M0.1,3.9c0-1.7,1.7-3.4,3.4-3.4h60.8c3.5,0,5.1,1.7,5.1,5.1"/>
					</defs>
					<clipPath id="SVGID_91_">
						<use xlink:href="#SVGID_90_"  style="overflow:visible;"/>
					</clipPath>
					<polygon class="st50" points="69.5,30.1 52.2,43.8 48.4,43.8 69.5,27.1 					"/>
				</g>
			</g>
		</g>
		<g>
			<g>
				<g>
					<defs>
						<path id="SVGID_92_" d="M0.1,3.9c0-1.7,1.7-3.4,3.4-3.4h60.8c3.5,0,5.1,1.7,5.1,5.1"/>
					</defs>
					<clipPath id="SVGID_93_">
						<use xlink:href="#SVGID_92_"  style="overflow:visible;"/>
					</clipPath>
					<polygon class="st51" points="69.5,33.1 56.1,43.8 52.2,43.8 69.5,30.1 					"/>
				</g>
			</g>
		</g>
		<g>
			<g>
				<g>
					<defs>
						<path id="SVGID_94_" d="M0.1,3.9c0-1.7,1.7-3.4,3.4-3.4h60.8c3.5,0,5.1,1.7,5.1,5.1"/>
					</defs>
					<clipPath id="SVGID_95_">
						<use xlink:href="#SVGID_94_"  style="overflow:visible;"/>
					</clipPath>
					<polygon class="st52" points="69.5,36.2 59.9,43.8 56.1,43.8 69.5,33.1 					"/>
				</g>
			</g>
		</g>
		<g>
			<g>
				<g>
					<defs>
						<path id="SVGID_96_" d="M0.1,3.9c0-1.7,1.7-3.4,3.4-3.4h60.8c3.5,0,5.1,1.7,5.1,5.1"/>
					</defs>
					<clipPath id="SVGID_97_">
						<use xlink:href="#SVGID_96_"  style="overflow:visible;"/>
					</clipPath>
					<polygon class="st53" points="69.5,39.2 63.7,43.8 59.9,43.8 69.5,36.2 					"/>
				</g>
			</g>
		</g>
		<g>
			<g>
				<g>
					<defs>
						<path id="SVGID_98_" d="M0.1,3.9c0-1.7,1.7-3.4,3.4-3.4h60.8c3.5,0,5.1,1.7,5.1,5.1"/>
					</defs>
					<clipPath id="SVGID_99_">
						<use xlink:href="#SVGID_98_"  style="overflow:visible;"/>
					</clipPath>
					<polygon class="st54" points="69.5,42.3 67.5,43.8 63.7,43.8 69.5,39.2 					"/>
				</g>
			</g>
		</g>
		<g>
			<g>
				<g>
					<defs>
						<path id="SVGID_100_" d="M0.1,3.9c0-1.7,1.7-3.4,3.4-3.4h60.8c3.5,0,5.1,1.7,5.1,5.1"/>
					</defs>
					<clipPath id="SVGID_101_">
						<use xlink:href="#SVGID_100_"  style="overflow:visible;"/>
					</clipPath>
					<polygon class="st55" points="67.5,43.8 69.5,42.3 69.5,43.8 					"/>
				</g>
			</g>
		</g>
	</g>
</g>
<g>
	<path class="st56" d="M0.2,3.9c0-1.7,1.7-3.3,3.3-3.3h60.8 M69.4,38.7c0,1.7-0.4,3-1.3,3.8c-0.8,0.8-2.1,1.3-3.8,1.3H5.2
		c-1.7,0-3-0.4-3.8-1.3c-0.8-0.8-1.3-2.1-1.3-3.8 M64.3,0.6c1.7,0,3,0.4,3.8,1.3c0.8,0.8,1.3,2.1,1.3,3.8 M69.5,5.7
		c0-3.5-1.7-5.2-5.2-5.2l0,0c-3.5,0-40.2,0-60.8,0C1.8,0.5,0,2.2,0,4 M0,38.7c0,3.5,1.7,5.2,5.2,5.2c19.4,0,55.6,0,59.1,0
		s5.2-1.7,5.2-5.2"/>
</g>
<g id="Visa">
	<g id="Rectangle-1_3_">
		<path class="st0" d="M69.5,5.3c0-3.5-1.7-5.2-5.2-5.2s-40.2,0-60.7,0c-1.7,0-3.5,1.7-3.5,3.5v5.2h69.4"/>
	</g>
	<g id="Rectangle-1_1_">
		<path class="st57" d="M0.1,34.8c0,0,0,0,0,3.5s1.7,5.2,5.2,5.2c19.3,0,55.5,0,59,0s5.2-1.7,5.2-5.2v-3.5H0.1z"/>
	</g>
	<g id="Shape_16_">
		<path class="st0" d="M48.5,13c-1-0.4-2.5-0.8-4.4-0.8c-4.8,0-8.3,2.5-8.3,6.1c0,2.7,2.4,4.1,4.3,5s2.6,1.5,2.5,2.3
			c0,1.2-1.5,1.8-2.9,1.8c-2,0-3-0.3-4.6-1l-0.6-0.3l-0.7,4.1c1.2,0.5,3.3,1,5.5,1c5.2,0,8.5-2.5,8.5-6.3c0-2.1-1.3-3.7-4.1-5
			c-1.7-0.8-2.8-1.4-2.7-2.3c0-0.8,0.9-1.6,2.8-1.6c1.6,0,2.8,0.3,3.7,0.7l0.4,0.2L48.5,13"/>
	</g>
	<g id="Shape_15_">
		<path class="st0" d="M61.1,12.6h-3.8c-1.2,0-2.1,0.3-2.6,1.5l-7.3,16.8h5.1c0,0,0.8-2.3,1-2.8c0.6,0,5.6,0,6.3,0
			c0.2,0.7,0.6,2.7,0.6,2.7H65L61.1,12.6L61.1,12.6z M55,24.4c0.4-1.1,2-5.1,2-5.1c0,0.1,0.4-1.1,0.7-1.7l0.3,1.6
			c0,0,0.9,4.4,1.1,5.3L55,24.4L55,24.4L55,24.4L55,24.4z"/>
	</g>
	<g id="Shape_14_">
		<path class="st0" d="M25.8,31l3.1-18.4h4.9L30.7,31H25.8z"/>
	</g>
	<g id="Shape_13_">
		<path class="st0" d="M21.7,12.6l-4.8,12.5l-0.6-2.5c-0.9-2.9-3.7-6.1-6.8-7.7L13.9,31h5.2l7.7-18.4L21.7,12.6"/>
	</g>
	<g id="Shape_12_">
		<path class="st57" d="M12.4,12.6H4.5L4.4,13c6.1,1.5,10.2,5.2,11.9,9.6l-1.7-8.5C14.3,13,13.5,12.6,12.4,12.6"/>
	</g>
</g>
</svg>
