<?xml version="1.0" encoding="UTF-8" standalone="no"?>
<svg xmlns="http://www.w3.org/2000/svg" height="32px" width="171px" version="1.1" xmlns:xlink="http://www.w3.org/1999/xlink" viewBox="0 0 171 32">
 <g id="Symbols" fill-rule="evenodd" fill="none">
  <g id="logo/website/mobile/blocket-header" fill="#EF404F">
   <g id="Page-1" transform="translate(0 3)">
    <path id="Fill-1" d="m119.2 1.7476c0 0.9074-0.53 1.4391-1.44 1.4391-0.9 0-1.43-0.5317-1.43-1.4391 0-0.90708 0.53-1.4391 1.43-1.4391 0.91 0.00002 1.44 0.53202 1.44 1.4391zm-0.49 3.2886v18.827c0 2.44-1.59 3.96-3.85 3.96-1.2 0-2.41-0.389-3.4-1.096l0.85-1.485c0.74 0.495 1.56 0.778 2.34 0.778 1.37 0 2.15-0.92 2.15-2.51v-18.474l1.91 0.0002z"/>
    <path id="Fill-3" d="m134.63 14.215c0-4.7372-2.23-7.4238-6.04-7.4238-3.79 0-6.01 2.6866-6.01 7.4238 0 4.701 2.22 7.388 6.01 7.388 3.81 0 6.04-2.687 6.04-7.388m-14 0c0-5.6916 3.04-9.156 7.96-9.156 4.95 0 7.99 3.4644 7.99 9.156 0 5.656-3.04 9.12-7.99 9.12-4.92 0-7.96-3.464-7.96-9.12"/>
    <path id="Fill-5" d="m151 14.25c0-4.7369-2.05-7.5296-5.58-7.5296-1.77 0-3.65 0.707-5.13 1.909v12.161c0.95 0.566 2.44 0.919 4.06 0.919 4.42 0 6.65-2.51 6.65-7.459m1.94 0c0 5.904-2.96 9.085-8.51 9.085-2.23 0-4.6-0.495-6.05-1.272v-21.771l1.91-0.00019v6.6407c1.52-1.2373 3.43-1.8737 5.37-1.8737 4.53 0 7.28 3.4997 7.28 9.1912"/>
    <path id="Fill-7" d="m167.36 14.25c0-4.7369-2.05-7.5296-5.59-7.5296-1.76 0-3.64 0.707-5.12 1.909v12.161c0.95 0.566 2.44 0.919 4.06 0.919 4.42 0 6.65-2.51 6.65-7.459m1.94 0c0 5.904-2.97 9.085-8.52 9.085-2.22 0-4.59-0.495-6.04-1.272v-21.771l1.91-0.00019v6.6407c1.52-1.2373 3.43-1.8737 5.37-1.8737 4.53 0 7.28 3.4997 7.28 9.1912"/>
    <path id="Fill-15" d="m9.6384 16.299c-0.5962 0.608-1.5257 0.839-2.4556 0.845-0.4185-0.003-0.8353-0.054-1.2232-0.162v-6.274c0.3879-0.107 0.8047-0.159 1.2232-0.162 0.9299 0.006 1.8594 0.237 2.4556 0.845 0.6086 0.596 0.8396 1.525 0.8456 2.454-0.006 0.929-0.237 1.858-0.8456 2.454m5.0136-9.1121c-1.618-1.6497-4.141-2.2768-6.6636-2.294-0.6822 0.0047-1.3644 0.0554-2.0288 0.1575v-4.7588l-5.9596-0.00002-0.000029167 22.505h7.9884c2.5226-0.017 5.0456-0.644 6.6636-2.294 1.65-1.616 2.278-4.137 2.295-6.658-0.017-2.521-0.645-5.0417-2.295-6.6581"/>
    <polygon id="Fill-12" points="18.431 22.797 24.39 22.797 24.39 0.29167 18.431 0.29167"/>
    <path id="Fill-14" d="m36.749 16.647c-0.465 0.608-1.19 0.84-1.915 0.846-0.725-0.006-1.45-0.238-1.915-0.846-0.475-0.596-0.655-1.526-0.66-2.456 0.005-0.929 0.185-1.859 0.66-2.455 0.465-0.609 1.19-0.84 1.915-0.846 0.725 0.006 1.45 0.237 1.915 0.846 0.475 0.596 0.655 1.526 0.66 2.455-0.005 0.93-0.185 1.86-0.66 2.456m4.748-9.1185c-1.618-1.6508-4.14-2.2782-6.663-2.2954-2.523 0.0172-5.045 0.6446-6.663 2.2954-1.651 1.6179-2.278 4.1405-2.295 6.6625 0.017 2.523 0.645 5.046 2.295 6.663 1.618 1.651 4.14 2.278 6.663 2.296 2.523-0.018 5.045-0.645 6.663-2.296 1.651-1.617 2.278-4.14 2.295-6.663-0.017-2.522-0.644-5.0449-2.295-6.6625"/>
    <path id="Fill-16" d="m55.328 17.493c-1.083-0.007-2.165-0.238-2.86-0.846-0.708-0.596-0.978-1.526-0.985-2.456 0.007-0.929 0.277-1.859 0.985-2.455 0.695-0.609 1.777-0.84 2.86-0.846 0.932 0.005 1.862 0.179 2.546 0.614v-5.6928c-1.182-0.3943-2.488-0.5693-3.796-0.5781-2.522 0.0173-5.045 0.6446-6.662 2.2952-1.651 1.6178-2.279 4.1407-2.296 6.6627 0.017 2.523 0.645 5.046 2.296 6.663 1.617 1.651 4.14 2.278 6.662 2.296 1.308-0.009 2.614-0.184 3.796-0.578v-5.693c-0.684 0.435-1.614 0.608-2.546 0.614"/>
    <path id="Fill-10" d="m77.202 5.6709l-7.586-0.0082-4.278 6.0493v-11.42l-5.954-0.00033v22.505h5.954v-7.772c0.061 0.112 3.694 5.955 4.856 7.772h7.761l-7.04-9.69 6.287-7.4361z"/>
    <path id="Fill-18" d="m82.461 12.099c0.043-0.646 0.2-1.261 0.532-1.678 0.385-0.5035 0.985-0.6951 1.585-0.7001 0.6 0.005 1.2 0.1966 1.584 0.7001 0.333 0.417 0.489 1.032 0.532 1.678h-4.233zm10.043 1.556c0-2.662-0.649-4.7312-1.946-6.2073-1.298-1.4761-3.233-2.2144-5.805-2.2144-2.617 0-4.935 0.7703-6.534 2.4253-1.599 1.6552-2.189 3.8934-2.189 6.6004 0 2.706 0.768 5.127 2.457 6.738 1.688 1.61 4.063 2.153 6.971 2.153 2.438 0 4.876-0.569 7.046-1.71v-4.473c-1.723 1.141-3.499 1.418-5.557 1.418-1.342 0-2.404-0.257-3.187-0.771-0.783-0.515-1.219-1.253-1.309-2.215h10.053v-1.744z"/>
    <path id="Fill-17" d="m104.33 11.54v-5.5787h-4.342v-4.3433h-5.96v12.684h0.002c0.035 2.486 0.667 4.958 2.293 6.552 1.618 1.651 4.137 2.279 6.667 2.296 0.45-0.003 0.9-0.027 1.34-0.071v-5.59c-0.04 0.001-0.09 0.004-0.13 0.004-1.19-0.007-2.37-0.238-3.13-0.846-0.77-0.596-1.06-1.526-1.072-2.455h-0.01v-2.652h4.342z"/>
   </g>
  </g>
 </g>
</svg>
