<svg xmlns="http://www.w3.org/2000/svg" width="32" height="32" viewBox="0 0 32 32" color="#49B975">
    <g fill="none" fill-rule="evenodd">
        <path fill="#49B975" fill-rule="nonzero" d="M15.88.507a1.06 1.06 0 0 0-.46.162c-3.528 2.28-7.037 3.57-10.583 4.337-.37.081-.667.353-.777.71-1.454 4.688-1.373 10.05.47 14.798 1.844 4.748 5.508 8.886 11.11 10.923.232.084.488.084.72 0 5.602-2.037 9.266-6.175 11.11-10.923 1.843-4.749 1.924-10.11.47-14.798a1.043 1.043 0 0 0-.777-.71C23.617 4.238 20.108 2.949 16.58.669a1.063 1.063 0 0 0-.7-.162z"/>
        <path fill="#FFFAF5" d="M16 8a8 8 0 1 0 0 16 8 8 0 0 0 0-16zm.293 9.121l-1.414-1.414 3.535-2.121-2.121 3.535zM12 13a1 1 0 1 1 0-2 1 1 0 0 1 0 2zm-2 4a1 1 0 1 1-.002-1.998A1 1 0 0 1 10 17zm6-8a1 1 0 1 1 0 2 1 1 0 0 1 0-2zm6 8a1 1 0 1 1-.002-1.998A1 1 0 0 1 22 17zm-2-4a1 1 0 1 1 0-2 1 1 0 0 1 0 2z"/>
    </g>
</svg>
