<svg width="32" height="32" xmlns="http://www.w3.org/2000/svg" color="#49b975">
  <g fill="none" fill-rule="evenodd">
    <path d="M12.384.491a1.026 1.026 0 0 0-.441.157C8.55 2.856 5.176 4.106 1.766 4.849a1.006 1.006 0 0 0-.747.688c-1.398 4.542-1.32 9.735.453 14.336 1.772 4.6 5.296 8.608 10.681 10.582.224.081.47.081.694 0 5.385-1.974 8.909-5.982 10.681-10.582 1.773-4.6 1.85-9.794.453-14.336a1.006 1.006 0 0 0-.747-.688c-3.41-.743-6.784-1.993-10.177-4.201a1.016 1.016 0 0 0-.673-.157z" fill="#49b975"/>
    <path d="M6.554 14.254h.334l-.334.762v2.283c.002.541.3 1.04.78 1.311v.973c0 .42.35.76.782.76h.78c.432 0 .782-.34.782-.76v-.762h3.514v-2.7c-.91-.18-1.563-.961-1.562-1.867v-.76H8.95l1.003-2.284h1.677v-.761c0-.263.057-.522.166-.762H9.412a.782.782 0 0 0-.71.461l-1.145 2.584h-.976a.797.797 0 0 0-.795.603c-.049.226.01.46.158.639a.79.79 0 0 0 .61.28zm2.343 1.523c.431 0 .78.34.78.76 0 .421-.349.762-.78.762s-.781-.34-.781-.761c0-.42.35-.761.78-.761zm9.372-5.328v3.805c0 .42-.35.762-.78.762h-.782v.76l-.78.762.78.761-.78.761.78.761v.762l-1.171.76-1.172-.76v-4.567h-.781a.771.771 0 0 1-.781-.762V10.45c0-.42.35-.761.781-.761h3.905a.77.77 0 0 1 .781.76z" fill="#fff" fill-rule="nonzero"/>
  </g>
</svg>
