<?xml version="1.0" encoding="UTF-8"?>
<svg width="32px" height="32px" viewBox="0 0 32 32" version="1.1" xmlns="http://www.w3.org/2000/svg" xmlns:xlink="http://www.w3.org/1999/xlink">
    <!-- Generator: Sketch 49.3 (51167) - http://www.bohemiancoding.com/sketch -->
    <title>kundsakerhet</title>
    <desc>Created with Sketch.</desc>
    <defs>
        <path d="M10,6.0001 L12,6.0001 L12,11.1621 C12,12.7271 10.727,14.0001 9.1625,14.0001 L2.8375,14.0001 C1.273,14.0001 0,12.7271 0,11.1621 L0,6.0001 L2,6.0001 L2,4.0001 C2,1.7946 3.7945,9.99999993e-05 6,9.99999993e-05 C8.2055,9.99999993e-05 10,1.7946 10,4.0001 L10,6.0001 Z M11,11.1621 L11,7.0001 L1,7.0001 L1,11.1621 C1,12.1751 1.8245,13.0001 2.8375,13.0001 L9.1625,13.0001 C10.1755,13.0001 11,12.1751 11,11.1621 Z M3,4.0001 L3,6.0001 L9,6.0001 L9,4.0001 C9,2.3456 7.6545,1.0001 6,1.0001 C4.3455,1.0001 3,2.3456 3,4.0001 Z M5.5,10.36135 C5.2025,10.18785 5,9.86935 5,9.49985 C5,8.94785 5.448,8.49985 6,8.49985 C6.552,8.49985 7,8.94785 7,9.49985 C7,9.86935 6.7975,10.18785 6.5,10.36135 L6.5,11.49985 L5.5,11.49985 L5.5,10.36135 Z" id="path-1"></path>
    </defs>
    <g id="kundsakerhet" stroke="none" stroke-width="1" fill="none" fill-rule="evenodd">
        <g id="icon_shield" transform="translate(3.000000, 0.000000)" fill="#363433" fill-rule="nonzero">
            <path d="M12.6745699,0.174203581 C12.8160324,0.0828102237 12.977205,0.0257251302 13.1450456,0.00756766174 C13.3963631,-0.0222750838 13.6502429,0.03673087 13.8620155,0.174203581 C17.4773004,2.52763244 21.0729404,3.85888902 24.7061856,4.65115529 C25.085413,4.73513422 25.3894783,5.0154188 25.5015921,5.38435333 C26.9913479,10.2238941 26.9087888,15.7575646 25.0198598,20.659309 C23.1309667,25.5610536 19.3765896,29.8324431 13.6379624,31.935024 C13.3992585,32.0216587 13.1373268,32.0216587 12.898623,31.935024 C7.15999573,29.8324076 3.40561857,25.5610536 1.51672548,20.659309 C-0.37220348,15.7575646 -0.454762565,10.2238941 1.03499339,5.38435333 C1.14710691,5.0154188 1.45117233,4.73513422 1.83039982,4.65115529 C5.46360904,3.85888902 9.05928491,2.52763244 12.6745699,0.174203581 Z M12.8818452,2.15242813 C9.74837665,4.21167839 6.6319039,5.37652789 3.48289995,6.06976088 C3.1542129,6.14324244 2.8906709,6.38849145 2.79349898,6.71130917 C1.50228587,10.9459074 1.57384214,15.787869 3.21102964,20.0768954 C4.84818606,24.3659219 8.10220965,28.1033566 13.0760382,29.943146 C13.2829295,30.0189513 13.509953,30.0189513 13.7168443,29.943146 C18.6906729,28.1033877 21.9446965,24.3659219 23.5818529,20.0768954 C25.2190404,15.787869 25.2905967,10.9459074 23.9993837,6.71130917 C23.9022116,6.38849145 23.6386696,6.14324244 23.3099826,6.06976088 C20.1609476,5.37652789 17.0445059,4.21167839 13.9110374,2.15242813 C13.7274882,2.03213951 13.5074435,1.9805093 13.2896196,2.0066217 C13.1441475,2.02250949 13.0044547,2.07245895 12.8818452,2.15242813 Z" id="Combined-Shape"></path>
        </g>
        <g id="Group-33" transform="translate(8.000000, 7.000000)">
            <g id="Icons/Secure/Inactive" transform="translate(0.199951, 0.000000)">
                <g id="-g-Symbol" transform="translate(2.000000, 1.000000)">
                    <mask id="mask-2" fill="white">
                        <use xlink:href="#path-1"></use>
                    </mask>
                    <use id="Secure" fill="#363433" xlink:href="#path-1"></use>
                    <g id="Styles/Blocket/Gray/BlocketBlack" mask="url(#mask-2)">
                        <g transform="translate(-2.000000, -1.000000)"></g>
                    </g>
                </g>
            </g>
        </g>
    </g>
</svg>