<?xml version="1.0" encoding="utf-8"?>
<!-- Generator: Adobe Illustrator 21.1.0, SVG Export Plug-In . SVG Version: 6.00 Build 0)  -->
<svg version="1.1" id="Layer_5" xmlns="http://www.w3.org/2000/svg" xmlns:xlink="http://www.w3.org/1999/xlink" x="0px" y="0px"
	 viewBox="0 0 360 120" style="enable-background:new 0 0 360 120;" xml:space="preserve">
<style type="text/css">
	.st0{fill:#FFC200;}
	.st1{fill:#D89F00;}
	.st2{fill:#E3EEFF;}
	.st3{fill:#C2D9FF;}
</style>
<g>
	<path class="st0" d="M89.2,89.7c0,3,2.5,5.5,5.5,5.5h32.5V30.7L89.2,5.9V89.7z"/>
	<polygon class="st0" points="203.5,25.1 232.3,25.1 232.3,5.9 	"/>
	<path class="st1" d="M226.8,0.4h-132c-3,0-5.5,2.5-5.5,5.5v0l38.1,24.8v-0.2v0c0-3,2.5-5.5,5.5-5.5h70.7l28.8-19.2v0
		C232.3,2.9,229.8,0.4,226.8,0.4z"/>
	<path class="st2" d="M232.3,55.9l-32.8,21.8l-37.9-24.7l-34.3-22.4v0.2v64.5v19.2c0,3,2.5,5.5,5.5,5.5h132c3.1,0,5.5-2.5,5.5-5.5
		V30.6L232.3,55.9z"/>
	<path class="st3" d="M264.8,25.1h-32.5h-28.8h-70.7c-3,0-5.5,2.5-5.5,5.5v0l34.3,22.4l37.9,24.7l32.8-21.8l38.1-25.3v0
		C270.4,27.5,267.9,25.1,264.8,25.1z"/>
</g>
</svg>
