<?xml version="1.0" encoding="UTF-8"?>
<svg width="32px" height="32px" viewBox="0 0 32 32" version="1.1" xmlns="http://www.w3.org/2000/svg" xmlns:xlink="http://www.w3.org/1999/xlink">
    <!-- Generator: Sketch 49.3 (51167) - http://www.bohemiancoding.com/sketch -->
    <title>Företag</title>
    <desc>Created with Sketch.</desc>
    <defs>
        <path d="M13.1282051,24.6153846 L18.0512821,24.6153846 C18.5033846,24.6153846 18.8717949,24.2477949 18.8717949,23.7948718 L18.8717949,1.64102564 L1.64102564,1.64102564 L1.64102564,23.7948718 C1.64102564,24.2477949 2.0094359,24.6153846 2.46153846,24.6153846 L7.38461538,24.6153846 L7.38461538,19.6923077 L13.1282051,19.6923077 L13.1282051,24.6153846 Z M20.5128205,0 L20.5128205,23.7948718 C20.5128205,25.1544615 19.4108718,26.2564103 18.0512821,26.2564103 L2.46153846,26.2564103 C1.10194872,26.2564103 0,25.1544615 0,23.7948718 L0,0 L20.5128205,0 Z M3.28205128,5.74358974 L3.28205128,4.1025641 L17.2307692,4.1025641 L17.2307692,5.74358974 L3.28205128,5.74358974 Z M3.28205128,9.84615385 L3.28205128,8.20512821 L17.2307692,8.20512821 L17.2307692,9.84615385 L3.28205128,9.84615385 Z M3.28205128,13.9487179 L3.28205128,12.3076923 L17.2307692,12.3076923 L17.2307692,13.9487179 L3.28205128,13.9487179 Z M3.28205128,18.0512821 L3.28205128,16.4102564 L17.2307692,16.4102564 L17.2307692,18.0512821 L3.28205128,18.0512821 Z M9.02564103,24.6153846 L11.4871795,24.6153846 L11.4871795,21.3333333 L9.02564103,21.3333333 L9.02564103,24.6153846 Z" id="path-1"></path>
    </defs>
    <g id="Företag" stroke="none" stroke-width="1" fill="none" fill-rule="evenodd">
        <g id="Icons/Bostad/Apartment/Inactive" transform="translate(-1.000000, 3.000000)">
            <g id="-g-Symbols" transform="translate(3.282051, 0.000000)">
                <mask id="mask-2" fill="white">
                    <use xlink:href="#path-1"></use>
                </mask>
                <use id="Fill-32" fill="#363433" xlink:href="#path-1"></use>
                <g id="Styles/Blocket/Gray/BlocketBlack" mask="url(#mask-2)">
                    <g transform="translate(-3.282051, 0.000000)"></g>
                </g>
            </g>
        </g>
        <path d="M28.375,25.4436963 L28.375,29 L26.625,29 L26.625,25.4436963 C26.1019238,25.1555218 25.75,24.616902 25.75,24 C24.7835017,24 24,23.2538079 24,22.3333333 C24,21.4128588 24.7835017,20.6666667 25.75,20.6666667 C25.75,19.7461921 26.5335017,19 27.5,19 C28.4664983,19 29.25,19.7461921 29.25,20.6666667 C30.2164983,20.6666667 31,21.4128588 31,22.3333333 C31,23.2538079 30.2164983,24 29.25,24 C29.25,24.616902 28.8980762,25.1555218 28.375,25.4436963 Z" id="Combined-Shape" fill="#363433"></path>
    </g>
</svg>