<?xml version="1.0" encoding="UTF-8" standalone="no"?>
<svg
   xmlns:dc="http://purl.org/dc/elements/1.1/"
   xmlns:cc="http://creativecommons.org/ns#"
   xmlns:rdf="http://www.w3.org/1999/02/22-rdf-syntax-ns#"
   xmlns:svg="http://www.w3.org/2000/svg"
   xmlns="http://www.w3.org/2000/svg"
   xmlns:sodipodi="http://sodipodi.sourceforge.net/DTD/sodipodi-0.dtd"
   xmlns:inkscape="http://www.inkscape.org/namespaces/inkscape"
   id="Layer_1"
   data-name="Layer 1"
   viewBox="0 0 1064.49 1064.5"
   version="1.1"
   sodipodi:docname="mobile_logo.svg"
   inkscape:version="0.92.5 (2060ec1f9f, 2020-04-08)"
   inkscape:export-filename="/home/abdullah/work/Project/Yallasell/assets/path11.png"
   inkscape:export-xdpi="96"
   inkscape:export-ydpi="96">
  <metadata
     id="metadata66">
    <rdf:RDF>
      <cc:Work
         rdf:about="">
        <dc:format>image/svg+xml</dc:format>
        <dc:type
           rdf:resource="http://purl.org/dc/dcmitype/StillImage" />
      </cc:Work>
    </rdf:RDF>
  </metadata>
  <sodipodi:namedview
     pagecolor="#ffffff"
     bordercolor="#666666"
     borderopacity="1"
     objecttolerance="10"
     gridtolerance="10"
     guidetolerance="10"
     inkscape:pageopacity="0"
     inkscape:pageshadow="2"
     inkscape:window-width="1852"
     inkscape:window-height="1020"
     id="namedview64"
     showgrid="false"
     inkscape:zoom="0.62706322"
     inkscape:cx="746.4522"
     inkscape:cy="559.4877"
     inkscape:window-x="68"
     inkscape:window-y="28"
     inkscape:window-maximized="1"
     inkscape:current-layer="Layer_1" />
  <defs
     id="defs7">
    <style
       id="style2">.cls-1,.cls-4,.cls-5,.cls-7,.cls-9{fill:none;}.cls-2{fill:#f55;}.cls-3{clip-path:url(#clip-path);}.cls-4,.cls-5,.cls-7,.cls-9{stroke:#000;}.cls-4{stroke-width:0.92px;}.cls-5{stroke-linecap:square;stroke-width:3.98px;}.cls-6{fill:#fff;}.cls-7{stroke-width:4.3px;}.cls-8{fill:#ff0;}.cls-9{stroke-linecap:round;stroke-width:1.47px;}</style>
    <clipPath
       id="clip-path"
       transform="translate(-10.38 -9.48)">
      <rect
         class="cls-1"
         y="7"
         width="1080"
         height="1080"
         id="rect4" />
    </clipPath>
  </defs>
  <title
     id="title9">Yallasell_logo</title>
  <path
     class="cls-2"
     d="M1074.42,541.73c0,293.71-238.08,531.78-531.79,531.78S10.84,835.44,10.84,541.73,248.93,9.94,542.63,9.94,1074.42,248,1074.42,541.73Zm0,0"
     transform="translate(-10.38 -9.48)"
     id="path11"
     style="fill:#374151;fill-opacity:1" />
  <g
     class="cls-3"
     clip-path="url(#clip-path)"
     id="g15">
    <path
       class="cls-4"
       d="M1074.42,541.73c0,293.71-238.08,531.78-531.79,531.78S10.84,835.44,10.84,541.73,248.93,9.94,542.63,9.94,1074.42,248,1074.42,541.73Zm0,0"
       transform="translate(-10.38 -9.48)"
       id="path13" />
  </g>
  <path
     class="cls-5"
     d="M485.25,719.36a19.64,19.64,0,0,1-2,1.41,68.48,68.48,0,0,1-40.56,13.5V699h1.07q22.32,0,22.33-22.89V520.63H502.8V699q22.32,0,22.34-22.89V520.63h36.73V676.11q0,16.32,11.53,23.23,11.31-6.92,11.3-23.23V520.63h36.57V683.76q0,22.5-17.38,38.3-15.09,12-29.42,12-15.66,0-30.72-14.34Q525.14,733.22,504,734.27H485.25Zm0,0"
     transform="translate(-10.38 -9.48)"
     id="path17" />
  <path
     class="cls-5"
     d="M384.75,520.63h36.67V676.11q0,22.17,21.83,22.89v35.27h-.73q-21.09,0-39-14.51h-.34a7.08,7.08,0,0,0-1.29,1,68.48,68.48,0,0,1-40.56,13.5V699h1.07q22.32,0,22.33-22.89Zm14.34,222a22.24,22.24,0,0,1,16.65,6.91A22.79,22.79,0,0,1,422.49,766a22.23,22.23,0,0,1-6.75,16.31,22.51,22.51,0,0,1-16.65,6.75A23,23,0,0,1,376,766a22.79,22.79,0,0,1,6.75-16.49,21.94,21.94,0,0,1,16.31-6.91Zm0,49.66a22.24,22.24,0,0,1,16.65,6.92,22.79,22.79,0,0,1,6.75,16.48,22.07,22.07,0,0,1-6.75,16.26,22.51,22.51,0,0,1-16.65,6.75,23,23,0,0,1-23.06-23,22.79,22.79,0,0,1,6.75-16.48,22,22,0,0,1,16.31-6.92Zm0,0"
     transform="translate(-10.38 -9.48)"
     id="path19" />
  <path
     class="cls-5"
     d="M347.88,396.15V699h14v35.27h-14v45.9q0,22.32-19.52,36.9a69.32,69.32,0,0,1-36.9,13.67H255.85q-19.18-1.08-35.66-14.57-18.8-15.25-18.79-36V520.63h36.51v252q0,22.14,21.49,22.67h29.42q22.49,0,22.5-22.67V396.15Zm0,0"
     transform="translate(-10.38 -9.48)"
     id="path21" />
  <path
     class="cls-6"
     d="M584.73,520.63V676.12q0,16.32-11.34,23.23-11.53-6.92-11.53-23.23V520.63h-36.7V676.12q0,22.88-22.34,22.87V520.63h-36.7V676.12q0,22.88-22.34,22.87h-.53q-21.81-.71-21.81-22.87V520.63h-36.7V676.12q0,22.88-22.34,22.87H347.86V396.16H311.34V772.57q0,22.7-22.52,22.7H259.39q-21.46-.54-21.46-22.7V520.63H201.41V780.2q0,20.74,18.79,36,16.5,13.47,35.64,14.54h35.64a68.81,68.81,0,0,0,36.88-13.65q19.5-14.55,19.5-36.88V734.28h14v0a68.75,68.75,0,0,0,40.07-13.45,9.07,9.07,0,0,1,1.24-1.06h.36q17.9,14.53,39,14.54h.71v0a68.75,68.75,0,0,0,40.07-13.45c.71-.47,1.35-.94,1.95-1.42v14.9h18.79q21.1-1.06,39.72-14.54,15.06,14.35,30.67,14.36,14.35,0,29.43-12.06,17.39-15.78,17.38-38.29V520.63Z"
     transform="translate(-10.38 -9.48)"
     id="path23" />
  <path
     class="cls-6"
     d="M399.1,742.61a21.93,21.93,0,0,0-16.31,6.91A22.82,22.82,0,0,0,376.05,766a23,23,0,0,0,23.05,23,22.61,22.61,0,0,0,16.67-6.74A22.21,22.21,0,0,0,422.51,766a22.82,22.82,0,0,0-6.74-16.49A22.34,22.34,0,0,0,399.1,742.61Z"
     transform="translate(-10.38 -9.48)"
     id="path25" />
  <path
     class="cls-6"
     d="M399.1,792.25a21.94,21.94,0,0,0-16.31,6.92,22.81,22.81,0,0,0-6.74,16.49,23,23,0,0,0,23.05,23.05A22.65,22.65,0,0,0,415.77,832a22.22,22.22,0,0,0,6.74-16.31,22.81,22.81,0,0,0-6.74-16.49A22.35,22.35,0,0,0,399.1,792.25Z"
     transform="translate(-10.38 -9.48)"
     id="path27" />
  <path
     class="cls-7"
     d="M691,269V442.77q0,24-20.08,39.49a69.79,69.79,0,0,1-42,14.34V459h1.13q23.05,0,23.06-24.35V269ZM667.94,505.49a22.58,22.58,0,0,1,17.21,7.37,24.66,24.66,0,0,1,7,17.55,24,24,0,0,1-7,17.32,22.89,22.89,0,0,1-17.21,7.2,22.54,22.54,0,0,1-16.82-7.2,24,24,0,0,1-6.92-17.32,24.73,24.73,0,0,1,6.92-17.55,22.24,22.24,0,0,1,16.82-7.37Zm0,52.87a22.62,22.62,0,0,1,17.21,7.37,24.69,24.69,0,0,1,7,17.55,24.15,24.15,0,0,1-7,17.38,22.89,22.89,0,0,1-17.21,7.2,22.54,22.54,0,0,1-16.82-7.2,24.21,24.21,0,0,1-6.92-17.38,24.76,24.76,0,0,1,6.92-17.55,22.27,22.27,0,0,1,16.82-7.37Zm0,0"
     transform="translate(-10.38 -9.48)"
     id="path29" />
  <path
     class="cls-7"
     d="M607,434.67q0,23.58,22.55,24.19v37.57h-.79q-21.76,0-40.21-15.3h-.23l-1.46,1.13a69.89,69.89,0,0,1-41.35,14.34H502.88V459h43.2q23.05,0,23.06-24.35V136.43H607ZM541,456H503V136.43H541Zm0,0"
     transform="translate(-10.38 -9.48)"
     id="path31" />
  <path
     class="cls-8"
     d="M668,505.48a22.32,22.32,0,0,0-16.84,7.37,24.69,24.69,0,0,0-7,17.56,24.05,24.05,0,0,0,7,17.38A22.61,22.61,0,0,0,668,555a23,23,0,0,0,17.2-7.18,24.06,24.06,0,0,0,7-17.38,24.7,24.7,0,0,0-7-17.56A22.72,22.72,0,0,0,668,505.48Z"
     transform="translate(-10.38 -9.48)"
     id="path33"
     style="fill:#ff6600" />
  <path
     class="cls-8"
     d="M670.9,482.25Q691,466.77,691,442.78V269H653.14V434.66q0,24.36-23.06,24.36h-.55v-.19Q607,458.28,607,434.66V136.44H569.14V434.66q0,24.36-23.06,24.36H502.89v37.59h42.64a69.94,69.94,0,0,0,41.36-14.36l1.46-1.13h.19q18.48,15.3,40.26,15.3H629v.19A69.65,69.65,0,0,0,670.9,482.25Z"
     transform="translate(-10.38 -9.48)"
     id="path35"
     style="fill:#ff6600" />
  <path
     class="cls-8"
     d="M668,558.37a22.31,22.31,0,0,0-16.84,7.36,24.69,24.69,0,0,0-7,17.57,24,24,0,0,0,7,17.37A22.57,22.57,0,0,0,668,607.85a23,23,0,0,0,17.2-7.18,24,24,0,0,0,7-17.37,24.7,24.7,0,0,0-7-17.57A22.71,22.71,0,0,0,668,558.37Z"
     transform="translate(-10.38 -9.48)"
     id="path37"
     style="fill:#ff6600" />
  <rect
     class="cls-8"
     x="492.69"
     y="126.96"
     width="37.88"
     height="319.56"
     id="rect39"
     style="fill:#ff6600" />
  <path
     class="cls-9"
     d="M866.42,723a25.77,25.77,0,0,1,10.12,5.74l12.15,11.58c11,10.52,8.44,24.42.79,32.46L873.73,789.3l-45.79-43.6L821,768.26l38.13,36.34-31.72,33.3L793.8,805.83,787,828.33l26,24.75-34.59,36.29,7.54,7.2a10.46,10.46,0,0,0,14.9-.34l41.8-43.82-7.49-7.14a10.53,10.53,0,0,0,14.91-.45l39-40.9-7.59-7.25a10.43,10.43,0,0,0,14.79-.51l8.44-8.89a48.75,48.75,0,0,0,8.61-12.43c7.53-15.36,6.35-34.26-10-49.84l-12.15-11.58a46.77,46.77,0,0,0-12.37-8.55,38.7,38.7,0,0,0-12.83-4.11Zm0,0"
     transform="translate(-10.38 -9.48)"
     id="path41" />
  <path
     class="cls-6"
     d="M866.37,723.26a23.15,23.15,0,0,1,10.21,5.51l12.15,11.58c11,10.53,8.52,24.63.79,32.74l-15.79,16.57L827.87,746,821,768.62,859.16,805,827.57,838.1,793.86,806l-7,22.48L813,853.39l-34.57,36.29,7.55,7.19a10.52,10.52,0,0,0,14.92-.54l41.77-43.84-7.36-7a10.46,10.46,0,0,0,14.74-.35l39-40.89-7.55-7.2a10.49,10.49,0,0,0,14.74-.71l8.43-8.84A49.94,49.94,0,0,0,913.32,775c7.55-15.3,6.37-34.34-10-50l-12.16-11.59a41.8,41.8,0,0,0-12.43-8.33A36.06,36.06,0,0,0,865.83,701Z"
     id="path43"
     transform="translate(-10.38 -9.48)" />
  <path
     class="cls-9"
     d="M738.1,818.74a10.71,10.71,0,0,0-4.84,14.18l25,50.51-45,22.22,4.61,9.39A10.58,10.58,0,0,0,732,919.83l54.4-26.89-38.93-78.86Zm18.34,132.64,22,7.65,6.46-18.5,18.51,6.18L811,924.44,788.78,917l-6.3,18.57-18.68-6.25Zm0,0"
     transform="translate(-10.38 -9.48)"
     id="path45" />
  <path
     class="cls-6"
     d="M738,818.79a10.76,10.76,0,0,0-4.85,14.31l25,50.65-44.94,22.18,4.61,9.35a10.54,10.54,0,0,0,14.2,4.63l54.3-26.8-39-78.94Zm18.44,132.76,21.92,7.62,6.46-18.51,18.63,6.12L811,924.64l-22.15-7.51-6.46,18.51-18.63-6.13Z"
     id="path47"
     transform="translate(-10.38 -9.48)" />
  <path
     class="cls-9"
     d="M705.12,937.05c3.6,14.57-5.85,25-16.59,27.62-10.63,2.87-24.19-1.74-27.9-16.59L655,925.41l-18,15.41,3.1,12.38c7.08,28.57,31.67,37.57,53.55,32,21.82-5.4,39-24.8,32-53.27L697.75,820.11l6.25-1.58a126.12,126.12,0,0,1-34.26-23.62Zm0,0"
     transform="translate(-10.38 -9.48)"
     id="path49" />
  <path
     class="cls-6"
     d="M705,937.06c3.69,14.81-5.83,25-16.44,27.68-10.8,3-24.25-1.57-28-16.62L655,925.65l-18,15.22,3.08,12.34c7.12,28.64,31.66,37.74,53.57,32,21.73-5.4,39-24.63,31.84-53.27L697.66,820.14l6.17-1.54a120.75,120.75,0,0,1-34.15-23.48Z"
     transform="translate(-10.38 -9.48)"
     id="path51" />
  <path
     class="cls-9"
     d="M902.64,557.5a10.7,10.7,0,0,0,9,11.93l55.86,7.76-6.87,49.72L971,628.32a10.58,10.58,0,0,0,11.93-9l8.32-60.13L904.1,547.1Zm120,59.29,18.79-13.89-11.76-15.75,15.58-11.82L1031,556.49l-18.56,14.29,11.76,15.63-15.58,11.93Zm0,0"
     transform="translate(-10.38 -9.48)"
     id="path53" />
  <path
     class="cls-9"
     d="M987.32,616.65c-7.42,1.35-15.3,6.69-23.45,5l-83-32.34,2.31-5.91a130.49,130.49,0,0,1-38.93,14.24l111,43.25-8.38,21.43c-3.94,10.18-15.52,18.57-29.7,13l-60.64-23.62,2.31-6a125.34,125.34,0,0,1-39.09,14.34l83.92,32.74c35.89,14,55-4.28,61.88-21.88l8.83-22.62c14.12,5.46,16.93,19.41,12.88,29.7l-8.5,21.77,23.57-2,4.67-12c8.16-20.87,2.31-46.12-24.47-56.87Zm0,0"
     transform="translate(-10.38 -9.48)"
     id="path55" />
  <polygon
     class="cls-6"
     points="1034.93 565.84 1020.81 547.18 1002.16 561.3 1013.86 577.04 998.33 589.02 1012.48 607.42 1031.09 593.56 1019.4 577.81 1034.93 565.84"
     id="polygon57" />
  <path
     class="cls-6"
     d="M982.59,629s1.36-8,1-10.35l-.14-2.85,7.81-56.4-87.2-12.07-1.43,10.33a10.71,10.71,0,0,0,9.12,12l56,7.74-6,43.41L880.9,589.3l2.31-5.92a120.71,120.71,0,0,1-38.9,14.32l111.17,43.36-8.42,21.57c-4,10.19-15.66,18.46-29.89,12.91l-60.68-23.66,2.32-5.93a120.87,120.87,0,0,1-38.91,14.32L903.81,693c35.79,14,54.91-4.25,61.75-21.79l8.88-22.76c14.22,5.55,17,19.46,12.92,29.89L979,699.91l23.46-2L1007,686C1015.17,665.16,1009.52,639.74,982.59,629Z"
     transform="translate(-10.38 -9.48)"
     id="path59" />
  <polygon
     class="cls-2"
     points="975.9 604.66 975.51 617.99 983.69 615.87 983.86 599.82 975.9 604.66"
     id="polygon61" />
</svg>
