<svg xmlns="http://www.w3.org/2000/svg" xmlns:xlink="http://www.w3.org/1999/xlink" width="170" height="140"><defs><path id="a" d="M0 9.006V.256h17.338v8.75z"/></defs><g fill="none" fill-rule="evenodd"><path fill="#6A3E19" d="M72.501 85.945c.138.096.3.083.453.093 2.028.135 4.06.189 6.09.283 2.966.137 5.938.182 8.91.204 1.785.014 3.57.12 5.358.04a422.15 422.15 0 015.156-.2c4.939-.157 9.869.112 14.802.29 2.834.103 5.677.132 8.509.023 2.722-.106 5.446-.088 8.168-.19 3.435-.13 6.878.113 10.314-.154 2.141-.167 4.287-.074 6.43-.092.912-.008 2.013.006 2.922.006.11-.668.043-1.076.089-1.765.07-.447-.018-.753.049-1.108-.02-.394-.074-.734-.381-1.02-.378-.353-.74-.73-1.064-1.133-2.047-2.537-4.432-4.739-6.696-7.062a.815.815 0 00-.653-.267c-1.251.036-2.499-.083-3.749-.12-2.545-.074-5.09-.032-7.637-.015-7.994.053-15.989.022-23.98-.245-1.029-.034-2.047.138-3.07.123-2.814-.042-5.627-.079-8.44-.024-2.143.042-4.286.033-6.429.08-1.94.04-3.884-.047-5.826-.075-.915-.012-1.836.034-2.743-.055-.526-.051-.831.088-1.132.483-1.166 1.533-2.528 2.877-3.927 4.188-1.202 1.125-2.224 2.422-3.263 3.7-.478.587-.328 1.153-.396 1.983-.037.449-.154.937-.15 1.414.003.175-.059.366.191.615h2.095zM60.98 90.974c-.017-.106.185-.582.335-.84 1.952-2.478 3.77-4.894 5.844-7.27 2.59-2.969 5.223-5.903 7.607-9.053.57-.754 1.203-1.46 1.8-2.193.14-.173.253-.37.378-.555.657.157 1.32.017 1.981.04 3.367.113 6.735.211 10.103.316.715.022 1.42-.126 2.136-.11 2.611.06 5.223-.063 7.835.096 1.535.094 3.077-.108 4.616.015 1.385.11 2.762-.122 4.146-.112 2.478.02 4.95.173 7.425.276 1.785.075 3.563-.097 5.35-.065 3.034.055 6.071.065 9.109-.035 2.273-.074 4.546-.199 6.824-.19 1.537.007 3.074-.18 4.615-.066.085.006.173-.012.247-.019.145-.112-.004-.456.224-.524.878-.006 1.84.141 2.75.032.58-.07 1.16-.064 1.74-.045.418.014.855.05 1.095.527-.2.482-.665.578-1.05.778-.276.144-.586.23-.85.394-.798.497-1.101 1.406-.749 2.165.419.901 1.1 1.276 2.063 1.125.773-.12 1.542-.275 2.268-.576.526-.218 1.044-.197 1.573-.055.578.156.786.39.8 1.006.012.503.074.998.14 1.492.071.545.218 1.066.668 1.434-.035.082-.058.172-.105.245-.674 1.04-.559 1.99.38 2.894.349.502.908.797 1.239 1.323.39.62.942 1.092 1.496 1.551.826.685 2.04.717 2.918.106.288-.2.52-.455.575-.804.12-.758.244-1.507-.024-2.28-.335-.971-.958-1.668-1.77-2.227-.579-.404-1.13-.859-1.744-1.196-.625-.344-1.315-.531-2.015-.142-.484-.068-.671-.247-.774-.83-.099-.557-.134-1.123-.162-1.69-.043-.911-.46-1.414-1.317-1.654-.68-.19-1.357-.22-2.034.044-.793.311-1.614.526-2.464.591-.39.03-.811-.275-.984-.68-.165-.388-.036-.695.24-.98.213-.22.464-.343.74-.445.44-.163.87-.36 1.236-.663.67-.556.638-1.379-.065-1.89-.321-.233-.686-.318-1.073-.32-1.026-.003-2.051-.023-3.075.084a6.908 6.908 0 01-1.682-.011 5.316 5.316 0 01.027-1.379c2.252.014 4.502.179 6.755.115.342-.01.58.135.815.373 1.362 1.378 2.701 2.782 4.12 4.097 1.022.946 1.962 1.982 3.06 2.847.741.584 1.34 1.334 1.958 2.051 1.531 1.776 3.007 3.6 4.586 5.335 1.11 1.22 2.36 2.286 3.517 3.454 1.079 1.087 2.208 2.122 3.31 3.185.14.135.21.243.314.49-.62.178-1.25.284-1.896.28a5.304 5.304 0 00-1.227.13c-1.53.347-3.139.07-4.68.26-1.1.135-2.217.011-3.332.126-1.435.147-2.888.066-4.335.137-3.408.168-6.822.064-10.235.127-10.267.19-20.54-.126-30.81.162-1.242.034-2.488-.022-3.735-.091-2.624-.146-5.26.073-7.888-.163-.913-.082-1.82.07-2.728.13-1.339.091-2.667-.108-4.002-.147-.608-.017-1.186.168-1.79.153-.622-.016-1.242-.106-1.857-.121-3.59-.09-7.18.036-10.772-.134-2.484-.118-4.98.02-7.466-.07-.773-.028-1.552-.077-2.328-.083-3.121-.023-6.244.034-9.363-.14-.206-.012-.397-.037-.577-.138z"/><path fill="#46B674" d="M50.295 75.634c1.25 1.758 2.396 3.59 3.669 5.333 1.447 1.983 2.715 4.08 3.59 6.383.827 2.171.85 4.393.169 6.617-.88 2.87-1.695 5.761-2.365 8.687-.596 2.602-1.182 5.212-1.48 7.871-.253 2.24-.838 4.417-1.224 6.632-.501 2.873-1.195 5.707-1.821 8.555-.34 1.548-.4 3.138-.633 4.702-.012.085-.03.17-.048.266-.272.109-.542-.018-.798.048-1.033-.031-2.06-.178-3.09-.222-1.32-.056-2.626-.256-3.944-.308l-1.051-.17c.05-.871.084-1.734.154-2.593.114-1.4.23-2.8.383-4.197.31-2.837.504-5.686.738-8.53.244-2.96.713-5.884 1.144-8.814a31.8 31.8 0 011.929-7.138c.232-.584.33-1.19.35-1.825.03-.953-.32-1.739-.911-2.436a30.759 30.759 0 00-3.328-3.375c-1.264-1.096-2.348-2.375-3.56-3.525a53.258 53.258 0 00-3.804-3.254c-.981-.77-1.95-1.55-2.823-2.446-.105-.108-.202-.187-.36-.346-.182-.137-.303-.285-.522-.422-.786-.49-1.522-1.061-2.294-1.565-1.583-1.03-2.938-2.31-4.305-3.591-1.638-1.534-3.085-3.223-4.288-5.124-.62-.98-1.135-1.997-1.294-3.165.86.557 1.603 1.261 2.39 1.912 1.657 1.371 3.636 2.2 5.51 3.19 2.212 1.17 4.564 2.032 6.964 2.753 1.558.469 3.142.763 4.759.762 2.9 0 5.8-.068 8.691-.373 1.163-.123 2.342-.104 3.503-.292"/><path fill="#22905B" d="M19.422 67.59c.161 1.168.684 2.187 1.313 3.167 1.222 1.902 2.69 3.592 4.354 5.127 1.388 1.282 2.764 2.562 4.37 3.594.785.504 1.532 1.075 2.33 1.566.377.269.489.34.54.42.023.034-.007.15-.053.312-.149.583-.244 1.016-.431 1.585-1.444 4.38-2.885 8.762-4.64 13.034-.297.723-.688 1.4-1.045 2.096-.796 1.551-1.442 3.165-2.007 4.812-.677 1.973-1.616 3.818-2.743 5.576-1.028 1.603-1.894 3.297-2.675 5.026-1.086 2.402-2.214 4.78-3.525 7.072-.967 1.69-1.734 3.476-2.43 5.29-.096.249-.215.487-.333.753-.564.004-1.034-.32-1.564-.367-1.147-.348-2.283-.74-3.444-1.03-.912-.227-1.79-.513-2.615-.955-.606-.468-1.39-.604-2.052-1.03.688-1.228 1.36-2.413 1.88-3.676.817-1.98 1.676-3.941 2.268-6.008.647-2.262 1.615-4.404 2.77-6.453 1.737-3.084 2.883-6.38 3.755-9.787.238-.928.476-1.862.808-2.76.768-2.079.986-4.254 1.215-6.426.257-2.441.36-4.896.641-7.338.21-1.82.068-3.662.078-5.494.01-1.787.079-3.569.357-5.338.018-.11.018-.223.016-.334-.016-1.722.017-3.44.443-5.123.094.055.21.09.277.169.718.836 1.429 1.679 2.142 2.52"/><path fill="#DDDDDC" d="M141.93 68.635a5.093 5.093 0 00-.027 1.355 7.14 7.14 0 001.69.012c1.028-.106 2.058-.086 3.089-.083.388.001.755.085 1.078.315.707.501.739 1.31.065 1.856-.369.299-.799.491-1.242.651-.277.1-.53.222-.742.437-.278.28-.408.583-.242.965.173.397.596.696.988.667a8.743 8.743 0 002.476-.58c.68-.261 1.361-.231 2.043-.044.862.236 1.28.73 1.324 1.624.028.558.063 1.114.162 1.662.104.572.292.748.778.815-.321.168-.67.287-.954.52-.452-.361-.6-.873-.672-1.408a13.201 13.201 0 01-.14-1.466c-.014-.605-.222-.835-.803-.988-.532-.14-1.053-.16-1.581.053-.73.296-1.502.448-2.278.567-.968.148-1.653-.22-2.073-1.106-.355-.746-.05-1.639.752-2.127.265-.161.576-.246.854-.387.386-.197.855-.291 1.055-.765-.242-.468-.68-.504-1.101-.518-.582-.019-1.164-.024-1.747.045-.915.107-1.931.042-2.814.049-.048.021-.03.325-.174.434a.656.656 0 01-.249.019c-1.548-.112-3.093.071-4.636.065-2.29-.01-4.573.114-6.857.187-3.052.097-6.103.087-9.152.034-1.795-.032-3.581.137-5.375.064-2.486-.102-4.97-.253-7.46-.272-1.39-.01-2.773.218-4.165.11-1.547-.12-3.096.078-4.638-.014-2.624-.156-5.248-.035-7.872-.094-.72-.017-1.428.13-2.146.107-3.384-.103-6.768-.2-10.151-.31-.664-.023-1.33.115-1.99-.04.04-.126.013-.484.005-.598-.062-.915-.191-1.285-.17-1.997.006-.225.024-.522.02-.742-.024-1.239-.121-2.475-.172-3.713-.033-.814-.073-1.631-.1-2.448-.006-.174.042-.35-.001-.55.935-.472 1.792-.587 2.803-.803.161 2.611.223 5.231.502 7.86.561 0 1.01.018 1.456-.004 2.288-.11 4.574.045 6.86.051.826.003 1.651.224 2.477.225 3.03.001 6.053.256 9.084.203a480.6 480.6 0 017.873-.09c2.086-.002 4.168-.139 6.258-.063 3.272.12 6.546.27 9.824.128 2.511-.11 5.027.12 7.539-.06 1.006-.073 2.015-.139 3.026-.088.719.036 1.438.01 2.151-.07.861-.098 1.74-.044 2.653-.26-.139-.668-.066-1.31-.05-1.954.124-4.892.092-9.785.063-14.677-.032-5.228.177-10.455.122-15.684a40.13 40.13 0 01.002-1.072c.005-.335.053-.669.066-1 .048-1.153.123-2.308.058-3.468-.623-.146-1.196.032-1.772.042-1.975.033-3.946-.081-5.92-.111-.605-.01-1.214.014-1.816-.034-1.565-.125-3.13-.223-4.7-.172-.74.024-1.48.08-2.219.067-2.802-.05-5.603.077-8.407-.1-2.08-.132-4.173-.084-6.26-.065-2.603.023-5.204-.113-7.807-.096-3.993.027-7.981-.159-11.971-.237-2.49-.048-4.983-.024-7.474-.033-.603-.002-1.207-.058-1.817.042-.132.303-.119.614-.119.924.001 1.632.01 3.263-.003 4.895a32.977 32.977 0 01-.09 2.275 40.827 40.827 0 00-.097 4.484c-.118 3.083.16 6.16.15 9.24-.287.018-.585-.024-.843.154-.622.041-1.214.324-1.853.223.004-3.705-.412-7.394-.423-11.098-.01-.671-.211-1.33-.132-2.006.257-3.223.055-6.452.162-9.675.021-.66-.026-1.36.242-2.004 1.132.17 2.273.135 3.413.136h13.669c.201 0 .408-.024.605.01 1.19.203 2.527.007 3.723.023 1.765.025 3.404.314 5.173.123 1.087-.117 2.197-.008 3.297-.025 1.85-.03 3.693.15 5.549.031 1.088-.07 2.178-.235 3.277-.167.514.03 1.033-.008 1.548.007 2.26.066 4.525-.153 6.781.128.176.021.378.038.533-.027.306-.128.616-.107.927-.1 1.093.023 2.186.046 3.28.102 2.66.136 5.327-.05 7.992.146 1.362.1 2.737.015 4.106.018.669.002 1.341-.05 1.998.136.161.564.19 1.007.16 1.715.001 1.043-.04 1.357-.07 2.245a9 9 0 01.044 1c.003 2.255.074 4.513-.024 6.764-.065 1.49-.078 2.979-.116 4.468-.015.584.102 1.334.06 1.92-.096 3.619.073 6.758-.087 10.228-.105 2.274-.045 4.543-.098 6.813-.047 2.018.014 4.036.007 6.054"/><path fill="#663515" d="M56.145 27.153c-.805-.516-1.058-1.277-.886-2.262-.815.27-1.508.106-2.137-.373-.694-.528-.691-1.238-.457-1.99-1.571-.462-1.895-1.047-1.534-2.772-.757-.19-1.551-.782-1.699-1.574-.135-.725.246-1.67.82-2.224-1.168-1.007-1.597-2.511-1.047-3.402.531-.86 1.756-1.254 3.035-.914-.033-1.43 1.43-2.302 3.12-1.822-.175-1.171.687-2.482 2.183-2.052.057-.781.067-1.592.755-2.124.64-.493 1.383-.505 2.14-.452-.536-3.13 1.676-3.85 3.498-3.308.6-.796 1.05-1.723 2.303-1.744 1.072-.018 1.955.133 2.506 1.23.53-1.337 1.828-1.935 3.043-.684.614-.99 1.91-.823 2.196.195.638-.27 1.39-.402 2.016.15.629.553.431 1.247.235 1.981.766-.2 1.423-.093 1.93.524.463.562.642 1.217.594 1.978.528.076 1.159.117 1.417.657.225.468.224.914.185 1.413-.033.42-.33.919-.654 1.187.564.933-.024 1.762-.832 2.096-.199.082-.417.116-.627.173-1.056.087-1.462-.407-2.126-.829-.271.596-.62.955-1.226.976-.55.02-1.036-.106-1.457-.67-.091.586-.46.741-.843.856-.387.117-.73-.01-1.148-.143.1.764.057 1.492-.187 2.207-.27.79-.814 1.243-1.664 1.368.64 1.182.67 2.217-.363 3.104.406.467.68.947.75 1.78.054.742-.664 1.359-1.04 1.686.393.696.431 1.381.103 2.043-.349.706-.975.996-1.712.94-.479 2.086-1.025 2.124-2.722 2.132-.034.044-.096.11-.142.185-.094.152-.179.308-.267.462-.47.508-1.058.483-1.655.362-.384-.079-.76-.197-1.116-.291-1.179.957-2.433.802-3.109-.61-.582.81-1.349.829-2.179.555"/><path fill="#699BCF" d="M19.095 67.531c-.713-.829-1.423-1.66-2.141-2.483-.067-.077-.184-.112-.277-.167-.499-.811-1.212-1.461-1.758-2.237-.038-.054-.073-.11-.136-.206.625-.732 1.243-1.483 1.891-2.21 1.298-1.456 2.646-2.872 3.831-4.421.053-.07.131-.119.197-.178.155.128.327.24.46.385.846.917 1.82 1.69 2.773 2.495.581.49 1.25.859 1.803 1.38.632.596 1.376 1.061 2.09 1.549 1.085.74 2.262 1.33 3.492 1.835.72.296 1.497.512 2.151.928.798.507 1.675.858 2.513 1.268a56.608 56.608 0 005.122 2.18c1.747.652 3.6.92 5.453 1.143.87.105 1.744.17 2.615.255 1.162.114 2.32.259 3.489.291-.335 1.539-.649 3.083-1.017 4.614-.114.471-.007.974-.252 1.418-1.178.186-2.375.167-3.555.288-2.936.301-5.88.368-8.824.368-1.64 0-3.25-.29-4.83-.75-2.438-.712-4.825-1.563-7.07-2.715-1.903-.976-3.911-1.793-5.594-3.145-.798-.642-1.553-1.336-2.426-1.885"/><path fill="#8F592A" d="M60.995 90.365c.18.104.37.13.576.143 3.116.179 6.236.12 9.354.144.774.006 1.553.057 2.325.086 2.484.093 4.977-.05 7.458.071 3.588.176 7.175.046 10.76.138.615.016 1.235.108 1.856.125.603.016 1.18-.175 1.788-.157 1.333.04 2.66.245 3.998.152.908-.064 1.813-.22 2.725-.135 2.624.244 5.258.018 7.88.168 1.246.072 2.49.13 3.731.093 10.259-.296 20.52.03 30.778-.166 3.409-.065 6.82.042 10.223-.13 1.446-.074 2.897.01 4.33-.142 1.115-.119 2.23.009 3.329-.13 1.54-.195 3.146.09 4.676-.269a5.141 5.141 0 011.226-.132 6.504 6.504 0 001.893-.29c.193 1.017.032 2.039.096 3.055-.41.155-.786.173-1.163.185-1.87.056-3.728.354-5.604.297a1.268 1.268 0 00-.586.128c-1.243.188-2.494.127-3.744.142-.954-.073-1.89.221-2.843.15-2.52.086-5.043.05-7.559.17-2.476.118-4.951.152-7.422.048-3.39-.143-6.781.024-10.167-.113-2.386-.095-4.772-.199-7.155-.098-1.515.064-3.029.154-4.544.115-1.159-.03-2.312-.19-3.475-.11-2.896.196-5.798.076-8.696.168-1.605.05-3.21.124-4.816.054-4.815-.21-9.634.015-14.448-.148-1.67-.057-3.343-.028-5.011-.202-1.154-.12-2.317-.08-3.477-.067-1.762.021-3.524.026-5.287.038l-2.828-.006H67.53v4.538c-.144-.334-.084-.689-.087-1.035-.008-1.14-.003-2.279-.003-3.483-2.17-.024-4.269.011-6.412-.078a42.183 42.183 0 01-.034-3.317"/><path fill="#F06022" d="M52.004 69.536c-1.158-.032-2.306-.18-3.458-.296-.863-.087-1.729-.153-2.591-.26-1.838-.227-3.673-.501-5.405-1.165a55.343 55.343 0 01-5.078-2.222c-.83-.419-1.699-.777-2.49-1.293-.649-.424-1.418-.644-2.132-.946-1.22-.515-2.386-1.117-3.46-1.871-.709-.497-1.446-.97-2.073-1.58-.547-.53-1.21-.905-1.786-1.405-.945-.82-1.91-1.61-2.748-2.544-.133-.148-.304-.262-.457-.392a16.367 16.367 0 012.297-2.935c1.506-1.517 3.097-2.944 4.687-4.37.03-.027.08-.03.12-.045.168.269.407.472.624.695 1.333 1.365 2.907 2.442 4.35 3.676 1.375 1.176 2.876 2.19 4.406 3.16 1.318.835 2.651 1.654 3.927 2.553 1.427 1.006 3.011 1.737 4.475 2.676 1.601 1.025 3.313 1.838 5.078 2.522 1.1.426 2.202.845 3.297 1.284l-1.583 4.758"/><path fill="#C9E4D0" d="M60.054 48.642c-.216.655-.538 1.255-.909 1.833-.732 1.142-1.183 2.413-1.605 3.695-.373 1.134-.788 2.252-1.336 3.313-1.177-.332-2.166-1.052-3.237-1.603-.253-.13-.466-.35-.726-.453-.953-.373-1.702-1.08-2.578-1.582-.95-.543-1.857-1.172-2.795-1.744a74.47 74.47 0 00-3.61-2.049c-1.181-.632-2.318-1.352-3.453-2.067-.705-.445-1.424-.894-2.04-1.45-.74-.665-1.617-1.137-2.33-1.846-.412-.41-.929-.735-1.35-1.16-.232-.236-.5-.43-.824-.525.611-.64 1.357-1.115 2.037-1.67a57.373 57.373 0 002.35-2.035c1.6-1.456 3.2-2.91 4.885-4.268.308-.248.547-.585.937-.726.423.205.578.659.885.974 2.293 2.347 4.622 4.656 7.063 6.847.706.634 1.39 1.3 2.142 1.873 1.768 1.346 3.49 2.76 5.406 3.898.378.225.676.57 1.088.745"/><path fill="#E7DCC7" d="M59.898 49.14c-.409-.18-.705-.533-1.08-.763-1.904-1.165-3.615-2.612-5.37-3.99-.748-.587-1.427-1.268-2.129-1.917-2.424-2.243-4.738-4.605-7.016-7.008-.305-.322-.46-.787-.88-.997.588-.676 1.333-1.153 2.012-1.71 1.557-1.276 3.254-2.346 4.962-3.38 1.593-.963 3.2-1.91 4.875-2.72.055-.026.094-.088.141-.133.827.277 1.592.258 2.171-.562.674 1.43 1.902 1.224 3.077.256.344.408.751.577 1.134.656.594.123 1.179.148 1.648-.366.1.037.209.059.3.114 1.386.843 2.492 1.973 3.251 3.456.47 1.15.483 2.36.43 3.579-.029.694-.017 1.393-.263 2.057-.495-.858-.948-1.746-1.55-2.533-.7-.917-1.475-1.725-2.57-2.151-1.403-.545-2.68-.195-3.888.547a3.17 3.17 0 00-1.415 1.899c-.282 1.057-.389 2.146-.176 3.244.047.245.067.496.095.745.133 1.132.316 2.252.788 3.297.095.466.273.9.44 1.34.705 1.85 1.603 3.606 2.445 5.388-.58.453-1.037 1.023-1.432 1.651"/><path fill="#EDCDD8" d="M33.43 43.576c.325.096.592.292.825.53.42.432.936.762 1.348 1.177.713.719 1.59 1.196 2.328 1.87.616.564 1.335 1.018 2.04 1.469 1.134.725 2.27 1.454 3.45 2.095a74.157 74.157 0 013.608 2.075c.938.58 1.845 1.217 2.793 1.767.875.51 1.624 1.225 2.576 1.603.26.104.474.327.727.459 1.07.558 2.058 1.288 3.234 1.625-.63 1.427-1.274 2.848-1.884 4.284-.331.777-.605 1.58-.904 2.37-1.082-.443-2.172-.864-3.26-1.293-1.744-.69-3.435-1.508-5.018-2.542-1.447-.945-3.013-1.682-4.424-2.696-1.26-.906-2.578-1.73-3.881-2.573-1.512-.976-2.996-1.999-4.355-3.184-1.426-1.242-2.983-2.328-4.3-3.703-.215-.225-.45-.43-.616-.7.504-.719 1.18-1.252 1.864-1.767 1.138-.858 2.372-1.583 3.4-2.593.123-.12.299-.183.45-.273"/><path fill="#ECECEC" d="M141.359 26.887c-.666-.11-1.324-.126-1.99-.128-1.363-.003-2.733.077-4.089-.017-2.654-.185-5.31-.01-7.959-.138-1.09-.053-2.177-.075-3.266-.097-.31-.007-.618-.027-.923.095-.154.061-.356.046-.531.025-2.247-.265-4.502-.059-6.752-.12-.514-.015-1.03.022-1.542-.008-1.095-.063-2.18.093-3.264.159-1.848.113-3.684-.058-5.526-.03-1.094.017-2.2-.087-3.283.024-1.762.181-3.394-.093-5.151-.116-1.192-.015-2.523.17-3.708-.023-.196-.031-.402-.008-.603-.008l-13.612-.001c-1.135 0-2.27.033-3.4-.128.681-.755 1.533-1.338 2.279-2.027.11-.102.271-.165.355-.281.485-.679 1.173-.77 1.98-.752 1.964.043 3.934-.05 5.895.035 1.49.065 2.98.135 4.47.092.768-.023 1.54-.11 2.308-.203a8.334 8.334 0 012.003-.001c.397.048.791.088 1.189.089 2.39.004 4.78-.003 7.17.006.62.002 1.235-.017 1.86.102.72.137 1.462-.134 2.185-.091 2.651.158 5.31-.003 7.953.138 3.213.172 6.424.127 9.63.064 1.936-.039 3.874-.095 5.81-.07 1.165.015 2.407-.018 3.562.178.11.019.222.033.331.028 1.36-.06 2.224.211 3.584.117.29-.02.824.035.962.29.522.959 1.456 1.902 2.073 2.797"/><path fill="#6A3E19" d="M66.792 98v-4.358h3.769c.072 2.22-.038 4.438.107 6.662.17 2.616.096 5.248.136 7.872.101 6.679.17 13.387.17 20.067 0 .225-.013.453.019.673.13.906.12 1.783.122 2.7.007 2.451.017 4.902.026 7.353 0 0-.319.037-.496.044-1.245.055-2.526.095-3.843.013-.013-.804-.105-1.49-.11-2.244-.02-3.578-.014-7.156-.003-10.734.002-.627.118-1.25.103-1.883-.048-2.022-.151-4.041-.236-6.061a46.79 46.79 0 01.025-4.116c.113-2.452.01-4.907.117-7.356.126-2.878.131-5.754.094-8.632m91.756-4.222c1.307-.014 2.616.044 3.917-.136-.05 2.991-.208 5.986-.12 8.973.108 3.732.086 7.465.21 11.196.073 2.202.081 4.408-.037 6.612-.118 2.18-.068 4.364-.036 6.546.036 2.408-.017 4.815-.065 7.22-.025 1.303-.077 2.607-.097 3.911-.003.2-.033.4-.058.679a49.463 49.463 0 01-4.273.294v-8.048c0-.045 0-.09.007-.134.2-1.149.284-2.305.273-3.47a135.02 135.02 0 010-3.307c.083-5.776-.132-11.553.117-17.33.12-2.779.004-5.566.146-8.349.08-1.549.016-3.104.016-4.657"/><path fill="#C9A382" d="M74.656 17.528c.503.015 1.142-.632 1.15-1.162.008-.49-.566-1.092-1.042-1.096-.672-.005-1.288.502-1.288 1.061-.001.599.572 1.18 1.18 1.197m-7.336 12.8c-.764-1.441-1.875-2.542-3.27-3.361-.09-.054-.2-.075-.3-.11.089-.152.174-.306.267-.455.047-.074.109-.14.143-.183 1.7-.007 2.247-.045 2.726-2.098.738.055 1.365-.23 1.715-.924.328-.652.29-1.326-.104-2.012.445-.402 1.073-.998 1.018-1.729-.047-.63-.32-1.165-.727-1.682 1.035-.873 1.004-1.892.364-3.055.85-.123 1.396-.569 1.666-1.346.244-.704.288-1.42.187-2.172.406.14.762.255 1.15.141.383-.113.753-.266.845-.843.422.555.908.679 1.458.66.608-.022.957-.375 1.229-.96.664.414 1.138.86 2.129.815.326 1.546-.083 3.09-.019 4.637.018.42-.016.835.084 1.256.201.845.755 1.49 1.184 2.203.34.565.808 1.05 1.085 1.662.13.287.35.529.15.906-.199.355-.619.296-.962.206a34.425 34.425 0 01-1.767-.536 2.567 2.567 0 00-.771-.14c-1.222-.012-1.99.893-1.836 2.112.054.427.305 1.037.136 1.284-.515.27-1.08.008-1.372-.469-.092-.15-.148-.32-.228-.478-.1-.2-.196-.432-.48-.355-.26.071-.378.268-.4.546-.036.503.174.905.48 1.27.143.168.326.302.463.474.254.318.169.601-.22.697-.321.079-.653.092-.976-.032-.762-.292-1.373-.104-1.95.49-1.094 1.127-1.855 2.463-2.553 3.849-.205-.04-.26-.387-.544-.267"/><path fill="#BF9432" d="M79.025 60.295c-1.006.226-2.019.425-2.948.914-1.639.669-3.324 1.026-5.097.877a1.541 1.541 0 01-1.01-.454 14.135 14.135 0 01-2.211-2.763c-1.056-1.717-1.45-2.87-2.414-4.638-.088-.161-.39-.636-.671-1.185.616-.072 1.235.05 1.856-.107 2.818-.717 5.346-2.05 7.685-3.8.256.501.493 1.01.56 1.582.024.204.14.366.295.423.304.11.57.348.917.323.636.105 1.225-.189 1.843-.232.65 2.938 1.382 5.86 1.627 8.878l-.432.182"/><path fill="#885222" d="M71.686 139.073c-.009-2.457-.019-4.914-.024-7.37-.003-.92.006-1.799-.116-2.706-.03-.221-.016-.45-.017-.675a1439.73 1439.73 0 00-.16-20.112c-.037-2.63.033-5.268-.127-7.891-.136-2.23-.033-4.453-.1-6.677l2.744.005c-.004 3.63.082 7.263-.034 10.89-.174 5.432-.099 10.865-.12 16.297-.017 4.237-.055 8.476-.041 12.714.004 1.082.046 2.164.085 3.245.006.167-.022.547-.022.547-.06.183-.203.252-.372.395-.553.463-1.032 1.028-1.696 1.338m87.205-45.419c0 1.557.059 3.116-.015 4.67-.131 2.79-.024 5.585-.135 8.372-.23 5.793-.032 11.585-.109 17.376-.014 1.106-.01 2.211 0 3.317a20.638 20.638 0 01-.252 3.48c-.007.043-.006.09-.006.134v7.88c.005.05 0 .19 0 .19-.089-.053-.205-.17-.48-.383-.451-.39-1.035-.826-1.53-1.238-.052-.043-.115-.046-.096-.584.031-1.196.082-2.391.08-3.587-.003-2.845-.042-5.69-.047-8.534-.01-5.599.083-11.2-.037-16.796-.1-4.629-.054-9.255-.1-13.882 0-.09-.015-.18-.023-.27.923.068 1.828-.216 2.75-.145"/><path fill="#010101" d="M49.644 132.65c1.878 1.136 3.818 2.082 6.094 2.239 1.215.084 2.42.312 3.63.483.192.027.382.085.566.148 1.071.37 1.345 1.482.482 2.232-.89.774-1.946 1.29-3.193 1.23-.788-.038-1.647.076-2.435.089-1.795.029-3.5-.255-5.252-.64-.616-.135-1.167-.422-1.706-.805-.215.473-.018.958-.287 1.324-1.776.226-3.292.079-5.365.005-.176-.814-.538-1.558-.501-2.394.047-1.116.29-2.17 1.008-3.081.106-.135.19-.288.402-.275.17.092.358.163.509.28.971.747 2.09.767 3.239.616.832-.109 1.618-.341 2.248-.923.188-.174.327-.399.561-.527"/><path fill="#699BCF" d="M62.047 47.934c-.852-1.765-1.759-3.502-2.471-5.334-.17-.436-.35-.867-.446-1.328.13-.024.26-.058.392-.072 3.375-.346 6.271-1.746 8.728-4.114l.215.275c.147.492.466.898.69 1.35.443.89.758 1.842 1.265 2.7a16.136 16.136 0 001.44 3.134l.205.546c-1.034.983-2.275 1.626-3.563 2.164-2.019.843-4.134 1.077-6.3.903l-.155-.224"/><g transform="translate(0 128.874)"><mask id="b" fill="#fff"><use xlink:href="#a"/></mask><path fill="#010101" d="M8.652 1.104l.17.49c.773 2.251 3.352 2.913 5.66 3.688.698.234 1.37.556 2.036.874.53.254.846.675.818 1.296-.025.56-.236 1.473-.798 1.491-2.456.08-6.005.23-8.355-.654-1.053-.398-1.89-.952-2.465-1.911-.143-.238-.275-.498-.544-.688-.524.223-.82.735-1.26 1.095-1.365-.413-2.456-1.067-3.91-1.626C-.053 3.311.514 1.798 2.012.7c.21-.155.432-.295.648-.442.86.52 1.771.92 2.783 1.013 1.074.098 2.16.293 3.209-.166" mask="url(#b)"/></g><path fill="#E4B62F" d="M61.902 47.446c2.149.166 4.248-.059 6.25-.867 1.279-.516 2.51-1.133 3.536-2.076.061.088.138.168.18.264.658 1.483 1.286 2.98 2.045 4.418-2.308 1.641-4.804 2.89-7.584 3.561-.614.149-1.224.033-1.832.102-.968-1.753-1.842-3.488-2.595-5.402"/><path fill="#F06370" d="M8.604 130.419c-1.02.486-2.077.28-3.123.176-.985-.099-1.872-.524-2.71-1.075.287-1.57.96-2.967 1.657-4.354.781.456 1.611.752 2.475.987 1.1.299 2.174.704 3.26 1.064-.628 1.006-.976 2.17-1.559 3.202m41.018 2.298c-.25.145-.397.398-.598.595-.67.656-1.507.918-2.393 1.041-1.223.17-2.414.148-3.448-.696-.16-.13-.36-.211-.542-.315-.225-1.173-.106-2.36-.135-3.54 1.383.056 2.754.269 4.14.33 1.082.046 2.16.203 3.245.237l-.27 2.348"/><path fill="#0F5542" d="M70.359 40.795c-.516-.852-.837-1.797-1.288-2.682-.228-.449-.552-.852-.701-1.34.503-.379.832-.91 1.217-1.389.524-.652 1.007-1.336 1.508-2.007.938.985 2.033 2.134 2.818 3.228 0 0-.293.397-.478.66-.902 1.282-2.01 2.39-3.076 3.53"/><path fill="#E7DBC6" d="M70.217 41.341c1.111-1.158 2.264-2.283 3.203-3.584.193-.268.498-.67.498-.67.677.723.962 1.233 1.705 1.807-.084.69.128 1.363.138 2.048a.414.414 0 00-.317.12c-1.154 1.229-2.51 2.251-3.7 3.441a15.91 15.91 0 01-1.527-3.162"/><path fill="#558C57" d="M71.141 33.882c-.518.633-1.018 1.278-1.561 1.894-.399.451-.74.953-1.26 1.31l-.226-.258-.325-.76c.261-.617.25-1.267.28-1.911.056-1.131-.103-2.493-.603-3.561.31.148.468.312.722.494 1.156.786 2.079 1.777 2.973 2.792"/><path fill="#DDDDDC" d="M70.217 81.95s.305-.535.51-.774c1.04-1.203 2.06-2.424 3.26-3.484 1.4-1.233 2.76-2.499 3.926-3.942.3-.372.131-.505 1.13-.454.906.083 1.826.04 2.74.051 1.942.026 3.884.109 5.822.07 2.141-.044 4.283-.035 6.423-.074 2.811-.053 5.622-.018 8.433.022 1.022.014 2.04-.148 3.067-.116 7.986.252 15.973.28 23.962.231 2.543-.016 5.086-.055 7.63.015 1.248.034 2.495.146 3.745.112a.839.839 0 01.653.252c2.262 2.186 4.645 4.26 6.69 6.647.324.38.686.735 1.063 1.067.308.27.405.709.401.784.004-.075 0 0 0 0s-.096.026-.243.013c-1.569-.044-3.122-.04-4.673-.11-1.705-.075-3.421.003-5.135.067-3.783.141-7.575-.073-11.36.16-.669.04-1.316-.158-1.989-.136-1.845.057-3.692.066-5.537.102-2.936.058-5.876.06-8.818-.055-2.686-.106-5.386-.151-8.081.068-1.053.086-2.125.013-3.194-.078-1.457-.122-2.93-.063-4.398-.137-2.084-.106-4.168.125-6.252.213-2.333.1-4.674.054-7.009-.107-.044-.002-.09 0-.133-.008a18.443 18.443 0 00-3.106-.249c-2.41.01-4.82.003-7.231 0-.265 0-.526-.04-.79-.075-.502-.068-1.359.125-1.506-.074"/><path fill="#F5F4F4" d="M72.565 85.557c-.291 0-.467-.03-.67-.037-.485-.017-1.088-.04-1.599-.04-.147-.893-.06-1.955.034-2.963.519.056 1.003.005 1.504.073.263.035.524.073.789.074 2.407.002 4.814.01 7.22 0a18.666 18.666 0 013.102.246c.044.007.089.005.133.008a63.77 63.77 0 006.999.105c2.081-.087 4.162-.315 6.244-.21 1.466.073 2.936.015 4.391.136 1.068.088 2.138.16 3.19.076 2.69-.216 5.387-.171 8.07-.067 2.938.113 5.873.111 8.805.054 1.843-.036 3.687-.044 5.53-.1.672-.022 1.318.174 1.986.133 3.78-.23 7.566-.018 11.344-.157 1.711-.064 3.425-.14 5.128-.065 1.548.068 3.343.05 4.909.095-.032.547-.021.762-.07 1.203-.059.705-.167 1.013-.276 1.633-.907 0-1.817-.006-2.727.001-2.139.017-4.28-.069-6.416.086-3.428.248-6.863.023-10.291.143-2.716.095-5.433.078-8.15.176-2.826.102-5.663.075-8.49-.02-4.922-.166-9.841-.416-14.769-.27-1.715.051-3.43.115-5.144.186-1.783.074-3.565-.024-5.347-.037-2.964-.02-5.93-.062-8.89-.19-2.025-.087-4.052-.138-6.076-.263-.153-.01-.28.007-.463-.009"/><path fill="#DDDDDC" d="M156.028 79.735c.825.541 1.458 1.216 1.8 2.156.271.749.145 1.474.024 2.208-.056.338-.292.584-.585.778-.892.592-2.126.56-2.965-.102-.563-.445-1.124-.901-1.521-1.502-.336-.509-.904-.795-1.26-1.28.256-.113.402-.346.603-.517 1.041-.887 2.134-1.665 3.62-1.604.12.005.22-.03.284-.137"/><path fill="#F5F4F4" d="M157.065 79.365c-.065.105-.17.14-.294.135-1.548-.06-2.684.706-3.767 1.58-.21.17-.361.399-.627.51-.992-.864-1.114-1.77-.402-2.762.05-.07.075-.156.111-.234.3-.227.667-.343 1.004-.506.741-.371 1.47-.193 2.132.135.649.322 1.231.757 1.843 1.142"/><path fill="#010101" d="M79.06 60.285l.43-.175c.965-.133 1.889-.44 2.833-.66 1.638-.38 3.305-.583 4.967-.823 2.317-.225 4.4-1.169 6.484-2.108.298-.134.36-.364.305-.654.218-.034.44-.055.656-.102 1.482-.322 2.961-.596 4.43.065.16.071.342.1.517.121.197.023.404.049.595.012.49-.094.65-.603.305-.96a1.302 1.302 0 00-.695-.371 9.301 9.301 0 01-.966-.243c-.17-.053-.421-.061-.378-.37.235-.097.477-.067.72-.06.577.016 1.155.032 1.732.027.39-.004.758-.106 1-.44.298-.411.175-.697-.327-.793-.525-.1-1.057-.059-1.587-.058-.602 0-1.222.028-1.75-.449.21-.194.406-.288.633-.279.646.026 1.285-.102 1.925-.097.779.006 1.396-.19 1.72-.956.992-.462 1.818-1.173 2.737-1.894.048.53.488.7.71 1.03-.445.398-.406.865-.235 1.347-.628.078-1.34.084-1.299.87-.082.712.536.712.982.893.1.926-.004 1.85-.118 2.784-.655.102-.466.625-.497 1.028-.494.25-.274.777-.329 1.311-.99.052-2.369.329-3.258.587-.441.13-.704.492-.842.957-.434 1.464.12 2.897 1.456 3.638 1.444.8 3.008 1.059 4.633.894.901-.091 1.799-.245 2.59-.76 1.124-.733 1.416-2.002.687-3.118a4.848 4.848 0 00-1.81-1.634c-.23-.124-.657.052-.856-.218.238-.417.088-.957-.147-1.244.012-.233.156-.409.08-.694-.013-.134-.275-.115-.382-.382l.655-2.341c.045-.158.149-.243.307-.308.563-.23.931-.521.933-1.236-.046-.565-.609-.48-.842-.757.497-.468.66-.98.295-1.62.269-.102.475-.272.692-.525.536 1.35 1.272 2.48 2.06 3.58 1.267 1.768 3.597 2.36 5.319 1.63.107.003.213-.01.322-.004 1.143.057 2.292.21 3.41-.182.173.38.344.761.508 1.124.85.201 1.662.428 2.486.578.823.15 1.594.32 2.442.517.538-.99.538-2.076.811-3.124-.228-.085-.448-.19-.68-.25-.966-.25-1.972-.294-2.94-.518-.703-.163-1.341-.153-1.96.23-.338-.217-.717-.187-1.095-.194-.389-.007-.56-.057-1.162-.118.205-.076.424-.122.563-.32.195-.28-.117-.545-.039-.812.707-.195.669-.546.297-1.026-1.006-.426.073-1.15.276-1.69.766-.18.902-.4.687-1.128-.038-.128-.12-.248-.062-.377.225-.502.262-1.07.535-1.552.463.074.859-.085 1.22-.289.567-.322.582-1.01.024-1.338-.706-.417-1.433-.773-2.288-.837-.672-.05-1.324-.283-2.094-.238l.74-1.638c.305-.03.627.089.766-.219.172-.382-.194-.536-.421-.77.183-.382.288-.788.562-1.12.717.01 1.401-.202 1.451-.914-.06-.314-.266-.412-.463-.515-1.44-.41-2.553-.686-3.89-.69-.269 0-.472.125-.555.391-.09.288.098.45.292.613.302.251.694.263 1.036.379-.02.565-.246 1.185-.637 1.784-.044-.001-.092.008-.13-.007-.218-.092-.44-.167-.559.122-.113.274.02.454.259.604.14.088.37.063.415.326-.134.288-.18.644-.397.927-.188-.049-.354-.105-.524-.133-.392-.066-.7.065-.878.43-.184.377.017.632.288.864.238.204.525.314.849.425-.081.984-.352 1.881-.864 2.702-.12.19-.274.365-.537.321-.23-.038-.31-.226-.384-.417-.138-.355-.189-.729-.226-1.103-.043-.434-.217-.811-.471-1.154-.299-.4-.632-.503-1.109-.343-.314.106-.618.245-.932.35-.614.206-1.127.62-1.723.897-.058-.489.394-.706.398-1.142.005-.526-.35-.66-.7-.806a4.466 4.466 0 01.276-2.001c.564.014 1.042-.106 1.154-.707.128-.691-.519-.766-.916-1.024l.2-1.212c.452-.066.937-.035 1.112-.577.177-.546-.279-.782-.561-1.096.023-.441.14-.844.24-1.27.294-.08.596-.146.863-.312.257-.162.461-.343.447-.682-.015-.332-.265-.424-.509-.543-.955-.463-1.948-.715-3.022-.64-.36.025-.646.146-.903.367-.416.355-.387.692.042 1.038.24.194.585.205.819.5-.19.46-.155.977-.263 1.405-.131.153-.252.126-.357.148-.286.058-.497.192-.522.513-.023.31.233.402.432.532.184.12.436.067.636.243-.189.422-.022.922-.316 1.341-.33.072-.714-.059-1.012.203-.652.092-1.296.22-1.92.431-.572.194-1.569.506-1.744.138a.238.238 0 00-.046-.05c.117-.366.438-.492.753-.598.504-.17 1.015-.327 1.531-.455a2.6 2.6 0 00.906-.404c.375-.27.405-.481.237-.816-.176-.351-.284-.213-.61-.162a6.422 6.422 0 00-2.574.97.864.864 0 01-.903.024c-.025-.15.06-.197.116-.261.195-.008.35-.072.394-.286-.068-.343.32-.341.537-.465a17.61 17.61 0 001.526-.951c.447-.32.44-.481.085-.98h-.53c-.18-.007-.296-.083-.295-.28.004-.395-.236-.586-.57-.729-1.015-.433-2.01-.622-3.205-.841-.366.007-.718-.268-.995.106-.143.193.131.928.426 1.194.097.087.22.145.334.214.113.067.133.165.105.283-.334.057-.506.323-.72.543-.767.788-.959 1.858-1.4 2.806-.11.01-.22.023-.33.03-.628.036-1.234-.16-1.857-.172-.41.12-.435.215-.593.634-.046.124.003.243.005.377-1.445.579-3.05 1.238-4.53 1.722-.21.068-.42.135-.628.204-1.733.582-3.27 1.583-4.932 2.315-.064.012-.13.02-.192.038-1.028.297-1.974.788-2.944 1.222-.615.276-1.238.334-1.83-.045-.51-1.128-1.07-2.204-1.94-3.088a40.906 40.906 0 01.097-4.461 32.84 32.84 0 00.089-2.263c.013-1.623.004-3.246.003-4.869 0-.308-.012-.617.119-.919.604-.1 1.204-.044 1.803-.042 2.471.009 4.944-.015 7.416.034 3.96.077 7.917.262 11.879.235 2.583-.017 5.164.119 7.747.095 2.07-.018 4.148-.067 6.212.065 2.782.177 5.562.05 8.342.1.734.012 1.468-.043 2.202-.067 1.559-.051 3.111.046 4.664.17.598.049 1.202.026 1.802.035 1.959.03 3.915.142 5.875.11.571-.01 1.14-.187 1.758-.042.065 1.154-.01 2.303-.058 3.45-.013.33-.06.662-.066.994-.005.356-.005.712-.002 1.068.055 5.2-.152 10.4-.12 15.6.029 4.867.06 9.734-.062 14.6-.016.64-.09 1.279.048 1.943-.906.215-1.777.162-2.632.259-.707.08-1.421.105-2.135.07-1.003-.051-2.003.015-3.003.086-2.492.18-4.988-.048-7.48.06-3.252.142-6.501-.007-9.749-.126-2.073-.076-4.14.06-6.209.062-2.604.003-5.209.044-7.813.09-3.007.052-6.008-.2-9.014-.203-.82 0-1.638-.22-2.457-.223-2.27-.006-4.538-.16-6.808-.05-.443.02-.888.002-1.445.002-.276-2.614-.338-5.22-.498-7.818"/><path fill="#C8E4CF" d="M86.848 57.907c-1.629.232-3.263.427-4.87.795-.926.211-1.832.508-2.778.636-.239-2.798-.955-5.506-1.591-8.229.25-.17.54-.13.82-.147a16.006 16.006 0 003.395-.444c.985-.235 1.974-.486 3.004-.448.12.8.331 1.579.57 2.351.56 1.81 1.074 3.63 1.45 5.486"/><path fill="#CE7A69" d="M85.202 50.061a15.957 15.957 0 00-3.048.468c-1.135.278-2.279.44-3.444.464.009-3.09-.265-6.178-.149-9.271.865.892 1.313 1.958 2.05 3.056.59.383 1.089.382 1.7.105.966-.438 1.907-.933 2.93-1.233.061-.018.127-.026.19-.04.708 2.083 1.532 4.12 2.34 6.163-.59.195-1.203.147-1.81.154-.261.002-.53.075-.759.134"/><path fill="#CE7B69" d="M72.065 44.467c1.234-1.142 2.638-2.123 3.833-3.301.088-.086.165-.223.328-.371.012 3.627.463 7.495.459 11.124-.38.024-.669-.201-1-.306a.48.48 0 01-.323-.4c-.074-.54-.332-1.02-.61-1.495-.84-1.45-1.535-2.96-2.262-4.457-.047-.096-.132-.178-.2-.266l-.225-.528"/><path fill="#F06022" d="M68.06 36.573l.31.836c-2.467 2.44-5.373 3.882-8.761 4.238-.132.014-.262.05-.393.075-.48-1.066-.664-2.208-.799-3.364-.03-.253-.048-.51-.097-.759-.216-1.12-.107-2.231.179-3.31a3.234 3.234 0 011.436-1.937c1.225-.756 2.521-1.114 3.944-.558 1.111.434 1.899 1.26 2.609 2.194.61.803 1.07 1.709 1.572 2.585"/><path fill="#FAF9F8" d="M76.221 15.832c0-.319-.277-.483-.712-.415-.291.045-.535.165-.54.4-.005.193.126.374.395.424.449.082.857-.076.857-.409m-.904.857c-.724-.015-1.405-.492-1.404-.983 0-.46.733-.876 1.532-.872.566.004 1.248.499 1.24.9-.01.436-.77.967-1.368.955"/><path fill="#EFE5C3" d="M103.616 40.285a.241.241 0 01.046.05c-.102 1.011-.7 1.067-1.693 1.003-.193.55-.392 1.12-.4 1.715-.007.474-.143.968.096 1.43.234.308.484.234.736.026.277-.23.364-.542.631-.838.237-.257.453-.537.715-.766.538-.471 1.093-.451 1.606.04.19.18.348.392.521.59.293.289.557.604.847 1.06.13-.658.391-1.038.98-1.12l.25-2.207c-.3-.09-.51-.25-.706-.432-.13-.38-.221-.755.13-1.076.303-.266.691-.133 1.027-.206.298-.424.129-.93.32-1.358-.203-.178-.459-.125-.645-.246-.201-.132-.46-.225-.437-.539.024-.324.239-.46.528-.52.107-.021.23.006.362-.149.11-.433.074-.958.267-1.423-.237-.298-.587-.309-.83-.505-.435-.35-.464-.692-.043-1.052.261-.223.551-.346.915-.371 1.09-.076 2.096.179 3.064.648.247.12.5.214.515.55.015.343-.192.527-.453.69-.27.169-.577.235-.874.316-.103.432-.22.84-.244 1.285.286.319.748.557.57 1.11-.178.549-.67.518-1.129.585l-.202 1.227c.403.26 1.059.336.928 1.037-.113.608-.598.73-1.17.715a4.516 4.516 0 00-.278 2.026c.355.148.714.284.709.816-.004.441-.25.599-.404 1.157.605-.28 1.132-.862 1.754-1.07.32-.107.576-.303.914-.303.472-.038.845.052 1.147.458.258.346.434.728.478 1.167.038.38.09.758.229 1.117.075.194.156.385.39.423.266.044.423-.132.543-.326.52-.83.794-1.739.876-2.735-.328-.112-.619-.224-.86-.43-.275-.236-.479-.493-.292-.874.181-.37.493-.504.89-.437.173.03.34.086.531.135.22-.286.267-.647.402-.939-.045-.266-.279-.24-.42-.33-.242-.152-.377-.334-.262-.611.12-.292.345-.217.566-.124.038.016.088.006.132.008.396-.606.624-1.235.646-1.807-.347-.117-.745-.13-1.05-.384-.197-.164-.388-.328-.297-.62.084-.27.29-.397.564-.396 1.354.004 2.478.187 3.942.698.2.105.408.204.47.522.04.811-.745.936-1.472.926-.277.336-.384.747-.57 1.133.231.237.602.393.428.78-.141.312-.468.191-.777.221l-.75 1.66c.78-.047 1.387-.007 2.081.145.868.19 1.645.52 2.36.942.566.334.551 1.03-.024 1.356-.366.206-.767.367-1.237.292-.276.488-.314 1.063-.541 1.57-.059.132.104.156.142.286.48.415.106 1.31-.776 1.239-.154.41-.378.907-.491 1.244 0 0 .402.263.521.416.377.486.106.892-.61 1.09.013.185.3.346.039.82-.141.203-.363.249-.57.326-.179-.017-.357-.048-.535-.048-.091.037-.158.16-.28.446-.15.41-.447.724-.7 1.067-.64-.026-1.029-.419-1.343-.919.21-.142.4-.301.477-.557.102-.185.158-.369-.023-.541-.129-.126-.268-.242-.384-.378-.465-.547-.312-1.004.387-1.182-.467-.413-.548-.571-.412-.873.28-.62.811-.378 1.281-.34.172-.424.407-.81.419-1.249-.425-.228-.677-.353-.771-.743.072-.512.578-.44.863-.673l.666-1.973c-.46.035-.709-.167-.878-.538a18.09 18.09 0 00-.86 1.787c-.247.598-.539 1.172-.953 1.69-.657.821-2.137.602-2.394-.524-.11-.482-.145-.974-.26-1.453-.145-.607-.54-.851-1.155-.722a1.754 1.754 0 00-.872.486 8.562 8.562 0 01-1.692 1.335c.538.504.983 1.042 1.1 1.714.262 1.498 1.014 2.767 1.793 4.02.743 1.198 1.782 1.524 3.133 1.07l1.22 1.063c-1.745.739-4.107.14-5.39-1.65-.8-1.115-1.546-2.257-2.089-3.625-.22.257-.429.428-.702.532.371.647.205 1.166-.298 1.64.236.28.757.073.853.766-.001.918-.375 1.02-.945 1.252-.161.066-.266.152-.311.311-.23.816-.458 1.633-.664 2.37 0 0 .384-.055.496.397.114.547-.178.457-.19.693.401.144.767.697.24 1.153.202.274.543.202.777.327a4.91 4.91 0 011.834 1.655c.739 1.13.443 2.415-.696 3.156-.802.521-1.712.677-2.626.77-1.647.167-3.232-.095-4.696-.906-1.354-.75-1.916-2.2-1.476-3.683.14-.47.195-.742.8-1.213 1.318-.63 2.252-.439 3.255-.49-.308-.496-.066-.934.434-1.187-.191-.39-.16-.938.504-1.041.116-.946.244-1.627.143-2.565-.343-.294-1.123-.297-1.101-1.18-.022-.917.763-.78 1.399-.858-.173-.488-.212-.961.239-1.365-.226-.334-.671-.505-.72-1.042-.931.73-1.768 1.45-2.775 1.917-.193-.403-.59-.527-.956-.694.211-.166.419-.337.634-.497.667-.496 1.36-.96 1.878-1.628.302-.39.595-.791 1.026-1.06.137-.085.27-.194.242-.371-.062-.391.178-.615.481-.82-.207-.289-.313-.585-.408-.882a2.997 2.997 0 00-.45-.898c-.56-.747-1.204-.74-1.748.011-.224.309-.397.65-.662.933-.76.813-1.423.835-2.251.048-.227-.172-.227-.308-.362-.757.02-1.085-.05-2.172.135-3.253-.35-.101-.612.045-1.163-.245a4.387 4.387 0 01-.302 1.337l-.095.455c.16.206.385.403.547.612.107.168.156.35.187.54-.04.505-.867.14-1.166.51-.07.397-.034.844-.18 1.294.442.16.917.286.715.902l-.407.521c.305.029.608.012.67.363.057.323-.125.552-.364.74-.377.297-.821.31-1.272.289-.005-.056-.01-.111-.013-.166.002-.135.013-.271.004-.406-.034-.512-.287-.721-.793-.67a1.179 1.179 0 00-.661.311c-.205.179-.547.51-.547.51-.287-.182-.587-.573-.577-.925.01-.333.256-.474.483-.649-.308-.162-.541-.351-.495-.734.073-.611.635-.619 1.048-.846l.136-.823c-1.002-1.02-.952-1.315.32-1.949l.264-1.488c-.597.072-.749-.398-1.053-.792-.002-.135-.03-.17-.015-.303.04-.37.13-.64.612-.72.63.011 1.07.014 1.704.068.289.025.377.062.512.075.817.158 1.301.13 1.885.664.244-.742.127-1.162.146-1.707-.215-.257-.663-.221-.642-.58.026-.425.475-.626.76-.73v-1.038c.029-.12.008-.219-.106-.287-.115-.069-.776-.276-.874-.364-.299-.27-.385-.892-.24-1.087.28-.38.663-.168 1.033-.175 1.17-.022 2.538.507 3.568.946.338.144.68.31.577.737-.428.73-1.141.325-1.727.285-.223.356-.17.711-.162 1.06-.01.264 0 .325.008.65.216.074.605.32.54.715-.045.217-.202.281-.399.289-.178-.03-.318-.01-.542.091.043.332-.217.65-.097 1.063.49-.018.88.2 1.19.57"/><path fill="#F06371" d="M85 50.783c.337-.062.521-.138.795-.14.636-.008 1.277.042 1.896-.161.745.103 1.463-.12 2.194-.184.959-.085 1.907-.347 2.88-.174l.066.684c.086.451.16.906.26 1.354.323 1.436.569 2.894 1.13 4.266.057.306-.008.547-.319.69-2.172.988-4.341 1.982-6.755 2.22-.4-2.026-.946-4.014-1.541-5.988-.253-.843-.478-1.694-.606-2.567"/><path fill="#C9A281" d="M93.765 56.435c-.555-1.369-.797-2.823-1.117-4.256-.1-.447-.172-.9-.257-1.35.567-.348 1.22-.591 1.496-1.289.11-.291.214-.465.362-.744.277-.255.55-.43.903-.651.262-.255.348-.344.556-.53.193-.172.41-.294.672-.322.514-.055.772.162.807.695.009.14-.003.28-.005.42-.183.586-.433.958-.858 1.415.414-.035.708-.188.983-.383.367-.13.748-.38 1.12-.491.833-.25 1.65-.403 2.535-.372.275.01.512.09.572.393.057.291-.101.497-.345.622a3.54 3.54 0 01-.635.262c-.616.178-1.236.34-1.856.503-.216.057-.317.042-.632.264-.157.023-.261.076-.248.332.211.165.313.005.627-.025l3.137-.42c.622.022.776.302.972.72-.334.807-.97 1.012-1.772 1.006-.66-.005-1.318.13-1.983.102-.235-.01-.437.09-.653.294.545.501 1.183.471 1.803.47.547 0 1.094-.043 1.636.062.518.101.644.402.337.834-.25.351-.63.458-1.03.462-.595.006-1.19-.01-1.785-.028-.25-.007-.5-.039-.742.062-.044.326.215.334.389.39.326.105.66.187.996.255.282.057.524.188.715.39.357.375.191.91-.313 1.01-.197.039-.41.011-.614-.013a1.786 1.786 0 01-.532-.128c-1.514-.694-3.038-.406-4.565-.068-.223.05-.45.072-.676.107"/><path fill="#C8E4CF" d="M94.24 48.77c-.244.228-.244.228-.5.388l-1.515.557c-.935-.16-1.845.081-2.766.158-.702.059-1.391.263-2.106.169-.814-1.953-1.642-3.9-2.353-5.891 1.663-.706 3.199-1.671 4.932-2.232.21-.068.419-.131.628-.197a174.806 174.806 0 003.68 7.047"/><path fill="#B3313D" d="M95.087 49.14a192.003 192.003 0 01-3.62-7.504c1.458-.496 3.038-1.174 4.46-1.768.294.4.505.668 1.084.595-.092.542-.238 1.238-.32 1.717-1.234.643-1.283.943-.31 1.976l-.131.835c-.401.23-.947.238-1.018.858-.045.389.182.58.48.745-.22.177-.459.32-.468.658-.01.357.281.753.56.938-.292.418-.452.7-.717.95"/><path fill="#CFC18E" d="M121.021 53.402c.222-.153.449-.292.67-.45a.603.603 0 01.141-.083.52.52 0 01.223-.017c.672.054 1.31.334 1.973.447.271.047.523.142.797.19.36.061.72.133 1.074.235.23.066.45.184.677.279-.271 1.168-.272 2.379-.807 3.48-.86-.086-1.612-.408-2.431-.575-.821-.167-1.628-.42-2.476-.644l-.504-1.253c.206-.07.413-.141.62-.21.333-.112.374-.342.24-.652-.424-.202-.69.318-1.068.232-.125-.272.059-.377.215-.498l.656-.48"/><path fill="#C9A281" d="M106.25 39.868c-.332.321-.247.695-.124 1.075a1.25 1.25 0 01-.601.361c-.55.16-1.11.29-1.668.425-.219.053-.453.068-.543.355.088.31.725.14 1.082.104.344-.035.686-.027.988.167.438.282.417.72-.016 1.006-.173.114-.44.02-.54.279-.163-.197-.314-.409-.493-.59-.486-.49-1.012-.51-1.521-.039-.248.229-.453.509-.678.766-.378.052-.657.29-1.004.432-.178.073-.204.137-.328.294-.177-.416-.06-.87-.054-1.344.008-.596.197-1.164.38-1.715.94.064 1.507.009 1.603-1.001.324.282 1.125.057 1.675-.14a9.714 9.714 0 011.842-.435m-3.473 0c-.292-.395-.658-.627-1.117-.609-.112-.44.132-.78.091-1.133.24-.197.342-.13.509-.098-.054.07-.134.121-.111.283.307.193.426-.026.806-.17.927-.42 1.571-.881 2.466-1.04.31-.054.7.044.773.216.157.363-.03.685-.387.976-.26.211-.546.348-.86.437-.491.138-.976.308-1.456.492-.298.114-.604.25-.714.646"/><path fill="#C9A382" d="M99.783 35.232c0 .304-.019.784-.019 1.125-.245.095-.558.06-.58.45-.019.328.313.29.498.525-.016.499.083.93-.127 1.608-.502-.488-1.11-.354-1.62-.607.384-.877.551-1.868 1.22-2.598.186-.204.336-.45.628-.503"/><path fill="#B1343D" d="M119.748 53.772c.544-.135.692-.416 1.148-.222.28.26.098.517-.26.623l-.665.202c-1.196.419-2.354.339-3.575.277-.117-.005-.3-.075-.415-.079-.262-.144-.366-.105-.776-.448-.417-.35-.384-.465-.511-.671-.357-1.075.04-1.408 1.042-1.533.191.182.132.375.025.57-.64.042-.7.113-.503.587.33.527.74.94 1.415.969.984.141 1.731.033 2.698-.186.057-.013.226-.038.377-.09"/><path fill="#C8A281" d="M103.05 38.013a.819.819 0 00-.488-.658c.034-.372-.016-.438-.006-.736l1.955-1.2c.15-.105.46-.327.644-.062.32.57.163.818-.242 1.183-.44.4-.91.75-1.382 1.09-.196.142-.365.137-.48.383"/><path fill="#AA303A" d="M120.109 53.269l-.598.506c-.727-.116-1.374.017-2.174-.41.031-.31.108-.517.25-.517.16 0 .318.036.477.056.632.056.7.13 1.053.138.342.008.685-.027.992.227"/><path fill="#010101" d="M104.402 35.428l-1.838.73c-.007-.24-.051-.484.136-.73.492.028 1.099.267 1.45-.196.111.108.128.149.252.196"/><path fill="#252626" d="M75.76 16.225c0 .346-.3.53-.631.441-.199-.054-.295-.248-.292-.457.004-.254.184-.383.399-.432.32-.073.525.118.525.448"/><path fill="#010101" d="M116.172 52.18c-.968.115-1.34.488-1.007 1.406-1.378.438-2.437.123-3.195-1.033-.794-1.212-1.56-2.437-1.827-3.885-.12-.648-.573-1.168-1.121-1.654a8.694 8.694 0 001.725-1.29c.24-.226.54-.4.888-.47.627-.124 1.03.112 1.178.698.117.462.152.937.264 1.404.262 1.087 1.772 1.299 2.44.506.424-.501.72-1.056.973-1.633.253-.58.54-1.141.877-1.726.24.244.478.45.894.52l-.679 1.905c-.29.225-.806.156-.88.65.096.377.376.554.786.718-.012.425-.252.797-.427 1.207-.479-.037-1.02-.271-1.305.328-.14.291-.056.444.42.843-.714.172-.868.614-.394 1.142.117.131.26.243.39.364m-14.973-1.609l-2.988.422c-.1-.088-.2-.312-.3-.4.265-.168.335-.116.54-.173a69.674 69.674 0 001.77-.505c.207-.063.41-.159.604-.264.232-.125.383-.332.329-.623-.057-.304-.283-.385-.546-.395-.843-.031-1.62.122-2.415.373-.354.112-.717.362-1.066.493-.233-.26-.03-.58-.107-.862.437.022.868.01 1.233-.301.23-.195.318-.312.324-.59-.06-.366-.326-.53-.621-.56l.394-.543c.583-.434 1.138-.903 1.63-1.453.803.82 1.445.796 2.18-.05.258-.296.425-.65.641-.972.528-.783 1.152-.79 1.693-.012.197.283.336.597.437.935.091.31.194.619.395.92-.293.214-.405.36-.345.767.027.184.044.324.044.324-.412.314-.967.891-1.393 1.256-.501.696-1.173 1.18-1.82 1.696-.208.167-.409.345-.613.517"/><path fill="#070604" d="M104.9 43.24c.426-.043.671-.087.855-.2.46-.283.2-.67-.196-.847-.376-.169-.59-.164-.956-.13-.38.035-1.032.187-1.125-.142.095-.283.344-.298.577-.35.592-.133 1.186-.261 1.77-.42.234-.063.465-.172.64-.356.197.18.408.338.709.426l-.25 2.178c-.593.08-.856.456-.986 1.104a8.434 8.434 0 00-1.039-1.262"/><path fill="#CAA282" d="M100.488 44.503c-.38-.166-.438-.566-.746-.789-.072.08-.036-.121-.101-.05-.037-.201-.173-.131-.304-.309.167-.4-.168-.678-.478-1.143.22-.46.325-.943.37-1.417.527.147.862.118 1.478 0-.228 1.145-.195 2.558-.219 3.708"/><path fill="#0A0504" d="M117.033 52.848c.785.292 1.432.21 2.152.292-.14.09-.306.169-.193.372-.041.039-.208.049-.256.059-.81.171-1.498.267-2.323.156.224-.282.487-.542.62-.88"/><path fill="#211D17" d="M101.688 44.315c-.186-.185.12-.275.341-.369.44-.186.926-.322 1.45-.37-.34.296-.465.554-.827.762-.329.19-.657.257-.964-.023"/><path fill="#EFE5C3" d="M97.823 48.325c.104.225.126.35.104.563a2.227 2.227 0 01-.916.251c.385-.257.618-.56.8-.927l.012.113"/><path fill="#B3323D" d="M100.707 44.86c-.263-.216-.344-.478-.419-.815-.233-.29-.284-.445-.455-.668l-.046-.076c-.14-.3-.734-1.37-1.036-1.58-.036.163-.14.556-.178.72.35.086.427.2.608.415l.021.025c.028.113.21.236.191.59-.238.595-.906.129-1.25.526-.083.428-.04.908-.208 1.392.51.172 1.059.307.824.969.696-.448 1.36-.932 1.948-1.499"/><path fill="#010101" d="M115.642 53.775c-.303-.748-.21-.86.771-.927-.124.425-.432.69-.771.927"/><path fill="#24221C" d="M92.391 49.575l1.848-.436c-.326.503-1.1.677-1.77.927-.027-.163-.052-.327-.078-.49"/><path fill="#EFE5C3" d="M98.397 50.066c.154.156.307.555.462.711-.462.209-.612.339-.923.045-.02-.458.23-.714.46-.756m10.351-4.549c-.315.248-.592.556-.643.914a.767.767 0 00.62.84c.178.032.367.006.535-.055.427-.155.715-.545.684-.933-.03-.387-.374-.744-.822-.853"/></g></svg>