<?xml version="1.0" encoding="UTF-8"?>
<svg width="31px" height="40px" viewBox="0 0 31 40" version="1.1" xmlns="http://www.w3.org/2000/svg" xmlns:xlink="http://www.w3.org/1999/xlink">
    <!-- Generator: Sketch 49.3 (51167) - http://www.bohemiancoding.com/sketch -->
    <title>Icon/Edit/Inactive</title>
    <desc>Created with Sketch.</desc>
    <defs></defs>
    <g id="Page-1" stroke="none" stroke-width="1" fill="none" fill-rule="evenodd">
        <g id="blocket-zendesk---start" transform="translate(-754.000000, -477.000000)" fill="#363433">
            <g id="Group-6" transform="translate(655.000000, 403.000000)">
                <g id="Icon/Edit/Inactive" transform="translate(94.000000, 74.000000)">
                    <path d="M32.2930411,1.23956558 C35.3849956,3.40504998 36.1403106,7.68268784 33.9748262,10.7758826 L18.0809645,33.4464951 L5,40 L6.86906357,25.5845217 L22.7579643,2.92011046 C23.8059794,1.42312325 25.3761416,0.423478099 27.1769912,0.104732686 C28.9753602,-0.210291964 30.7948136,0.190310248 32.2930411,1.23956558 Z M31.9432893,9.35207043 C33.3236926,7.38130599 32.8424738,4.65274603 30.8704691,3.27234274 C28.8997047,1.8906992 26.1711447,2.37315821 24.7895012,4.34392265 L9.25035226,26.5085113 L8.05970791,35.6938363 L16.4103416,31.5104578 L31.9432893,9.35207043 Z M30.7151893,35.9684286 C31.7433603,35.9684286 32.5755711,36.8018797 32.5755711,37.8288104 C32.5755711,38.8569814 31.7433603,39.6891922 30.7151893,39.6891922 C29.6870183,39.6891922 28.8548075,38.8569814 28.8548075,37.8288104 C28.8548075,36.8018797 29.6870183,35.9684286 30.7151893,35.9684286 Z M23.2736621,35.9684286 C24.3018331,35.9684286 25.1340439,36.8018797 25.1340439,37.8288104 C25.1340439,38.8569814 24.3018331,39.6891922 23.2736621,39.6891922 C22.2454911,39.6891922 21.4132803,38.8569814 21.4132803,37.8288104 C21.4132803,36.8018797 22.2454911,35.9684286 23.2736621,35.9684286 Z" id="Combined-Shape"></path>
                </g>
            </g>
        </g>
    </g>
</svg>