<?xml version="1.0" encoding="UTF-8"?>
<svg width="40px" height="40px" viewBox="0 0 40 40" version="1.1" xmlns="http://www.w3.org/2000/svg" xmlns:xlink="http://www.w3.org/1999/xlink">
    <!-- Generator: Sketch 49.3 (51167) - http://www.bohemiancoding.com/sketch -->
    <title>Icon/Customer/Inactive</title>
    <desc>Created with Sketch.</desc>
    <defs></defs>
    <g id="Page-1" stroke="none" stroke-width="1" fill="none" fill-rule="evenodd">
        <g id="blocket-zendesk---start" transform="translate(-997.000000, -477.000000)" fill="#363433">
            <g id="Group-7" transform="translate(904.000000, 403.000000)">
                <g id="Group-5" transform="translate(61.000000, 74.000000)">
                    <g id="Icon/Customer/Inactive" transform="translate(32.000000, 0.000000)">
                        <path d="M20,0 C32.71,0 40,7.29 40,20 C40,32.71 32.71,40 20,40 C7.29,40 0,32.71 0,20 C0,7.29 7.29,0 20,0 Z M20,37.5 C31.285,37.5 37.5,31.285 37.5,20 C37.5,8.715 31.285,2.5 20,2.5 C8.715,2.5 2.5,8.715 2.5,20 C2.5,31.285 8.715,37.5 20,37.5 Z M19.902375,27.722125 C20.419875,27.722125 20.863625,27.898375 21.257375,28.257125 C21.631125,28.599625 21.812375,29.009625 21.812375,29.508375 C21.812375,30.017125 21.631125,30.442125 21.254875,30.809625 C20.694875,31.362125 19.864875,31.507125 19.172375,31.218375 C18.929875,31.118375 18.723625,30.988375 18.546125,30.828375 C18.374875,30.670875 18.236125,30.480875 18.133625,30.260875 C18.034875,30.047125 17.986125,29.822125 17.986125,29.573375 C17.986125,29.065875 18.167375,28.639625 18.538625,28.275875 C18.924875,27.903375 19.369875,27.722125 19.902375,27.722125 Z M24.5935,10.802 C25.14975,11.26325 25.57975,11.822 25.906,12.5095 C26.226,13.182 26.38725,13.97825 26.38725,14.877 C26.38725,15.49075 26.31975,16.0295 26.186,16.4795 C26.05725,16.9245 25.86975,17.33825 25.6285,17.70825 C25.376,18.0995 25.06725,18.47575 24.7085,18.832 C24.3285,19.21325 23.90225,19.6095 23.4285,20.0195 C22.9885,20.397 22.63475,20.72575 22.3485,21.0195 C22.04225,21.3445 21.80725,21.65075 21.62725,21.96075 C21.436,22.292 21.301,22.65575 21.22725,23.03325 C21.15225,23.387 21.11725,23.81325 21.11725,24.3345 L21.11725,24.537 L18.61975,24.537 L18.61975,23.95575 C18.61975,23.49325 18.6535,23.0695 18.7185,22.7045 C18.786,22.3495 18.88975,22.012 19.0285,21.70075 C19.16225,21.39575 19.34475,21.09325 19.57975,20.7845 C19.826,20.4745 20.141,20.13325 20.51975,19.77325 L21.93975,18.42075 C22.3835,18.0195 22.766,17.572 23.07725,17.08825 C23.4285,16.542 23.60725,15.882 23.60725,15.132 C23.60725,14.152 23.28975,13.3095 22.66225,12.627 C22.02225,11.937 21.126,11.587 19.99475,11.587 C19.4185,11.587 18.8885,11.697 18.41975,11.912 C17.95475,12.122 17.54725,12.41575 17.20975,12.78075 C16.871,13.13825 16.60725,13.567 16.421,14.0645 C16.32975,14.3195 16.25975,14.57825 16.211,14.83575 L13.57725,14.60075 C13.7135,13.9145 13.92725,13.29075 14.216,12.737 C14.5885,12.022 15.07725,11.407 15.6685,10.91325 C16.2585,10.41575 16.9485,10.03325 17.71975,9.77325 C19.2335,9.26325 21.07725,9.23825 22.64225,9.7395 C23.3785,9.98075 24.036,10.33825 24.5935,10.802 Z" id="Combined-Shape"></path>
                    </g>
                </g>
            </g>
        </g>
    </g>
</svg>