<?xml version="1.0" encoding="UTF-8" standalone="no"?>
<svg width="44px" height="44px" viewBox="0 0 44 44" version="1.1" xmlns="http://www.w3.org/2000/svg" xmlns:xlink="http://www.w3.org/1999/xlink">
    <!-- Generator: sketchtool 3.7.2 (28276) - http://www.bohemiancoding.com/sketch -->
    <title>A8BDB814-7D65-4CB0-9803-6457E631E315</title>
    <desc>Created with sketchtool.</desc>
    <defs>
        <polygon id="path-1" points="43.8391593 43.7674274 43.8391593 0.00524900734 3.09309698e-05 0.00524900734 3.09309698e-05 43.7674274 43.8391593 43.7674274"></polygon>
    </defs>
    <g id="Page-1" stroke="none" stroke-width="1" fill="none" fill-rule="evenodd">
        <g id="Icons-&amp;-symbols" transform="translate(-96.000000, -1358.000000)">
            <g id="Group-66" transform="translate(96.000000, 1358.000000)">
                <g id="Page-1">
                    <g id="Group-3">
                        <mask id="mask-2" fill="white">
                            <use xlink:href="#path-1"></use>
                        </mask>
                        <g id="Clip-2"></g>
                        <path d="M38.2228221,5.61169831 C34.2646632,1.57961157 28.0920016,0.0469786157 21.9195719,0.00521813083 C15.7469876,0.0469786157 9.57463528,1.57976595 5.61663107,5.61162112 C1.57696909,9.56327455 0.0417877401,15.7246829 3.09309698e-05,21.8864 C0.0420197224,28.0480399 1.57735573,34.2098341 5.61663107,38.1606385 C9.57424864,42.193034 15.7469876,43.7255897 21.9194946,43.7674274 C28.0920789,43.7255126 34.2643539,42.193034 38.2228221,38.1606385 C42.2620974,34.2094482 43.7973561,28.0478855 43.8391903,21.8862456 C43.7973561,15.7244513 42.2620201,9.56265702 38.2228221,5.61169831" id="Fill-1" fill="#EF404F" mask="url(#mask-2)"></path>
                    </g>
                    <path d="M23.9359802,25.4943226 C23.4393834,25.9999255 22.6650266,26.1919774 21.8906698,26.1972264 C21.5421551,26.1949107 21.1949549,26.1519924 20.8717263,26.0622961 L20.8717263,20.8458635 C21.1949549,20.7561672 21.5421551,20.7132488 21.8906698,20.7108559 C22.6650266,20.7161049 23.4393834,20.908234 23.9359802,21.4137597 C24.4427068,21.909019 24.6353294,22.6815494 24.6405876,23.4540026 C24.6353294,24.226533 24.4427068,24.9989861 23.9359802,25.4943226 M28.1115837,17.9177665 C26.7642307,16.5461545 24.6629353,16.0248046 22.5617172,16.0105242 C21.9932833,16.0143838 21.425236,16.0565302 20.8717263,16.1414406 L20.8717263,12.1846154 L15.9076923,12.1846154 L15.9076923,30.8975581 L22.5617172,30.8975581 C24.6629353,30.8833549 26.764076,30.362005 28.1115837,28.9902387 C29.48662,27.6461069 30.0092761,25.5501319 30.0235043,23.4540026 C30.0092761,21.3578732 29.48662,19.2618211 28.1115837,17.9177665" id="Fill-5" fill-opacity="0.100713315" fill="#000000"></path>
                    <path d="M23.5975186,25.1558611 C23.1009219,25.661464 22.3265651,25.8535159 21.5522082,25.8587649 C21.2036935,25.8564492 20.8564934,25.8135308 20.5332648,25.7238345 L20.5332648,20.5074019 C20.8564934,20.4177056 21.2036935,20.3747873 21.5522082,20.3723944 C22.3265651,20.3776434 23.1009219,20.5697725 23.5975186,21.0752982 C24.1042452,21.5705575 24.2968678,22.3430879 24.3021261,23.115541 C24.2968678,23.8880714 24.1042452,24.6605246 23.5975186,25.1558611 M27.7731222,17.5793049 C26.4257692,16.207693 24.3244737,15.6863431 22.2232556,15.6720627 C21.6548217,15.6759222 21.0867745,15.7180687 20.5332648,15.8029791 L20.5332648,11.8461538 L15.5692308,11.8461538 L15.5692308,30.5590966 L22.2232556,30.5590966 C24.3244737,30.5448934 26.4256145,30.0235435 27.7731222,28.6517772 C29.1481585,27.3076453 29.6708145,25.2116704 29.6850428,23.115541 C29.6708145,21.0194117 29.1481585,18.9233596 27.7731222,17.5793049" id="Fill-5-Copy" fill="#FFFFFF"></path>
                </g>
            </g>
        </g>
    </g>
</svg>