<svg xmlns="http://www.w3.org/2000/svg" width="28" height="34" viewBox="0 0 28 34">  <g fill="none">    <path fill="#4182C3" d="M13.3735351,0.185091305 C9.55887783,2.68560947 5.76491101,4.10006959 1.93134098,4.94185249 C1.53120022,5.03108011 1.21036649,5.32888247 1.09207023,5.72087542 C-0.479841383,10.8628875 -0.392729407,16.7424124 1.60036842,21.9505159 C3.59342842,27.1586194 7.55484844,31.696933 13.6099441,33.930963 C13.8618118,34.0230123 14.1381882,34.0230123 14.3900559,33.930963 C20.4451515,31.6969708 24.4065715,27.1586194 26.3996315,21.9505159 C28.3927294,16.7424124 28.4798414,10.8628875 26.9079299,5.72087542 C26.7896334,5.32888247 26.4687997,5.03108011 26.068659,4.94185249 C22.2350511,4.10006959 18.4411221,2.68560947 14.6264648,0.185091305 C14.4030136,0.0390265493 14.1351331,-0.0236672766 13.8699562,0.0080406406 C13.6928597,0.0273329508 13.5227989,0.0879858627 13.3735351,0.185091305 Z"/>    <g transform="translate(5.353 8.293)">      <path fill="#34689C" d="M2.13162821e-14,8.70731707 C2.13162821e-14,14.2408171 3.15185295,17.4146341 8.64705881,17.4146341 C14.1422647,17.4146341 17.2941176,14.2408171 17.2941176,8.70731707 C17.2941176,3.17381707 14.1422647,2.13162821e-14 8.64705881,2.13162821e-14 C3.15185295,2.13162821e-14 2.13162821e-14,3.17381707 2.13162821e-14,8.70731707 Z"/>      <path fill="#FFF" d="M1.02635115,13.4355475 C3.05100703,12.5289654 5.58005467,12.0756743 8.61349415,12.0756743 C11.6469336,12.0756743 14.1940298,12.5289654 16.2547829,13.4355475 C15.7043028,14.5053147 14.9173876,15.3756334 13.8940374,16.0465037 C12.4510585,16.9440208 10.9245829,17.4063769 8.39014362,17.4063769 C6.02441224,17.4063769 4.18000333,16.5929195 3.39521813,16.0465037 C2.39352595,15.4118962 1.60390362,14.5415775 1.02635115,13.4355475 Z"/>      <ellipse cx="8.647" cy="6.772" fill="#FFF" rx="3.363" ry="3.386"/>    </g>  </g></svg>